<svg width="1372" height="138" viewBox="0 0 1372 138" fill="none" xmlns="http://www.w3.org/2000/svg">
<g opacity="0.06">
<circle cx="4.84753" cy="4.45654" r="4" fill="#B9D0FF"/>
<circle cx="28.7477" cy="4.45654" r="4" fill="#B9D0FF"/>
<circle cx="28.7477" cy="26.5479" r="3.5" fill="#B9D0FF"/>
<circle cx="52.6479" cy="4.45654" r="4" fill="#B9D0FF"/>
<circle cx="52.6479" cy="26.5479" r="3.5" fill="#B9D0FF"/>
<circle cx="52.6479" cy="48.6392" r="3" fill="#B9D0FF"/>
<circle cx="76.5481" cy="4.45654" r="4" fill="#B9D0FF"/>
<circle cx="76.5481" cy="26.5479" r="3.5" fill="#B9D0FF"/>
<circle cx="76.5481" cy="48.6392" r="3" fill="#B9D0FF"/>
<circle cx="76.5481" cy="70.7305" r="2.5" fill="#B9D0FF"/>
<circle cx="100.448" cy="4.45654" r="4" fill="#B9D0FF"/>
<circle cx="100.448" cy="26.5479" r="3.5" fill="#B9D0FF"/>
<circle cx="100.448" cy="48.6392" r="3" fill="#B9D0FF"/>
<circle cx="100.448" cy="70.7305" r="2.5" fill="#B9D0FF"/>
<circle cx="100.448" cy="92.8218" r="2" fill="#B9D0FF"/>
<circle cx="124.348" cy="4.45654" r="4" fill="#B9D0FF"/>
<circle cx="124.348" cy="26.5479" r="3.5" fill="#B9D0FF"/>
<circle cx="124.348" cy="48.6392" r="3" fill="#B9D0FF"/>
<circle cx="124.348" cy="70.7305" r="2.5" fill="#B9D0FF"/>
<circle cx="124.348" cy="92.8218" r="2" fill="#B9D0FF"/>
<circle cx="124.348" cy="114.913" r="1.5" fill="#B9D0FF"/>
<circle cx="148.249" cy="4.45654" r="4" fill="#B9D0FF"/>
<circle cx="148.249" cy="26.5479" r="3.5" fill="#B9D0FF"/>
<circle cx="148.249" cy="48.6392" r="3" fill="#B9D0FF"/>
<circle cx="148.249" cy="70.7305" r="2.5" fill="#B9D0FF"/>
<circle cx="148.249" cy="92.8218" r="2" fill="#B9D0FF"/>
<circle cx="148.249" cy="114.913" r="1.5" fill="#B9D0FF"/>
<circle cx="148.249" cy="137.004" r="1" fill="#B9D0FF"/>
<circle cx="172.149" cy="4.45654" r="4" fill="#B9D0FF"/>
<circle cx="172.149" cy="26.5479" r="3.5" fill="#B9D0FF"/>
<circle cx="172.149" cy="48.6392" r="3" fill="#B9D0FF"/>
<circle cx="172.149" cy="70.7305" r="2.5" fill="#B9D0FF"/>
<circle cx="172.149" cy="92.8218" r="2" fill="#B9D0FF"/>
<circle cx="172.149" cy="114.913" r="1.5" fill="#B9D0FF"/>
<circle cx="172.149" cy="137.004" r="1" fill="#B9D0FF"/>
<circle cx="196.049" cy="4.45654" r="4" fill="#B9D0FF"/>
<circle cx="196.049" cy="26.5479" r="3.5" fill="#B9D0FF"/>
<circle cx="196.049" cy="48.6392" r="3" fill="#B9D0FF"/>
<circle cx="196.049" cy="70.7305" r="2.5" fill="#B9D0FF"/>
<circle cx="196.049" cy="92.8218" r="2" fill="#B9D0FF"/>
<circle cx="196.049" cy="114.913" r="1.5" fill="#B9D0FF"/>
<circle cx="196.049" cy="137.004" r="1" fill="#B9D0FF"/>
<circle cx="219.949" cy="4.45654" r="4" fill="#B9D0FF"/>
<circle cx="219.949" cy="26.5479" r="3.5" fill="#B9D0FF"/>
<circle cx="219.949" cy="48.6392" r="3" fill="#B9D0FF"/>
<circle cx="219.949" cy="70.7305" r="2.5" fill="#B9D0FF"/>
<circle cx="219.949" cy="92.8218" r="2" fill="#B9D0FF"/>
<circle cx="219.949" cy="114.913" r="1.5" fill="#B9D0FF"/>
<circle cx="219.949" cy="137.004" r="1" fill="#B9D0FF"/>
<circle cx="243.849" cy="4.45654" r="4" fill="#B9D0FF"/>
<circle cx="243.849" cy="26.5479" r="3.5" fill="#B9D0FF"/>
<circle cx="243.849" cy="48.6392" r="3" fill="#B9D0FF"/>
<circle cx="243.849" cy="70.7305" r="2.5" fill="#B9D0FF"/>
<circle cx="243.849" cy="92.8218" r="2" fill="#B9D0FF"/>
<circle cx="243.849" cy="114.913" r="1.5" fill="#B9D0FF"/>
<circle cx="243.849" cy="137.004" r="1" fill="#B9D0FF"/>
<circle cx="267.749" cy="4.45654" r="4" fill="#B9D0FF"/>
<circle cx="267.749" cy="26.5479" r="3.5" fill="#B9D0FF"/>
<circle cx="267.749" cy="48.6392" r="3" fill="#B9D0FF"/>
<circle cx="267.749" cy="70.7305" r="2.5" fill="#B9D0FF"/>
<circle cx="267.749" cy="92.8218" r="2" fill="#B9D0FF"/>
<circle cx="267.749" cy="114.913" r="1.5" fill="#B9D0FF"/>
<circle cx="267.749" cy="137.004" r="1" fill="#B9D0FF"/>
<circle cx="291.65" cy="4.45654" r="4" fill="#B9D0FF"/>
<circle cx="291.65" cy="26.5479" r="3.5" fill="#B9D0FF"/>
<circle cx="291.65" cy="48.6392" r="3" fill="#B9D0FF"/>
<circle cx="291.65" cy="70.7305" r="2.5" fill="#B9D0FF"/>
<circle cx="291.65" cy="92.8218" r="2" fill="#B9D0FF"/>
<circle cx="291.65" cy="114.913" r="1.5" fill="#B9D0FF"/>
<circle cx="291.65" cy="137.004" r="1" fill="#B9D0FF"/>
<circle cx="315.55" cy="4.45654" r="4" fill="#B9D0FF"/>
<circle cx="315.55" cy="26.5479" r="3.5" fill="#B9D0FF"/>
<circle cx="315.55" cy="48.6392" r="3" fill="#B9D0FF"/>
<circle cx="315.55" cy="70.7305" r="2.5" fill="#B9D0FF"/>
<circle cx="315.55" cy="92.8218" r="2" fill="#B9D0FF"/>
<circle cx="315.55" cy="114.913" r="1.5" fill="#B9D0FF"/>
<circle cx="315.55" cy="137.004" r="1" fill="#B9D0FF"/>
<circle cx="339.45" cy="4.45654" r="4" fill="#B9D0FF"/>
<circle cx="339.45" cy="26.5479" r="3.5" fill="#B9D0FF"/>
<circle cx="339.45" cy="48.6392" r="3" fill="#B9D0FF"/>
<circle cx="339.45" cy="70.7305" r="2.5" fill="#B9D0FF"/>
<circle cx="339.45" cy="92.8218" r="2" fill="#B9D0FF"/>
<circle cx="339.45" cy="114.913" r="1.5" fill="#B9D0FF"/>
<circle cx="339.45" cy="137.004" r="1" fill="#B9D0FF"/>
<circle cx="363.35" cy="4.45654" r="4" fill="#B9D0FF"/>
<circle cx="363.35" cy="26.5479" r="3.5" fill="#B9D0FF"/>
<circle cx="363.35" cy="48.6392" r="3" fill="#B9D0FF"/>
<circle cx="363.35" cy="70.7305" r="2.5" fill="#B9D0FF"/>
<circle cx="363.35" cy="92.8218" r="2" fill="#B9D0FF"/>
<circle cx="363.35" cy="114.913" r="1.5" fill="#B9D0FF"/>
<circle cx="363.35" cy="137.004" r="1" fill="#B9D0FF"/>
<circle cx="387.25" cy="4.45654" r="4" fill="#B9D0FF"/>
<circle cx="387.25" cy="26.5479" r="3.5" fill="#B9D0FF"/>
<circle cx="387.25" cy="48.6392" r="3" fill="#B9D0FF"/>
<circle cx="387.25" cy="70.7305" r="2.5" fill="#B9D0FF"/>
<circle cx="387.25" cy="92.8218" r="2" fill="#B9D0FF"/>
<circle cx="387.25" cy="114.913" r="1.5" fill="#B9D0FF"/>
<circle cx="387.25" cy="137.004" r="1" fill="#B9D0FF"/>
<circle cx="411.151" cy="4.45654" r="4" fill="#B9D0FF"/>
<circle cx="411.151" cy="26.5479" r="3.5" fill="#B9D0FF"/>
<circle cx="411.151" cy="48.6392" r="3" fill="#B9D0FF"/>
<circle cx="411.151" cy="70.7305" r="2.5" fill="#B9D0FF"/>
<circle cx="411.151" cy="92.8218" r="2" fill="#B9D0FF"/>
<circle cx="411.151" cy="114.913" r="1.5" fill="#B9D0FF"/>
<circle cx="411.151" cy="137.004" r="1" fill="#B9D0FF"/>
<circle cx="435.051" cy="4.45654" r="4" fill="#B9D0FF"/>
<circle cx="435.051" cy="26.5479" r="3.5" fill="#B9D0FF"/>
<circle cx="435.051" cy="48.6392" r="3" fill="#B9D0FF"/>
<circle cx="435.051" cy="70.7305" r="2.5" fill="#B9D0FF"/>
<circle cx="435.051" cy="92.8218" r="2" fill="#B9D0FF"/>
<circle cx="435.051" cy="114.913" r="1.5" fill="#B9D0FF"/>
<circle cx="435.051" cy="137.004" r="1" fill="#B9D0FF"/>
<circle cx="458.951" cy="4.45654" r="4" fill="#B9D0FF"/>
<circle cx="458.951" cy="26.5479" r="3.5" fill="#B9D0FF"/>
<circle cx="458.951" cy="48.6392" r="3" fill="#B9D0FF"/>
<circle cx="458.951" cy="70.7305" r="2.5" fill="#B9D0FF"/>
<circle cx="458.951" cy="92.8218" r="2" fill="#B9D0FF"/>
<circle cx="458.951" cy="114.913" r="1.5" fill="#B9D0FF"/>
<circle cx="458.951" cy="137.004" r="1" fill="#B9D0FF"/>
<circle cx="482.851" cy="4.45654" r="4" fill="#B9D0FF"/>
<circle cx="482.851" cy="26.5479" r="3.5" fill="#B9D0FF"/>
<circle cx="482.851" cy="48.6392" r="3" fill="#B9D0FF"/>
<circle cx="482.851" cy="70.7305" r="2.5" fill="#B9D0FF"/>
<circle cx="482.851" cy="92.8218" r="2" fill="#B9D0FF"/>
<circle cx="482.851" cy="114.913" r="1.5" fill="#B9D0FF"/>
<circle cx="482.851" cy="137.004" r="1" fill="#B9D0FF"/>
<circle cx="506.751" cy="4.45654" r="4" fill="#B9D0FF"/>
<circle cx="506.751" cy="26.5479" r="3.5" fill="#B9D0FF"/>
<circle cx="506.751" cy="48.6392" r="3" fill="#B9D0FF"/>
<circle cx="506.751" cy="70.7305" r="2.5" fill="#B9D0FF"/>
<circle cx="506.751" cy="92.8218" r="2" fill="#B9D0FF"/>
<circle cx="506.751" cy="114.913" r="1.5" fill="#B9D0FF"/>
<circle cx="506.751" cy="137.004" r="1" fill="#B9D0FF"/>
<circle cx="530.651" cy="4.45654" r="4" fill="#B9D0FF"/>
<circle cx="530.651" cy="26.5479" r="3.5" fill="#B9D0FF"/>
<circle cx="530.651" cy="48.6392" r="3" fill="#B9D0FF"/>
<circle cx="530.651" cy="70.7305" r="2.5" fill="#B9D0FF"/>
<circle cx="530.651" cy="92.8218" r="2" fill="#B9D0FF"/>
<circle cx="530.651" cy="114.913" r="1.5" fill="#B9D0FF"/>
<circle cx="530.651" cy="137.004" r="1" fill="#B9D0FF"/>
<circle cx="554.552" cy="4.45654" r="4" fill="#B9D0FF"/>
<circle cx="554.552" cy="26.5479" r="3.5" fill="#B9D0FF"/>
<circle cx="554.552" cy="48.6392" r="3" fill="#B9D0FF"/>
<circle cx="554.552" cy="70.7305" r="2.5" fill="#B9D0FF"/>
<circle cx="554.552" cy="92.8218" r="2" fill="#B9D0FF"/>
<circle cx="554.552" cy="114.913" r="1.5" fill="#B9D0FF"/>
<circle cx="554.552" cy="137.004" r="1" fill="#B9D0FF"/>
<circle cx="578.452" cy="4.45654" r="4" fill="#B9D0FF"/>
<circle cx="578.452" cy="26.5479" r="3.5" fill="#B9D0FF"/>
<circle cx="578.452" cy="48.6392" r="3" fill="#B9D0FF"/>
<circle cx="578.452" cy="70.7305" r="2.5" fill="#B9D0FF"/>
<circle cx="578.452" cy="92.8218" r="2" fill="#B9D0FF"/>
<circle cx="578.452" cy="114.913" r="1.5" fill="#B9D0FF"/>
<circle cx="578.452" cy="137.004" r="1" fill="#B9D0FF"/>
<circle cx="602.352" cy="4.45654" r="4" fill="#B9D0FF"/>
<circle cx="602.352" cy="26.5479" r="3.5" fill="#B9D0FF"/>
<circle cx="602.352" cy="48.6392" r="3" fill="#B9D0FF"/>
<circle cx="602.352" cy="70.7305" r="2.5" fill="#B9D0FF"/>
<circle cx="602.352" cy="92.8218" r="2" fill="#B9D0FF"/>
<circle cx="602.352" cy="114.913" r="1.5" fill="#B9D0FF"/>
<circle cx="602.352" cy="137.004" r="1" fill="#B9D0FF"/>
<circle cx="626.252" cy="4.45654" r="4" fill="#B9D0FF"/>
<circle cx="626.252" cy="26.5479" r="3.5" fill="#B9D0FF"/>
<circle cx="626.252" cy="48.6392" r="3" fill="#B9D0FF"/>
<circle cx="626.252" cy="70.7305" r="2.5" fill="#B9D0FF"/>
<circle cx="626.252" cy="92.8218" r="2" fill="#B9D0FF"/>
<circle cx="626.252" cy="114.913" r="1.5" fill="#B9D0FF"/>
<circle cx="626.252" cy="137.004" r="1" fill="#B9D0FF"/>
<circle cx="650.152" cy="4.45654" r="4" fill="#B9D0FF"/>
<circle cx="650.152" cy="26.5479" r="3.5" fill="#B9D0FF"/>
<circle cx="650.152" cy="48.6392" r="3" fill="#B9D0FF"/>
<circle cx="650.152" cy="70.7305" r="2.5" fill="#B9D0FF"/>
<circle cx="650.152" cy="92.8218" r="2" fill="#B9D0FF"/>
<circle cx="650.152" cy="114.913" r="1.5" fill="#B9D0FF"/>
<circle cx="650.152" cy="137.004" r="1" fill="#B9D0FF"/>
<circle cx="674.052" cy="4.45654" r="4" fill="#B9D0FF"/>
<circle cx="674.052" cy="26.5479" r="3.5" fill="#B9D0FF"/>
<circle cx="674.052" cy="48.6392" r="3" fill="#B9D0FF"/>
<circle cx="674.052" cy="70.7305" r="2.5" fill="#B9D0FF"/>
<circle cx="674.052" cy="92.8218" r="2" fill="#B9D0FF"/>
<circle cx="674.052" cy="114.913" r="1.5" fill="#B9D0FF"/>
<circle cx="674.052" cy="137.004" r="1" fill="#B9D0FF"/>
<circle cx="697.953" cy="4.45654" r="4" fill="#B9D0FF"/>
<circle cx="697.953" cy="26.5479" r="3.5" fill="#B9D0FF"/>
<circle cx="697.953" cy="48.6392" r="3" fill="#B9D0FF"/>
<circle cx="697.953" cy="70.7305" r="2.5" fill="#B9D0FF"/>
<circle cx="697.953" cy="92.8218" r="2" fill="#B9D0FF"/>
<circle cx="697.953" cy="114.913" r="1.5" fill="#B9D0FF"/>
<circle cx="697.953" cy="137.004" r="1" fill="#B9D0FF"/>
<circle cx="721.853" cy="4.45654" r="4" fill="#B9D0FF"/>
<circle cx="721.853" cy="26.5479" r="3.5" fill="#B9D0FF"/>
<circle cx="721.853" cy="48.6392" r="3" fill="#B9D0FF"/>
<circle cx="721.853" cy="70.7305" r="2.5" fill="#B9D0FF"/>
<circle cx="721.853" cy="92.8218" r="2" fill="#B9D0FF"/>
<circle cx="721.853" cy="114.913" r="1.5" fill="#B9D0FF"/>
<circle cx="721.853" cy="137.004" r="1" fill="#B9D0FF"/>
<circle cx="745.753" cy="4.45654" r="4" fill="#B9D0FF"/>
<circle cx="745.753" cy="26.5479" r="3.5" fill="#B9D0FF"/>
<circle cx="745.753" cy="48.6392" r="3" fill="#B9D0FF"/>
<circle cx="745.753" cy="70.7305" r="2.5" fill="#B9D0FF"/>
<circle cx="745.753" cy="92.8218" r="2" fill="#B9D0FF"/>
<circle cx="745.753" cy="114.913" r="1.5" fill="#B9D0FF"/>
<circle cx="745.753" cy="137.004" r="1" fill="#B9D0FF"/>
<circle cx="769.653" cy="4.45654" r="4" fill="#B9D0FF"/>
<circle cx="769.653" cy="26.5479" r="3.5" fill="#B9D0FF"/>
<circle cx="769.653" cy="48.6392" r="3" fill="#B9D0FF"/>
<circle cx="769.653" cy="70.7305" r="2.5" fill="#B9D0FF"/>
<circle cx="769.653" cy="92.8218" r="2" fill="#B9D0FF"/>
<circle cx="769.653" cy="114.913" r="1.5" fill="#B9D0FF"/>
<circle cx="769.653" cy="137.004" r="1" fill="#B9D0FF"/>
<circle cx="793.553" cy="4.45654" r="4" fill="#B9D0FF"/>
<circle cx="793.553" cy="26.5479" r="3.5" fill="#B9D0FF"/>
<circle cx="793.553" cy="48.6392" r="3" fill="#B9D0FF"/>
<circle cx="793.553" cy="70.7305" r="2.5" fill="#B9D0FF"/>
<circle cx="793.553" cy="92.8218" r="2" fill="#B9D0FF"/>
<circle cx="793.553" cy="114.913" r="1.5" fill="#B9D0FF"/>
<circle cx="793.553" cy="137.004" r="1" fill="#B9D0FF"/>
<circle cx="817.453" cy="4.45654" r="4" fill="#B9D0FF"/>
<circle cx="817.453" cy="26.5479" r="3.5" fill="#B9D0FF"/>
<circle cx="817.453" cy="48.6392" r="3" fill="#B9D0FF"/>
<circle cx="817.453" cy="70.7305" r="2.5" fill="#B9D0FF"/>
<circle cx="817.453" cy="92.8218" r="2" fill="#B9D0FF"/>
<circle cx="817.453" cy="114.913" r="1.5" fill="#B9D0FF"/>
<circle cx="817.453" cy="137.004" r="1" fill="#B9D0FF"/>
<circle cx="841.353" cy="4.45654" r="4" fill="#B9D0FF"/>
<circle cx="841.353" cy="26.5479" r="3.5" fill="#B9D0FF"/>
<circle cx="841.353" cy="48.6392" r="3" fill="#B9D0FF"/>
<circle cx="841.353" cy="70.7305" r="2.5" fill="#B9D0FF"/>
<circle cx="841.353" cy="92.8218" r="2" fill="#B9D0FF"/>
<circle cx="841.353" cy="114.913" r="1.5" fill="#B9D0FF"/>
<circle cx="841.353" cy="137.004" r="1" fill="#B9D0FF"/>
<circle cx="865.253" cy="4.45654" r="4" fill="#B9D0FF"/>
<circle cx="865.253" cy="26.5479" r="3.5" fill="#B9D0FF"/>
<circle cx="865.253" cy="48.6392" r="3" fill="#B9D0FF"/>
<circle cx="865.253" cy="70.7305" r="2.5" fill="#B9D0FF"/>
<circle cx="865.253" cy="92.8218" r="2" fill="#B9D0FF"/>
<circle cx="865.253" cy="114.913" r="1.5" fill="#B9D0FF"/>
<circle cx="865.253" cy="137.004" r="1" fill="#B9D0FF"/>
<circle cx="889.153" cy="4.45654" r="4" fill="#B9D0FF"/>
<circle cx="889.153" cy="26.5479" r="3.5" fill="#B9D0FF"/>
<circle cx="889.153" cy="48.6392" r="3" fill="#B9D0FF"/>
<circle cx="889.153" cy="70.7305" r="2.5" fill="#B9D0FF"/>
<circle cx="889.153" cy="92.8218" r="2" fill="#B9D0FF"/>
<circle cx="889.153" cy="114.913" r="1.5" fill="#B9D0FF"/>
<circle cx="889.153" cy="137.004" r="1" fill="#B9D0FF"/>
<circle cx="913.053" cy="4.45654" r="4" fill="#B9D0FF"/>
<circle cx="913.053" cy="26.5479" r="3.5" fill="#B9D0FF"/>
<circle cx="913.053" cy="48.6392" r="3" fill="#B9D0FF"/>
<circle cx="913.053" cy="70.7305" r="2.5" fill="#B9D0FF"/>
<circle cx="913.053" cy="92.8218" r="2" fill="#B9D0FF"/>
<circle cx="913.053" cy="114.913" r="1.5" fill="#B9D0FF"/>
<circle cx="913.053" cy="137.004" r="1" fill="#B9D0FF"/>
<circle cx="936.953" cy="4.45654" r="4" fill="#B9D0FF"/>
<circle cx="936.953" cy="26.5479" r="3.5" fill="#B9D0FF"/>
<circle cx="936.953" cy="48.6392" r="3" fill="#B9D0FF"/>
<circle cx="936.953" cy="70.7305" r="2.5" fill="#B9D0FF"/>
<circle cx="936.953" cy="92.8218" r="2" fill="#B9D0FF"/>
<circle cx="936.953" cy="114.913" r="1.5" fill="#B9D0FF"/>
<circle cx="936.953" cy="137.004" r="1" fill="#B9D0FF"/>
<circle cx="960.852" cy="4.45654" r="4" fill="#B9D0FF"/>
<circle cx="960.852" cy="26.5479" r="3.5" fill="#B9D0FF"/>
<circle cx="960.852" cy="48.6392" r="3" fill="#B9D0FF"/>
<circle cx="960.852" cy="70.7305" r="2.5" fill="#B9D0FF"/>
<circle cx="960.852" cy="92.8218" r="2" fill="#B9D0FF"/>
<circle cx="960.852" cy="114.913" r="1.5" fill="#B9D0FF"/>
<circle cx="960.852" cy="137.004" r="1" fill="#B9D0FF"/>
<circle cx="984.752" cy="4.45654" r="4" fill="#B9D0FF"/>
<circle cx="984.752" cy="26.5479" r="3.5" fill="#B9D0FF"/>
<circle cx="984.752" cy="48.6392" r="3" fill="#B9D0FF"/>
<circle cx="984.752" cy="70.7305" r="2.5" fill="#B9D0FF"/>
<circle cx="984.752" cy="92.8218" r="2" fill="#B9D0FF"/>
<circle cx="984.752" cy="114.913" r="1.5" fill="#B9D0FF"/>
<circle cx="984.752" cy="137.004" r="1" fill="#B9D0FF"/>
<circle cx="1008.65" cy="4.45654" r="4" fill="#B9D0FF"/>
<circle cx="1008.65" cy="26.5479" r="3.5" fill="#B9D0FF"/>
<circle cx="1008.65" cy="48.6392" r="3" fill="#B9D0FF"/>
<circle cx="1008.65" cy="70.7305" r="2.5" fill="#B9D0FF"/>
<circle cx="1008.65" cy="92.8218" r="2" fill="#B9D0FF"/>
<circle cx="1008.65" cy="114.913" r="1.5" fill="#B9D0FF"/>
<circle cx="1008.65" cy="137.004" r="1" fill="#B9D0FF"/>
<circle cx="1032.55" cy="4.45654" r="4" fill="#B9D0FF"/>
<circle cx="1032.55" cy="26.5479" r="3.5" fill="#B9D0FF"/>
<circle cx="1032.55" cy="48.6392" r="3" fill="#B9D0FF"/>
<circle cx="1032.55" cy="70.7305" r="2.5" fill="#B9D0FF"/>
<circle cx="1032.55" cy="92.8218" r="2" fill="#B9D0FF"/>
<circle cx="1032.55" cy="114.913" r="1.5" fill="#B9D0FF"/>
<circle cx="1032.55" cy="137.004" r="1" fill="#B9D0FF"/>
<circle cx="1056.45" cy="4.45654" r="4" fill="#B9D0FF"/>
<circle cx="1056.45" cy="26.5479" r="3.5" fill="#B9D0FF"/>
<circle cx="1056.45" cy="48.6392" r="3" fill="#B9D0FF"/>
<circle cx="1056.45" cy="70.7305" r="2.5" fill="#B9D0FF"/>
<circle cx="1056.45" cy="92.8218" r="2" fill="#B9D0FF"/>
<circle cx="1056.45" cy="114.913" r="1.5" fill="#B9D0FF"/>
<circle cx="1056.45" cy="137.004" r="1" fill="#B9D0FF"/>
<circle cx="1080.35" cy="4.45654" r="4" fill="#B9D0FF"/>
<circle cx="1080.35" cy="26.5479" r="3.5" fill="#B9D0FF"/>
<circle cx="1080.35" cy="48.6392" r="3" fill="#B9D0FF"/>
<circle cx="1080.35" cy="70.7305" r="2.5" fill="#B9D0FF"/>
<circle cx="1080.35" cy="92.8218" r="2" fill="#B9D0FF"/>
<circle cx="1080.35" cy="114.913" r="1.5" fill="#B9D0FF"/>
<circle cx="1080.35" cy="137.004" r="1" fill="#B9D0FF"/>
<circle cx="1104.25" cy="4.45654" r="4" fill="#B9D0FF"/>
<circle cx="1104.25" cy="26.5479" r="3.5" fill="#B9D0FF"/>
<circle cx="1104.25" cy="48.6392" r="3" fill="#B9D0FF"/>
<circle cx="1104.25" cy="70.7305" r="2.5" fill="#B9D0FF"/>
<circle cx="1104.25" cy="92.8218" r="2" fill="#B9D0FF"/>
<circle cx="1104.25" cy="114.913" r="1.5" fill="#B9D0FF"/>
<circle cx="1104.25" cy="137.004" r="1" fill="#B9D0FF"/>
<circle cx="1128.15" cy="4.45654" r="4" fill="#B9D0FF"/>
<circle cx="1128.15" cy="26.5479" r="3.5" fill="#B9D0FF"/>
<circle cx="1128.15" cy="48.6392" r="3" fill="#B9D0FF"/>
<circle cx="1128.15" cy="70.7305" r="2.5" fill="#B9D0FF"/>
<circle cx="1128.15" cy="92.8218" r="2" fill="#B9D0FF"/>
<circle cx="1128.15" cy="114.913" r="1.5" fill="#B9D0FF"/>
<circle cx="1128.15" cy="137.004" r="1" fill="#B9D0FF"/>
<circle cx="1152.05" cy="4.45654" r="4" fill="#B9D0FF"/>
<circle cx="1152.05" cy="26.5479" r="3.5" fill="#B9D0FF"/>
<circle cx="1152.05" cy="48.6392" r="3" fill="#B9D0FF"/>
<circle cx="1152.05" cy="70.7305" r="2.5" fill="#B9D0FF"/>
<circle cx="1152.05" cy="92.8218" r="2" fill="#B9D0FF"/>
<circle cx="1152.05" cy="114.913" r="1.5" fill="#B9D0FF"/>
<circle cx="1152.05" cy="137.004" r="1" fill="#B9D0FF"/>
<circle cx="1175.95" cy="4.45654" r="4" fill="#B9D0FF"/>
<circle cx="1175.95" cy="26.5479" r="3.5" fill="#B9D0FF"/>
<circle cx="1175.95" cy="48.6392" r="3" fill="#B9D0FF"/>
<circle cx="1175.95" cy="70.7305" r="2.5" fill="#B9D0FF"/>
<circle cx="1175.95" cy="92.8218" r="2" fill="#B9D0FF"/>
<circle cx="1175.95" cy="114.913" r="1.5" fill="#B9D0FF"/>
<circle cx="1175.95" cy="137.004" r="1" fill="#B9D0FF"/>
<circle cx="1199.85" cy="4.45654" r="4" fill="#B9D0FF"/>
<circle cx="1199.85" cy="26.5479" r="3.5" fill="#B9D0FF"/>
<circle cx="1199.85" cy="48.6392" r="3" fill="#B9D0FF"/>
<circle cx="1199.85" cy="70.7305" r="2.5" fill="#B9D0FF"/>
<circle cx="1199.85" cy="92.8218" r="2" fill="#B9D0FF"/>
<circle cx="1199.85" cy="114.913" r="1.5" fill="#B9D0FF"/>
<circle cx="1199.85" cy="137.004" r="1" fill="#B9D0FF"/>
<circle cx="1223.75" cy="4.45654" r="4" fill="#B9D0FF"/>
<circle cx="1223.75" cy="26.5479" r="3.5" fill="#B9D0FF"/>
<circle cx="1223.75" cy="48.6392" r="3" fill="#B9D0FF"/>
<circle cx="1223.75" cy="70.7305" r="2.5" fill="#B9D0FF"/>
<circle cx="1223.75" cy="92.8218" r="2" fill="#B9D0FF"/>
<circle cx="1223.75" cy="114.913" r="1.5" fill="#B9D0FF"/>
<circle cx="1223.75" cy="137.004" r="1" fill="#B9D0FF"/>
<circle cx="4" cy="4" r="4" transform="matrix(-1 0 0 1 1371.15 0.456543)" fill="#B9D0FF"/>
<circle cx="4" cy="4" r="4" transform="matrix(-1 0 0 1 1347.25 0.456543)" fill="#B9D0FF"/>
<circle cx="3.5" cy="3.5" r="3.5" transform="matrix(-1 0 0 1 1346.75 23.0479)" fill="#B9D0FF"/>
<circle cx="4" cy="4" r="4" transform="matrix(-1 0 0 1 1323.35 0.456543)" fill="#B9D0FF"/>
<circle cx="3.5" cy="3.5" r="3.5" transform="matrix(-1 0 0 1 1322.85 23.0479)" fill="#B9D0FF"/>
<circle cx="3" cy="3" r="3" transform="matrix(-1 0 0 1 1322.35 45.6392)" fill="#B9D0FF"/>
<circle cx="4" cy="4" r="4" transform="matrix(-1 0 0 1 1299.45 0.456543)" fill="#B9D0FF"/>
<circle cx="3.5" cy="3.5" r="3.5" transform="matrix(-1 0 0 1 1298.95 23.0479)" fill="#B9D0FF"/>
<circle cx="3" cy="3" r="3" transform="matrix(-1 0 0 1 1298.45 45.6392)" fill="#B9D0FF"/>
<circle cx="2.5" cy="2.5" r="2.5" transform="matrix(-1 0 0 1 1297.95 68.2305)" fill="#B9D0FF"/>
<circle cx="4" cy="4" r="4" transform="matrix(-1 0 0 1 1275.55 0.456543)" fill="#B9D0FF"/>
<circle cx="3.5" cy="3.5" r="3.5" transform="matrix(-1 0 0 1 1275.05 23.0479)" fill="#B9D0FF"/>
<circle cx="3" cy="3" r="3" transform="matrix(-1 0 0 1 1274.55 45.6392)" fill="#B9D0FF"/>
<circle cx="2.5" cy="2.5" r="2.5" transform="matrix(-1 0 0 1 1274.05 68.2305)" fill="#B9D0FF"/>
<circle cx="2" cy="2" r="2" transform="matrix(-1 0 0 1 1273.55 90.8218)" fill="#B9D0FF"/>
<circle cx="4" cy="4" r="4" transform="matrix(-1 0 0 1 1251.65 0.456543)" fill="#B9D0FF"/>
<circle cx="3.5" cy="3.5" r="3.5" transform="matrix(-1 0 0 1 1251.15 23.0479)" fill="#B9D0FF"/>
<circle cx="3" cy="3" r="3" transform="matrix(-1 0 0 1 1250.65 45.6392)" fill="#B9D0FF"/>
<circle cx="2.5" cy="2.5" r="2.5" transform="matrix(-1 0 0 1 1250.15 68.2305)" fill="#B9D0FF"/>
<circle cx="2" cy="2" r="2" transform="matrix(-1 0 0 1 1249.65 90.8218)" fill="#B9D0FF"/>
<circle cx="1.5" cy="1.5" r="1.5" transform="matrix(-1 0 0 1 1249.15 113.413)" fill="#B9D0FF"/>
</g>
</svg>
