<svg width="869" height="138" viewBox="0 0 869 138" fill="none" xmlns="http://www.w3.org/2000/svg">
<g opacity="0.06">
<circle cx="865" cy="133.967" r="4" transform="rotate(-180 865 133.967)" fill="#B9D0FF"/>
<circle cx="841.1" cy="133.967" r="4" transform="rotate(-180 841.1 133.967)" fill="#B9D0FF"/>
<circle cx="841.1" cy="111.875" r="3.5" transform="rotate(-180 841.1 111.875)" fill="#B9D0FF"/>
<circle cx="817.2" cy="133.967" r="4" transform="rotate(-180 817.2 133.967)" fill="#B9D0FF"/>
<circle cx="817.2" cy="111.875" r="3.5" transform="rotate(-180 817.2 111.875)" fill="#B9D0FF"/>
<circle cx="817.2" cy="89.7842" r="3" transform="rotate(-180 817.2 89.7842)" fill="#B9D0FF"/>
<circle cx="793.299" cy="133.967" r="4" transform="rotate(-180 793.299 133.967)" fill="#B9D0FF"/>
<circle cx="793.299" cy="111.875" r="3.5" transform="rotate(-180 793.299 111.875)" fill="#B9D0FF"/>
<circle cx="793.299" cy="89.7842" r="3" transform="rotate(-180 793.299 89.7842)" fill="#B9D0FF"/>
<circle cx="793.299" cy="67.6929" r="2.5" transform="rotate(-180 793.299 67.6929)" fill="#B9D0FF"/>
<circle cx="793.299" cy="1.41895" r="1" transform="rotate(-180 793.299 1.41895)" fill="#B9D0FF"/>
<circle cx="769.399" cy="133.967" r="4" transform="rotate(-180 769.399 133.967)" fill="#B9D0FF"/>
<circle cx="769.399" cy="111.875" r="3.5" transform="rotate(-180 769.399 111.875)" fill="#B9D0FF"/>
<circle cx="769.399" cy="89.7842" r="3" transform="rotate(-180 769.399 89.7842)" fill="#B9D0FF"/>
<circle cx="769.399" cy="67.6929" r="2.5" transform="rotate(-180 769.399 67.6929)" fill="#B9D0FF"/>
<circle cx="769.399" cy="45.6016" r="2" transform="rotate(-180 769.399 45.6016)" fill="#B9D0FF"/>
<circle cx="769.399" cy="1.41895" r="1" transform="rotate(-180 769.399 1.41895)" fill="#B9D0FF"/>
<circle cx="745.499" cy="133.967" r="4" transform="rotate(-180 745.499 133.967)" fill="#B9D0FF"/>
<circle cx="745.499" cy="111.875" r="3.5" transform="rotate(-180 745.499 111.875)" fill="#B9D0FF"/>
<circle cx="745.499" cy="89.7842" r="3" transform="rotate(-180 745.499 89.7842)" fill="#B9D0FF"/>
<circle cx="745.499" cy="67.6929" r="2.5" transform="rotate(-180 745.499 67.6929)" fill="#B9D0FF"/>
<circle cx="745.499" cy="45.6016" r="2" transform="rotate(-180 745.499 45.6016)" fill="#B9D0FF"/>
<circle cx="745.499" cy="23.5103" r="1.5" transform="rotate(-180 745.499 23.5103)" fill="#B9D0FF"/>
<circle cx="745.499" cy="1.41895" r="1" transform="rotate(-180 745.499 1.41895)" fill="#B9D0FF"/>
<circle cx="721.599" cy="133.967" r="4" transform="rotate(-180 721.599 133.967)" fill="#B9D0FF"/>
<circle cx="721.599" cy="111.875" r="3.5" transform="rotate(-180 721.599 111.875)" fill="#B9D0FF"/>
<circle cx="721.599" cy="89.7842" r="3" transform="rotate(-180 721.599 89.7842)" fill="#B9D0FF"/>
<circle cx="721.599" cy="67.6929" r="2.5" transform="rotate(-180 721.599 67.6929)" fill="#B9D0FF"/>
<circle cx="721.599" cy="45.6016" r="2" transform="rotate(-180 721.599 45.6016)" fill="#B9D0FF"/>
<circle cx="721.599" cy="23.5103" r="1.5" transform="rotate(-180 721.599 23.5103)" fill="#B9D0FF"/>
<circle cx="721.599" cy="1.41895" r="1" transform="rotate(-180 721.599 1.41895)" fill="#B9D0FF"/>
<circle cx="697.699" cy="133.967" r="4" transform="rotate(-180 697.699 133.967)" fill="#B9D0FF"/>
<circle cx="697.699" cy="111.875" r="3.5" transform="rotate(-180 697.699 111.875)" fill="#B9D0FF"/>
<circle cx="697.699" cy="89.7842" r="3" transform="rotate(-180 697.699 89.7842)" fill="#B9D0FF"/>
<circle cx="697.699" cy="67.6929" r="2.5" transform="rotate(-180 697.699 67.6929)" fill="#B9D0FF"/>
<circle cx="697.699" cy="45.6016" r="2" transform="rotate(-180 697.699 45.6016)" fill="#B9D0FF"/>
<circle cx="697.699" cy="23.5103" r="1.5" transform="rotate(-180 697.699 23.5103)" fill="#B9D0FF"/>
<circle cx="697.699" cy="1.41895" r="1" transform="rotate(-180 697.699 1.41895)" fill="#B9D0FF"/>
<circle cx="673.799" cy="133.967" r="4" transform="rotate(-180 673.799 133.967)" fill="#B9D0FF"/>
<circle cx="673.799" cy="111.875" r="3.5" transform="rotate(-180 673.799 111.875)" fill="#B9D0FF"/>
<circle cx="673.799" cy="89.7842" r="3" transform="rotate(-180 673.799 89.7842)" fill="#B9D0FF"/>
<circle cx="673.799" cy="67.6929" r="2.5" transform="rotate(-180 673.799 67.6929)" fill="#B9D0FF"/>
<circle cx="673.799" cy="45.6016" r="2" transform="rotate(-180 673.799 45.6016)" fill="#B9D0FF"/>
<circle cx="673.799" cy="23.5103" r="1.5" transform="rotate(-180 673.799 23.5103)" fill="#B9D0FF"/>
<circle cx="673.799" cy="1.41895" r="1" transform="rotate(-180 673.799 1.41895)" fill="#B9D0FF"/>
<circle cx="649.898" cy="133.967" r="4" transform="rotate(-180 649.898 133.967)" fill="#B9D0FF"/>
<circle cx="649.898" cy="111.875" r="3.5" transform="rotate(-180 649.898 111.875)" fill="#B9D0FF"/>
<circle cx="649.898" cy="89.7842" r="3" transform="rotate(-180 649.898 89.7842)" fill="#B9D0FF"/>
<circle cx="649.898" cy="67.6929" r="2.5" transform="rotate(-180 649.898 67.6929)" fill="#B9D0FF"/>
<circle cx="649.898" cy="45.6016" r="2" transform="rotate(-180 649.898 45.6016)" fill="#B9D0FF"/>
<circle cx="649.898" cy="23.5103" r="1.5" transform="rotate(-180 649.898 23.5103)" fill="#B9D0FF"/>
<circle cx="649.898" cy="1.41895" r="1" transform="rotate(-180 649.898 1.41895)" fill="#B9D0FF"/>
<circle cx="625.998" cy="133.967" r="4" transform="rotate(-180 625.998 133.967)" fill="#B9D0FF"/>
<circle cx="625.998" cy="111.875" r="3.5" transform="rotate(-180 625.998 111.875)" fill="#B9D0FF"/>
<circle cx="625.998" cy="89.7842" r="3" transform="rotate(-180 625.998 89.7842)" fill="#B9D0FF"/>
<circle cx="625.998" cy="67.6929" r="2.5" transform="rotate(-180 625.998 67.6929)" fill="#B9D0FF"/>
<circle cx="625.998" cy="45.6016" r="2" transform="rotate(-180 625.998 45.6016)" fill="#B9D0FF"/>
<circle cx="625.998" cy="23.5103" r="1.5" transform="rotate(-180 625.998 23.5103)" fill="#B9D0FF"/>
<circle cx="625.998" cy="1.41895" r="1" transform="rotate(-180 625.998 1.41895)" fill="#B9D0FF"/>
<circle cx="602.098" cy="133.967" r="4" transform="rotate(-180 602.098 133.967)" fill="#B9D0FF"/>
<circle cx="602.098" cy="111.875" r="3.5" transform="rotate(-180 602.098 111.875)" fill="#B9D0FF"/>
<circle cx="602.098" cy="89.7842" r="3" transform="rotate(-180 602.098 89.7842)" fill="#B9D0FF"/>
<circle cx="602.098" cy="67.6929" r="2.5" transform="rotate(-180 602.098 67.6929)" fill="#B9D0FF"/>
<circle cx="602.098" cy="45.6016" r="2" transform="rotate(-180 602.098 45.6016)" fill="#B9D0FF"/>
<circle cx="602.098" cy="23.5103" r="1.5" transform="rotate(-180 602.098 23.5103)" fill="#B9D0FF"/>
<circle cx="602.098" cy="1.41895" r="1" transform="rotate(-180 602.098 1.41895)" fill="#B9D0FF"/>
<circle cx="578.198" cy="133.967" r="4" transform="rotate(-180 578.198 133.967)" fill="#B9D0FF"/>
<circle cx="578.198" cy="111.875" r="3.5" transform="rotate(-180 578.198 111.875)" fill="#B9D0FF"/>
<circle cx="578.198" cy="89.7842" r="3" transform="rotate(-180 578.198 89.7842)" fill="#B9D0FF"/>
<circle cx="578.198" cy="67.6929" r="2.5" transform="rotate(-180 578.198 67.6929)" fill="#B9D0FF"/>
<circle cx="578.198" cy="45.6016" r="2" transform="rotate(-180 578.198 45.6016)" fill="#B9D0FF"/>
<circle cx="578.198" cy="23.5103" r="1.5" transform="rotate(-180 578.198 23.5103)" fill="#B9D0FF"/>
<circle cx="578.198" cy="1.41895" r="1" transform="rotate(-180 578.198 1.41895)" fill="#B9D0FF"/>
<circle cx="554.298" cy="133.967" r="4" transform="rotate(-180 554.298 133.967)" fill="#B9D0FF"/>
<circle cx="554.298" cy="111.875" r="3.5" transform="rotate(-180 554.298 111.875)" fill="#B9D0FF"/>
<circle cx="554.298" cy="89.7842" r="3" transform="rotate(-180 554.298 89.7842)" fill="#B9D0FF"/>
<circle cx="554.298" cy="67.6929" r="2.5" transform="rotate(-180 554.298 67.6929)" fill="#B9D0FF"/>
<circle cx="554.298" cy="45.6016" r="2" transform="rotate(-180 554.298 45.6016)" fill="#B9D0FF"/>
<circle cx="554.298" cy="23.5103" r="1.5" transform="rotate(-180 554.298 23.5103)" fill="#B9D0FF"/>
<circle cx="554.298" cy="1.41895" r="1" transform="rotate(-180 554.298 1.41895)" fill="#B9D0FF"/>
<circle cx="530.398" cy="133.967" r="4" transform="rotate(-180 530.398 133.967)" fill="#B9D0FF"/>
<circle cx="530.398" cy="111.875" r="3.5" transform="rotate(-180 530.398 111.875)" fill="#B9D0FF"/>
<circle cx="530.398" cy="89.7842" r="3" transform="rotate(-180 530.398 89.7842)" fill="#B9D0FF"/>
<circle cx="530.398" cy="67.6929" r="2.5" transform="rotate(-180 530.398 67.6929)" fill="#B9D0FF"/>
<circle cx="530.398" cy="45.6016" r="2" transform="rotate(-180 530.398 45.6016)" fill="#B9D0FF"/>
<circle cx="530.398" cy="23.5103" r="1.5" transform="rotate(-180 530.398 23.5103)" fill="#B9D0FF"/>
<circle cx="530.398" cy="1.41895" r="1" transform="rotate(-180 530.398 1.41895)" fill="#B9D0FF"/>
<circle cx="506.497" cy="133.967" r="4" transform="rotate(-180 506.497 133.967)" fill="#B9D0FF"/>
<circle cx="506.497" cy="111.875" r="3.5" transform="rotate(-180 506.497 111.875)" fill="#B9D0FF"/>
<circle cx="506.497" cy="89.7842" r="3" transform="rotate(-180 506.497 89.7842)" fill="#B9D0FF"/>
<circle cx="506.497" cy="67.6929" r="2.5" transform="rotate(-180 506.497 67.6929)" fill="#B9D0FF"/>
<circle cx="506.497" cy="45.6016" r="2" transform="rotate(-180 506.497 45.6016)" fill="#B9D0FF"/>
<circle cx="506.497" cy="23.5103" r="1.5" transform="rotate(-180 506.497 23.5103)" fill="#B9D0FF"/>
<circle cx="506.497" cy="1.41895" r="1" transform="rotate(-180 506.497 1.41895)" fill="#B9D0FF"/>
<circle cx="482.597" cy="133.967" r="4" transform="rotate(-180 482.597 133.967)" fill="#B9D0FF"/>
<circle cx="482.597" cy="111.875" r="3.5" transform="rotate(-180 482.597 111.875)" fill="#B9D0FF"/>
<circle cx="482.597" cy="89.7842" r="3" transform="rotate(-180 482.597 89.7842)" fill="#B9D0FF"/>
<circle cx="482.597" cy="67.6929" r="2.5" transform="rotate(-180 482.597 67.6929)" fill="#B9D0FF"/>
<circle cx="482.597" cy="45.6016" r="2" transform="rotate(-180 482.597 45.6016)" fill="#B9D0FF"/>
<circle cx="482.597" cy="23.5103" r="1.5" transform="rotate(-180 482.597 23.5103)" fill="#B9D0FF"/>
<circle cx="482.597" cy="1.41895" r="1" transform="rotate(-180 482.597 1.41895)" fill="#B9D0FF"/>
<circle cx="458.697" cy="133.967" r="4" transform="rotate(-180 458.697 133.967)" fill="#B9D0FF"/>
<circle cx="458.697" cy="111.875" r="3.5" transform="rotate(-180 458.697 111.875)" fill="#B9D0FF"/>
<circle cx="458.697" cy="89.7842" r="3" transform="rotate(-180 458.697 89.7842)" fill="#B9D0FF"/>
<circle cx="458.697" cy="67.6929" r="2.5" transform="rotate(-180 458.697 67.6929)" fill="#B9D0FF"/>
<circle cx="458.697" cy="45.6016" r="2" transform="rotate(-180 458.697 45.6016)" fill="#B9D0FF"/>
<circle cx="458.697" cy="23.5103" r="1.5" transform="rotate(-180 458.697 23.5103)" fill="#B9D0FF"/>
<circle cx="458.697" cy="1.41895" r="1" transform="rotate(-180 458.697 1.41895)" fill="#B9D0FF"/>
<circle cx="434.797" cy="133.967" r="4" transform="rotate(-180 434.797 133.967)" fill="#B9D0FF"/>
<circle cx="434.797" cy="111.875" r="3.5" transform="rotate(-180 434.797 111.875)" fill="#B9D0FF"/>
<circle cx="434.797" cy="89.7842" r="3" transform="rotate(-180 434.797 89.7842)" fill="#B9D0FF"/>
<circle cx="434.797" cy="67.6929" r="2.5" transform="rotate(-180 434.797 67.6929)" fill="#B9D0FF"/>
<circle cx="434.797" cy="45.6016" r="2" transform="rotate(-180 434.797 45.6016)" fill="#B9D0FF"/>
<circle cx="434.797" cy="23.5103" r="1.5" transform="rotate(-180 434.797 23.5103)" fill="#B9D0FF"/>
<circle cx="434.797" cy="1.41895" r="1" transform="rotate(-180 434.797 1.41895)" fill="#B9D0FF"/>
<circle cx="410.897" cy="133.967" r="4" transform="rotate(-180 410.897 133.967)" fill="#B9D0FF"/>
<circle cx="410.897" cy="111.875" r="3.5" transform="rotate(-180 410.897 111.875)" fill="#B9D0FF"/>
<circle cx="410.897" cy="89.7842" r="3" transform="rotate(-180 410.897 89.7842)" fill="#B9D0FF"/>
<circle cx="410.897" cy="67.6929" r="2.5" transform="rotate(-180 410.897 67.6929)" fill="#B9D0FF"/>
<circle cx="410.897" cy="45.6016" r="2" transform="rotate(-180 410.897 45.6016)" fill="#B9D0FF"/>
<circle cx="410.897" cy="23.5103" r="1.5" transform="rotate(-180 410.897 23.5103)" fill="#B9D0FF"/>
<circle cx="410.897" cy="1.41895" r="1" transform="rotate(-180 410.897 1.41895)" fill="#B9D0FF"/>
<circle cx="386.996" cy="133.967" r="4" transform="rotate(-180 386.996 133.967)" fill="#B9D0FF"/>
<circle cx="386.996" cy="111.875" r="3.5" transform="rotate(-180 386.996 111.875)" fill="#B9D0FF"/>
<circle cx="386.996" cy="89.7842" r="3" transform="rotate(-180 386.996 89.7842)" fill="#B9D0FF"/>
<circle cx="386.996" cy="67.6929" r="2.5" transform="rotate(-180 386.996 67.6929)" fill="#B9D0FF"/>
<circle cx="386.996" cy="45.6016" r="2" transform="rotate(-180 386.996 45.6016)" fill="#B9D0FF"/>
<circle cx="386.996" cy="23.5103" r="1.5" transform="rotate(-180 386.996 23.5103)" fill="#B9D0FF"/>
<circle cx="386.996" cy="1.41895" r="1" transform="rotate(-180 386.996 1.41895)" fill="#B9D0FF"/>
<circle cx="363.096" cy="133.967" r="4" transform="rotate(-180 363.096 133.967)" fill="#B9D0FF"/>
<circle cx="363.096" cy="111.875" r="3.5" transform="rotate(-180 363.096 111.875)" fill="#B9D0FF"/>
<circle cx="363.096" cy="89.7842" r="3" transform="rotate(-180 363.096 89.7842)" fill="#B9D0FF"/>
<circle cx="363.096" cy="67.6929" r="2.5" transform="rotate(-180 363.096 67.6929)" fill="#B9D0FF"/>
<circle cx="363.096" cy="45.6016" r="2" transform="rotate(-180 363.096 45.6016)" fill="#B9D0FF"/>
<circle cx="363.096" cy="23.5103" r="1.5" transform="rotate(-180 363.096 23.5103)" fill="#B9D0FF"/>
<circle cx="363.096" cy="1.41895" r="1" transform="rotate(-180 363.096 1.41895)" fill="#B9D0FF"/>
<circle cx="339.196" cy="133.967" r="4" transform="rotate(-180 339.196 133.967)" fill="#B9D0FF"/>
<circle cx="339.196" cy="111.875" r="3.5" transform="rotate(-180 339.196 111.875)" fill="#B9D0FF"/>
<circle cx="339.196" cy="89.7842" r="3" transform="rotate(-180 339.196 89.7842)" fill="#B9D0FF"/>
<circle cx="339.196" cy="67.6929" r="2.5" transform="rotate(-180 339.196 67.6929)" fill="#B9D0FF"/>
<circle cx="339.196" cy="45.6016" r="2" transform="rotate(-180 339.196 45.6016)" fill="#B9D0FF"/>
<circle cx="339.196" cy="23.5103" r="1.5" transform="rotate(-180 339.196 23.5103)" fill="#B9D0FF"/>
<circle cx="339.196" cy="1.41895" r="1" transform="rotate(-180 339.196 1.41895)" fill="#B9D0FF"/>
<circle cx="315.296" cy="133.967" r="4" transform="rotate(-180 315.296 133.967)" fill="#B9D0FF"/>
<circle cx="315.296" cy="111.875" r="3.5" transform="rotate(-180 315.296 111.875)" fill="#B9D0FF"/>
<circle cx="315.296" cy="89.7842" r="3" transform="rotate(-180 315.296 89.7842)" fill="#B9D0FF"/>
<circle cx="315.296" cy="67.6929" r="2.5" transform="rotate(-180 315.296 67.6929)" fill="#B9D0FF"/>
<circle cx="315.296" cy="45.6016" r="2" transform="rotate(-180 315.296 45.6016)" fill="#B9D0FF"/>
<circle cx="315.296" cy="23.5103" r="1.5" transform="rotate(-180 315.296 23.5103)" fill="#B9D0FF"/>
<circle cx="315.296" cy="1.41895" r="1" transform="rotate(-180 315.296 1.41895)" fill="#B9D0FF"/>
<circle cx="291.396" cy="133.967" r="4" transform="rotate(-180 291.396 133.967)" fill="#B9D0FF"/>
<circle cx="291.396" cy="111.875" r="3.5" transform="rotate(-180 291.396 111.875)" fill="#B9D0FF"/>
<circle cx="291.396" cy="89.7842" r="3" transform="rotate(-180 291.396 89.7842)" fill="#B9D0FF"/>
<circle cx="291.396" cy="67.6929" r="2.5" transform="rotate(-180 291.396 67.6929)" fill="#B9D0FF"/>
<circle cx="291.396" cy="45.6016" r="2" transform="rotate(-180 291.396 45.6016)" fill="#B9D0FF"/>
<circle cx="291.396" cy="23.5103" r="1.5" transform="rotate(-180 291.396 23.5103)" fill="#B9D0FF"/>
<circle cx="291.396" cy="1.41895" r="1" transform="rotate(-180 291.396 1.41895)" fill="#B9D0FF"/>
<circle cx="267.496" cy="133.967" r="4" transform="rotate(-180 267.496 133.967)" fill="#B9D0FF"/>
<circle cx="267.496" cy="111.875" r="3.5" transform="rotate(-180 267.496 111.875)" fill="#B9D0FF"/>
<circle cx="267.496" cy="89.7842" r="3" transform="rotate(-180 267.496 89.7842)" fill="#B9D0FF"/>
<circle cx="267.496" cy="67.6929" r="2.5" transform="rotate(-180 267.496 67.6929)" fill="#B9D0FF"/>
<circle cx="267.496" cy="45.6016" r="2" transform="rotate(-180 267.496 45.6016)" fill="#B9D0FF"/>
<circle cx="267.496" cy="23.5103" r="1.5" transform="rotate(-180 267.496 23.5103)" fill="#B9D0FF"/>
<circle cx="267.496" cy="1.41895" r="1" transform="rotate(-180 267.496 1.41895)" fill="#B9D0FF"/>
<circle cx="243.595" cy="133.967" r="4" transform="rotate(-180 243.595 133.967)" fill="#B9D0FF"/>
<circle cx="243.595" cy="111.875" r="3.5" transform="rotate(-180 243.595 111.875)" fill="#B9D0FF"/>
<circle cx="243.595" cy="89.7842" r="3" transform="rotate(-180 243.595 89.7842)" fill="#B9D0FF"/>
<circle cx="243.595" cy="67.6929" r="2.5" transform="rotate(-180 243.595 67.6929)" fill="#B9D0FF"/>
<circle cx="243.595" cy="45.6016" r="2" transform="rotate(-180 243.595 45.6016)" fill="#B9D0FF"/>
<circle cx="243.595" cy="23.5103" r="1.5" transform="rotate(-180 243.595 23.5103)" fill="#B9D0FF"/>
<circle cx="243.595" cy="1.41895" r="1" transform="rotate(-180 243.595 1.41895)" fill="#B9D0FF"/>
<circle cx="219.695" cy="133.967" r="4" transform="rotate(-180 219.695 133.967)" fill="#B9D0FF"/>
<circle cx="219.695" cy="111.875" r="3.5" transform="rotate(-180 219.695 111.875)" fill="#B9D0FF"/>
<circle cx="219.695" cy="89.7842" r="3" transform="rotate(-180 219.695 89.7842)" fill="#B9D0FF"/>
<circle cx="219.695" cy="67.6929" r="2.5" transform="rotate(-180 219.695 67.6929)" fill="#B9D0FF"/>
<circle cx="219.695" cy="45.6016" r="2" transform="rotate(-180 219.695 45.6016)" fill="#B9D0FF"/>
<circle cx="219.695" cy="23.5103" r="1.5" transform="rotate(-180 219.695 23.5103)" fill="#B9D0FF"/>
<circle cx="219.695" cy="1.41895" r="1" transform="rotate(-180 219.695 1.41895)" fill="#B9D0FF"/>
<circle cx="195.795" cy="133.967" r="4" transform="rotate(-180 195.795 133.967)" fill="#B9D0FF"/>
<circle cx="195.795" cy="111.875" r="3.5" transform="rotate(-180 195.795 111.875)" fill="#B9D0FF"/>
<circle cx="195.795" cy="89.7842" r="3" transform="rotate(-180 195.795 89.7842)" fill="#B9D0FF"/>
<circle cx="195.795" cy="67.6929" r="2.5" transform="rotate(-180 195.795 67.6929)" fill="#B9D0FF"/>
<circle cx="195.795" cy="45.6016" r="2" transform="rotate(-180 195.795 45.6016)" fill="#B9D0FF"/>
<circle cx="195.795" cy="23.5103" r="1.5" transform="rotate(-180 195.795 23.5103)" fill="#B9D0FF"/>
<circle cx="195.795" cy="1.41895" r="1" transform="rotate(-180 195.795 1.41895)" fill="#B9D0FF"/>
<circle cx="171.895" cy="133.967" r="4" transform="rotate(-180 171.895 133.967)" fill="#B9D0FF"/>
<circle cx="171.895" cy="111.875" r="3.5" transform="rotate(-180 171.895 111.875)" fill="#B9D0FF"/>
<circle cx="171.895" cy="89.7842" r="3" transform="rotate(-180 171.895 89.7842)" fill="#B9D0FF"/>
<circle cx="171.895" cy="67.6929" r="2.5" transform="rotate(-180 171.895 67.6929)" fill="#B9D0FF"/>
<circle cx="171.895" cy="45.6016" r="2" transform="rotate(-180 171.895 45.6016)" fill="#B9D0FF"/>
<circle cx="171.895" cy="23.5103" r="1.5" transform="rotate(-180 171.895 23.5103)" fill="#B9D0FF"/>
<circle cx="171.895" cy="1.41895" r="1" transform="rotate(-180 171.895 1.41895)" fill="#B9D0FF"/>
<circle cx="147.995" cy="133.967" r="4" transform="rotate(-180 147.995 133.967)" fill="#B9D0FF"/>
<circle cx="147.995" cy="111.875" r="3.5" transform="rotate(-180 147.995 111.875)" fill="#B9D0FF"/>
<circle cx="147.995" cy="89.7841" r="3" transform="rotate(-180 147.995 89.7841)" fill="#B9D0FF"/>
<circle cx="147.995" cy="67.6927" r="2.5" transform="rotate(-180 147.995 67.6927)" fill="#B9D0FF"/>
<circle cx="147.995" cy="45.6014" r="2" transform="rotate(-180 147.995 45.6014)" fill="#B9D0FF"/>
<circle cx="147.995" cy="23.5101" r="1.5" transform="rotate(-180 147.995 23.5101)" fill="#B9D0FF"/>
<circle cx="147.995" cy="1.41882" r="1" transform="rotate(-180 147.995 1.41882)" fill="#B9D0FF"/>
<circle cx="124.094" cy="133.967" r="4" transform="rotate(-180 124.094 133.967)" fill="#B9D0FF"/>
<circle cx="124.094" cy="111.875" r="3.5" transform="rotate(-180 124.094 111.875)" fill="#B9D0FF"/>
<circle cx="124.094" cy="89.7841" r="3" transform="rotate(-180 124.094 89.7841)" fill="#B9D0FF"/>
<circle cx="124.094" cy="67.6927" r="2.5" transform="rotate(-180 124.094 67.6927)" fill="#B9D0FF"/>
<circle cx="124.094" cy="45.6014" r="2" transform="rotate(-180 124.094 45.6014)" fill="#B9D0FF"/>
<circle cx="124.094" cy="23.5101" r="1.5" transform="rotate(-180 124.094 23.5101)" fill="#B9D0FF"/>
<circle cx="100.194" cy="133.967" r="4" transform="rotate(-180 100.194 133.967)" fill="#B9D0FF"/>
<circle cx="100.194" cy="111.875" r="3.5" transform="rotate(-180 100.194 111.875)" fill="#B9D0FF"/>
<circle cx="100.194" cy="89.7841" r="3" transform="rotate(-180 100.194 89.7841)" fill="#B9D0FF"/>
<circle cx="100.194" cy="67.6927" r="2.5" transform="rotate(-180 100.194 67.6927)" fill="#B9D0FF"/>
<circle cx="100.194" cy="45.6014" r="2" transform="rotate(-180 100.194 45.6014)" fill="#B9D0FF"/>
<circle cx="76.2942" cy="133.967" r="4" transform="rotate(-180 76.2942 133.967)" fill="#B9D0FF"/>
<circle cx="76.2942" cy="111.875" r="3.5" transform="rotate(-180 76.2942 111.875)" fill="#B9D0FF"/>
<circle cx="76.2942" cy="89.7841" r="3" transform="rotate(-180 76.2942 89.7841)" fill="#B9D0FF"/>
<circle cx="76.2942" cy="67.6927" r="2.5" transform="rotate(-180 76.2942 67.6927)" fill="#B9D0FF"/>
<circle cx="52.394" cy="133.967" r="4" transform="rotate(-180 52.394 133.967)" fill="#B9D0FF"/>
<circle cx="52.394" cy="111.875" r="3.5" transform="rotate(-180 52.394 111.875)" fill="#B9D0FF"/>
<circle cx="52.394" cy="89.7841" r="3" transform="rotate(-180 52.394 89.7841)" fill="#B9D0FF"/>
<circle cx="28.4938" cy="133.967" r="4" transform="rotate(-180 28.4938 133.967)" fill="#B9D0FF"/>
<circle cx="28.4938" cy="111.875" r="3.5" transform="rotate(-180 28.4938 111.875)" fill="#B9D0FF"/>
<circle cx="4.59363" cy="133.967" r="4" transform="rotate(-180 4.59363 133.967)" fill="#B9D0FF"/>
</g>
</svg>
