<svg width="68" height="51" viewBox="0 0 68 51" fill="none" xmlns="http://www.w3.org/2000/svg">
<path fill-rule="evenodd" clip-rule="evenodd" d="M12.672 37.2844H34.0005H55.3289C61.2186 37.2844 65.9932 32.5099 65.9932 26.6202C65.9932 20.7305 61.2186 15.956 55.3289 15.956H53.0535C52.2911 15.956 51.9099 15.956 51.6443 15.7587C51.3788 15.5614 51.2591 15.1646 51.0197 14.3708C48.815 7.06077 42.0295 1.737 34.0005 1.737C25.9715 1.737 19.1859 7.06077 16.9813 14.3708C16.7419 15.1646 16.6222 15.5614 16.3567 15.7587C16.0911 15.956 15.7099 15.956 14.9475 15.956H12.672C6.78235 15.956 2.00781 20.7305 2.00781 26.6202C2.00781 32.5099 6.78235 37.2844 12.672 37.2844Z" fill="#E1EBFE"/>
<path d="M16.3567 15.7587L17.0127 16.6417L16.3567 15.7587ZM51.0197 14.3708L52.0728 14.0532L51.0197 14.3708ZM51.6443 15.7587L52.3003 14.8757L51.6443 15.7587ZM34.0005 36.1844H12.672V38.3844H34.0005V36.1844ZM55.3289 36.1844H34.0005V38.3844H55.3289V36.1844ZM64.8932 26.6202C64.8932 31.9024 60.6111 36.1844 55.3289 36.1844V38.3844C61.8261 38.3844 67.0932 33.1174 67.0932 26.6202H64.8932ZM55.3289 17.056C60.6111 17.056 64.8932 21.338 64.8932 26.6202H67.0932C67.0932 20.123 61.8261 14.856 55.3289 14.856V17.056ZM53.0535 17.056H55.3289V14.856H53.0535V17.056ZM52.0728 14.0532C49.732 6.29156 42.528 0.636999 34.0005 0.636999V2.837C41.5309 2.837 47.8981 7.82997 49.9665 14.6885L52.0728 14.0532ZM34.0005 0.636999C25.473 0.636999 18.269 6.29156 15.9281 14.0532L18.0344 14.6885C20.1029 7.82997 26.47 2.837 34.0005 2.837V0.636999ZM12.672 17.056H14.9475V14.856H12.672V17.056ZM12.672 14.856C6.17484 14.856 0.907812 20.123 0.907812 26.6202H3.10781C3.10781 21.338 7.38986 17.056 12.672 17.056V14.856ZM0.907812 26.6202C0.907812 33.1174 6.17484 38.3844 12.672 38.3844V36.1844C7.38986 36.1844 3.10781 31.9024 3.10781 26.6202H0.907812ZM15.9281 14.0532C15.8016 14.4728 15.7298 14.7062 15.6635 14.865C15.6013 15.0142 15.601 14.9498 15.7007 14.8757L17.0127 16.6417C17.3779 16.3704 17.5702 16.0089 17.694 15.7118C17.8139 15.4245 17.9216 15.0626 18.0344 14.6885L15.9281 14.0532ZM14.9475 17.056C15.3038 17.056 15.6609 17.0575 15.9589 17.0247C16.2782 16.9895 16.6593 16.9042 17.0127 16.6417L15.7007 14.8757C15.7885 14.8104 15.8462 14.8238 15.7179 14.8379C15.5684 14.8544 15.3537 14.856 14.9475 14.856V17.056ZM53.0535 14.856C52.6473 14.856 52.4326 14.8544 52.283 14.8379C52.1548 14.8238 52.2124 14.8104 52.3003 14.8757L50.9883 16.6417C51.3417 16.9042 51.7228 16.9895 52.0421 17.0247C52.3401 17.0575 52.6972 17.056 53.0535 17.056V14.856ZM49.9665 14.6885C50.0794 15.0626 50.1871 15.4245 50.3069 15.7118C50.4308 16.0089 50.6231 16.3704 50.9883 16.6417L52.3003 14.8757C52.4 14.9498 52.3996 15.0142 52.3374 14.865C52.2712 14.7062 52.1994 14.4728 52.0728 14.0532L49.9665 14.6885Z" fill="#B9D0FF"/>
<path d="M25.1133 31.9523L34.0001 23.0655M34.0001 23.0655L42.887 31.9523M34.0001 23.0655L34.0001 48.0652" stroke="#B9D0FF" stroke-width="4.2" stroke-linecap="round" stroke-linejoin="round"/>
</svg>
