<svg width="60" height="76" viewBox="0 0 60 76" fill="none" xmlns="http://www.w3.org/2000/svg">
<path d="M34.6863 2H18C10.4575 2 6.68629 2 4.34315 4.34315C2 6.68629 2 10.4575 2 18V58C2 65.5425 2 69.3137 4.34315 71.6569C6.68629 74 10.4575 74 18 74H42C49.5425 74 53.3137 74 55.6569 71.6569C58 69.3137 58 65.5425 58 58V25.3137C58 23.6787 58 22.8612 57.6955 22.1261C57.391 21.391 56.813 20.813 55.6569 19.6569L40.3431 4.34315C39.187 3.18702 38.609 2.60896 37.8739 2.30448C37.1388 2 36.3213 2 34.6863 2Z" fill="white" stroke="#B9D0FF" stroke-width="2.2"/>
<path d="M34 18V2H6C4.11438 2 3.17157 2 2.58579 2.58579C2 3.17157 2 4.11438 2 6V70C2 71.8856 2 72.8284 2.58579 73.4142C3.17157 74 4.11438 74 6 74H54C55.8856 74 56.8284 74 57.4142 73.4142C58 72.8284 58 71.8856 58 70V26H42C38.2288 26 36.3431 26 35.1716 24.8284C34 23.6569 34 21.7712 34 18Z" fill="#E1EBFE"/>
<path d="M34.6863 2H18C10.4575 2 6.68629 2 4.34315 4.34315C2 6.68629 2 10.4575 2 18V58C2 65.5425 2 69.3137 4.34315 71.6569C6.68629 74 10.4575 74 18 74H42C49.5425 74 53.3137 74 55.6569 71.6569C58 69.3137 58 65.5425 58 58V25.3137C58 23.6787 58 22.8612 57.6955 22.1261C57.391 21.391 56.813 20.813 55.6569 19.6569L40.3431 4.34315C39.187 3.18702 38.609 2.60896 37.8739 2.30448C37.1388 2 36.3213 2 34.6863 2Z" stroke="#B9D0FF" stroke-width="2.2"/>
<path d="M18 42L42 42" stroke="#B9D0FF" stroke-width="2.2" stroke-linecap="round"/>
<path d="M18 58L34 58" stroke="#B9D0FF" stroke-width="2.2" stroke-linecap="round"/>
<path d="M34 2V18C34 21.7712 34 23.6569 35.1716 24.8284C36.3431 26 38.2288 26 42 26H58" stroke="#B9D0FF" stroke-width="2.2"/>
</svg>
