<svg width="202" height="200" viewBox="0 0 202 200" fill="none" xmlns="http://www.w3.org/2000/svg">
<path d="M111.038 26.5713H78.8571C64.3109 26.5713 57.0378 26.5713 52.5189 31.0902C48 35.6091 48 42.8822 48 57.4284V134.571C48 149.117 48 156.391 52.5189 160.91C57.0378 165.428 64.3109 165.428 78.8571 165.428H125.143C139.689 165.428 146.962 165.428 151.481 160.91C156 156.391 156 149.117 156 134.571V71.5334C156 68.3802 156 66.8036 155.413 65.3859C154.826 63.9683 153.711 62.8535 151.481 60.6238L121.948 31.0902C119.718 28.8606 118.603 27.7457 117.185 27.1585C115.768 26.5713 114.191 26.5713 111.038 26.5713Z" fill="white" stroke="#B9D0FF" stroke-width="4"/>
<path d="M109.714 57.4284V26.5713H82C65.9722 26.5713 57.9584 26.5713 52.9792 31.5505C48 36.5297 48 44.5435 48 60.5713V131.428C48 147.456 48 155.47 52.9792 160.449C57.9584 165.428 65.9722 165.428 82 165.428H122C138.028 165.428 146.042 165.428 151.021 160.449C156 155.47 156 147.456 156 131.428V72.857H125.143C117.87 72.857 114.233 72.857 111.974 70.5975C109.714 68.3381 109.714 64.7015 109.714 57.4284Z" fill="#E1EBFE"/>
<path d="M111.038 26.5713H78.8571C64.3109 26.5713 57.0378 26.5713 52.5189 31.0902C48 35.6091 48 42.8822 48 57.4284V134.571C48 149.117 48 156.391 52.5189 160.91C57.0378 165.428 64.3109 165.428 78.8571 165.428H125.143C139.689 165.428 146.962 165.428 151.481 160.91C156 156.391 156 149.117 156 134.571V71.5334C156 68.3802 156 66.8036 155.413 65.3859C154.826 63.9683 153.711 62.8535 151.481 60.6238L121.948 31.0902C119.718 28.8606 118.603 27.7457 117.185 27.1585C115.768 26.5713 114.191 26.5713 111.038 26.5713Z" stroke="#B9D0FF" stroke-width="4"/>
<path d="M109.714 26.5713V57.4284C109.714 64.7015 109.714 68.3381 111.973 70.5975C114.233 72.857 117.869 72.857 125.142 72.857H156" stroke="#B9D0FF" stroke-width="4"/>
<circle cx="86" cy="93" r="5" fill="#B9D0FF"/>
<circle cx="115" cy="93" r="5" fill="#B9D0FF"/>
<path d="M121.501 121.5C110.179 110.178 91.822 110.178 80.5 121.5" stroke="#B9D0FF" stroke-width="4" stroke-linecap="round"/>
</svg>
