<svg width="186" height="61" viewBox="0 0 186 61" fill="none" xmlns="http://www.w3.org/2000/svg">
<path d="M25.1082 26.2051C25.8576 23.485 25.5804 14.2981 33.024 16.8036C34.3139 17.2379 35.7223 18.5946 36.0828 19.0118C36.0878 19.0176 36.0912 19.0246 36.0925 19.0321C36.0939 19.0396 36.0933 19.0473 36.0906 19.0545C36.088 19.0616 36.0835 19.0679 36.0776 19.0727C36.0717 19.0775 36.0646 19.0807 36.057 19.0817C34.4114 19.3745 31.4501 20.744 32.2205 24.0246C33.1981 28.1871 35.4949 34.0452 33.024 37.7014C30.3037 41.7262 27.74 43.3099 25.0552 44.1348C23.8544 48.8581 19.7137 54.3289 17.3134 56.967C17.268 57.0163 17.2111 57.0535 17.1479 57.0751C17.0846 57.0967 17.017 57.1022 16.9511 57.0909C14.011 56.6602 11.0168 56.7814 8.12069 57.4485C7.09911 57.7049 3.47387 58.5744 1.84037 60.1052C1.64067 60.2925 1.33782 60.2569 1.343 59.9826C1.38483 57.7634 5.94126 51.145 12.6922 47.5425C17.5075 44.9731 21.3938 45.2595 25.0552 44.1348C25.3088 43.202 25.4177 42.2354 25.3781 41.2693C25.17 37.7849 24.7953 34.3007 23.3679 30.8766C20.9981 35.7322 17.6876 38.2085 14.8233 39.592C14.1656 39.9079 13.4403 40.0555 12.7121 40.0217C11.9839 39.9879 11.2753 39.7737 10.6494 39.3982C7.38491 37.4479 4.84784 34.755 2.70071 31.3585C-0.306416 26.6016 -0.306441 21.4478 0.354751 17.0873C1.68658 8.30363 8.75655 2.40312 11.0595 0.850642C11.3398 0.661702 11.4915 0.847376 11.3422 1.15137C10.482 2.90073 10.099 5.91744 9.73868 8.36573C9.13418 12.4727 9.1521 15.8978 16.5811 22.0425C20.0529 24.9141 22.1155 27.8721 23.3679 30.8766C24.0909 29.377 24.6736 27.8131 25.1082 26.2051Z" fill="white"/>
<path d="M43.2296 32.1414V23.5014H46.7216C46.8056 23.5014 46.9096 23.5054 47.0336 23.5134C47.1576 23.5174 47.2756 23.5294 47.3876 23.5494C47.8676 23.6254 48.2676 23.7894 48.5876 24.0414C48.9116 24.2934 49.1536 24.6114 49.3136 24.9954C49.4736 25.3794 49.5536 25.8034 49.5536 26.2674C49.5536 26.7354 49.4736 27.1614 49.3136 27.5454C49.1536 27.9294 48.9116 28.2474 48.5876 28.4994C48.2676 28.7514 47.8676 28.9154 47.3876 28.9914C47.2756 29.0074 47.1556 29.0194 47.0276 29.0274C46.9036 29.0354 46.8016 29.0394 46.7216 29.0394H44.4836V32.1414H43.2296ZM44.4836 27.8514H46.6736C46.7536 27.8514 46.8416 27.8474 46.9376 27.8394C47.0376 27.8314 47.1316 27.8174 47.2196 27.7974C47.4756 27.7374 47.6816 27.6274 47.8376 27.4674C47.9936 27.3034 48.1056 27.1154 48.1736 26.9034C48.2416 26.6914 48.2756 26.4794 48.2756 26.2674C48.2756 26.0554 48.2416 25.8454 48.1736 25.6374C48.1056 25.4254 47.9936 25.2394 47.8376 25.0794C47.6816 24.9154 47.4756 24.8034 47.2196 24.7434C47.1316 24.7194 47.0376 24.7034 46.9376 24.6954C46.8416 24.6874 46.7536 24.6834 46.6736 24.6834H44.4836V27.8514ZM54.3591 32.3214C53.4951 32.3214 52.7591 32.1334 52.1511 31.7574C51.5431 31.3774 51.0771 30.8494 50.7531 30.1734C50.4331 29.4974 50.2731 28.7134 50.2731 27.8214C50.2731 26.9294 50.4331 26.1454 50.7531 25.4694C51.0771 24.7934 51.5431 24.2674 52.1511 23.8914C52.7591 23.5114 53.4951 23.3214 54.3591 23.3214C55.2191 23.3214 55.9531 23.5114 56.5611 23.8914C57.1731 24.2674 57.6391 24.7934 57.9591 25.4694C58.2791 26.1454 58.4391 26.9294 58.4391 27.8214C58.4391 28.7134 58.2791 29.4974 57.9591 30.1734C57.6391 30.8494 57.1731 31.3774 56.5611 31.7574C55.9531 32.1334 55.2191 32.3214 54.3591 32.3214ZM54.3591 31.1274C54.9711 31.1354 55.4791 31.0014 55.8831 30.7254C56.2911 30.4454 56.5971 30.0574 56.8011 29.5614C57.0051 29.0614 57.1071 28.4814 57.1071 27.8214C57.1071 27.1614 57.0051 26.5854 56.8011 26.0934C56.5971 25.5974 56.2911 25.2114 55.8831 24.9354C55.4791 24.6594 54.9711 24.5194 54.3591 24.5154C53.7471 24.5074 53.2371 24.6414 52.8291 24.9174C52.4251 25.1934 52.1211 25.5814 51.9171 26.0814C51.7131 26.5814 51.6091 27.1614 51.6051 27.8214C51.6011 28.4814 51.7011 29.0594 51.9051 29.5554C52.1091 30.0474 52.4151 30.4314 52.8231 30.7074C53.2351 30.9834 53.7471 31.1234 54.3591 31.1274ZM63.2419 32.3214C62.3779 32.3214 61.6419 32.1334 61.0339 31.7574C60.4259 31.3774 59.9599 30.8494 59.6359 30.1734C59.3159 29.4974 59.1559 28.7134 59.1559 27.8214C59.1559 26.9294 59.3159 26.1454 59.6359 25.4694C59.9599 24.7934 60.4259 24.2674 61.0339 23.8914C61.6419 23.5114 62.3779 23.3214 63.2419 23.3214C64.2379 23.3214 65.0619 23.5734 65.7139 24.0774C66.3699 24.5814 66.8259 25.2594 67.0819 26.1114L65.8099 26.4534C65.6419 25.8494 65.3419 25.3754 64.9099 25.0314C64.4819 24.6874 63.9259 24.5154 63.2419 24.5154C62.6299 24.5154 62.1199 24.6534 61.7119 24.9294C61.3039 25.2054 60.9959 25.5914 60.7879 26.0874C60.5839 26.5834 60.4819 27.1614 60.4819 27.8214C60.4779 28.4814 60.5779 29.0594 60.7819 29.5554C60.9899 30.0514 61.2979 30.4374 61.7059 30.7134C62.1179 30.9894 62.6299 31.1274 63.2419 31.1274C63.9259 31.1274 64.4819 30.9554 64.9099 30.6114C65.3419 30.2634 65.6419 29.7894 65.8099 29.1894L67.0819 29.5314C66.8259 30.3834 66.3699 31.0614 65.7139 31.5654C65.0619 32.0694 64.2379 32.3214 63.2419 32.3214ZM72.0075 32.3214C71.1435 32.3214 70.4075 32.1334 69.7995 31.7574C69.1915 31.3774 68.7255 30.8494 68.4015 30.1734C68.0815 29.4974 67.9215 28.7134 67.9215 27.8214C67.9215 26.9294 68.0815 26.1454 68.4015 25.4694C68.7255 24.7934 69.1915 24.2674 69.7995 23.8914C70.4075 23.5114 71.1435 23.3214 72.0075 23.3214C73.0035 23.3214 73.8275 23.5734 74.4795 24.0774C75.1355 24.5814 75.5915 25.2594 75.8475 26.1114L74.5755 26.4534C74.4075 25.8494 74.1075 25.3754 73.6755 25.0314C73.2475 24.6874 72.6915 24.5154 72.0075 24.5154C71.3955 24.5154 70.8855 24.6534 70.4775 24.9294C70.0695 25.2054 69.7615 25.5914 69.5535 26.0874C69.3495 26.5834 69.2475 27.1614 69.2475 27.8214C69.2435 28.4814 69.3435 29.0594 69.5475 29.5554C69.7555 30.0514 70.0635 30.4374 70.4715 30.7134C70.8835 30.9894 71.3955 31.1274 72.0075 31.1274C72.6915 31.1274 73.2475 30.9554 73.6755 30.6114C74.1075 30.2634 74.4075 29.7894 74.5755 29.1894L75.8475 29.5314C75.5915 30.3834 75.1355 31.0614 74.4795 31.5654C73.8275 32.0694 73.0035 32.3214 72.0075 32.3214ZM83.9651 32.1414H82.6931V25.7154L78.4391 32.1414H77.1671V23.5014H78.4391V29.9214L82.6931 23.5014H83.9651V32.1414ZM85.6398 32.1414V23.5014H86.9118V29.9214L91.1658 23.5014H92.4378V32.1414H91.1658V25.7154L86.9118 32.1414H85.6398ZM89.0598 22.7574C88.7398 22.7574 88.4498 22.6794 88.1898 22.5234C87.9298 22.3674 87.7218 22.1594 87.5658 21.8994C87.4098 21.6394 87.3318 21.3494 87.3318 21.0294H88.3278C88.3278 21.2294 88.3998 21.4014 88.5438 21.5454C88.6878 21.6894 88.8598 21.7614 89.0598 21.7614C89.2638 21.7614 89.4358 21.6894 89.5758 21.5454C89.7198 21.4014 89.7918 21.2294 89.7918 21.0294H90.7878C90.7878 21.3494 90.7098 21.6394 90.5538 21.8994C90.3978 22.1594 90.1878 22.3674 89.9238 22.5234C89.6638 22.6794 89.3758 22.7574 89.0598 22.7574ZM97.7185 32.3214C96.8545 32.3214 96.1185 32.1334 95.5105 31.7574C94.9025 31.3774 94.4365 30.8494 94.1125 30.1734C93.7925 29.4974 93.6325 28.7134 93.6325 27.8214C93.6325 26.9294 93.7925 26.1454 94.1125 25.4694C94.4365 24.7934 94.9025 24.2674 95.5105 23.8914C96.1185 23.5114 96.8545 23.3214 97.7185 23.3214C98.7145 23.3214 99.5385 23.5734 100.19 24.0774C100.846 24.5814 101.302 25.2594 101.558 26.1114L100.286 26.4534C100.118 25.8494 99.8185 25.3754 99.3865 25.0314C98.9585 24.6874 98.4025 24.5154 97.7185 24.5154C97.1065 24.5154 96.5965 24.6534 96.1885 24.9294C95.7805 25.2054 95.4725 25.5914 95.2645 26.0874C95.0605 26.5834 94.9585 27.1614 94.9585 27.8214C94.9545 28.4814 95.0545 29.0594 95.2585 29.5554C95.4665 30.0514 95.7745 30.4374 96.1825 30.7134C96.5945 30.9894 97.1065 31.1274 97.7185 31.1274C98.4025 31.1274 98.9585 30.9554 99.3865 30.6114C99.8185 30.2634 100.118 29.7894 100.286 29.1894L101.558 29.5314C101.302 30.3834 100.846 31.0614 100.19 31.5654C99.5385 32.0694 98.7145 32.3214 97.7185 32.3214ZM102.878 32.1414V23.5014H104.132V27.5334L107.75 23.5014H109.31L105.488 27.7194L109.592 32.1414H107.984L104.132 28.0134V32.1414H102.878ZM117.235 32.1414H115.963V25.7154L111.709 32.1414H110.437V23.5014H111.709V29.9214L115.963 23.5014H117.235V32.1414ZM118.909 32.1414V23.5014H120.181V29.9214L124.435 23.5014H125.707V32.1414H124.435V25.7154L120.181 32.1414H118.909ZM122.329 22.7574C122.009 22.7574 121.719 22.6794 121.459 22.5234C121.199 22.3674 120.991 22.1594 120.835 21.8994C120.679 21.6394 120.601 21.3494 120.601 21.0294H121.597C121.597 21.2294 121.669 21.4014 121.813 21.5454C121.957 21.6894 122.129 21.7614 122.329 21.7614C122.533 21.7614 122.705 21.6894 122.845 21.5454C122.989 21.4014 123.061 21.2294 123.061 21.0294H124.057C124.057 21.3494 123.979 21.6394 123.823 21.8994C123.667 22.1594 123.457 22.3674 123.193 22.5234C122.933 22.6794 122.645 22.7574 122.329 22.7574ZM131.026 32.1414L132.118 29.9034L129.106 23.5014H130.516L132.772 28.5714L135.088 23.5014H136.426L132.382 32.1414H131.026ZM142.418 32.1414V28.2294L142.652 28.6074C142.408 28.8034 142.084 28.9594 141.68 29.0754C141.276 29.1874 140.838 29.2434 140.366 29.2434C139.63 29.2434 139.042 29.1034 138.602 28.8234C138.166 28.5394 137.85 28.1494 137.654 27.6534C137.462 27.1574 137.366 26.5874 137.366 25.9434V23.5014H138.638V25.5414C138.638 25.8734 138.662 26.1894 138.71 26.4894C138.758 26.7894 138.85 27.0574 138.986 27.2934C139.122 27.5254 139.32 27.7094 139.58 27.8454C139.84 27.9774 140.18 28.0434 140.6 28.0434C141.088 28.0434 141.506 27.9654 141.854 27.8094C142.202 27.6494 142.452 27.4794 142.604 27.2994L142.418 28.0194V23.5014H143.684V32.1414H142.418ZM152.157 32.1414H150.885V25.7154L146.631 32.1414H145.359V23.5014H146.631V29.9214L150.885 23.5014H152.157V32.1414ZM155.985 32.1414V24.6834H153.111V23.5014H160.113V24.6834H157.239V32.1414H155.985ZM161.073 32.1414V23.5014H166.593V24.6834H162.327V27.1074H165.873V28.2894H162.327V30.9594H166.593V32.1414H161.073ZM167.434 32.1414V31.0674C167.638 31.0874 167.806 31.0774 167.938 31.0374C168.074 30.9934 168.188 30.9094 168.28 30.7854C168.372 30.6574 168.45 30.4734 168.514 30.2334C168.582 29.9934 168.648 29.6834 168.712 29.3034C168.8 28.8194 168.874 28.3214 168.934 27.8094C168.994 27.2974 169.044 26.7894 169.084 26.2854C169.128 25.7774 169.164 25.2874 169.192 24.8154C169.22 24.3434 169.242 23.9054 169.258 23.5014H174.928V32.1414H173.674V24.6834H170.434C170.414 25.0034 170.39 25.3614 170.362 25.7574C170.334 26.1534 170.3 26.5734 170.26 27.0174C170.22 27.4614 170.17 27.9194 170.11 28.3914C170.054 28.8634 169.982 29.3374 169.894 29.8134C169.822 30.2214 169.734 30.5894 169.63 30.9174C169.526 31.2454 169.386 31.5194 169.21 31.7394C169.034 31.9554 168.804 32.0994 168.52 32.1714C168.236 32.2474 167.874 32.2374 167.434 32.1414ZM176.606 32.1414V23.5014H177.86V26.6034H180.098C180.178 26.6034 180.28 26.6074 180.404 26.6154C180.532 26.6194 180.65 26.6314 180.758 26.6514C181.238 26.7274 181.638 26.8914 181.958 27.1434C182.282 27.3954 182.524 27.7134 182.684 28.0974C182.848 28.4814 182.93 28.9074 182.93 29.3754C182.93 29.8394 182.85 30.2634 182.69 30.6474C182.53 31.0314 182.288 31.3494 181.964 31.6014C181.644 31.8534 181.242 32.0174 180.758 32.0934C180.65 32.1094 180.534 32.1214 180.41 32.1294C180.286 32.1374 180.182 32.1414 180.098 32.1414H176.606ZM177.86 30.9594H180.05C180.126 30.9594 180.212 30.9554 180.308 30.9474C180.408 30.9394 180.502 30.9234 180.59 30.8994C180.85 30.8394 181.056 30.7294 181.208 30.5694C181.364 30.4054 181.476 30.2194 181.544 30.0114C181.616 29.7994 181.652 29.5874 181.652 29.3754C181.652 29.1634 181.616 28.9514 181.544 28.7394C181.476 28.5274 181.364 28.3414 181.208 28.1814C181.056 28.0174 180.85 27.9054 180.59 27.8454C180.502 27.8214 180.408 27.8074 180.308 27.8034C180.212 27.7954 180.126 27.7914 180.05 27.7914H177.86V30.9594ZM46.1876 48.3214C45.5876 48.3214 45.0656 48.2334 44.6216 48.0574C44.1776 47.8814 43.8056 47.6534 43.5056 47.3734C43.2096 47.0894 42.9836 46.7874 42.8276 46.4674L43.9196 45.7594C44.0156 45.9954 44.1596 46.2174 44.3516 46.4254C44.5476 46.6334 44.7996 46.8034 45.1076 46.9354C45.4196 47.0634 45.7976 47.1274 46.2416 47.1274C46.6856 47.1274 47.0516 47.0614 47.3396 46.9294C47.6276 46.7934 47.8416 46.6134 47.9816 46.3894C48.1256 46.1614 48.1976 45.9054 48.1976 45.6214C48.1976 45.2894 48.1096 45.0334 47.9336 44.8534C47.7616 44.6694 47.5316 44.5414 47.2436 44.4694C46.9556 44.3934 46.6436 44.3494 46.3076 44.3374C46.0276 44.3294 45.8256 44.3234 45.7016 44.3194C45.5776 44.3114 45.4936 44.3074 45.4496 44.3074C45.4096 44.3074 45.3716 44.3074 45.3356 44.3074V43.1194C45.3796 43.1194 45.4556 43.1194 45.5636 43.1194C45.6756 43.1194 45.7916 43.1194 45.9116 43.1194C46.0316 43.1154 46.1296 43.1114 46.2056 43.1074C46.7016 43.0834 47.1016 42.9614 47.4056 42.7414C47.7136 42.5214 47.8676 42.2094 47.8676 41.8054C47.8676 41.4014 47.7176 41.0834 47.4176 40.8514C47.1216 40.6194 46.7316 40.5034 46.2476 40.5034C45.7876 40.5034 45.3916 40.6094 45.0596 40.8214C44.7276 41.0294 44.4716 41.2874 44.2916 41.5954L43.3676 40.7254C43.6556 40.3254 44.0496 39.9914 44.5496 39.7234C45.0496 39.4554 45.6276 39.3214 46.2836 39.3214C46.6556 39.3214 47.0156 39.3714 47.3636 39.4714C47.7116 39.5674 48.0236 39.7154 48.2996 39.9154C48.5756 40.1154 48.7936 40.3694 48.9536 40.6774C49.1176 40.9814 49.1996 41.3434 49.1996 41.7634C49.1996 42.1834 49.1136 42.5634 48.9416 42.9034C48.7736 43.2434 48.5476 43.5134 48.2636 43.7134C48.6596 43.8614 48.9696 44.0954 49.1936 44.4154C49.4176 44.7314 49.5296 45.1354 49.5296 45.6274C49.5296 46.1794 49.3836 46.6574 49.0916 47.0614C48.8036 47.4614 48.4076 47.7714 47.9036 47.9914C47.4036 48.2114 46.8316 48.3214 46.1876 48.3214ZM50.2117 48.1414L53.0197 39.5014H54.8257L57.6337 48.1414H56.3317L53.7457 40.2574H54.0697L51.5137 48.1414H50.2117ZM51.6697 46.1914V45.0154H56.1817V46.1914H51.6697ZM61.1125 48.1414V39.5014H64.6045C64.6885 39.5014 64.7925 39.5054 64.9165 39.5134C65.0405 39.5174 65.1585 39.5294 65.2705 39.5494C65.7505 39.6254 66.1505 39.7894 66.4705 40.0414C66.7945 40.2934 67.0365 40.6114 67.1965 40.9954C67.3565 41.3794 67.4365 41.8034 67.4365 42.2674C67.4365 42.7354 67.3565 43.1614 67.1965 43.5454C67.0365 43.9294 66.7945 44.2474 66.4705 44.4994C66.1505 44.7514 65.7505 44.9154 65.2705 44.9914C65.1585 45.0074 65.0385 45.0194 64.9105 45.0274C64.7865 45.0354 64.6845 45.0394 64.6045 45.0394H62.3665V48.1414H61.1125ZM62.3665 43.8514H64.5565C64.6365 43.8514 64.7245 43.8474 64.8205 43.8394C64.9205 43.8314 65.0145 43.8174 65.1025 43.7974C65.3585 43.7374 65.5645 43.6274 65.7205 43.4674C65.8765 43.3034 65.9885 43.1154 66.0565 42.9034C66.1245 42.6914 66.1585 42.4794 66.1585 42.2674C66.1585 42.0554 66.1245 41.8454 66.0565 41.6374C65.9885 41.4254 65.8765 41.2394 65.7205 41.0794C65.5645 40.9154 65.3585 40.8034 65.1025 40.7434C65.0145 40.7194 64.9205 40.7034 64.8205 40.6954C64.7245 40.6874 64.6365 40.6834 64.5565 40.6834H62.3665V43.8514ZM69.8779 48.1414L70.9699 45.9034L67.9579 39.5014H69.3679L71.6239 44.5714L73.9399 39.5014H75.2779L71.2339 48.1414H69.8779ZM76.2179 48.1414V39.5014H81.8519V40.6834H77.4719V42.7654H79.7099C79.7899 42.7654 79.8919 42.7694 80.0159 42.7774C80.1439 42.7814 80.2639 42.7914 80.3759 42.8074C80.8439 42.8634 81.2379 43.0154 81.5579 43.2634C81.8819 43.5114 82.1259 43.8254 82.2899 44.2054C82.4579 44.5854 82.5419 45.0014 82.5419 45.4534C82.5419 45.9054 82.4599 46.3214 82.2959 46.7014C82.1319 47.0814 81.8879 47.3954 81.5639 47.6434C81.2439 47.8914 80.8479 48.0434 80.3759 48.0994C80.2639 48.1154 80.1459 48.1274 80.0219 48.1354C79.8979 48.1394 79.7939 48.1414 79.7099 48.1414H76.2179ZM77.4719 46.9594H79.6619C79.7419 46.9594 79.8299 46.9554 79.9259 46.9474C80.0259 46.9394 80.1199 46.9274 80.2079 46.9114C80.5959 46.8314 80.8679 46.6474 81.0239 46.3594C81.1839 46.0714 81.2639 45.7694 81.2639 45.4534C81.2639 45.1334 81.1839 44.8314 81.0239 44.5474C80.8679 44.2594 80.5959 44.0754 80.2079 43.9954C80.1199 43.9754 80.0259 43.9634 79.9259 43.9594C79.8299 43.9514 79.7419 43.9474 79.6619 43.9474H77.4719V46.9594ZM83.7414 48.1414V39.5014H89.2614V40.6834H84.9954V43.1074H88.5414V44.2894H84.9954V46.9594H89.2614V48.1414H83.7414ZM89.9823 48.1414L93.4263 43.7194L90.2643 39.5014H91.7823L94.6803 43.4554V39.5014H95.9343V43.4554L98.8323 39.5014H100.35L97.1883 43.7194L100.632 48.1414H99.0603L95.9343 44.0914V48.1414H94.6803V44.0914L91.5483 48.1414H89.9823ZM104.75 48.3214C103.886 48.3214 103.15 48.1334 102.542 47.7574C101.934 47.3774 101.468 46.8494 101.144 46.1734C100.824 45.4974 100.664 44.7134 100.664 43.8214C100.664 42.9294 100.824 42.1454 101.144 41.4694C101.468 40.7934 101.934 40.2674 102.542 39.8914C103.15 39.5114 103.886 39.3214 104.75 39.3214C105.61 39.3214 106.344 39.5114 106.952 39.8914C107.564 40.2674 108.03 40.7934 108.35 41.4694C108.67 42.1454 108.83 42.9294 108.83 43.8214C108.83 44.7134 108.67 45.4974 108.35 46.1734C108.03 46.8494 107.564 47.3774 106.952 47.7574C106.344 48.1334 105.61 48.3214 104.75 48.3214ZM104.75 47.1274C105.362 47.1354 105.87 47.0014 106.274 46.7254C106.682 46.4454 106.988 46.0574 107.192 45.5614C107.396 45.0614 107.498 44.4814 107.498 43.8214C107.498 43.1614 107.396 42.5854 107.192 42.0934C106.988 41.5974 106.682 41.2114 106.274 40.9354C105.87 40.6594 105.362 40.5194 104.75 40.5154C104.138 40.5074 103.628 40.6414 103.22 40.9174C102.816 41.1934 102.512 41.5814 102.308 42.0814C102.104 42.5814 102 43.1614 101.996 43.8214C101.992 44.4814 102.092 45.0594 102.296 45.5554C102.5 46.0474 102.806 46.4314 103.214 46.7074C103.626 46.9834 104.138 47.1234 104.75 47.1274ZM110.027 48.1414V39.5014H111.161L114.293 45.9994L117.407 39.5014H118.553V48.1354H117.365V42.2254L114.575 48.1414H114.005L111.209 42.2254V48.1414H110.027Z" fill="white"/>
</svg>
