<svg width="97" height="30" viewBox="0 0 97 30" fill="none" xmlns="http://www.w3.org/2000/svg">
<g clip-path="url(#clip0_1387_12658)">
<path d="M15.4116 5.4727C15.3464 5.40914 15.2614 5.36969 15.1708 5.36082C15.0801 5.35194 14.9892 5.37419 14.9128 5.42389C14.8373 5.47373 14.7813 5.54814 14.7544 5.63451C14.7277 5.72044 14.7322 5.81301 14.7671 5.89596C14.8023 5.97989 14.8653 6.0491 14.9457 6.0919C15.026 6.13469 15.1186 6.14845 15.2079 6.13084C15.2972 6.11323 15.3777 6.06534 15.4358 5.99526C15.4939 5.92517 15.526 5.83719 15.5267 5.74618C15.5267 5.69547 15.5167 5.64525 15.4972 5.5984C15.4772 5.55132 15.4481 5.50862 15.4116 5.4727ZM19.1655 6.74314C19.1003 6.67948 19.0154 6.6399 18.9247 6.63091C18.8341 6.62192 18.7431 6.64405 18.6667 6.69366C18.591 6.74318 18.5347 6.81736 18.5075 6.90362C18.4809 6.98999 18.4855 7.08296 18.5205 7.1663C18.5554 7.24963 18.6185 7.31806 18.6987 7.35964C18.7796 7.40218 18.8725 7.41587 18.9622 7.39842C19.0513 7.38134 19.1318 7.33412 19.1902 7.26469C19.248 7.19548 19.2798 7.10816 19.2798 7.01796C19.2799 6.96695 19.2697 6.91646 19.2497 6.86952C19.2299 6.8223 19.2008 6.77955 19.1641 6.74381L19.1655 6.74314ZM11.6251 6.74314C11.5598 6.67959 11.4749 6.64013 11.3842 6.63126C11.2935 6.62239 11.2026 6.64463 11.1262 6.69433C11.069 6.73095 11.0225 6.78203 10.9914 6.84241C10.9602 6.90278 10.9456 6.9703 10.9489 7.03815C10.9522 7.106 10.9734 7.17177 11.0103 7.2288C11.0472 7.28584 11.0985 7.33213 11.159 7.36298C11.2402 7.40439 11.3332 7.41689 11.4224 7.39842C11.5116 7.38134 11.5921 7.33412 11.6505 7.26469C11.7083 7.19548 11.74 7.10816 11.7401 7.01796C11.7398 6.96699 11.7296 6.91655 11.71 6.86952C11.6897 6.8224 11.6604 6.77971 11.6237 6.74381L11.6251 6.74314ZM15.1328 0.0432231C18.5354 0.040118 21.8364 1.20229 24.4866 3.33635C27.1142 5.45096 28.9207 8.41698 29.5938 11.7219C30.2596 15.0164 29.7445 18.44 28.1388 21.3927C26.517 24.3655 23.9163 26.6853 20.7783 27.9582C17.622 29.243 14.1217 29.4124 10.8561 28.4383C7.6052 27.4732 4.78676 25.4161 2.87638 22.6143C0.982534 19.8311 0.128403 16.4703 0.463618 13.1206C0.798833 9.77086 2.30202 6.64592 4.70983 4.29319C6.08237 2.94096 7.70691 1.87118 9.49137 1.1445C11.2826 0.415004 13.1987 0.0409644 15.1328 0.0432231ZM15.411 10.2375C15.3457 10.174 15.2608 10.1345 15.1701 10.1256C15.0795 10.1168 14.9885 10.139 14.9122 10.1887C14.8365 10.2379 14.7804 10.3121 14.7538 10.3984C14.7272 10.4846 14.7316 10.5775 14.7664 10.6608C14.8018 10.744 14.8649 10.8125 14.9449 10.8547C15.0258 10.897 15.1188 10.9105 15.2084 10.8928C15.2975 10.8757 15.378 10.8285 15.4364 10.7591C15.4983 10.685 15.5302 10.5903 15.5256 10.4938C15.521 10.3973 15.4803 10.3061 15.4116 10.2382L15.411 10.2375ZM15.411 14.8987C15.3461 14.8346 15.2611 14.7949 15.1703 14.7864C15.0796 14.7774 14.9886 14.7996 14.9122 14.8492C14.8363 14.8987 14.7802 14.9733 14.7537 15.0599C14.727 15.1458 14.7315 15.2384 14.7664 15.3213C14.8016 15.4047 14.8647 15.4732 14.9449 15.5152C15.0249 15.5578 15.117 15.5717 15.206 15.5548C15.295 15.5379 15.3756 15.4912 15.4344 15.4223C15.4963 15.3483 15.5281 15.2537 15.5235 15.1573C15.5189 15.061 15.4783 14.9699 15.4096 14.9021L15.411 14.8987ZM8.64151 9.26063C8.57682 9.19667 8.49203 9.15699 8.40147 9.14829C8.3101 9.14035 8.21878 9.16395 8.1427 9.21516C8.06722 9.26475 8.01123 9.33893 7.98423 9.42511C7.95759 9.51127 7.96209 9.60405 7.99693 9.68723C8.03243 9.77065 8.09576 9.83918 8.17613 9.88114C8.25705 9.92345 8.34999 9.9369 8.43958 9.91925C8.52866 9.90212 8.60916 9.85491 8.66759 9.78552C8.71245 9.73139 8.7417 9.66605 8.75219 9.59654C8.76268 9.52702 8.754 9.45597 8.7271 9.39101C8.70758 9.34226 8.67848 9.29793 8.64151 9.26063ZM22.1082 9.26063C22.043 9.19697 21.9581 9.15739 21.8675 9.14839C21.7768 9.1394 21.6858 9.16153 21.6094 9.21115C21.5337 9.26067 21.4775 9.33485 21.4503 9.4211C21.4236 9.50726 21.4281 9.60004 21.463 9.68322C21.4982 9.76659 21.5613 9.83513 21.6415 9.87713C21.7223 9.91937 21.815 9.93285 21.9045 9.91534C21.9939 9.89784 22.0747 9.8504 22.1336 9.78084C22.1953 9.70669 22.2269 9.61211 22.2222 9.51579C22.2175 9.41946 22.1768 9.32841 22.1082 9.26063ZM7.21862 17.4797C7.15345 17.4161 7.06855 17.3765 6.97789 17.3675C6.88723 17.3585 6.79621 17.3806 6.7198 17.4302C6.64411 17.4798 6.58789 17.5539 6.56066 17.6402C6.53403 17.7264 6.53852 17.8191 6.57337 17.9023C6.6086 17.9857 6.67171 18.0542 6.7519 18.0962C6.83274 18.1388 6.92568 18.1525 7.01535 18.135C7.10451 18.1181 7.18507 18.0708 7.24336 18.0013C7.3053 17.9272 7.33713 17.8325 7.33255 17.736C7.32797 17.6395 7.2873 17.5483 7.21862 17.4804V17.4797ZM9.62176 20.4766C9.55659 20.413 9.47169 20.3734 9.38103 20.3644C9.29037 20.3554 9.19936 20.3775 9.12295 20.4272C9.04726 20.4767 8.99103 20.5509 8.96381 20.6371C8.93717 20.7233 8.94167 20.816 8.97651 20.8992C9.01201 20.9826 9.07534 21.0512 9.15571 21.0931C9.23641 21.1352 9.32901 21.1486 9.41831 21.1311C9.50761 21.1136 9.58832 21.0663 9.64717 20.9968C9.70486 20.9275 9.73655 20.8403 9.73677 20.7501C9.73681 20.6991 9.72658 20.6486 9.70668 20.6017C9.68728 20.5544 9.65838 20.5116 9.62176 20.476V20.4766ZM11.7755 12.2462C11.7102 12.1826 11.6253 12.1432 11.5347 12.1343C11.444 12.1254 11.353 12.1477 11.2767 12.1974C11.2007 12.2466 11.1444 12.3209 11.1175 12.4073C11.0911 12.4933 11.0958 12.5859 11.1309 12.6688C11.1659 12.7524 11.2291 12.8213 11.3094 12.8633C11.3904 12.9057 11.4833 12.9191 11.5729 12.9014C11.662 12.8844 11.7425 12.8371 11.8009 12.7677C11.8588 12.6983 11.8905 12.6107 11.8905 12.5203C11.8906 12.4691 11.8804 12.4184 11.8604 12.3712C11.8408 12.3239 11.8119 12.2809 11.7755 12.2448V12.2462ZM23.3245 17.3667C23.2342 17.3671 23.1467 17.3982 23.0764 17.455C23.0074 17.5118 22.9602 17.5907 22.9427 17.6783C22.9253 17.7659 22.9393 17.8568 22.9822 17.9351C23.0253 18.0141 23.0946 18.0758 23.1781 18.1096C23.2619 18.1434 23.3548 18.1479 23.4415 18.1223C23.5279 18.0966 23.6028 18.0418 23.6535 17.9672C23.7038 17.8931 23.7265 17.8037 23.7176 17.7146C23.7086 17.6255 23.6687 17.5424 23.6047 17.4797C23.5683 17.4435 23.5251 17.4149 23.4776 17.3955C23.4296 17.376 23.3783 17.366 23.3265 17.3661L23.3245 17.3667ZM21.0665 20.3636C20.976 20.3642 20.8883 20.3953 20.8177 20.4519C20.7487 20.5086 20.7014 20.5876 20.684 20.6752C20.6663 20.7628 20.6803 20.8538 20.7234 20.932C20.7661 21.0106 20.8346 21.072 20.9173 21.1058C21.0012 21.1396 21.0941 21.1441 21.1808 21.1185C21.2672 21.0928 21.3421 21.038 21.3928 20.9634C21.4431 20.8893 21.4658 20.7999 21.4568 20.7108C21.4479 20.6217 21.408 20.5386 21.3439 20.476C21.3074 20.4397 21.264 20.4111 21.2162 20.3917C21.1684 20.3723 21.1174 20.3623 21.0658 20.3623L21.0665 20.3636ZM23.6073 12.3291C23.5168 12.3289 23.429 12.3598 23.3586 12.4167C23.2887 12.4727 23.2406 12.5516 23.2229 12.6395C23.2052 12.7273 23.2189 12.8186 23.2616 12.8974C23.305 12.9763 23.3742 13.0379 23.4576 13.072C23.5426 13.1067 23.637 13.1112 23.725 13.0847C23.8114 13.0589 23.8863 13.0041 23.937 12.9295C23.9883 12.856 24.012 12.7667 24.0039 12.6775C23.9947 12.5882 23.9547 12.505 23.8909 12.4421C23.8543 12.4056 23.8109 12.3768 23.7632 12.3572C23.7154 12.3375 23.6643 12.3275 23.6127 12.3277L23.6073 12.3291ZM20.1731 15.3969C20.0824 15.3967 19.9944 15.4276 19.9237 15.4845C19.8548 15.5413 19.8076 15.6202 19.79 15.7078C19.7724 15.7957 19.7861 15.887 19.8288 15.9659C19.8722 16.0451 19.9416 16.107 20.0254 16.1411C20.1094 16.175 20.2025 16.1795 20.2895 16.1538C20.3761 16.1281 20.4512 16.0733 20.5021 15.9987C20.5534 15.9249 20.5771 15.8354 20.569 15.7459C20.5614 15.6758 20.535 15.609 20.4927 15.5527C20.4503 15.4963 20.3935 15.4524 20.3283 15.4256C20.2805 15.406 20.2294 15.3958 20.1778 15.3955L20.1731 15.3969ZM17.4865 18.1136C17.396 18.1141 17.3083 18.1452 17.2377 18.2019C17.1678 18.2579 17.1198 18.3368 17.1021 18.4247C17.0843 18.5125 17.098 18.6038 17.1408 18.6826C17.1842 18.7615 17.2533 18.8231 17.3367 18.8572C17.4208 18.8911 17.5139 18.8956 17.6008 18.8699C17.6873 18.844 17.7624 18.7892 17.8134 18.7147C17.8638 18.6407 17.8865 18.5513 17.8775 18.4621C17.8686 18.373 17.8286 18.2899 17.7646 18.2273C17.7281 18.1908 17.6847 18.162 17.637 18.1424C17.5892 18.1227 17.5381 18.1127 17.4865 18.1129V18.1136ZM6.93377 12.4407C6.8686 12.3771 6.7837 12.3375 6.69304 12.3285C6.60238 12.3195 6.51136 12.3417 6.43496 12.3913C6.35836 12.4403 6.30134 12.5146 6.27381 12.6012C6.24681 12.6871 6.25132 12.7798 6.28651 12.8627C6.32153 12.9464 6.38467 13.0152 6.46504 13.0572C6.54569 13.0996 6.63837 13.1133 6.72783 13.096C6.817 13.0786 6.89762 13.0315 6.95651 12.9623C7.01435 12.8933 7.04607 12.8062 7.04611 12.7162C7.04595 12.6652 7.0357 12.6147 7.01596 12.5677C6.99623 12.5206 6.96739 12.4779 6.9311 12.4421L6.93377 12.4407ZM10.368 15.5085C10.303 15.445 10.2184 15.4054 10.1279 15.3962C10.037 15.3877 9.94582 15.41 9.86917 15.4597C9.79364 15.5096 9.73766 15.584 9.71069 15.6703C9.68405 15.7563 9.68855 15.8489 9.7234 15.9318C9.7589 16.0152 9.82223 16.0837 9.9026 16.1257C9.98329 16.1678 10.0759 16.1812 10.1652 16.1637C10.2545 16.1462 10.3352 16.0988 10.3941 16.0294C10.4517 15.9601 10.4832 15.8728 10.483 15.7827C10.4833 15.7317 10.4733 15.6812 10.4536 15.6342C10.4335 15.5872 10.4044 15.5445 10.368 15.5085ZM13.0546 18.2259C12.9895 18.1623 12.9046 18.1227 12.8139 18.1137C12.7232 18.1047 12.6322 18.1269 12.5558 18.1765C12.48 18.2258 12.4237 18.3001 12.3967 18.3864C12.3704 18.4729 12.3752 18.5658 12.4103 18.6491C12.4453 18.7324 12.5084 18.8008 12.5886 18.8424C12.6691 18.8851 12.7619 18.8989 12.8514 18.8813C12.9408 18.8638 13.0216 18.8161 13.08 18.7462C13.1421 18.6724 13.1739 18.578 13.1692 18.4817C13.1645 18.3855 13.1236 18.2946 13.0546 18.2273V18.2259ZM12.5344 19.7485C12.3483 19.7133 12.1721 19.6377 12.0182 19.5271L10.6013 20.4559C10.6716 20.7462 10.636 21.052 10.501 21.3185C10.3649 21.5868 10.1386 21.7987 9.86181 21.9169C9.58347 22.0365 9.27234 22.0561 8.98119 21.9724C8.69132 21.8893 8.43965 21.7074 8.26974 21.4582C8.10138 21.2108 8.02679 20.9115 8.05939 20.614C8.09199 20.3165 8.22965 20.0405 8.44761 19.8354C8.66796 19.6281 8.95334 19.5035 9.2552 19.4829C9.55705 19.4623 9.85672 19.5469 10.1032 19.7224L11.5201 18.7936C11.4794 18.6267 11.4735 18.4532 11.5027 18.2839C11.532 18.1145 11.5957 17.953 11.6899 17.8094L10.6869 16.91C10.4887 17.011 10.2681 17.0598 10.0458 17.0518C9.82354 17.0439 9.60695 16.9794 9.41649 16.8646L8.21291 17.5419C8.22436 17.6111 8.23018 17.6811 8.23029 17.7512C8.22991 18.0411 8.1298 18.3221 7.94678 18.5469C7.76052 18.773 7.50372 18.93 7.21756 18.9927C6.9314 19.0554 6.63249 19.0201 6.36876 18.8926C6.10542 18.7665 5.89309 18.5541 5.76697 18.2908C5.64242 18.0296 5.61218 17.7333 5.68138 17.4523C5.75174 17.1698 5.91698 16.9201 6.14944 16.7449C6.38332 16.5683 6.66969 16.4753 6.96271 16.4807C7.25572 16.4862 7.53843 16.5898 7.76558 16.775L8.85615 16.1598C8.7679 15.8801 8.77996 15.5784 8.89025 15.3066L7.25071 13.8422C6.98135 13.9794 6.67286 14.0194 6.37745 13.9552C6.08266 13.8906 5.81969 13.725 5.63391 13.4872C5.44949 13.2522 5.35491 12.9592 5.36716 12.6608C5.37942 12.3623 5.49771 12.0781 5.70077 11.859C5.90693 11.638 6.18337 11.4953 6.48296 11.4553C6.78255 11.4153 7.08674 11.4805 7.34366 11.6397C7.59941 11.7963 7.7915 12.0384 7.88594 12.3231C7.97954 12.606 7.96887 12.9132 7.85585 13.189L9.49539 14.654C9.67971 14.5594 9.88399 14.5104 10.0912 14.5109C10.1491 14.511 10.2069 14.5148 10.2643 14.5223L10.6555 13.4832C10.6308 13.4625 10.6074 13.4404 10.584 13.4163C10.386 13.2229 10.2575 12.9694 10.2185 12.6954C10.1794 12.4214 10.232 12.1422 10.368 11.9011L8.97116 10.6541C8.70395 10.7946 8.39627 10.8381 8.10059 10.7771C7.8049 10.7162 7.53952 10.5545 7.34967 10.3198C7.16257 10.0865 7.06488 9.79417 7.07419 9.49531C7.08351 9.19644 7.19922 8.91072 7.40049 8.68959C7.60415 8.46651 7.87885 8.32093 8.1778 8.27765C8.47675 8.23437 8.78146 8.29606 9.04003 8.45222C9.297 8.60715 9.49114 8.84769 9.58833 9.13158C9.68503 9.41466 9.6772 9.72301 9.56626 10.0008L11.054 11.3274C11.2755 11.2478 11.5143 11.2293 11.7454 11.2739C11.976 11.3176 12.1902 11.4232 12.3653 11.5795C12.5393 11.7343 12.6674 11.9339 12.7357 12.1566C12.8033 12.3785 12.8079 12.6148 12.7491 12.8393L14.287 14.214C14.404 14.1143 14.5378 14.0362 14.6821 13.9833V11.7019C14.3799 11.592 14.1298 11.3727 13.9814 11.0874C13.8341 10.8043 13.8004 10.4757 13.8871 10.1687L11.8811 8.17473C11.6048 8.29797 11.2943 8.3216 11.0025 8.2416C10.712 8.16245 10.4584 7.98407 10.2857 7.73743C10.1143 7.4925 10.0358 7.19443 10.0645 6.89682C10.0932 6.59922 10.2271 6.32162 10.4422 6.11394C10.6595 5.90431 10.9428 5.77643 11.2438 5.75205C11.5447 5.72767 11.8449 5.80829 12.0931 5.98021C12.3396 6.15056 12.5179 6.40255 12.5966 6.69166C12.6748 6.97964 12.6473 7.28612 12.519 7.55556L14.426 9.44919C14.507 9.39758 14.5933 9.35498 14.6835 9.32214V6.93839C14.402 6.83544 14.1654 6.63719 14.0148 6.37806C13.8645 6.12121 13.8109 5.81908 13.8637 5.52619C13.9178 5.23249 14.0742 4.96743 14.305 4.77797C14.5382 4.58691 14.8304 4.48251 15.1318 4.48251C15.4333 4.48251 15.7254 4.58691 15.9586 4.77797C16.19 4.96637 16.3466 5.23114 16.4003 5.52468C16.454 5.81822 16.4012 6.12128 16.2515 6.37939C16.1007 6.63838 15.8642 6.83658 15.5828 6.93973V9.32214C15.6738 9.35562 15.7609 9.39913 15.8423 9.45186L17.7272 7.57963C17.5941 7.31272 17.5609 7.00699 17.6336 6.71773C17.7059 6.4264 17.8791 6.17009 18.1224 5.99425C18.3676 5.81802 18.6663 5.73224 18.9677 5.7515C19.2691 5.77076 19.5545 5.89388 19.7753 6.0999C19.994 6.30351 20.1329 6.57848 20.1669 6.87535C20.201 7.17222 20.128 7.4715 19.9612 7.71938C19.7928 7.96889 19.5426 8.15173 19.2537 8.23625C18.9644 8.32113 18.6546 8.3039 18.3765 8.18744L16.3785 10.1707C16.4654 10.4779 16.4319 10.8067 16.2849 11.0901C16.1363 11.3751 15.8863 11.5941 15.5842 11.7039V13.9813C15.7284 14.034 15.862 14.1122 15.9787 14.212L17.5166 12.8373C17.4574 12.6129 17.4621 12.3765 17.5299 12.1546C17.598 11.932 17.7259 11.7324 17.8997 11.5775C18.0748 11.4213 18.2891 11.3157 18.5196 11.2719C18.7506 11.2272 18.9895 11.2457 19.2109 11.3254L20.6499 10.0456C20.5269 9.77223 20.5062 9.46372 20.5917 9.17637C20.6768 8.88879 20.8608 8.64057 21.1113 8.47563C21.3636 8.30934 21.6658 8.23559 21.9664 8.26692C22.267 8.29825 22.5475 8.43272 22.7602 8.64747C22.9706 8.86011 23.0982 9.14095 23.1199 9.43936C23.1416 9.73777 23.056 10.0341 22.8785 10.275C22.6995 10.5175 22.4415 10.6899 22.149 10.7624C21.8551 10.836 21.5448 10.8053 21.2711 10.6755L19.899 11.8998C20.0354 12.1412 20.0878 12.4211 20.0481 12.6955C20.0083 12.9698 19.8796 13.2236 19.6817 13.4177C19.6583 13.4404 19.6349 13.4618 19.6101 13.4845L20.0026 14.5249C20.06 14.5169 20.1179 14.5129 20.1758 14.5129C20.3829 14.5127 20.5871 14.5618 20.7716 14.656L22.4111 13.1916C22.2976 12.9148 22.287 12.6064 22.381 12.3224C22.4757 12.0377 22.6677 11.7955 22.9233 11.6384C23.1806 11.4801 23.4848 11.4158 23.7842 11.4564C24.0835 11.497 24.3596 11.64 24.5655 11.861C24.769 12.0803 24.8875 12.3649 24.8998 12.6638C24.912 12.9626 24.8172 13.256 24.6324 13.4912C24.4467 13.7294 24.1833 13.895 23.8882 13.9593C23.5923 14.0237 23.2833 13.9838 23.0136 13.8463L21.374 15.3106C21.4849 15.582 21.4972 15.8836 21.4088 16.1631L22.4987 16.779C22.7256 16.5937 23.0081 16.49 23.301 16.4847C23.5939 16.4794 23.8801 16.5726 24.1135 16.7496C24.3457 16.9244 24.5109 17.1737 24.5816 17.4557C24.6504 17.7367 24.6202 18.0328 24.496 18.2941C24.3696 18.5573 24.1573 18.7695 23.8942 18.8959C23.63 19.0232 23.3308 19.0583 23.0443 18.9956C22.759 18.9333 22.503 18.7764 22.3182 18.5502C22.1347 18.3261 22.0343 18.0455 22.034 17.7559C22.0341 17.6858 22.0399 17.6158 22.0514 17.5466L20.8505 16.8659C20.66 16.9808 20.4434 17.0453 20.2211 17.0533C19.9989 17.0612 19.7782 17.0124 19.58 16.9114L18.5771 17.8087C18.6717 17.9522 18.7359 18.1136 18.7655 18.2829C18.7952 18.4522 18.7898 18.6258 18.7496 18.793L20.244 19.7719C20.4711 19.5874 20.7535 19.4843 21.0461 19.4791C21.3387 19.4739 21.6246 19.5668 21.8581 19.7431C22.0905 19.9182 22.2557 20.1677 22.3262 20.4499C22.3955 20.7307 22.3652 21.0268 22.2406 21.2877C22.1145 21.5511 21.9022 21.7634 21.6388 21.8895C21.375 22.0171 21.0759 22.0522 20.7896 21.9891C20.5042 21.9273 20.2482 21.7706 20.0635 21.5445C19.8802 21.3203 19.7801 21.0397 19.78 20.7501C19.78 20.68 19.7859 20.61 19.7973 20.5408L18.2487 19.5278C18.0946 19.6378 17.9185 19.7131 17.7325 19.7485V25.8934C17.9057 25.8526 18.0782 25.8078 18.2507 25.7597C18.5089 25.6841 18.7589 25.6079 19.013 25.5223C19.3424 25.4068 19.6665 25.2782 19.9852 25.1365C20.304 24.9947 20.6147 24.8409 20.9173 24.6751C21.2196 24.508 21.5109 24.3296 21.7913 24.1402C22.0694 23.9536 22.3436 23.7517 22.611 23.5384C22.8785 23.3251 23.1333 23.0991 23.3706 22.8698C23.608 22.6404 23.8461 22.3937 24.0687 22.1402C24.2914 21.8868 24.5013 21.6254 24.6979 21.3552C24.8945 21.0851 25.0777 20.811 25.2536 20.5188C25.4294 20.2266 25.5919 19.9297 25.7397 19.6301C25.8875 19.3306 26.0205 19.0203 26.1409 18.704C26.2612 18.3878 26.3702 18.0561 26.4632 17.7271C26.5561 17.3982 26.6343 17.0625 26.6959 16.7241C26.7574 16.3858 26.8082 16.0308 26.8403 15.6777C26.871 15.3434 26.8864 14.9863 26.8864 14.6139C26.8941 13.089 26.5958 11.5782 26.0091 10.1707C25.4206 8.75737 24.5569 7.47522 23.4683 6.39878C22.3717 5.317 21.0734 4.46118 19.6469 3.87996C16.7557 2.69871 13.5166 2.69871 10.6254 3.87996C9.19879 4.46202 7.90058 5.31901 6.80472 6.40213C5.71614 7.47859 4.85244 8.76074 4.26383 10.174C3.6759 11.5821 3.37667 13.094 3.38388 14.6199C3.38388 14.9923 3.39993 15.3481 3.43002 15.6837C3.46212 16.0359 3.51026 16.3847 3.57445 16.7302C3.63664 17.0645 3.71487 17.3988 3.80714 17.7331C3.89942 18.0675 4.00774 18.3878 4.12943 18.7087C4.25113 19.0297 4.38419 19.3359 4.53063 19.6348C4.67706 19.9337 4.83821 20.2286 5.01674 20.5234C5.19527 20.8183 5.37848 21.0931 5.57239 21.3599C5.7663 21.6267 5.9796 21.8908 6.20159 22.1443C6.42359 22.3977 6.65762 22.6411 6.90034 22.8744C7.14306 23.1078 7.3918 23.3244 7.65993 23.5431C7.92806 23.7617 8.20154 23.9617 8.4797 24.1482C8.75786 24.3348 9.05073 24.5146 9.35296 24.6831C9.6552 24.8516 9.96679 25.0054 10.2844 25.1472C10.602 25.2889 10.9263 25.4146 11.256 25.5317C11.5508 25.6353 11.8424 25.7189 12.1433 25.8038C12.2729 25.8432 12.4046 25.8756 12.5378 25.9008L12.5344 19.7485ZM12.7771 17.2276C13.0604 17.2275 13.336 17.3198 13.5621 17.4904C13.7867 17.6588 13.9491 17.8967 14.0242 18.1671C14.0983 18.4362 14.0804 18.7224 13.9734 18.9802C13.8654 19.2396 13.6747 19.4561 13.4311 19.596C13.4311 22.0544 13.4311 24.5126 13.4311 26.9706C13.1884 26.9245 11.0166 26.3554 10.9571 26.3554C10.6004 26.232 10.253 26.0947 9.91463 25.9436C9.57629 25.7924 9.24197 25.6262 8.91165 25.4447C8.59159 25.2664 8.27777 25.075 7.97019 24.8704C7.6626 24.6658 7.36795 24.4489 7.08622 24.2198C6.8094 23.9971 6.53659 23.7571 6.27047 23.503C6.00434 23.2489 5.75828 22.9901 5.52024 22.718C5.28219 22.4458 5.05552 22.163 4.84222 21.8701C4.62892 21.5772 4.42565 21.275 4.24043 20.9688C4.05521 20.6625 3.88136 20.3449 3.71955 20.0126C3.55773 19.6803 3.41665 19.3553 3.28693 19.0156C3.15721 18.6759 3.04153 18.3256 2.93923 17.9645C2.84116 17.6141 2.7578 17.2542 2.68915 16.8846C2.6205 16.5151 2.56924 16.1391 2.53536 15.7566C2.50059 15.3681 2.48254 14.9877 2.48254 14.6199C2.49602 12.9874 2.83307 11.3739 3.4742 9.87252C4.11532 8.37118 5.04778 7.01186 6.21764 5.87322C8.60534 3.55435 11.8027 2.25725 15.1311 2.25725C18.4595 2.25725 21.6569 3.55435 24.0446 5.87322C25.2146 7.01183 26.1472 8.37112 26.7884 9.87247C27.4296 11.3738 27.7668 12.9874 27.7804 14.6199C27.7804 14.9903 27.763 15.3715 27.7269 15.7566C27.6908 16.1417 27.6407 16.5135 27.5725 16.882C27.5043 17.2504 27.4207 17.6115 27.3224 17.9618C27.2241 18.3122 27.1051 18.6713 26.9754 19.013C26.8456 19.3546 26.7005 19.687 26.5421 20.0099C26.3798 20.3429 26.2062 20.6616 26.0212 20.9661C25.8362 21.2706 25.6356 21.571 25.4194 21.8674C25.205 22.1608 24.9788 22.4431 24.7407 22.7146C24.5027 22.9861 24.2535 23.2487 23.9932 23.5023C23.7257 23.7571 23.4542 23.9971 23.1767 24.2198C22.8992 24.4424 22.6024 24.6617 22.2928 24.8697C21.9832 25.0776 21.6736 25.2669 21.3533 25.4441C21.033 25.6213 20.6954 25.7898 20.3503 25.9429C20.0053 26.096 19.665 26.2311 19.3079 26.3548C19.2491 26.3548 17.0786 26.9231 16.8339 26.9706V19.596C16.7389 19.5403 16.6513 19.4729 16.5731 19.3954C16.3726 19.1977 16.2435 18.939 16.206 18.6599C16.17 18.3813 16.2286 18.0987 16.3725 17.8575C16.5179 17.6148 16.7393 17.4267 17.0024 17.3226C17.2674 17.2176 17.5593 17.2016 17.8342 17.2771L18.9782 16.2568C18.8885 16.0384 18.8624 15.7991 18.9028 15.5665C18.9433 15.3339 19.0487 15.1174 19.2069 14.9422L18.771 13.7888C18.5087 13.7892 18.2524 13.7107 18.0354 13.5634L16.4173 15.0097C16.4532 15.2956 16.3894 15.5851 16.2368 15.8295C16.0849 16.0769 15.8537 16.2654 15.5808 16.3644V28.1695C19.2001 28.059 22.6346 26.5452 25.158 23.9483C26.3973 22.6755 27.3728 21.1702 28.0281 19.519C28.6835 17.8678 29.0058 16.1033 28.9765 14.327C28.9472 12.5508 28.567 10.7978 27.8576 9.1691C27.1482 7.54038 26.1237 6.06803 24.843 4.83681C22.2335 2.3262 18.753 0.923784 15.1318 0.923784C11.5106 0.923784 8.03016 2.3262 5.42061 4.83681C4.14012 6.06813 3.11576 7.5405 2.40647 9.16922C1.69717 10.7979 1.31695 12.5508 1.28768 14.327C1.25841 16.1033 1.58067 17.8677 2.23591 19.5189C2.89116 21.1701 3.86645 22.6754 5.10567 23.9483C7.62907 26.5452 11.0635 28.059 14.6828 28.1695V16.3637C14.4104 16.2643 14.1795 16.0758 14.0275 15.8288C13.8766 15.5838 13.8143 15.2945 13.851 15.009L12.2315 13.5648C12.0146 13.7122 11.7583 13.7907 11.496 13.7901H11.4927L11.0574 14.9435C11.2148 15.1198 11.3199 15.3366 11.3609 15.5694C11.4021 15.8014 11.3771 16.0403 11.2887 16.2588L12.4254 17.2771C12.539 17.2451 12.6565 17.2289 12.7745 17.229L12.7771 17.2276ZM18.769 12.1305C18.6786 12.1308 18.5911 12.162 18.5209 12.2188C18.4519 12.2755 18.4046 12.3544 18.3872 12.4421C18.3698 12.5296 18.3837 12.6205 18.4266 12.6988C18.4698 12.7779 18.539 12.8396 18.6225 12.8734C18.7076 12.9081 18.802 12.9126 18.89 12.8861C18.9762 12.86 19.051 12.8053 19.1019 12.7309C19.1533 12.6574 19.177 12.5681 19.1688 12.4789C19.1598 12.3896 19.1198 12.3063 19.0558 12.2435C18.981 12.1711 18.8811 12.1306 18.777 12.1305H18.769Z" fill="white"/>
<path d="M38.5825 7.93328V6.89352H35.1249V2.64355H35.6598V6.40541H37.9633V2.64355H38.4983V6.40541H39.1114V7.93328H38.5825Z" fill="white"/>
<path d="M40.3511 6.40541H42.8686V6.89352H39.8155V2.64355H42.7736V3.13167H40.3511V4.44758H42.3036V4.9357H40.3511V6.40541Z" fill="white"/>
<path d="M46.609 2.64355H47.144V6.89352H46.609V4.95442H44.234V6.89352H43.6991V2.64355H44.234V4.45628H46.609V2.64355Z" fill="white"/>
<path d="M51.1251 2.64355V3.11897H49.7323V6.89219H49.1974V3.11897H47.7932V2.64355H51.1251Z" fill="white"/>
<path d="M51.7778 2.64355H53.5751C54.0356 2.64355 54.3909 2.755 54.6409 2.97788C54.891 3.20077 55.0158 3.51281 55.0154 3.914C55.0154 4.3192 54.8906 4.63481 54.6409 4.86081C54.3913 5.08682 54.036 5.19826 53.5751 5.19514H52.3134V6.89753H51.7784L51.7778 2.64355ZM52.3127 4.71638H53.4855C54.1439 4.71638 54.4731 4.45048 54.4731 3.91868C54.4731 3.38688 54.1441 3.12031 53.4862 3.11897H52.3134L52.3127 4.71638Z" fill="white"/>
<path d="M35.1249 13.1682V8.91821H36.0176L37.0874 10.9121H37.2211L38.2749 8.91821H39.1716V13.1682H38.6474V9.52535H38.517L37.4278 11.544H36.8688L35.7795 9.52602H35.6458V13.1689L35.1249 13.1682Z" fill="white"/>
<path d="M40.7931 12.6807H43.3106V13.1689H40.2568V8.91821H43.2156V9.40433H40.7931V10.7216H42.7449V11.2097H40.7931V12.6807Z" fill="white"/>
<path d="M48.0206 11.2518H46.92V13.1682H46.3931V11.2518H45.2831L44.4974 13.1682H43.9318L44.8244 11.0138L43.9859 8.91821H44.5516L45.2838 10.7637H46.3931V8.91821H46.9233V10.7637H48.0239L48.7594 8.91821H49.3251L48.4793 11.0138L49.378 13.1682H48.8123L48.0206 11.2518Z" fill="white"/>
<path d="M53.4454 12.6807H54.0585V14.2106H53.529V13.1682H50.3087V14.2099H49.7791V12.6807H50.2191C50.5757 11.9265 50.754 10.9583 50.754 9.7761V8.91821H53.4447L53.4454 12.6807ZM52.9158 12.6807V9.40433H51.2669V9.86302C51.2669 11.022 51.1082 11.9604 50.7908 12.6781L52.9158 12.6807Z" fill="white"/>
<path d="M56.0812 11.1502H56.2477L57.3129 8.91821H57.8725L55.8432 13.1682H55.2895L55.8967 11.8977L54.3253 8.92156H54.9024L56.0812 11.1502Z" fill="white"/>
<path d="M61.4599 8.91821H61.9948V13.1682H61.4599V11.2291H59.0848V13.1682H58.5499V8.91821H59.0848V10.7276H61.4599V8.91821Z" fill="white"/>
<path d="M65.9465 13.1682L65.5059 11.8643H63.6444L63.2037 13.1682H62.6548L64.1258 8.91821H65.0305L66.5062 13.1682H65.9465ZM64.4521 9.46584L63.8035 11.3769H65.3414L64.6921 9.46584H64.4521Z" fill="white"/>
<path d="M67.1635 8.91821H68.9615C69.4216 8.91821 69.7766 9.02966 70.0267 9.25254C70.2768 9.47543 70.4018 9.78746 70.4018 10.1887C70.4018 10.5939 70.2768 10.9095 70.0267 11.1355C69.7766 11.3615 69.4216 11.4729 68.9615 11.4698H67.6991V13.1722H67.1642L67.1635 8.91821ZM67.6984 10.991H68.8713C69.5297 10.991 69.8591 10.7251 69.8595 10.1933C69.86 9.66153 69.5306 9.39563 68.8713 9.39563H67.6984V10.991Z" fill="white"/>
<path d="M73.0176 8.8407C73.6416 8.8407 74.1277 9.04909 74.4759 9.46589C74.824 9.88268 74.9986 10.4085 74.9994 11.0432C74.9994 11.6785 74.8249 12.2043 74.4759 12.6206C74.1269 13.037 73.6407 13.2453 73.0176 13.2458C72.3908 13.2458 71.9027 13.0394 71.5532 12.6266C71.2037 12.2138 71.0312 11.686 71.0357 11.0432C71.0357 10.4049 71.2082 9.87912 71.5532 9.46589C71.8982 9.05266 72.3864 8.84426 73.0176 8.8407ZM71.9404 12.2635C72.1824 12.5925 72.5415 12.7572 73.0176 12.7577C73.4936 12.7581 73.8527 12.5934 74.0948 12.2635C74.3368 11.9341 74.4578 11.5274 74.4578 11.0432C74.4578 10.5591 74.3368 10.1524 74.0948 9.82295C73.8527 9.49397 73.4936 9.32926 73.0176 9.32882C72.5415 9.32837 72.1824 9.49308 71.9404 9.82295C71.6983 10.1528 71.5773 10.5596 71.5773 11.0432C71.5773 11.5269 71.6983 11.9337 71.9404 12.2635Z" fill="white"/>
<path d="M78.9686 12.6807H79.5818V14.2106H79.0515V13.1682H75.8319V14.2099H75.3017V12.6807H75.7423C76.099 11.9265 76.2773 10.9583 76.2773 9.7761V8.91821H78.9679L78.9686 12.6807ZM78.4384 12.6807V9.40433H76.7901V9.86302C76.7901 11.022 76.6314 11.9604 76.314 12.6781L78.4384 12.6807Z" fill="white"/>
<path d="M83.1931 8.91821H83.7281V13.1682H83.1931V11.2291H80.8181V13.1682H80.2831V8.91821H80.8181V10.7276H83.1931V8.91821Z" fill="white"/>
<path d="M86.5792 8.8407C87.2033 8.8407 87.6894 9.04909 88.0376 9.46589C88.3857 9.88268 88.5602 10.4085 88.5611 11.0432C88.5611 11.6785 88.3866 12.2043 88.0376 12.6206C87.6885 13.037 87.2024 13.2453 86.5792 13.2458C85.952 13.2458 85.4639 13.0394 85.1149 12.6266C84.7658 12.2138 84.5933 11.686 84.5973 11.0432C84.5973 10.4049 84.7698 9.87912 85.1149 9.46589C85.4599 9.05266 85.948 8.84426 86.5792 8.8407ZM85.502 12.2635C85.7441 12.5925 86.1031 12.7572 86.5792 12.7577C87.0553 12.7581 87.4144 12.5934 87.6564 12.2635C87.8985 11.9341 88.0195 11.5274 88.0195 11.0432C88.0195 10.5591 87.8985 10.1524 87.6564 9.82295C87.4144 9.49397 87.0553 9.32926 86.5792 9.32882C86.1031 9.32837 85.7441 9.49308 85.502 9.82295C85.26 10.1528 85.1389 10.5596 85.1389 11.0432C85.1389 11.5269 85.2597 11.9337 85.5014 12.2635H85.502Z" fill="white"/>
<path d="M92.3363 9.40433H89.9673V13.1662H89.4324V8.91821H92.337L92.3363 9.40433Z" fill="white"/>
<path d="M94.7274 8.8407C95.3515 8.8407 95.8376 9.04909 96.1858 9.46589C96.5339 9.88268 96.7087 10.4085 96.71 11.0432C96.71 11.6785 96.5353 12.2043 96.1858 12.6206C95.8363 13.037 95.3502 13.2453 94.7274 13.2458C94.1011 13.2458 93.6132 13.0394 93.2638 12.6266C92.9143 12.2138 92.7415 11.686 92.7456 11.0432C92.7456 10.4049 92.9183 9.87912 93.2638 9.46589C93.6092 9.05266 94.0971 8.84426 94.7274 8.8407ZM93.6502 12.2635C93.8923 12.5925 94.2514 12.7572 94.7274 12.7577C95.2035 12.7581 95.5628 12.5934 95.8053 12.2635C96.0474 11.9341 96.1684 11.5274 96.1684 11.0432C96.1684 10.5591 96.0478 10.1524 95.8067 9.82295C95.5646 9.49397 95.2053 9.32926 94.7288 9.32882C94.2523 9.32837 93.8932 9.49308 93.6516 9.82295C93.4095 10.1528 93.2885 10.5596 93.2885 11.0432C93.2885 11.5269 93.4091 11.9337 93.6502 12.2635Z" fill="white"/>
<path d="M37.9934 18.2346H38.5591C38.4816 18.6041 38.2798 18.9359 37.9874 19.1748C37.6981 19.4048 37.3272 19.52 36.8748 19.5205C36.2556 19.5205 35.7735 19.3161 35.4285 18.9073C35.0835 18.4985 34.9107 17.9687 34.9103 17.3179C34.9103 16.6671 35.0848 16.1373 35.4338 15.7285C35.7829 15.3197 36.2652 15.1154 36.8808 15.1154C37.3096 15.1154 37.6662 15.2226 37.9506 15.437C38.237 15.6487 38.4361 15.9579 38.5103 16.3062H37.9446C37.7779 15.8377 37.4229 15.6035 36.8795 15.6035C36.411 15.6035 36.0557 15.7682 35.8136 16.0976C35.5716 16.427 35.4505 16.8338 35.4505 17.3179C35.4505 17.806 35.5696 18.2148 35.8076 18.5442C36.0457 18.8736 36.4009 19.0363 36.8734 19.0323C37.1316 19.0425 37.3862 18.9694 37.5996 18.8237C37.793 18.6768 37.9316 18.4695 37.9934 18.2346Z" fill="white"/>
<path d="M41.1649 15.1154C41.7889 15.1154 42.2751 15.3238 42.6232 15.7405C42.9713 16.1573 43.1459 16.6831 43.1468 17.3179C43.1468 17.9522 42.9722 18.478 42.6232 18.8953C42.2742 19.3125 41.7881 19.5209 41.1649 19.5205C40.5377 19.5205 40.0496 19.3141 39.7005 18.9013C39.3515 18.4885 39.1787 17.9607 39.1823 17.3179C39.1823 16.6787 39.355 16.1529 39.7005 15.7405C40.046 15.3282 40.5341 15.1198 41.1649 15.1154ZM40.0877 18.5382C40.3297 18.8672 40.6888 19.0319 41.1649 19.0323C41.6409 19.0328 42 18.8681 42.2421 18.5382C42.4841 18.2088 42.6051 17.802 42.6051 17.3179C42.6051 16.8338 42.4841 16.427 42.2421 16.0976C42 15.7686 41.6409 15.6039 41.1649 15.6035C40.6888 15.603 40.3297 15.7677 40.0877 16.0976C39.8456 16.4275 39.7246 16.8342 39.7246 17.3179C39.7246 17.8016 39.8456 18.2083 40.0877 18.5382Z" fill="white"/>
<path d="M46.8237 15.1929V15.669H45.4309V19.4428H44.896V15.669H43.4918V15.1929H46.8237Z" fill="white"/>
<path d="M47.4763 15.1929H49.2743C49.7344 15.1929 50.0894 15.3043 50.3395 15.5272C50.5896 15.7501 50.7146 16.0621 50.7146 16.4633C50.7146 16.8681 50.5896 17.1835 50.3395 17.4095C50.0894 17.6355 49.7344 17.7469 49.2743 17.7438H48.0119V19.4462H47.477L47.4763 15.1929ZM48.0112 17.2657H49.1841C49.8429 17.2657 50.1723 16.9998 50.1723 16.468C50.1723 15.9362 49.8429 15.6703 49.1841 15.6703H48.0119L48.0112 17.2657Z" fill="white"/>
<path d="M52.8844 17.4283H53.0509L54.116 15.1963H54.6757L52.6457 19.4463H52.0927L52.6998 18.1725L51.1285 15.1963H51.7055L52.8844 17.4283Z" fill="white"/>
<path d="M58.1614 18.9547H58.7746V20.4839H58.245V19.4428H55.0227V20.4839H54.4932V18.9547H54.9331C55.2898 18.2005 55.4681 17.2323 55.4681 16.0501V15.1929H58.1614V18.9547ZM57.6318 18.9547V15.6783H55.9809V16.1363C55.9809 17.2953 55.8222 18.2339 55.5048 18.952L57.6318 18.9547Z" fill="white"/>
<path d="M62.384 15.1929H62.9189V19.4428H62.384V17.5037H60.0096V19.4428H59.4746V15.1929H60.0096V17.0023H62.384V15.1929Z" fill="white"/>
<path d="M64.0014 15.1929H64.5257V18.7936H64.6594L66.6353 15.1929H67.4744V19.4428H66.9509V15.8415H66.8171L64.8406 19.4428H64.0014V15.1929Z" fill="white"/>
<path d="M68.3564 15.1929H68.8913V16.4071C68.8913 16.5181 68.8913 16.6037 68.8973 16.6632C68.9116 16.7388 68.934 16.8125 68.9642 16.8832C68.9965 16.9646 69.0524 17.0344 69.1246 17.0838C69.2239 17.1378 69.3301 17.1779 69.4403 17.2028C69.6122 17.2415 69.7882 17.2595 69.9645 17.2563C70.3072 17.2559 70.6486 17.216 70.9822 17.1373V15.1929H71.5171V19.4428H70.9822V17.6335C70.6262 17.7097 70.263 17.7475 69.899 17.7465C69.6512 17.7514 69.4038 17.7233 69.1634 17.6629C69.0023 17.624 68.8492 17.5575 68.7107 17.4663C68.6046 17.3871 68.5222 17.2802 68.4727 17.1574C68.4237 17.0451 68.3897 16.9268 68.3717 16.8057C68.3582 16.6724 68.3522 16.5384 68.3537 16.4045L68.3564 15.1929Z" fill="white"/>
<path d="M73.1339 18.9547H75.6521V19.4428H72.5983V15.1929H75.5565V15.681H73.1339V16.9962H75.0864V17.4843H73.1339V18.9547Z" fill="white"/>
<path d="M79.2909 18.2346H79.8559C79.7789 18.6042 79.5773 18.9361 79.2849 19.1748C78.9951 19.4048 78.624 19.52 78.1715 19.5205C77.5524 19.5205 77.0703 19.3161 76.7252 18.9073C76.3802 18.4985 76.2077 17.9687 76.2077 17.3179C76.2077 16.6671 76.3822 16.1373 76.7313 15.7285C77.0803 15.3197 77.5624 15.1154 78.1776 15.1154C78.6064 15.1154 78.963 15.2226 79.2474 15.437C79.5342 15.6484 79.7333 15.9577 79.8071 16.3062H79.2421C79.0749 15.8377 78.7196 15.6035 78.1762 15.6035C77.7082 15.6035 77.3531 15.7682 77.1111 16.0976C76.869 16.427 76.7486 16.8338 76.75 17.3179C76.75 17.806 76.869 18.2148 77.107 18.5442C77.3451 18.8736 77.7001 19.0363 78.1722 19.0323C78.4304 19.0425 78.685 18.9694 78.8984 18.8237C79.0914 18.6768 79.2296 18.4694 79.2909 18.2346Z" fill="white"/>
<path d="M83.5944 15.1929V15.669H82.2015V19.4428H81.6666V15.669H80.2625V15.1929H83.5944Z" fill="white"/>
<path d="M86.9911 17.1333V17.267C87.1706 17.351 87.3199 17.488 87.4191 17.6595C87.53 17.8359 87.588 18.0403 87.5862 18.2486C87.592 18.4117 87.562 18.574 87.4982 18.7242C87.4344 18.8744 87.3385 19.0088 87.2171 19.1179C86.9711 19.3363 86.6144 19.4455 86.1473 19.4455H84.2483V15.1929H86.0991C86.532 15.1929 86.8663 15.2961 87.1021 15.5025C87.2161 15.5948 87.3075 15.712 87.3694 15.845C87.4313 15.978 87.462 16.1234 87.4592 16.2701C87.4565 16.6784 87.3005 16.9661 86.9911 17.1333ZM84.7846 15.669V16.9962H86.0884C86.6394 16.9962 86.9151 16.77 86.9156 16.3175C86.9156 16.0947 86.8362 15.9322 86.6775 15.8301C86.4979 15.7167 86.288 15.6605 86.0757 15.669H84.7846ZM84.7846 18.9668H86.1112C86.3476 18.9769 86.5817 18.9166 86.7838 18.7936C86.9586 18.6746 87.0459 18.4782 87.0459 18.2045C87.0459 17.9468 86.9586 17.7603 86.7838 17.6448C86.6091 17.5294 86.3862 17.4699 86.1152 17.4663H84.7819L84.7846 18.9668Z" fill="white"/>
<path d="M91.2892 19.4428L90.8486 18.139H88.9864L88.5457 19.4428H87.9981L89.4691 15.1929H90.3738L91.8502 19.4428H91.2892ZM89.7955 15.7405L89.1462 17.6508H90.6841L90.0355 15.7405H89.7955Z" fill="white"/>
<path d="M34.8401 24.3187V22.3033H35.2633L35.7715 23.2488H35.8337L36.3332 22.3033H36.7591V24.3187H36.511V22.5909H36.4488L35.932 23.5477H35.6645L35.1476 22.5909H35.0855V24.3187H34.8401Z" fill="white"/>
<path d="M37.6438 24.3188H37.3047V22.8959H37.5394V23.9971H37.6016L38.2248 22.8959H38.5752V24.3188H38.3412V23.2175H38.279L37.6438 24.3188Z" fill="white"/>
<path d="M40.3625 24.3188H40.1225V23.6922H39.3354V24.3188H39.0954V22.8959H39.3354V23.483H40.1225V22.8959H40.3625V24.3188Z" fill="white"/>
<path d="M41.2217 24.3188H40.8827V22.8959H41.1167V23.9971H41.1776L41.8014 22.8959H42.1518V24.3188H41.9171V23.2175H41.8549L41.2217 24.3188Z" fill="white"/>
<path d="M43.6355 23.8894H43.8756C43.8525 24.0239 43.7812 24.1454 43.675 24.2311C43.5599 24.3182 43.418 24.3622 43.2738 24.3555C43.1789 24.3601 43.0842 24.3438 42.9963 24.3076C42.9085 24.2714 42.8297 24.2163 42.7656 24.1462C42.6468 23.9917 42.5823 23.8022 42.5823 23.6072C42.5823 23.4123 42.6468 23.2228 42.7656 23.0683C42.8296 22.998 42.9083 22.9427 42.9962 22.9065C43.0841 22.8703 43.1789 22.8541 43.2738 22.859C43.4181 22.8516 43.5602 22.8957 43.675 22.9834C43.7779 23.0634 43.8465 23.1796 43.8669 23.3083H43.6269C43.576 23.1479 43.4597 23.0683 43.2772 23.0683C43.2121 23.064 43.147 23.0757 43.0874 23.1023C43.0279 23.1288 42.9757 23.1695 42.9355 23.2208C42.8583 23.3324 42.8196 23.4662 42.8251 23.6019C42.8202 23.7404 42.8598 23.8768 42.9381 23.991C42.9773 24.043 43.0288 24.0844 43.088 24.1115C43.1472 24.1386 43.2122 24.1505 43.2772 24.1462C43.4764 24.1462 43.5959 24.0606 43.6355 23.8894Z" fill="white"/>
<path d="M44.1431 23.1052V22.8959H45.368V23.1052H44.8766V24.3188H44.6365V23.1052H44.1431Z" fill="white"/>
<path d="M46.9521 23.5224V23.6046H45.8682C45.8633 23.7481 45.9061 23.8892 45.9899 24.0058C46.0308 24.0537 46.0823 24.0915 46.1403 24.1159C46.1984 24.1404 46.2613 24.151 46.3242 24.1469C46.5201 24.1469 46.6405 24.074 46.6853 23.9269H46.928C46.906 24.0517 46.8362 24.163 46.7334 24.2372C46.6146 24.3208 46.4713 24.3624 46.3262 24.3555C46.2311 24.3604 46.136 24.3439 46.0481 24.3073C45.9601 24.2706 45.8815 24.2146 45.818 24.1436C45.6911 23.9891 45.6258 23.793 45.6348 23.5933C45.6248 23.398 45.6904 23.2064 45.818 23.0583C45.8823 22.9906 45.9605 22.9376 46.0471 22.903C46.1338 22.8684 46.227 22.8529 46.3202 22.8577C46.4077 22.8522 46.4954 22.8666 46.5765 22.9C46.6576 22.9333 46.73 22.9848 46.7883 23.0503C46.8979 23.1828 46.9561 23.3504 46.9521 23.5224ZM46.3115 23.0684C46.2052 23.0631 46.1008 23.0971 46.018 23.164C45.9461 23.2254 45.8986 23.3106 45.8842 23.404H46.706C46.7003 23.312 46.6588 23.2258 46.5903 23.164C46.5132 23.0973 46.4133 23.063 46.3115 23.0684Z" fill="white"/>
<path d="M48.0647 23.0683C48.0005 23.0644 47.9363 23.0765 47.8779 23.1036C47.8196 23.1307 47.7689 23.1719 47.7304 23.2234C47.6583 23.3385 47.6201 23.4715 47.6201 23.6072C47.6201 23.743 47.6583 23.876 47.7304 23.991C47.7689 24.0426 47.8196 24.0838 47.8779 24.1109C47.9363 24.1379 48.0005 24.1501 48.0647 24.1462C48.1262 24.1495 48.1875 24.1379 48.2435 24.1124C48.2995 24.0869 48.3485 24.0482 48.3863 23.9997C48.4681 23.8857 48.5089 23.7474 48.502 23.6072C48.5091 23.4679 48.4683 23.3303 48.3863 23.2174C48.349 23.1682 48.3001 23.1289 48.2441 23.1029C48.188 23.0769 48.1264 23.065 48.0647 23.0683ZM47.3813 22.8958H47.6134V23.0482H47.6749C47.7288 22.9842 47.797 22.9337 47.874 22.9009C47.951 22.868 48.0347 22.8537 48.1182 22.859C48.2054 22.8556 48.2922 22.873 48.3712 22.9099C48.4503 22.9467 48.5195 23.002 48.5729 23.071C48.6834 23.2285 48.7426 23.4162 48.7426 23.6086C48.7426 23.801 48.6834 23.9887 48.5729 24.1462C48.5191 24.2146 48.4498 24.2692 48.3708 24.3056C48.2917 24.342 48.2051 24.3591 48.1182 24.3555C47.923 24.3555 47.7779 24.2886 47.6836 24.1662H47.6214V24.883H47.3813V22.8958Z" fill="white"/>
<path d="M50.1376 23.8894H50.3769C50.3537 24.0238 50.2824 24.1452 50.1763 24.2311C50.0612 24.3181 49.9193 24.3621 49.7752 24.3554C49.6803 24.3601 49.5855 24.3438 49.4977 24.3076C49.4098 24.2714 49.331 24.2163 49.267 24.1462C49.1481 23.9916 49.0837 23.8022 49.0837 23.6072C49.0837 23.4123 49.1481 23.2228 49.267 23.0683C49.3309 22.998 49.4097 22.9428 49.4976 22.9066C49.5854 22.8704 49.6802 22.8541 49.7752 22.859C49.9194 22.8518 50.0615 22.8958 50.1763 22.9834C50.279 23.0636 50.3476 23.1797 50.3682 23.3083H50.1282C50.0774 23.1479 49.9604 23.0683 49.7778 23.0683C49.7128 23.0637 49.6477 23.0752 49.5882 23.1018C49.5287 23.1284 49.4767 23.1692 49.4368 23.2207C49.3596 23.3324 49.3209 23.4662 49.3265 23.6019C49.3212 23.7404 49.3609 23.8769 49.4395 23.991C49.4785 24.043 49.5299 24.0845 49.5889 24.1116C49.648 24.1387 49.713 24.1506 49.7778 24.1462C49.9791 24.1462 50.0981 24.0606 50.1376 23.8894Z" fill="white"/>
<path d="M50.6451 23.1052V22.8959H51.87V23.1052H51.3792V24.3188H51.1405V23.1052H50.6451Z" fill="white"/>
<path d="M53.2454 23.5338V23.5959C53.3131 23.6116 53.3724 23.6519 53.4119 23.7089C53.4575 23.7731 53.481 23.8503 53.4788 23.9289C53.4788 24.1888 53.3112 24.3188 52.976 24.3188H52.2431V22.8959H52.9459C53.0639 22.8881 53.1808 22.9222 53.2762 22.9921C53.3154 23.0233 53.3466 23.0633 53.3673 23.1088C53.388 23.1544 53.3976 23.2043 53.3952 23.2543C53.3966 23.3149 53.3808 23.3747 53.3498 23.4268C53.3259 23.4716 53.2897 23.5087 53.2454 23.5338ZM52.4778 24.1148H52.9573C53.1418 24.1148 53.2341 24.0442 53.2341 23.9028C53.2341 23.7598 53.1418 23.6889 52.9573 23.6889H52.4778V24.1148ZM52.4778 23.0985V23.4856H52.9238C52.955 23.4886 52.9866 23.4853 53.0165 23.476C53.0465 23.4667 53.0743 23.4516 53.0983 23.4314C53.1171 23.4139 53.1319 23.3925 53.1417 23.3687C53.1515 23.345 53.1561 23.3194 53.1552 23.2937C53.1552 23.16 53.0776 23.0985 52.9238 23.0985H52.4778Z" fill="white"/>
<path d="M54.8128 24.3187V24.169H54.7513C54.6537 24.2933 54.5059 24.3555 54.308 24.3555C54.2401 24.3592 54.1722 24.3492 54.1082 24.3262C54.0443 24.3033 53.9856 24.2678 53.9355 24.2218C53.891 24.1798 53.8557 24.1289 53.8318 24.0725C53.808 24.0161 53.7962 23.9554 53.7971 23.8941C53.7957 23.8323 53.8069 23.7708 53.8299 23.7133C53.8528 23.6559 53.8872 23.6037 53.9308 23.5598C54.02 23.4675 54.1564 23.4214 54.3401 23.4214H54.8028V23.3652C54.8047 23.3255 54.7982 23.2859 54.7837 23.2489C54.7692 23.2119 54.747 23.1784 54.7185 23.1506C54.6447 23.0906 54.5506 23.0613 54.4557 23.069C54.2489 23.069 54.1388 23.1377 54.1254 23.275H53.8854C53.8879 23.2148 53.9043 23.156 53.9331 23.1031C53.962 23.0503 54.0026 23.0047 54.0519 22.9701C54.1706 22.8919 54.311 22.8532 54.4531 22.8597C54.6064 22.8509 54.758 22.8958 54.8817 22.9868C54.9348 23.0308 54.9769 23.0868 55.0044 23.1501C55.0319 23.2134 55.0442 23.2823 55.0401 23.3512V24.3194L54.8128 24.3187ZM54.3668 24.1462C54.4803 24.1484 54.5904 24.107 54.6744 24.0306C54.7157 23.995 54.7487 23.9508 54.7711 23.9012C54.7935 23.8515 54.8048 23.7975 54.8041 23.743V23.6126H54.3782C54.1502 23.6126 54.0365 23.7036 54.0365 23.8841C54.0349 23.9205 54.0417 23.9567 54.0565 23.99C54.0712 24.0233 54.0934 24.0528 54.1214 24.076C54.1927 24.1269 54.2794 24.1517 54.3668 24.1462Z" fill="white"/>
<path d="M57.6325 24.3188H57.3925V23.1052H56.6161V24.3188H56.3761V22.8959H57.6325V24.3188Z" fill="white"/>
<path d="M58.8361 23.0683C58.7718 23.0643 58.7076 23.0763 58.6492 23.1034C58.5908 23.1305 58.5402 23.1718 58.5017 23.2234C58.4297 23.3385 58.3914 23.4715 58.3914 23.6072C58.3914 23.743 58.4297 23.876 58.5017 23.991C58.5402 24.0427 58.5908 24.0839 58.6492 24.111C58.7076 24.1381 58.7718 24.1502 58.8361 24.1462C58.8975 24.1495 58.9588 24.1379 59.0148 24.1124C59.0708 24.0869 59.1199 24.0482 59.1577 23.9997C59.2392 23.8856 59.2799 23.7473 59.2734 23.6072C59.2802 23.4679 59.2394 23.3305 59.1577 23.2174C59.1203 23.1682 59.0715 23.1289 59.0154 23.1029C58.9594 23.0769 58.8978 23.065 58.8361 23.0683ZM58.1527 22.8958H58.3841V23.0482H58.4463C58.5002 22.9842 58.5684 22.9337 58.6454 22.9009C58.7224 22.868 58.806 22.8537 58.8896 22.859C58.9768 22.8556 59.0635 22.873 59.1426 22.9099C59.2217 22.9467 59.2908 23.002 59.3443 23.071C59.4547 23.2285 59.514 23.4162 59.514 23.6086C59.514 23.801 59.4547 23.9887 59.3443 24.1462C59.2904 24.2146 59.2212 24.2692 59.1421 24.3056C59.0631 24.342 58.9765 24.3591 58.8896 24.3555C58.6937 24.3555 58.5492 24.2886 58.4549 24.1662H58.3928V24.883H58.1527V22.8958Z" fill="white"/>
<path d="M60.045 23.071C60.1098 23.0001 60.1894 22.9444 60.2781 22.9077C60.3669 22.8711 60.4626 22.8545 60.5585 22.8591C60.6541 22.8543 60.7495 22.8709 60.8378 22.9075C60.9262 22.9442 61.0053 23 61.0694 23.071C61.1911 23.2227 61.2575 23.4114 61.2575 23.606C61.2575 23.8005 61.1911 23.9892 61.0694 24.1409C61.0053 24.2119 60.9262 24.2677 60.8378 24.3044C60.7495 24.341 60.6541 24.3576 60.5585 24.3528C60.4626 24.3574 60.3669 24.3408 60.2781 24.3042C60.1894 24.2675 60.1098 24.2118 60.045 24.1409C59.9248 23.9885 59.8595 23.8 59.8595 23.606C59.8595 23.4119 59.9248 23.2234 60.045 23.071ZM60.2168 23.9911C60.2595 24.0398 60.312 24.0788 60.3709 24.1056C60.4298 24.1323 60.4938 24.1461 60.5585 24.1461C60.6232 24.1461 60.6872 24.1323 60.7461 24.1056C60.8051 24.0788 60.8576 24.0398 60.9002 23.9911C60.9811 23.8798 61.0227 23.7448 61.0186 23.6073C61.0229 23.4706 60.9812 23.3364 60.9002 23.2262C60.8581 23.1767 60.8057 23.1369 60.7467 23.1097C60.6877 23.0824 60.6235 23.0683 60.5585 23.0683C60.4935 23.0683 60.4293 23.0824 60.3703 23.1097C60.3113 23.1369 60.259 23.1767 60.2168 23.2262C60.1358 23.3364 60.0941 23.4706 60.0985 23.6073C60.0944 23.7448 60.136 23.8798 60.2168 23.9911Z" fill="white"/>
<path d="M62.6521 23.8894H62.8915C62.8682 24.0238 62.7969 24.1453 62.6909 24.2311C62.5758 24.3182 62.4338 24.3622 62.2897 24.3555C62.1948 24.3602 62.1 24.3439 62.0121 24.3078C61.9243 24.2716 61.8455 24.2164 61.7815 24.1462C61.6623 23.9918 61.5977 23.8023 61.5977 23.6072C61.5977 23.4122 61.6623 23.2227 61.7815 23.0683C61.8454 22.998 61.9242 22.9427 62.0121 22.9065C62.0999 22.8703 62.1948 22.8541 62.2897 22.859C62.4339 22.8517 62.5761 22.8958 62.6909 22.9834C62.7938 23.0634 62.8624 23.1796 62.8828 23.3083H62.6414C62.5906 23.1479 62.4742 23.0683 62.2917 23.0683C62.2266 23.0637 62.1614 23.0752 62.1018 23.1018C62.0422 23.1284 61.99 23.1692 61.95 23.2208C61.8728 23.3324 61.8341 23.4662 61.8397 23.6019C61.8344 23.7404 61.8741 23.8769 61.9527 23.991C61.9918 24.0431 62.0433 24.0845 62.1025 24.1116C62.1617 24.1387 62.2267 24.1506 62.2917 24.1462C62.4923 24.1462 62.6124 24.0606 62.6521 23.8894Z" fill="white"/>
<path d="M64.3077 23.5338V23.5959C64.3756 23.6114 64.4352 23.6517 64.4748 23.7089C64.5204 23.7731 64.5439 23.8503 64.5417 23.9289C64.5417 24.1888 64.3741 24.3188 64.0389 24.3188H63.306V22.8959H64.0115C64.1295 22.8881 64.2464 22.9222 64.3418 22.9921C64.381 23.0233 64.4122 23.0633 64.4329 23.1088C64.4536 23.1544 64.4632 23.2043 64.4608 23.2543C64.4622 23.3149 64.4464 23.3747 64.4153 23.4268C64.3907 23.4722 64.3533 23.5095 64.3077 23.5338ZM63.5427 24.1148H64.0228C64.2074 24.1148 64.2997 24.0442 64.2997 23.9028C64.2997 23.7598 64.2074 23.6889 64.0228 23.6889H63.5427V24.1148ZM63.5427 23.0985V23.4856H63.9894C64.0206 23.4885 64.0521 23.4852 64.0821 23.4759C64.112 23.4666 64.1398 23.4515 64.1639 23.4314C64.1827 23.4139 64.1975 23.3925 64.2073 23.3687C64.2171 23.345 64.2217 23.3194 64.2207 23.2937C64.2207 23.16 64.1432 23.0985 63.9894 23.0985H63.5427Z" fill="white"/>
<path d="M66.2033 23.5223V23.6046H65.1188C65.1138 23.7481 65.1566 23.8892 65.2404 24.0058C65.2813 24.0537 65.3329 24.0914 65.3909 24.1159C65.4489 24.1404 65.5119 24.151 65.5748 24.1468C65.7707 24.1468 65.8911 24.074 65.9359 23.9269H66.1792C66.1567 24.0516 66.0868 24.1628 65.984 24.2371C65.8647 24.3214 65.7206 24.3633 65.5748 24.3561C65.4796 24.361 65.3846 24.3446 65.2966 24.3079C65.2087 24.2712 65.1301 24.2152 65.0666 24.1442C64.9396 23.9897 64.8744 23.7936 64.8834 23.5939C64.8733 23.3986 64.939 23.207 65.0666 23.0589C65.131 22.9912 65.2093 22.9382 65.2961 22.9036C65.3829 22.869 65.4761 22.8535 65.5694 22.8583C65.6569 22.8528 65.7446 22.8672 65.8257 22.9006C65.9068 22.9339 65.9792 22.9854 66.0375 23.0509C66.1474 23.1831 66.2063 23.3504 66.2033 23.5223ZM65.5621 23.0683C65.4558 23.0631 65.3513 23.0971 65.2685 23.1639C65.1963 23.2251 65.1488 23.3104 65.1348 23.404H65.9559C65.9502 23.3119 65.9087 23.2258 65.8402 23.1639C65.7633 23.0974 65.6637 23.0631 65.5621 23.0683Z" fill="white"/>
<path d="M68.2193 22.8959H68.4533V24.1095H68.7161V24.722H68.4821V24.3208H66.6333V22.8959H66.8673V24.1095H67.4263V22.8959H67.6603V24.1095H68.2193V22.8959Z" fill="white"/>
<path d="M70.3155 23.5224V23.6046H69.2317C69.2264 23.7482 69.2692 23.8894 69.3534 24.0058C69.3942 24.0537 69.4458 24.0915 69.5038 24.116C69.5619 24.1405 69.6248 24.1511 69.6877 24.1469C69.8829 24.1469 70.0033 24.074 70.0488 23.9269H70.2915C70.2689 24.0515 70.1993 24.1626 70.0969 24.2372C69.9776 24.3214 69.8336 24.3633 69.6877 24.3562C69.5925 24.3611 69.4975 24.3446 69.4095 24.3079C69.3216 24.2713 69.243 24.2153 69.1795 24.1442C69.0523 23.9898 68.9868 23.7938 68.9956 23.5939C68.9858 23.3986 69.0516 23.207 69.1795 23.059C69.2438 22.9913 69.3219 22.9383 69.4086 22.9037C69.4953 22.8691 69.5884 22.8536 69.6817 22.8584C69.7692 22.853 69.8568 22.8675 69.9378 22.9009C70.0189 22.9342 70.0914 22.9855 70.1497 23.051C70.2597 23.1832 70.3186 23.3505 70.3155 23.5224ZM69.675 23.0684C69.5687 23.063 69.4642 23.097 69.3814 23.164C69.3093 23.2252 69.2618 23.3105 69.2477 23.404H70.0695C70.0635 23.3119 70.0218 23.2258 69.9531 23.164C69.8762 23.0974 69.7766 23.0631 69.675 23.0684Z" fill="white"/>
<path d="M72.0126 24.3188H71.7732V23.6922H70.9855V24.3188H70.7455V22.8959H70.9855V23.483H71.7732V22.8959H72.0126V24.3188Z" fill="white"/>
<path d="M72.8718 24.3188H72.5328V22.8959H72.7675V23.9971H72.8297L73.4535 22.8959H73.8033V24.3188H73.5692V23.2175H73.507L72.8718 24.3188Z" fill="white"/>
<path d="M74.7835 22.8958H75.4916V24.3187H75.2489V23.757H74.8176C74.7795 23.757 74.7507 23.757 74.73 23.757L74.5154 24.3213H74.2639L74.504 23.7028C74.4335 23.6709 74.3745 23.618 74.3352 23.5514C74.2958 23.4847 74.2779 23.4076 74.284 23.3304C74.2803 23.2711 74.2897 23.2118 74.3117 23.1566C74.3337 23.1015 74.3676 23.0519 74.4111 23.0114C74.517 22.9289 74.6494 22.8877 74.7835 22.8958ZM75.2516 23.0964H74.8109C74.7328 23.0888 74.6546 23.11 74.5909 23.1559C74.568 23.178 74.5502 23.2048 74.5387 23.2345C74.5271 23.2641 74.5221 23.2959 74.5241 23.3277C74.522 23.3587 74.527 23.3898 74.5385 23.4186C74.5501 23.4474 74.568 23.4732 74.5909 23.4942C74.6554 23.5383 74.7332 23.5584 74.8109 23.551H75.2509L75.2516 23.0964Z" fill="white"/>
<path d="M34.8401 25.4407H35.6946C35.9126 25.4407 36.0811 25.4928 36.1995 25.5985C36.2598 25.6548 36.3069 25.7238 36.3377 25.8004C36.3684 25.877 36.3819 25.9594 36.3773 26.0418C36.382 26.125 36.3685 26.2082 36.3378 26.2857C36.3071 26.3632 36.2599 26.4331 36.1995 26.4905C36.0811 26.5961 35.9126 26.6483 35.6946 26.6483H35.0928V27.458H34.8387L34.8401 25.4407ZM35.0942 26.4229H35.6498C35.9619 26.4229 36.1179 26.2968 36.1179 26.0445C36.1179 25.7922 35.9619 25.666 35.6498 25.666H35.0928L35.0942 26.4229Z" fill="white"/>
<path d="M36.822 26.2084C36.8868 26.1376 36.9664 26.0819 37.0552 26.0453C37.1439 26.0087 37.2396 25.992 37.3355 25.9964C37.431 25.9916 37.5264 26.0082 37.6148 26.0448C37.7032 26.0815 37.7823 26.1374 37.8463 26.2084C37.9681 26.3601 38.0345 26.5488 38.0345 26.7433C38.0345 26.9378 37.9681 27.1265 37.8463 27.2782C37.7823 27.3492 37.7032 27.4051 37.6148 27.4418C37.5264 27.4784 37.431 27.495 37.3355 27.4902C37.2396 27.4946 37.1439 27.4779 37.0552 27.4413C36.9664 27.4047 36.8868 27.349 36.822 27.2782C36.7027 27.1254 36.6379 26.9371 36.6379 26.7433C36.6379 26.5495 36.7027 26.3612 36.822 26.2084ZM36.9945 27.1284C37.037 27.1771 37.0895 27.2162 37.1484 27.2429C37.2073 27.2696 37.2712 27.2835 37.3358 27.2835C37.4005 27.2835 37.4644 27.2696 37.5233 27.2429C37.5821 27.2162 37.6346 27.1771 37.6772 27.1284C37.7579 27.0171 37.7996 26.8821 37.7955 26.7446C37.7999 26.6079 37.7582 26.4737 37.6772 26.3635C37.6351 26.314 37.5828 26.2743 37.5239 26.247C37.4649 26.2198 37.4008 26.2057 37.3358 26.2057C37.2709 26.2057 37.2067 26.2198 37.1478 26.247C37.0888 26.2743 37.0365 26.314 36.9945 26.3635C36.9133 26.4736 36.8713 26.6079 36.8755 26.7446C36.8717 26.8822 36.9135 27.0172 36.9945 27.1284Z" fill="white"/>
<path d="M39.429 27.0268H39.6691C39.646 27.1613 39.5747 27.2827 39.4685 27.3685C39.3535 27.4557 39.2115 27.4997 39.0673 27.4928C38.9724 27.4975 38.8777 27.4812 38.7898 27.445C38.702 27.4088 38.6232 27.3537 38.5591 27.2835C38.4403 27.129 38.3758 26.9395 38.3758 26.7446C38.3758 26.5497 38.4403 26.3602 38.5591 26.2057C38.623 26.1353 38.7017 26.0799 38.7896 26.0437C38.8775 26.0075 38.9724 25.9914 39.0673 25.9964C39.2115 25.989 39.3537 26.033 39.4685 26.1207C39.5716 26.2006 39.6403 26.3168 39.6604 26.4457H39.421C39.3702 26.2852 39.2532 26.2057 39.0706 26.2057C39.0056 26.2014 38.9405 26.2131 38.8809 26.2396C38.8214 26.2662 38.7692 26.3069 38.729 26.3581C38.6524 26.4698 38.6139 26.6033 38.6193 26.7386C38.614 26.8773 38.6536 27.014 38.7323 27.1284C38.7713 27.1804 38.8227 27.2219 38.8818 27.249C38.9409 27.2761 39.0058 27.2879 39.0706 27.2835C39.2717 27.2835 39.3911 27.1979 39.429 27.0268Z" fill="white"/>
<path d="M41.0438 27.0268H41.2839C41.2608 27.1613 41.1895 27.2828 41.0833 27.3685C40.9682 27.4556 40.8263 27.4996 40.6821 27.4929C40.5872 27.4975 40.4925 27.4812 40.4046 27.445C40.3168 27.4088 40.238 27.3537 40.1739 27.2836C40.0551 27.129 39.9906 26.9396 39.9906 26.7446C39.9906 26.5497 40.0551 26.3602 40.1739 26.2057C40.2377 26.1352 40.3165 26.0799 40.4044 26.0436C40.4923 26.0074 40.5872 25.9913 40.6821 25.9964C40.8263 25.989 40.9685 26.0331 41.0833 26.1208C41.1864 26.2006 41.2551 26.3169 41.2752 26.4457H41.0372C40.9863 26.2853 40.87 26.2057 40.6874 26.2057C40.6224 26.2014 40.5573 26.2131 40.4977 26.2396C40.4382 26.2662 40.386 26.3069 40.3458 26.3581C40.2687 26.4696 40.23 26.6032 40.2354 26.7386C40.2304 26.8773 40.27 27.0139 40.3484 27.1284C40.3876 27.1804 40.4391 27.2218 40.4983 27.2489C40.5575 27.276 40.6225 27.2879 40.6874 27.2836C40.8867 27.2836 41.0055 27.198 41.0438 27.0268Z" fill="white"/>
<path d="M42.0388 27.4581H41.6998V26.0332H41.9345V27.1338H41.996L42.6199 26.0332H42.9702V27.4581H42.7355V26.3548H42.674L42.0388 27.4581Z" fill="white"/>
<path d="M43.8288 27.4581H43.4904V26.0332H43.7245V27.1338H43.7853L44.4092 26.0332H44.7589V27.4581H44.5249V26.3548H44.4627L43.8288 27.4581ZM44.3637 25.414H44.559C44.5606 25.4704 44.5506 25.5266 44.5297 25.5791C44.5088 25.6315 44.4773 25.6791 44.4373 25.7189C44.3461 25.7887 44.2345 25.8266 44.1197 25.8266C44.0048 25.8266 43.8932 25.7887 43.802 25.7189C43.762 25.6791 43.7306 25.6315 43.7097 25.5791C43.6889 25.5266 43.6791 25.4704 43.681 25.414H43.8756C43.8796 25.5745 43.9605 25.654 44.1183 25.654C44.2761 25.654 44.3557 25.5725 44.365 25.412L44.3637 25.414Z" fill="white"/>
<path d="M46.2433 27.0268H46.4827C46.4594 27.1612 46.3882 27.2827 46.2821 27.3685C46.167 27.4556 46.0251 27.4996 45.8809 27.4929C45.786 27.4976 45.6912 27.4813 45.6034 27.4451C45.5155 27.409 45.4367 27.3538 45.3727 27.2836C45.2535 27.1292 45.1889 26.9397 45.1889 26.7446C45.1889 26.5496 45.2535 26.3601 45.3727 26.2057C45.4365 26.1352 45.5153 26.0799 45.6032 26.0436C45.6911 26.0074 45.786 25.9913 45.8809 25.9964C46.0251 25.9891 46.1673 26.0332 46.2821 26.1208C46.385 26.2008 46.4536 26.317 46.474 26.4457H46.2339C46.1831 26.2853 46.0661 26.2057 45.8842 26.2057C45.8191 26.201 45.7539 26.2125 45.6943 26.2391C45.6347 26.2657 45.5826 26.3066 45.5426 26.3581C45.4655 26.4696 45.4267 26.6032 45.4322 26.7386C45.4269 26.8773 45.4665 27.0141 45.5452 27.1284C45.5844 27.1805 45.6359 27.2219 45.6951 27.249C45.7543 27.2761 45.8193 27.288 45.8842 27.2836C46.0842 27.2836 46.2032 27.198 46.2433 27.0268Z" fill="white"/>
<path d="M47.8795 27.4581L47.5632 26.8316H47.1373V27.4581H46.8972V26.0332H47.1373V26.6203H47.5692L47.8655 26.0332H48.1169L47.7692 26.7226L48.1363 27.4581H47.8795Z" fill="white"/>
<path d="M48.5903 26.2083C48.6552 26.1375 48.7349 26.0817 48.8238 26.0451C48.9126 26.0085 49.0085 25.9918 49.1045 25.9964C49.2 25.9917 49.2954 26.0083 49.3837 26.045C49.472 26.0816 49.5511 26.1374 49.6153 26.2083C49.7371 26.36 49.8035 26.5487 49.8035 26.7433C49.8035 26.9378 49.7371 27.1265 49.6153 27.2782C49.5511 27.3491 49.472 27.4049 49.3837 27.4415C49.2954 27.4782 49.2 27.4948 49.1045 27.4901C49.0085 27.4947 48.9126 27.4781 48.8238 27.4414C48.7349 27.4048 48.6552 27.3491 48.5903 27.2782C48.471 27.1254 48.4062 26.9371 48.4062 26.7433C48.4062 26.5494 48.471 26.3611 48.5903 26.2083ZM48.7628 27.1284C48.8053 27.1771 48.8578 27.2161 48.9167 27.2428C48.9756 27.2696 49.0395 27.2834 49.1041 27.2834C49.1688 27.2834 49.2327 27.2696 49.2916 27.2428C49.3505 27.2161 49.4029 27.1771 49.4455 27.1284C49.5267 27.0173 49.5686 26.8822 49.5645 26.7446C49.5689 26.6078 49.527 26.4735 49.4455 26.3635C49.4034 26.314 49.3511 26.2742 49.2922 26.247C49.2332 26.2197 49.1691 26.2056 49.1041 26.2056C49.0392 26.2056 48.975 26.2197 48.9161 26.247C48.8572 26.2742 48.8048 26.314 48.7628 26.3635C48.6818 26.4737 48.6401 26.6079 48.6444 26.7446C48.6404 26.8821 48.682 27.0171 48.7628 27.1284Z" fill="white"/>
<path d="M50.5742 27.4581H50.2352V26.0332H50.4719V27.1338H50.5341L51.1579 26.0332H51.5083V27.4581H51.2743V26.3548H51.2074L50.5742 27.4581ZM51.1091 25.414H51.3037C51.3055 25.4705 51.2956 25.5267 51.2746 25.5791C51.2537 25.6316 51.2222 25.6792 51.182 25.7189C51.0909 25.7887 50.9794 25.8265 50.8647 25.8265C50.75 25.8265 50.6385 25.7887 50.5474 25.7189C50.5073 25.6792 50.4757 25.6316 50.4548 25.5791C50.4338 25.5267 50.424 25.4705 50.4257 25.414H50.6203C50.6243 25.5745 50.7052 25.654 50.863 25.654C51.0208 25.654 51.1011 25.5725 51.1104 25.412L51.1091 25.414Z" fill="white"/>
<path d="M53.9629 25.6072H53.9964C54.2808 25.6072 54.5036 25.6768 54.665 25.8158C54.8264 25.9549 54.9091 26.1555 54.9131 26.4176C54.9131 26.6851 54.8313 26.8872 54.6677 27.0241C54.5041 27.1609 54.2792 27.2296 53.993 27.23H53.9596V27.4901H53.7108V27.23H53.6814C53.3959 27.23 53.1706 27.1632 53.0074 27.0241C52.8443 26.885 52.7614 26.6844 52.7614 26.4176C52.7614 26.1508 52.8436 25.9496 53.0074 25.8158C53.1712 25.6821 53.3972 25.6072 53.6814 25.6072H53.7155V25.3759H53.9643L53.9629 25.6072ZM53.6814 27.0074H53.7155V25.8332H53.6814C53.471 25.8332 53.3065 25.8829 53.188 25.9823C53.0709 26.0799 53.0128 26.2264 53.0128 26.4203C53.0128 26.6142 53.0709 26.7626 53.188 26.8603C53.3301 26.9657 53.5048 27.0177 53.6814 27.0074ZM53.9643 27.0074H53.9977C54.1737 27.0174 54.3476 26.9654 54.4892 26.8603C54.6075 26.7626 54.667 26.6155 54.667 26.4203C54.667 26.225 54.6075 26.0799 54.4892 25.9823C54.3708 25.8847 54.2083 25.8332 53.9977 25.8332H53.9643V27.0074Z" fill="white"/>
<path d="M56.5613 26.6596V26.7419H55.4774C55.472 26.8854 55.5146 27.0266 55.5984 27.1431C55.6394 27.1909 55.691 27.2285 55.749 27.253C55.807 27.2775 55.8699 27.2882 55.9328 27.2842C56.1287 27.2842 56.2491 27.2113 56.2945 27.0642H56.5372C56.5145 27.1889 56.4446 27.3 56.342 27.3744C56.2227 27.4586 56.0786 27.5005 55.9328 27.4935C55.8376 27.4983 55.7426 27.4818 55.6546 27.4451C55.5667 27.4085 55.4881 27.3525 55.4246 27.2815C55.2976 27.127 55.2324 26.931 55.2414 26.7312C55.2313 26.536 55.297 26.3444 55.4246 26.1963C55.489 26.1286 55.5673 26.0756 55.6541 26.0409C55.7409 26.0063 55.8341 25.9909 55.9274 25.9957C56.0149 25.9901 56.1025 26.0045 56.1836 26.0377C56.2646 26.071 56.3371 26.1222 56.3955 26.1876C56.5056 26.32 56.5644 26.4875 56.5613 26.6596ZM55.9201 26.2056C55.8138 26.2002 55.7092 26.2342 55.6265 26.3012C55.5546 26.3626 55.5071 26.4478 55.4928 26.5413H56.3139C56.3082 26.4492 56.2667 26.3631 56.1982 26.3012C56.1214 26.2345 56.0217 26.2002 55.9201 26.2056Z" fill="white"/>
<path d="M58.2584 27.2468H58.5211V27.8593H58.2864V27.4581H57.0561V27.8593H56.8241V27.2468H57.0127C57.1317 26.9887 57.1916 26.7072 57.1878 26.423V26.0332H58.2577L58.2584 27.2468ZM58.0183 27.2468V26.2438H57.4085V26.4244C57.4163 26.7069 57.3634 26.9878 57.2534 27.2481L58.0183 27.2468Z" fill="white"/>
<path d="M60.1226 26.6596V26.7419H59.0387C59.0332 26.8854 59.0758 27.0266 59.1597 27.1431C59.2007 27.1909 59.2522 27.2285 59.3103 27.253C59.3683 27.2775 59.4312 27.2882 59.494 27.2842C59.6899 27.2842 59.8103 27.2113 59.8558 27.0642H60.1005C60.0778 27.1889 60.0079 27.3 59.9053 27.3744C59.7859 27.4586 59.6419 27.5005 59.496 27.4935C59.401 27.4984 59.306 27.4819 59.2182 27.4452C59.1303 27.4085 59.0519 27.3526 58.9885 27.2815C58.8614 27.1271 58.7959 26.931 58.8046 26.7312C58.7948 26.5359 58.8607 26.3443 58.9885 26.1963C59.0527 26.1285 59.1309 26.0755 59.2176 26.0408C59.3043 26.0062 59.3975 25.9908 59.4907 25.9957C59.5781 25.9901 59.6657 26.0045 59.7468 26.0377C59.8279 26.071 59.9004 26.1222 59.9587 26.1876C60.0681 26.3202 60.1262 26.4878 60.1226 26.6596ZM59.4813 26.2056C59.375 26.2001 59.2704 26.2341 59.1878 26.3012C59.1158 26.3626 59.0684 26.4478 59.0541 26.5413H59.8752C59.8694 26.4492 59.8279 26.3631 59.7595 26.3012C59.6827 26.2345 59.5829 26.2002 59.4813 26.2056Z" fill="white"/>
<path d="M61.2372 26.2057C61.173 26.2018 61.1088 26.214 61.0505 26.2411C60.9921 26.2682 60.9414 26.3093 60.9029 26.3608C60.8308 26.4759 60.7926 26.6089 60.7926 26.7446C60.7926 26.8804 60.8308 27.0134 60.9029 27.1284C60.9414 27.1799 60.9921 27.2211 61.0505 27.2482C61.1088 27.2752 61.173 27.2874 61.2372 27.2836C61.2987 27.2869 61.3602 27.2753 61.4163 27.2498C61.4724 27.2243 61.5215 27.1857 61.5595 27.1371C61.641 27.023 61.6817 26.8847 61.6752 26.7446C61.682 26.6053 61.6412 26.4678 61.5595 26.3548C61.522 26.3056 61.473 26.2662 61.4169 26.2403C61.3607 26.2143 61.299 26.2024 61.2372 26.2057ZM60.5545 26.0332H60.7859V26.1876H60.848C60.902 26.1236 60.9702 26.0731 61.0472 26.0403C61.1242 26.0074 61.2078 25.9931 61.2914 25.9984C61.3785 25.995 61.4651 26.0124 61.5441 26.0493C61.6231 26.0861 61.6921 26.1414 61.7454 26.2104C61.8559 26.3679 61.9151 26.5556 61.9151 26.748C61.9151 26.9404 61.8559 27.1281 61.7454 27.2856C61.6917 27.3539 61.6226 27.4086 61.5436 27.445C61.4647 27.4814 61.3782 27.4985 61.2914 27.4949C61.0954 27.4949 60.9503 27.4313 60.8567 27.3056H60.7946V28.0224H60.5545V26.0332Z" fill="white"/>
<path d="M63.2512 27.458V27.3082H63.1897C63.0912 27.4326 62.9434 27.4948 62.7464 27.4948C62.6784 27.4985 62.6104 27.4885 62.5463 27.4656C62.4823 27.4426 62.4234 27.4071 62.3733 27.3611C62.329 27.3189 62.2938 27.268 62.2701 27.2116C62.2464 27.1553 62.2346 27.0946 62.2355 27.0334C62.2341 26.9716 62.2452 26.91 62.2682 26.8526C62.2912 26.7951 62.3256 26.7429 62.3693 26.6991C62.4584 26.6068 62.5948 26.5607 62.7785 26.5607H63.2432V26.5045C63.2452 26.4647 63.2386 26.425 63.224 26.388C63.2093 26.351 63.1869 26.3175 63.1583 26.2899C63.0847 26.2293 62.9904 26.2 62.8955 26.2083C62.6889 26.2083 62.5786 26.2752 62.5658 26.4142H62.3258C62.3283 26.3541 62.3447 26.2953 62.3735 26.2424C62.4024 26.1895 62.443 26.144 62.4923 26.1093C62.6109 26.0308 62.7514 25.9922 62.8935 25.999C63.047 25.9902 63.1988 26.0351 63.3228 26.1261C63.3757 26.1702 63.4176 26.2262 63.445 26.2895C63.4724 26.3528 63.4846 26.4216 63.4806 26.4905V27.458H63.2512ZM62.8052 27.2855C62.9188 27.2878 63.0289 27.2464 63.1128 27.1698C63.1548 27.1346 63.1885 27.0906 63.2116 27.0409C63.2347 26.9912 63.2466 26.9371 63.2465 26.8823V26.7519H62.8199C62.5926 26.7519 62.4789 26.8429 62.4789 27.0234C62.4774 27.0597 62.4842 27.0958 62.4988 27.1291C62.5134 27.1624 62.5354 27.1919 62.5632 27.2153C62.6339 27.2646 62.7192 27.2886 62.8052 27.2835V27.2855Z" fill="white"/>
<path d="M64.9777 26.0332H65.2177V27.2468H65.4778V27.8593H65.2491V27.4581H63.9787V26.0332H64.2181V27.2468H64.983L64.9777 26.0332Z" fill="white"/>
<path d="M66.1853 27.4581H65.8469V26.0332H66.081V27.1338H66.1431L66.767 26.0332H67.1167V27.4581H66.8827V26.3548H66.8205L66.1853 27.4581Z" fill="white"/>
<path d="M67.9726 27.4581H67.6336V26.0332H67.8676V27.1338H67.9298L68.5536 26.0332H68.904V27.4581H68.6693V26.3548H68.6071L67.9726 27.4581Z" fill="white"/>
</g>
<defs>
<clipPath id="clip0_1387_12658">
<rect width="96.3204" height="29.0196" fill="white" transform="translate(0.389648 0.0432129)"/>
</clipPath>
</defs>
</svg>
