<svg width="128" height="80" viewBox="0 0 128 80" fill="none" xmlns="http://www.w3.org/2000/svg">
<path d="M33.7886 34.2226C34.7972 30.5621 34.4241 18.1992 44.441 21.5709C46.1769 22.1553 48.0722 23.981 48.5574 24.5424C48.5641 24.5502 48.5686 24.5596 48.5705 24.5697C48.5723 24.5798 48.5714 24.5902 48.5679 24.5998C48.5643 24.6095 48.5583 24.618 48.5503 24.6244C48.5424 24.6309 48.5328 24.6351 48.5227 24.6366C46.3081 25.0305 42.323 26.8735 43.3598 31.2883C44.6753 36.8899 47.7663 44.7733 44.441 49.6934C40.7803 55.1097 37.3303 57.2408 33.7172 58.351C32.1013 64.7072 26.5292 72.0694 23.299 75.6196C23.2379 75.6859 23.1614 75.7359 23.0763 75.765C22.9911 75.7941 22.9001 75.8014 22.8115 75.7863C18.8549 75.2067 14.8255 75.3698 10.9282 76.2674C9.55342 76.6125 4.67485 77.7826 2.47662 79.8427C2.20788 80.0947 1.80033 80.0469 1.8073 79.6777C1.8636 76.6913 7.99528 67.7847 17.0802 62.9368C23.5602 59.4791 28.7901 59.8645 33.7172 58.351C34.0586 57.0957 34.2052 55.795 34.1519 54.4948C33.8718 49.8057 33.3675 45.1171 31.4467 40.5091C28.2576 47.0434 23.8026 50.3758 19.948 52.2377C19.0629 52.6628 18.0869 52.8614 17.1069 52.8159C16.1269 52.7704 15.1734 52.4822 14.3311 51.9769C9.93802 49.3522 6.52384 45.7284 3.63441 41.1576C-0.41235 34.7562 -0.412384 27.8207 0.477396 21.9526C2.26966 10.1322 11.7839 2.19179 14.8831 0.102582C15.2601 -0.151679 15.4643 0.0981866 15.2634 0.507283C14.1059 2.86143 13.5905 6.92108 13.1055 10.2158C12.2921 15.7426 12.3162 20.3519 22.3135 28.6209C26.9855 32.4853 29.7613 36.466 31.4467 40.5091C32.4197 38.4911 33.2038 36.3865 33.7886 34.2226Z" fill="white"/>
<path d="M56 18.2856H61.2108C62.4471 18.2856 63.4008 18.5898 64.0719 19.198C64.4191 19.5172 64.691 19.9097 64.8679 20.3471C65.0449 20.7845 65.1224 21.2559 65.0949 21.727C65.0949 23.1463 64.5248 24.144 63.3846 24.7202L65.1429 29.7142H63.1928L61.5784 25.1364C61.2436 25.165 60.9074 25.1757 60.5714 25.1684H57.9181V29.7142H56V18.2856ZM57.9181 19.9823V23.5037H60.9391C62.4096 23.5037 63.1449 22.9168 63.1449 21.743C63.1638 21.4998 63.1276 21.2555 63.039 21.0282C62.9504 20.8009 62.8118 20.5966 62.6334 20.4305C62.2925 20.1317 61.7277 19.9823 60.9391 19.9823H57.9181Z" fill="white"/>
<path d="M74.6798 18.2856H76.5714V25.796C76.5714 27.2265 76.1773 28.3324 75.3892 29.1137C74.601 29.895 73.4712 30.2856 72 30.2856C70.5288 30.2856 69.3991 29.895 68.6108 29.1137C67.8225 28.3324 67.4285 27.2265 67.4286 25.796V18.2856H69.3202V25.7464C69.3017 26.1136 69.3536 26.4809 69.4727 26.8267C69.5918 27.1725 69.7758 27.4899 70.0138 27.7602C70.5784 28.2305 71.2785 28.4865 72 28.4865C72.7214 28.4865 73.4216 28.2305 73.9862 27.7602C74.2243 27.49 74.4083 27.1726 74.5274 26.8267C74.6465 26.4809 74.6983 26.1136 74.6798 25.7464V18.2856Z" fill="white"/>
<path d="M87.7454 21.5483H85.8055C85.5726 20.5109 84.7775 19.9921 83.4205 19.9921C82.8685 19.9697 82.3218 20.1105 81.8464 20.3974C81.6536 20.5203 81.4962 20.693 81.39 20.898C81.2839 21.103 81.2329 21.3329 81.2422 21.5645C81.2299 21.7501 81.2626 21.936 81.3375 22.1056C81.4124 22.2752 81.5271 22.4234 81.6715 22.5371C82.045 22.7718 82.4616 22.9263 82.8958 22.991C82.9701 23.0018 83.6803 23.1423 85.0264 23.4125C87.0088 23.8556 87.9999 24.9633 87.9998 26.7356C88.0056 27.219 87.9043 27.6976 87.7033 28.1354C87.5023 28.5733 87.2069 28.9593 86.8391 29.2644C86.0759 29.9452 84.984 30.2856 83.5636 30.2856C82.2069 30.2856 81.1098 29.956 80.2723 29.2968C79.8682 28.9891 79.5331 28.5972 79.2891 28.1472C79.0451 27.6972 78.8978 27.1995 78.8571 26.687H80.797C81.0196 27.9514 81.9683 28.5836 83.6431 28.5836C84.2625 28.6137 84.8768 28.4557 85.408 28.1297C85.6207 27.9878 85.7939 27.7925 85.9109 27.5625C86.0279 27.3325 86.0847 27.0756 86.0758 26.8167C86.0907 26.6031 86.0585 26.3888 85.9814 26.1896C85.9044 25.9905 85.7845 25.8114 85.6306 25.6657C85.2617 25.3679 84.8235 25.1725 84.3586 25.0984L82.1485 24.6607C80.2619 24.2933 79.3185 23.2774 79.3183 21.6132C79.3099 21.1568 79.4044 20.7046 79.5946 20.2915C79.7849 19.8783 80.0657 19.5152 80.4154 19.2303C81.1468 18.6034 82.1591 18.29 83.4523 18.2901C84.503 18.2441 85.5385 18.5579 86.3939 19.1816C86.7693 19.4575 87.0836 19.8108 87.3164 20.2185C87.5492 20.6262 87.6954 21.0793 87.7454 21.5483Z" fill="white"/>
<path d="M98.5866 21.5483H96.5255C96.2776 20.5109 95.4329 19.9921 93.9914 19.9921C93.4049 19.9697 92.8241 20.1105 92.3189 20.3974C92.1141 20.5202 91.9467 20.6929 91.834 20.8979C91.7212 21.1029 91.667 21.3329 91.677 21.5645C91.6639 21.7501 91.6987 21.9359 91.7782 22.1056C91.8578 22.2752 91.9797 22.4234 92.1331 22.5371C92.5299 22.7719 92.9726 22.9264 93.4339 22.991C93.5125 23.0018 94.2671 23.1423 95.6977 23.4125C97.8036 23.8556 98.8567 24.9633 98.8569 26.7356C98.8631 27.219 98.7553 27.6975 98.5418 28.1354C98.3282 28.5733 98.0144 28.9592 97.6236 29.2644C96.8127 29.9452 95.6527 30.2856 94.1435 30.2856C92.7016 30.2856 91.5359 29.956 90.6464 29.2968C90.217 28.9892 89.8608 28.5973 89.6016 28.1473C89.3423 27.6973 89.1859 27.1995 89.1429 26.687H91.2039C91.4404 27.9514 92.4484 28.5836 94.2279 28.5836C94.886 28.6137 95.5387 28.4557 96.1032 28.1297C96.3292 27.9878 96.5131 27.7925 96.6374 27.5625C96.7617 27.3325 96.8221 27.0756 96.8127 26.8166C96.8285 26.6031 96.7942 26.3888 96.7123 26.1897C96.6305 25.9905 96.5031 25.8115 96.3397 25.6657C95.9477 25.368 95.4821 25.1725 94.9882 25.0984L92.6399 24.6607C90.635 24.2933 89.6327 23.2774 89.6328 21.6132C89.6239 21.1568 89.7243 20.7046 89.9264 20.2915C90.1286 19.8783 90.4269 19.5152 90.7985 19.2302C91.5756 18.6034 92.6512 18.29 94.0252 18.2901C95.1415 18.2441 96.2417 18.558 97.1506 19.1816C97.5494 19.4575 97.8833 19.8108 98.1307 20.2185C98.3781 20.6262 98.5334 21.0793 98.5866 21.5483Z" fill="white"/>
<path d="M100.571 18.2856H102.857V29.7142H100.571V18.2856Z" fill="white"/>
<path d="M113.426 29.7142L112.352 26.4329H107.583L106.525 29.7142H104.571L108.429 18.2856H111.555L115.429 29.7142H113.426ZM109.601 20.1584L108.136 24.7202H111.782L110.301 20.1584H109.601Z" fill="white"/>
<path d="M125.014 18.2856H126.857V29.7142H124.125L119.373 21.0708H118.985V29.7142H117.143V18.2856H119.874L124.627 26.9291H125.014V18.2856Z" fill="white"/>
<path d="M60 33.7142V35.4109H56.3872V45.1428H54.4858V35.4109H50.8571V33.7142H60Z" fill="white"/>
<path d="M63.6697 43.3981H70.2857V45.1428H61.7143V33.7142H70.0738V35.4589H63.6697V38.4041H68.7376V40.1168H63.6697V43.3981Z" fill="white"/>
<path d="M79.8175 45.1428L78.7997 41.8615H74.2814L73.2791 45.1428H71.4286L75.0833 33.7142H78.0441L81.7143 45.1428H79.8175ZM76.1936 35.587L74.8057 40.1488H78.26L76.8567 35.587H76.1936Z" fill="white"/>
<path d="M91.0759 41.6046H93.1429C92.9817 42.6161 92.4261 43.5349 91.5844 44.1821C90.6642 44.8443 89.5267 45.1828 88.3691 45.139C86.6413 45.139 85.2906 44.6143 84.3171 43.5647C83.344 42.5048 82.8574 41.126 82.8571 39.4284C82.8569 37.7307 83.3436 36.3571 84.3171 35.3074C85.3014 34.2475 86.6576 33.7176 88.3855 33.7177C89.4842 33.6774 90.5652 33.9874 91.4532 34.5975C92.2701 35.1787 92.8261 36.0267 93.0116 36.9743H90.9446C90.573 35.9248 89.72 35.4001 88.3855 35.4001C87.8819 35.3728 87.379 35.4627 86.9212 35.662C86.4633 35.8612 86.0648 36.1635 85.7608 36.5422C85.1326 37.3855 84.8157 38.3994 84.8585 39.4284C84.8156 40.4551 85.1263 41.4674 85.7444 42.3146C86.0484 42.6933 86.4469 42.9956 86.9048 43.1948C87.3626 43.394 87.8655 43.484 88.3691 43.4567C88.9992 43.4823 89.6211 43.3144 90.1408 42.9782C90.6172 42.6404 90.949 42.153 91.0759 41.6046Z" fill="white"/>
<path d="M102.734 33.7142H104.571V45.1428H102.734V40.1488H97.2663V45.1428H95.4286V33.7142H97.2663V38.3561H102.734V33.7142Z" fill="white"/>
<path d="M109.384 43.3981H116V45.1428H107.429V33.7142H115.788V35.4589H109.384V38.4041H114.452V40.1168H109.384V43.3981Z" fill="white"/>
<path d="M118.286 33.7142H123.497C124.733 33.7142 125.686 34.0184 126.358 34.6266C126.705 34.9458 126.977 35.3383 127.154 35.7757C127.33 36.2131 127.408 36.6845 127.381 37.1556C127.381 38.575 126.811 39.5727 125.67 40.1488L127.429 45.1428H125.479L123.864 40.565C123.529 40.5935 123.193 40.6042 122.857 40.597H120.204V45.1428H118.286V33.7142ZM120.204 35.4109V38.9323H123.225C124.695 38.9323 125.431 38.3454 125.431 37.1716C125.449 36.9284 125.413 36.6841 125.325 36.4568C125.236 36.2296 125.097 36.0252 124.919 35.8591C124.578 35.5602 124.013 35.4108 123.225 35.4109H120.204Z" fill="white"/>
<path d="M67.246 60.5714L66.2283 57.2901H61.71L60.7076 60.5714H58.8571L62.5119 49.1428H65.4727L69.1428 60.5714H67.246ZM63.6221 51.0156L62.2342 55.5774H65.6885L64.2852 51.0156H63.6221Z" fill="white"/>
<path d="M78.4748 54.3929V54.7771C78.9341 54.9836 79.3172 55.3309 79.5698 55.7695C79.8558 56.2296 80.0046 56.763 79.9983 57.3061C80.0132 57.7506 79.9315 58.1931 79.7587 58.6023C79.586 59.0116 79.3265 59.3777 78.9985 59.675C78.3426 60.2726 77.3852 60.5714 76.126 60.5714H70.8572V49.1428H75.9832C77.1576 49.1428 78.0622 49.4256 78.697 49.9912C79.0052 50.2475 79.2522 50.5705 79.4198 50.9363C79.5874 51.302 79.6712 51.7011 79.665 52.104C79.665 53.1817 79.2682 53.9446 78.4748 54.3929ZM72.7616 53.8327H75.8086C77.0782 53.8327 77.713 53.3258 77.713 52.3121C77.729 52.1035 77.6973 51.8939 77.6202 51.6997C77.5432 51.5054 77.4229 51.3316 77.2686 51.1916C76.9726 50.9355 76.4859 50.8075 75.8086 50.8075H72.7616V53.8327ZM72.7616 58.9067H75.8721C77.3218 58.9067 78.0465 58.3305 78.0463 57.178C78.0631 56.9398 78.0261 56.7008 77.9381 56.479C77.8502 56.2572 77.7135 56.0584 77.5384 55.8975C77.2 55.6094 76.6446 55.4654 75.8721 55.4654H72.7616V58.9067Z" fill="white"/>
<path d="M82.2857 49.1428H87.4965C88.7325 49.1428 89.6862 49.4469 90.3576 50.0552C90.7048 50.3744 90.9767 50.7669 91.1536 51.2043C91.3306 51.6417 91.4081 52.1131 91.3806 52.5842C91.3806 54.0035 90.8105 55.0013 89.6703 55.5774L91.4286 60.5714H89.4785L87.8641 55.9936C87.5293 56.0221 87.1931 56.0328 86.8571 56.0256H84.2038V60.5714H82.2857V49.1428ZM84.2038 50.8395V54.3609H87.2248C88.6953 54.3609 89.4306 53.774 89.4306 52.6002C89.4494 52.357 89.4132 52.1127 89.3246 51.8854C89.2361 51.6581 89.0974 51.4538 88.9191 51.2877C88.5782 50.9888 88.0134 50.8394 87.2248 50.8395H84.2038Z" fill="white"/>
<path d="M94.5777 50.2579C95.5343 49.1337 96.8682 48.5715 98.5794 48.5714C100.291 48.5713 101.619 49.1335 102.565 50.2579C103.522 51.3821 104 52.82 104 54.5714C104 56.3229 103.522 57.7607 102.565 58.8849C101.619 60.0091 100.29 60.5713 98.5794 60.5714C96.868 60.5714 95.5341 60.0093 94.5777 58.8849C93.6214 57.7606 93.1431 56.3228 93.1429 54.5714C93.1429 52.8201 93.6212 51.3822 94.5777 50.2579ZM95.9647 57.6038C96.5598 58.4037 97.4314 58.8037 98.5794 58.8038C99.7274 58.804 100.594 58.404 101.178 57.6038C101.751 56.6996 102.055 55.6469 102.055 54.5714C102.055 53.4959 101.751 52.4432 101.178 51.539C100.593 50.7391 99.7272 50.3391 98.5794 50.339C97.4316 50.3389 96.5601 50.7389 95.9647 51.539C95.3923 52.4432 95.0879 53.4959 95.0879 54.5714C95.0879 55.6469 95.3923 56.6996 95.9647 57.6038Z" fill="white"/>
<path d="M113.998 60.5714L112.924 57.2901H108.154L107.096 60.5714H105.143L109.001 49.1428H112.126L116 60.5714H113.998ZM110.173 51.0156L108.708 55.5774H112.354L110.873 51.0156H110.173Z" fill="white"/>
<path d="M117.714 49.1428H122.199C123.9 49.1428 125.194 49.655 126.082 50.6794C126.98 51.7038 127.429 53.0964 127.429 54.8571C127.428 56.6178 126.979 58.0104 126.082 59.0348C125.184 60.0592 123.889 60.5714 122.199 60.5714H117.714L117.714 49.1428ZM119.616 58.8267H122.041C123.234 58.8267 124.106 58.4639 124.655 57.7383C125.204 56.8794 125.495 55.8791 125.495 54.8571C125.495 53.8352 125.204 52.8348 124.655 51.976C124.106 51.2504 123.234 50.8876 122.041 50.8875H119.616V58.8267Z" fill="white"/>
</svg>
