<svg width="35" height="32" viewBox="0 0 35 32" fill="none" xmlns="http://www.w3.org/2000/svg">
<path d="M17.352 5.9871C17.2766 5.91702 17.1785 5.87351 17.0738 5.86373C16.969 5.85395 16.8639 5.87847 16.7757 5.93328C16.6885 5.98824 16.6238 6.07029 16.5926 6.16553C16.5619 6.26029 16.5671 6.36237 16.6073 6.45383C16.648 6.54638 16.7209 6.6227 16.8137 6.66989C16.9065 6.71708 17.0135 6.73225 17.1167 6.71284C17.2198 6.69342 17.3128 6.64061 17.3799 6.56333C17.447 6.48605 17.4841 6.38903 17.4849 6.28867C17.4849 6.23275 17.4733 6.17738 17.4509 6.12572C17.4277 6.0738 17.3941 6.02671 17.352 5.9871ZM21.6889 7.38802C21.6136 7.31783 21.5155 7.27418 21.4107 7.26426C21.306 7.25435 21.2008 7.27875 21.1126 7.33346C21.0251 7.38807 20.9602 7.46987 20.9287 7.56498C20.898 7.66022 20.9033 7.76274 20.9437 7.85463C20.9841 7.94653 21.057 8.02199 21.1497 8.06784C21.2431 8.11475 21.3504 8.12984 21.454 8.1106C21.557 8.09176 21.65 8.03969 21.7174 7.96314C21.7843 7.88681 21.8209 7.79052 21.821 7.69106C21.8211 7.63482 21.8092 7.57914 21.7862 7.52738C21.7633 7.47531 21.7297 7.42817 21.6873 7.38876L21.6889 7.38802ZM12.9773 7.38802C12.9019 7.31794 12.8038 7.27443 12.6991 7.26465C12.5943 7.25487 12.4892 7.27939 12.401 7.3342C12.3349 7.37458 12.2812 7.43091 12.2452 7.49748C12.2092 7.56405 12.1923 7.63851 12.1961 7.71333C12.2 7.78814 12.2244 7.86067 12.2671 7.92356C12.3097 7.98646 12.369 8.0375 12.4389 8.07152C12.5327 8.11718 12.6401 8.13097 12.7432 8.1106C12.8462 8.09176 12.9392 8.03969 13.0067 7.96314C13.0735 7.88681 13.1101 7.79052 13.1102 7.69106C13.1099 7.63486 13.0981 7.57924 13.0754 7.52738C13.052 7.47543 13.0181 7.42834 12.9758 7.38876L12.9773 7.38802ZM17.0299 1.12125e-05C20.9609 -0.00341273 24.7747 1.27812 27.8365 3.63134C30.8722 5.96313 32.9592 9.23377 33.7369 12.8782C34.5061 16.5109 33.911 20.2862 32.0559 23.5421C30.1822 26.8202 27.1776 29.3782 23.5521 30.7819C19.9056 32.1987 15.8617 32.3855 12.0889 31.3113C8.33313 30.2471 5.07694 27.9788 2.86985 24.8892C0.681866 21.8202 -0.304923 18.1141 0.0823557 14.4204C0.469634 10.7267 2.20628 7.28082 4.98806 4.68646C6.57377 3.19535 8.45063 2.01571 10.5122 1.21439C12.5817 0.409975 14.7954 -0.00247938 17.0299 1.12125e-05ZM17.3512 11.2413C17.2759 11.1712 17.1777 11.1277 17.073 11.1179C16.9683 11.1081 16.8631 11.1327 16.775 11.1875C16.6875 11.2417 16.6228 11.3235 16.592 11.4186C16.5612 11.5138 16.5664 11.6162 16.6065 11.708C16.6475 11.7998 16.7203 11.8753 16.8128 11.9218C16.9063 11.9685 17.0137 11.9833 17.1172 11.9639C17.2201 11.945 17.3131 11.893 17.3806 11.8164C17.4522 11.7347 17.4889 11.6303 17.4836 11.5239C17.4783 11.4175 17.4314 11.3169 17.352 11.242L17.3512 11.2413ZM17.3512 16.3812C17.2763 16.3105 17.178 16.2667 17.0731 16.2573C16.9684 16.2474 16.8632 16.2719 16.775 16.3266C16.6873 16.3812 16.6225 16.4634 16.5919 16.5589C16.5611 16.6536 16.5663 16.7557 16.6065 16.8472C16.6473 16.9391 16.7202 17.0147 16.8128 17.061C16.9052 17.1079 17.0116 17.1233 17.1144 17.1047C17.2173 17.0861 17.3103 17.0345 17.3783 16.9585C17.4498 16.8769 17.4865 16.7726 17.4812 16.6664C17.476 16.5601 17.429 16.4596 17.3497 16.3849L17.3512 16.3812ZM9.53039 10.1641C9.45565 10.0935 9.35769 10.0498 9.25306 10.0402C9.14751 10.0314 9.042 10.0574 8.9541 10.1139C8.8669 10.1686 8.80222 10.2504 8.77102 10.3454C8.74025 10.4404 8.74544 10.5427 8.7857 10.6345C8.82671 10.7265 8.89988 10.802 8.99273 10.8483C9.08622 10.895 9.19359 10.9098 9.2971 10.8903C9.40001 10.8714 9.49301 10.8194 9.56052 10.7429C9.61235 10.6832 9.64614 10.6111 9.65826 10.5345C9.67037 10.4578 9.66035 10.3795 9.62927 10.3078C9.60672 10.2541 9.5731 10.2052 9.53039 10.1641ZM25.0887 10.1641C25.0134 10.0939 24.9153 10.0502 24.8105 10.0403C24.7058 10.0304 24.6006 10.0548 24.5124 10.1095C24.4249 10.1641 24.36 10.2459 24.3285 10.341C24.2977 10.436 24.3029 10.5383 24.3432 10.63C24.3839 10.722 24.4568 10.7976 24.5495 10.8439C24.6428 10.8904 24.7499 10.9053 24.8533 10.886C24.9566 10.8667 25.05 10.8144 25.118 10.7377C25.1893 10.6559 25.2258 10.5516 25.2203 10.4454C25.2149 10.3392 25.1679 10.2388 25.0887 10.1641ZM7.8865 19.2273C7.81121 19.1571 7.71312 19.1134 7.60838 19.1035C7.50364 19.0936 7.39849 19.118 7.31021 19.1727C7.22277 19.2273 7.15781 19.3091 7.12635 19.4042C7.09558 19.4992 7.10078 19.6015 7.14103 19.6933C7.18174 19.7852 7.25465 19.8608 7.34729 19.9071C7.44069 19.954 7.54806 19.9691 7.65166 19.9499C7.75467 19.9312 7.84774 19.8791 7.91508 19.8024C7.98664 19.7207 8.02342 19.6163 8.01813 19.5099C8.01283 19.4035 7.96585 19.3029 7.8865 19.228V19.2273ZM10.6629 22.532C10.5876 22.4618 10.4895 22.4181 10.3848 22.4082C10.28 22.3983 10.1749 22.4227 10.0866 22.4774C9.99915 22.532 9.93419 22.6138 9.90274 22.7089C9.87197 22.8039 9.87716 22.9062 9.91742 22.998C9.95843 23.0899 10.0316 23.1655 10.1245 23.2118C10.2177 23.2582 10.3247 23.2729 10.4278 23.2536C10.531 23.2343 10.6242 23.1821 10.6922 23.1056C10.7589 23.0292 10.7955 22.933 10.7958 22.8335C10.7958 22.7773 10.784 22.7216 10.761 22.6698C10.7386 22.6177 10.7052 22.5705 10.6629 22.5312V22.532ZM13.1511 13.4562C13.0757 13.3861 12.9776 13.3426 12.8729 13.3328C12.7681 13.3231 12.663 13.3476 12.5748 13.4024C12.4871 13.4567 12.422 13.5386 12.391 13.6339C12.3604 13.7288 12.3659 13.8308 12.4064 13.9222C12.4469 14.0145 12.5198 14.0904 12.6127 14.1368C12.7062 14.1834 12.8135 14.1983 12.9171 14.1788C13.02 14.16 13.113 14.1079 13.1805 14.0313C13.2474 13.9548 13.284 13.8582 13.284 13.7585C13.2841 13.702 13.2723 13.6461 13.2492 13.5941C13.2266 13.5419 13.1932 13.4945 13.1511 13.4547V13.4562ZM26.4939 19.1027C26.3895 19.1031 26.2884 19.1374 26.2073 19.2C26.1275 19.2626 26.0729 19.3496 26.0527 19.4463C26.0327 19.5428 26.0488 19.643 26.0983 19.7294C26.1482 19.8166 26.2282 19.8846 26.3247 19.9218C26.4216 19.9591 26.5288 19.964 26.629 19.9358C26.7289 19.9075 26.8154 19.847 26.8739 19.7648C26.9321 19.6831 26.9583 19.5845 26.948 19.4863C26.9376 19.388 26.8915 19.2963 26.8175 19.2273C26.7755 19.1873 26.7256 19.1557 26.6708 19.1344C26.6153 19.1129 26.556 19.1019 26.4962 19.1019L26.4939 19.1027ZM23.8851 22.4074C23.7806 22.4079 23.6793 22.4422 23.5977 22.5047C23.5179 22.5673 23.4633 22.6543 23.4432 22.751C23.4228 22.8475 23.439 22.9478 23.4888 23.0341C23.538 23.1208 23.6172 23.1885 23.7128 23.2258C23.8097 23.2631 23.917 23.268 24.0172 23.2398C24.117 23.2114 24.2035 23.151 24.2621 23.0687C24.3202 22.9871 24.3464 22.8885 24.3361 22.7902C24.3258 22.692 24.2796 22.6003 24.2057 22.5312C24.1634 22.4913 24.1133 22.4597 24.0581 22.4383C24.0029 22.417 23.9439 22.4059 23.8843 22.4059L23.8851 22.4074ZM26.8206 13.5476C26.7161 13.5474 26.6146 13.5815 26.5332 13.6442C26.4524 13.7061 26.397 13.793 26.3765 13.8899C26.356 13.9868 26.3719 14.0875 26.4212 14.1744C26.4714 14.2614 26.5513 14.3293 26.6476 14.3668C26.7459 14.4051 26.8549 14.4101 26.9566 14.3808C27.0564 14.3524 27.1429 14.292 27.2015 14.2098C27.2608 14.1287 27.2882 14.0302 27.2787 13.9318C27.2681 13.8334 27.222 13.7417 27.1482 13.6723C27.1059 13.6321 27.0558 13.6003 27.0007 13.5786C26.9455 13.557 26.8864 13.546 26.8268 13.5462L26.8206 13.5476ZM22.853 16.9305C22.7482 16.9303 22.6465 16.9644 22.5649 17.0271C22.4852 17.0898 22.4307 17.1768 22.4104 17.2734C22.3901 17.3703 22.4059 17.471 22.4552 17.558C22.5054 17.6454 22.5856 17.7136 22.6823 17.7511C22.7794 17.7886 22.887 17.7935 22.9874 17.7652C23.0875 17.7368 23.1743 17.6764 23.2331 17.5941C23.2924 17.5127 23.3197 17.4141 23.3104 17.3154C23.3016 17.2381 23.2711 17.1645 23.2222 17.1023C23.1732 17.0401 23.1076 16.9917 23.0323 16.9622C22.9771 16.9406 22.9181 16.9293 22.8584 16.929L22.853 16.9305ZM19.7491 19.9263C19.6446 19.9268 19.5433 19.9611 19.4617 20.0236C19.3809 20.0854 19.3255 20.1724 19.305 20.2693C19.2845 20.3662 19.3003 20.4668 19.3497 20.5537C19.3999 20.6407 19.4798 20.7086 19.5761 20.7462C19.6732 20.7836 19.7808 20.7885 19.8812 20.7602C19.9812 20.7316 20.0679 20.6712 20.1269 20.5891C20.185 20.5074 20.2112 20.4088 20.2009 20.3106C20.1906 20.2123 20.1444 20.1207 20.0705 20.0516C20.0282 20.0114 19.9781 19.9796 19.923 19.958C19.8678 19.9363 19.8087 19.9253 19.7491 19.9255V19.9263ZM7.55741 13.6708C7.48212 13.6006 7.38403 13.5569 7.2793 13.547C7.17456 13.5371 7.0694 13.5615 6.98112 13.6162C6.89263 13.6703 6.82676 13.7522 6.79495 13.8477C6.76376 13.9424 6.76896 14.0447 6.80963 14.136C6.85008 14.2283 6.92303 14.3042 7.01589 14.3506C7.10906 14.3973 7.21613 14.4124 7.31948 14.3934C7.4225 14.3742 7.51565 14.3222 7.58368 14.2459C7.6505 14.1699 7.68715 14.0738 7.68719 13.9746C7.68701 13.9183 7.67517 13.8626 7.65237 13.8107C7.62957 13.7589 7.59625 13.7118 7.55432 13.6723L7.55741 13.6708ZM11.525 17.0536C11.4499 16.9835 11.3521 16.9399 11.2477 16.9298C11.1426 16.9203 11.0373 16.945 10.9487 16.9998C10.8615 17.0548 10.7968 17.1368 10.7656 17.2321C10.7348 17.3268 10.74 17.4289 10.7803 17.5204C10.8213 17.6123 10.8945 17.6879 10.9873 17.7342C11.0806 17.7806 11.1875 17.7953 11.2907 17.776C11.3939 17.7567 11.4871 17.7045 11.5551 17.628C11.6217 17.5516 11.6581 17.4553 11.6579 17.3559C11.6582 17.2997 11.6466 17.2441 11.6239 17.1922C11.6007 17.1403 11.5671 17.0932 11.525 17.0536ZM14.6289 20.0501C14.5536 19.9799 14.4556 19.9363 14.3508 19.9264C14.2461 19.9165 14.1409 19.9409 14.0526 19.9956C13.965 20.05 13.9 20.1319 13.8688 20.2271C13.8385 20.3224 13.844 20.4249 13.8845 20.5167C13.925 20.6086 13.9979 20.684 14.0905 20.7299C14.1836 20.777 14.2907 20.7922 14.3941 20.7728C14.4974 20.7535 14.5907 20.7009 14.6583 20.6238C14.7299 20.5425 14.7667 20.4383 14.7613 20.3322C14.7558 20.2261 14.7086 20.1258 14.6289 20.0516V20.0501ZM14.0279 21.729C13.8129 21.6902 13.6093 21.6069 13.4315 21.485L11.7946 22.5091C11.8758 22.8292 11.8347 23.1665 11.6787 23.4603C11.5214 23.7562 11.26 23.9898 10.9402 24.1202C10.6186 24.252 10.2592 24.2736 9.92283 24.1814C9.58793 24.0897 9.29717 23.8891 9.10088 23.6144C8.90636 23.3416 8.82019 23.0115 8.85786 22.6834C8.89552 22.3554 9.05456 22.051 9.30637 21.8249C9.56094 21.5963 9.89065 21.4589 10.2394 21.4362C10.5881 21.4135 10.9343 21.5068 11.2191 21.7003L12.856 20.6761C12.8091 20.492 12.8023 20.3007 12.836 20.114C12.8698 19.9273 12.9434 19.7492 13.0522 19.5908L11.8935 18.5991C11.6645 18.7104 11.4096 18.7642 11.1528 18.7554C10.896 18.7467 10.6458 18.6756 10.4257 18.5489L9.03522 19.2958C9.04845 19.3721 9.05517 19.4493 9.0553 19.5266C9.05486 19.8463 8.9392 20.1561 8.72776 20.404C8.51257 20.6534 8.21588 20.8265 7.88528 20.8956C7.55468 20.9647 7.20933 20.9259 6.90465 20.7852C6.6004 20.6462 6.35509 20.412 6.20939 20.1216C6.0655 19.8336 6.03056 19.5069 6.11051 19.197C6.1918 18.8856 6.3827 18.6102 6.65126 18.4169C6.92147 18.2222 7.25232 18.1197 7.59084 18.1257C7.92936 18.1317 8.25598 18.2459 8.51841 18.4501L9.77837 17.7718C9.67641 17.4634 9.69034 17.1306 9.81777 16.831L7.92358 15.2162C7.61239 15.3675 7.25598 15.4115 6.91469 15.3408C6.57411 15.2695 6.2703 15.087 6.05566 14.8247C5.8426 14.5656 5.73333 14.2425 5.74749 13.9134C5.76165 13.5843 5.89831 13.2708 6.13291 13.0293C6.37108 12.7856 6.69046 12.6282 7.03658 12.5841C7.38271 12.54 7.73414 12.6119 8.03096 12.7875C8.32644 12.9602 8.54836 13.2271 8.65746 13.541C8.76561 13.8531 8.75328 14.1917 8.6227 14.4958L10.5169 16.1113C10.7298 16.0071 10.9658 15.953 11.2052 15.9535C11.2721 15.9537 11.3389 15.9579 11.4053 15.9661L11.8572 14.8203C11.8286 14.7974 11.8016 14.7731 11.7745 14.7465C11.5458 14.5332 11.3974 14.2538 11.3523 13.9516C11.3071 13.6495 11.3679 13.3416 11.525 13.0758L9.91124 11.7006C9.60252 11.8556 9.24706 11.9035 8.90545 11.8363C8.56384 11.7691 8.25724 11.5908 8.03791 11.332C7.82174 11.0748 7.70888 10.7524 7.71964 10.4228C7.73041 10.0933 7.86409 9.77821 8.09662 9.53438C8.33191 9.28838 8.64928 9.12785 8.99466 9.08012C9.34004 9.0324 9.69208 9.10043 9.99081 9.27263C10.2877 9.44347 10.512 9.70871 10.6243 10.0218C10.736 10.3339 10.7269 10.6739 10.5988 10.9803L12.3176 12.4431C12.5734 12.3553 12.8494 12.3349 13.1164 12.3841C13.3827 12.4323 13.6303 12.5488 13.8325 12.7211C14.0335 12.8918 14.1816 13.1119 14.2604 13.3574C14.3385 13.6021 14.3439 13.8628 14.2759 14.1102L16.0527 15.6262C16.1878 15.5162 16.3424 15.4301 16.5092 15.3718V12.856C16.16 12.7349 15.8711 12.4931 15.6996 12.1784C15.5295 11.8663 15.4905 11.504 15.5907 11.1653L13.2732 8.96664C12.9539 9.10254 12.5952 9.1286 12.2581 9.04037C11.9225 8.9531 11.6295 8.7564 11.43 8.48443C11.2319 8.21434 11.1413 7.88565 11.1744 7.55749C11.2075 7.22932 11.3623 6.9232 11.6108 6.6942C11.8618 6.46304 12.1891 6.32202 12.5368 6.29514C12.8845 6.26826 13.2313 6.35716 13.5181 6.54673C13.8028 6.73459 14.0089 7.01245 14.0998 7.33125C14.1901 7.64881 14.1584 7.98676 14.0102 8.28387L16.2133 10.372C16.3068 10.3151 16.4066 10.2681 16.5108 10.2319V7.60332C16.1856 7.4898 15.9122 7.27119 15.7383 6.98544C15.5645 6.70222 15.5026 6.36906 15.5637 6.04609C15.6262 5.72223 15.8068 5.42994 16.0735 5.22102C16.3429 5.01034 16.6804 4.89522 17.0287 4.89522C17.377 4.89522 17.7145 5.01034 17.9839 5.22102C18.2513 5.42877 18.4322 5.72073 18.4943 6.04442C18.5563 6.36811 18.4953 6.7023 18.3223 6.98692C18.1481 7.27251 17.8749 7.49105 17.5498 7.6048V10.2319C17.6549 10.2688 17.7555 10.3168 17.8495 10.3749L20.0272 8.31042C19.8734 8.0161 19.8351 7.67897 19.9191 7.36C20.0026 7.03875 20.2027 6.75612 20.4838 6.56222C20.7671 6.36789 21.1122 6.2733 21.4604 6.29454C21.8086 6.31578 22.1383 6.45154 22.3934 6.67871C22.6461 6.90324 22.8065 7.20645 22.8459 7.53381C22.8852 7.86116 22.8009 8.19118 22.6081 8.46452C22.4137 8.73966 22.1246 8.94127 21.7908 9.03447C21.4565 9.12807 21.0987 9.10907 20.7773 8.98065L18.4691 11.1676C18.5694 11.5063 18.5307 11.8689 18.3609 12.1814C18.1892 12.4957 17.9003 12.7371 17.5513 12.8582V15.3696C17.7179 15.4277 17.8723 15.5139 18.0071 15.624L19.7839 14.108C19.7155 13.8606 19.7209 13.5999 19.7993 13.3552C19.878 13.1098 20.0257 12.8896 20.2265 12.7189C20.4288 12.5467 20.6763 12.4302 20.9426 12.3819C21.2096 12.3326 21.4855 12.353 21.7414 12.4409L23.4038 11.0297C23.2617 10.7282 23.2378 10.388 23.3366 10.0712C23.4349 9.75403 23.6475 9.48032 23.9369 9.29843C24.2284 9.11507 24.5775 9.03375 24.9248 9.0683C25.2721 9.10284 25.5962 9.25112 25.8419 9.48793C26.085 9.72241 26.2324 10.0321 26.2575 10.3611C26.2826 10.6902 26.1837 11.017 25.9786 11.2826C25.7718 11.55 25.4737 11.7401 25.1358 11.8201C24.7963 11.9012 24.4377 11.8673 24.1215 11.7242L22.5363 13.0743C22.6939 13.3405 22.7544 13.6491 22.7086 13.9517C22.6626 14.2542 22.5139 14.534 22.2852 14.748C22.2582 14.7731 22.2312 14.7967 22.2026 14.8217L22.656 15.969C22.7223 15.9602 22.7892 15.9558 22.8561 15.9558C23.0954 15.9555 23.3313 16.0096 23.5444 16.1135L25.4386 14.4988C25.3075 14.1935 25.2952 13.8535 25.4038 13.5403C25.5133 13.2264 25.7351 12.9593 26.0303 12.786C26.3276 12.6115 26.6791 12.5406 27.0249 12.5853C27.3708 12.6301 27.6897 12.7877 27.9276 13.0315C28.1627 13.2733 28.2996 13.5872 28.3138 13.9167C28.3279 14.2463 28.2184 14.5698 28.0049 14.8291C27.7903 15.0918 27.4861 15.2744 27.1451 15.3452C26.8033 15.4163 26.4463 15.3723 26.1346 15.2206L24.2404 16.8354C24.3685 17.1346 24.3827 17.4673 24.2806 17.7755L25.5398 18.4546C25.8019 18.2502 26.1284 18.1359 26.4667 18.13C26.8051 18.1242 27.1357 18.227 27.4054 18.4221C27.6737 18.615 27.8645 18.8898 27.9462 19.2007C28.0257 19.5106 27.9908 19.8372 27.8473 20.1253C27.7012 20.4155 27.456 20.6495 27.152 20.7889C26.8468 20.9293 26.5011 20.968 26.1702 20.8988C25.8405 20.8302 25.5448 20.6571 25.3312 20.4077C25.1193 20.1606 25.0033 19.8512 25.0029 19.5318C25.003 19.4545 25.0098 19.3773 25.023 19.301L23.6356 18.5504C23.4156 18.6771 23.1653 18.7483 22.9085 18.757C22.6517 18.7658 22.3968 18.7119 22.1678 18.6005L21.0091 19.59C21.1184 19.7483 21.1925 19.9262 21.2268 20.1129C21.2611 20.2997 21.2548 20.4911 21.2084 20.6754L22.9349 21.7548C23.1973 21.5514 23.5236 21.4377 23.8616 21.432C24.1996 21.4262 24.5299 21.5287 24.7997 21.7231C25.0682 21.9162 25.259 22.1913 25.3405 22.5025C25.4205 22.8121 25.3856 23.1386 25.2416 23.4263C25.0959 23.7167 24.8506 23.9509 24.5464 24.0899C24.2415 24.2306 23.896 24.2693 23.5653 24.1998C23.2356 24.1317 22.9398 23.9588 22.7263 23.7095C22.5146 23.4623 22.3989 23.1528 22.3988 22.8335C22.3989 22.7562 22.4056 22.679 22.4189 22.6028L20.6298 21.4857C20.4517 21.607 20.2483 21.69 20.0334 21.729V28.505C20.2335 28.4601 20.4328 28.4107 20.6321 28.3576C20.9303 28.2743 21.2192 28.1902 21.5127 28.0958C21.8933 27.9685 22.2677 27.8267 22.636 27.6704C23.0042 27.5141 23.3631 27.3445 23.7128 27.1616C24.062 26.9773 24.3986 26.7807 24.7225 26.5718C25.0439 26.3661 25.3606 26.1434 25.6696 25.9082C25.9786 25.673 26.2729 25.4238 26.5472 25.1709C26.8214 24.918 27.0964 24.6459 27.3537 24.3664C27.6109 24.087 27.8535 23.7987 28.0806 23.5008C28.3077 23.2029 28.5194 22.9006 28.7225 22.5784C28.9257 22.2562 29.1134 21.9288 29.2841 21.5985C29.4549 21.2682 29.6086 20.9261 29.7476 20.5773C29.8867 20.2286 30.0126 19.8628 30.12 19.5001C30.2274 19.1373 30.3178 18.7672 30.3888 18.3941C30.4599 18.021 30.5186 17.6295 30.5557 17.2402C30.5912 16.8715 30.609 16.4778 30.609 16.0671C30.6179 14.3856 30.2732 12.7196 29.5955 11.1676C28.9155 9.60912 27.9176 8.19528 26.6599 7.0083C25.3931 5.81541 23.8931 4.8717 22.2451 4.23079C18.9049 2.92822 15.1626 2.92822 11.8224 4.23079C10.1742 4.87263 8.67438 5.81763 7.40832 7.01198C6.15067 8.19901 5.15282 9.61283 4.4728 11.1712C3.79355 12.724 3.44785 14.3911 3.45618 16.0737C3.45618 16.4844 3.47472 16.8767 3.50948 17.2468C3.54656 17.6351 3.60218 18.0198 3.67634 18.4007C3.74819 18.7694 3.83857 19.1381 3.94518 19.5067C4.05178 19.8754 4.17693 20.2286 4.31752 20.5825C4.45812 20.9364 4.61185 21.2741 4.78103 21.6037C4.95021 21.9333 5.13638 22.2584 5.34264 22.5836C5.5489 22.9087 5.76056 23.2118 5.98459 23.506C6.20862 23.8002 6.45505 24.0914 6.71152 24.3709C6.96799 24.6503 7.23837 24.9187 7.51879 25.176C7.79921 25.4333 8.08658 25.6722 8.39635 25.9133C8.70613 26.1545 9.02208 26.3749 9.34345 26.5806C9.66481 26.7863 10.0032 26.9847 10.3523 27.1705C10.7015 27.3563 11.0615 27.5259 11.4284 27.6822C11.7954 27.8385 12.17 27.9771 12.5509 28.1062C12.8916 28.2204 13.2284 28.3126 13.576 28.4062C13.7258 28.4497 13.878 28.4854 14.0318 28.5132L14.0279 21.729ZM14.3083 18.9493C14.6356 18.9492 14.954 19.0509 15.2153 19.2391C15.4747 19.4247 15.6624 19.6871 15.7491 19.9852C15.8347 20.282 15.814 20.5976 15.6904 20.8818C15.5656 21.1679 15.3453 21.4066 15.0639 21.5609C15.0639 24.2718 15.0639 26.9825 15.0639 29.6929C14.7834 29.642 12.2743 29.0145 12.2056 29.0145C11.7936 28.8784 11.3921 28.727 11.0012 28.5603C10.6104 28.3937 10.2241 28.2104 9.84249 28.0103C9.47271 27.8137 9.11015 27.6026 8.7548 27.3769C8.39944 27.1513 8.05903 26.9122 7.73354 26.6595C7.41373 26.414 7.09854 26.1493 6.79109 25.8691C6.48363 25.5889 6.19935 25.3036 5.92434 25.0035C5.64932 24.7034 5.38744 24.3915 5.14101 24.0686C4.89458 23.7456 4.65974 23.4123 4.44576 23.0746C4.23178 22.7369 4.03092 22.3867 3.84398 22.0203C3.65703 21.6538 3.49403 21.2955 3.34417 20.9209C3.1943 20.5463 3.06066 20.16 2.94246 19.7618C2.82916 19.3755 2.73286 18.9785 2.65355 18.5711C2.57423 18.1636 2.51501 17.7489 2.47587 17.3272C2.4357 16.8988 2.41484 16.4793 2.41484 16.0737C2.43042 14.2736 2.81982 12.4943 3.56052 10.8388C4.30121 9.18326 5.3785 7.68434 6.73006 6.42876C9.4886 3.87173 13.1826 2.44142 17.0279 2.44142C20.8733 2.44142 24.5673 3.87173 27.3258 6.42876C28.6775 7.6843 29.7549 9.1832 30.4957 10.8387C31.2366 12.4943 31.6261 14.2736 31.6418 16.0737C31.6418 16.4822 31.6217 16.9025 31.58 17.3272C31.5383 17.7519 31.4804 18.1618 31.4016 18.5681C31.3228 18.9744 31.2262 19.3725 31.1127 19.7589C30.9991 20.1452 30.8616 20.5412 30.7117 20.918C30.5619 21.2947 30.3942 21.6612 30.2111 22.0173C30.0237 22.3845 29.8231 22.736 29.6094 23.0717C29.3956 23.4074 29.1639 23.7387 28.9141 24.0656C28.6664 24.389 28.405 24.7004 28.13 24.9998C27.855 25.2992 27.5671 25.5887 27.2664 25.8684C26.9574 26.1493 26.6437 26.414 26.3231 26.6595C26.0025 26.9051 25.6595 27.1469 25.3019 27.3762C24.9442 27.6055 24.5865 27.8142 24.2165 28.0096C23.8465 28.205 23.4564 28.3908 23.0577 28.5596C22.6591 28.7285 22.2659 28.8774 21.8534 29.0138C21.7854 29.0138 19.2779 29.6405 18.9951 29.6929V21.5609C18.8855 21.4994 18.7843 21.4251 18.6939 21.3397C18.4622 21.1217 18.313 20.8364 18.2698 20.5287C18.2281 20.2215 18.2958 19.9099 18.4621 19.6439C18.6301 19.3762 18.8858 19.1688 19.1898 19.054C19.4959 18.9382 19.8333 18.9206 20.1508 19.0039L21.4726 17.8787C21.3689 17.6379 21.3387 17.374 21.3854 17.1175C21.4322 16.861 21.554 16.6224 21.7368 16.4291L21.2331 15.1572C20.9301 15.1577 20.634 15.0711 20.3833 14.9088L18.5139 16.5036C18.5553 16.8188 18.4816 17.1381 18.3053 17.4075C18.1298 17.6803 17.8627 17.8883 17.5475 17.9974V31.0149C21.7289 30.893 25.6967 29.2238 28.6121 26.3602C30.0439 24.9567 31.1709 23.2968 31.928 21.476C32.6851 19.6552 33.0575 17.7095 33.0237 15.7508C32.9899 13.7921 32.5505 11.8591 31.731 10.0631C30.9114 8.26714 29.7278 6.64358 28.2482 5.2859C25.2334 2.51745 21.2123 0.971007 17.0287 0.971007C12.8451 0.971007 8.82409 2.51745 5.80923 5.2859C4.32987 6.64368 3.14641 8.26727 2.32695 10.0633C1.5075 11.8592 1.06823 13.7922 1.03441 15.7508C1.00059 17.7094 1.3729 19.6551 2.12991 21.4759C2.88692 23.2967 4.01369 24.9566 5.44538 26.3602C8.3607 29.2238 12.3286 30.893 16.51 31.0149V17.9967C16.1953 17.887 15.9285 17.6791 15.7529 17.4068C15.5786 17.1366 15.5066 16.8176 15.549 16.5029L13.678 14.9102C13.4274 15.0728 13.1312 15.1594 12.8282 15.1587H12.8244L12.3215 16.4306C12.5034 16.625 12.6248 16.864 12.6722 17.1207C12.7198 17.3766 12.6909 17.64 12.5887 17.8809L13.902 19.0039C14.0332 18.9686 14.1689 18.9507 14.3053 18.9508L14.3083 18.9493ZM21.2308 13.3287C21.1264 13.3291 21.0253 13.3634 20.9442 13.426C20.8644 13.4886 20.8098 13.5756 20.7897 13.6723C20.7696 13.7688 20.7857 13.869 20.8352 13.9554C20.8851 14.0426 20.9651 14.1106 21.0616 14.1478C21.1599 14.1861 21.2689 14.1911 21.3706 14.1618C21.4702 14.1331 21.5566 14.0727 21.6155 13.9908C21.6748 13.9097 21.7022 13.8113 21.6927 13.7128C21.6823 13.6144 21.6361 13.5226 21.5622 13.4533C21.4758 13.3734 21.3603 13.3287 21.24 13.3287H21.2308Z" fill="white"/>
</svg>
