<svg width="68" height="56" viewBox="0 0 68 56" fill="none" xmlns="http://www.w3.org/2000/svg">
<path fill-rule="evenodd" clip-rule="evenodd" d="M12.672 37.284C12.672 37.284 12.6719 37.284 12.6719 37.284C6.78226 37.2839 2.00781 32.5094 2.00781 26.6198C2.00781 20.7302 6.78226 15.9557 12.6719 15.9556C12.6719 15.9556 12.672 15.9556 12.672 15.9556H14.9474C15.7099 15.9556 16.0911 15.9556 16.3566 15.7583C16.6222 15.561 16.7418 15.1641 16.9812 14.3704C19.1858 7.06021 25.9714 1.73633 34.0005 1.73633C42.0296 1.73633 48.8152 7.06021 51.0198 14.3704C51.2591 15.1641 51.3788 15.561 51.6444 15.7583C51.9099 15.9556 52.2911 15.9556 53.0535 15.9556H55.3288C61.2185 15.9556 65.993 20.7301 65.993 26.6198C65.993 32.5095 61.2185 37.284 55.3288 37.284H12.672Z" fill="#E1EBFE"/>
<path d="M12.6719 37.284L12.6719 38.384H12.6719V37.284ZM12.6719 15.9556V14.8556H12.6719L12.6719 15.9556ZM51.0198 14.3704L49.9666 14.688L51.0198 14.3704ZM51.6444 15.7583L52.3004 14.8753L51.6444 15.7583ZM16.3566 15.7583L17.0126 16.6413L16.3566 15.7583ZM12.6719 38.384H12.6719H12.6719H12.6719H12.6719H12.6719H12.6719H12.6719H12.6719H12.6719H12.6719H12.6719H12.6719H12.6719H12.6719H12.6719H12.6719H12.6719H12.6719H12.6719H12.6719H12.6719H12.6719H12.6719H12.6719H12.6719H12.6719H12.6719H12.6719H12.6719C12.6719 38.384 12.6719 38.384 12.6719 38.384C12.6719 38.384 12.6719 38.384 12.6719 38.384C12.6719 38.384 12.6719 38.384 12.6719 38.384C12.6719 38.384 12.6719 38.384 12.6719 38.384C12.6719 38.384 12.6719 38.384 12.6719 38.384C12.6719 38.384 12.6719 38.384 12.6719 38.384C12.6719 38.384 12.6719 38.384 12.6719 38.384C12.6719 38.384 12.6719 38.384 12.6719 38.384C12.6719 38.384 12.6719 38.384 12.6719 38.384C12.6719 38.384 12.6719 38.384 12.6719 38.384C12.6719 38.384 12.6719 38.384 12.6719 38.384C12.6719 38.384 12.6719 38.384 12.6719 38.384C12.6719 38.384 12.6719 38.384 12.6719 38.384C12.6719 38.384 12.6719 38.384 12.6719 38.384C12.6719 38.384 12.6719 38.384 12.6719 38.384C12.6719 38.384 12.6719 38.384 12.6719 38.384C12.6719 38.384 12.6719 38.384 12.6719 38.384C12.6719 38.384 12.6719 38.384 12.6719 38.384C12.6719 38.384 12.6719 38.384 12.6719 38.384C12.6719 38.384 12.6719 38.384 12.6719 38.384C12.6719 38.384 12.6719 38.384 12.6719 38.384C12.6719 38.384 12.6719 38.384 12.6719 38.384C12.6719 38.384 12.6719 38.384 12.6719 38.384C12.6719 38.384 12.6719 38.384 12.6719 38.384C12.6719 38.384 12.6719 38.384 12.6719 38.384C12.6719 38.384 12.6719 38.384 12.6719 38.384C12.6719 38.384 12.6719 38.384 12.6719 38.384C12.6719 38.384 12.6719 38.384 12.6719 38.384C12.6719 38.384 12.6719 38.384 12.6719 38.384C12.6719 38.384 12.6719 38.384 12.6719 38.384C12.6719 38.384 12.6719 38.384 12.6719 38.384C12.6719 38.384 12.6719 38.384 12.6719 38.384C12.6719 38.384 12.6719 38.384 12.6719 38.384C12.6719 38.384 12.6719 38.384 12.6719 38.384C12.6719 38.384 12.6719 38.384 12.6719 38.384C12.6719 38.384 12.6719 38.384 12.6719 38.384C12.6719 38.384 12.6719 38.384 12.6719 38.384C12.6719 38.384 12.6719 38.384 12.6719 38.384C12.6719 38.384 12.6719 38.384 12.6719 38.384C12.6719 38.384 12.6719 38.384 12.6719 38.384C12.6719 38.384 12.6719 38.384 12.6719 38.384C12.6719 38.384 12.6719 38.384 12.6719 38.384C12.6719 38.384 12.6719 38.384 12.6719 38.384C12.6719 38.384 12.6719 38.384 12.6719 38.384C12.6719 38.384 12.6719 38.384 12.6719 38.384C12.6719 38.384 12.6719 38.384 12.6719 38.384C12.6719 38.384 12.6719 38.384 12.6719 38.384C12.6719 38.384 12.6719 38.384 12.6719 38.384C12.6719 38.384 12.6719 38.384 12.6719 38.384C12.672 38.384 12.672 38.384 12.672 38.384C12.672 38.384 12.672 38.384 12.672 38.384C12.672 38.384 12.672 38.384 12.672 38.384C12.672 38.384 12.672 38.384 12.672 38.384C12.672 38.384 12.672 38.384 12.672 38.384C12.672 38.384 12.672 38.384 12.672 38.384C12.672 38.384 12.672 38.384 12.672 38.384C12.672 38.384 12.672 38.384 12.672 38.384C12.672 38.384 12.672 38.384 12.672 38.384C12.672 38.384 12.672 38.384 12.672 38.384C12.672 38.384 12.672 38.384 12.672 38.384C12.672 38.384 12.672 38.384 12.672 38.384C12.672 38.384 12.672 38.384 12.672 38.384C12.672 38.384 12.672 38.384 12.672 38.384C12.672 38.384 12.672 38.384 12.672 38.384C12.672 38.384 12.672 38.384 12.672 38.384C12.672 38.384 12.672 38.384 12.672 38.384C12.672 38.384 12.672 38.384 12.672 38.384C12.672 38.384 12.672 38.384 12.672 38.384C12.672 38.384 12.672 38.384 12.672 38.384C12.672 38.384 12.672 38.384 12.672 38.384C12.672 38.384 12.672 38.384 12.672 38.384C12.672 38.384 12.672 38.384 12.672 38.384C12.672 38.384 12.672 38.384 12.672 38.384C12.672 38.384 12.672 38.384 12.672 38.384C12.672 38.384 12.672 38.384 12.672 38.384C12.672 38.384 12.672 38.384 12.672 38.384C12.672 38.384 12.672 38.384 12.672 38.384C12.672 38.384 12.672 38.384 12.672 38.384C12.672 38.384 12.672 38.384 12.672 38.384C12.672 38.384 12.672 38.384 12.672 38.384C12.672 38.384 12.672 38.384 12.672 38.384C12.672 38.384 12.672 38.384 12.672 38.384C12.672 38.384 12.672 38.384 12.672 38.384C12.672 38.384 12.672 38.384 12.672 38.384C12.672 38.384 12.672 38.384 12.672 38.384C12.672 38.384 12.672 38.384 12.672 38.384C12.672 38.384 12.672 38.384 12.672 38.384C12.672 38.384 12.672 38.384 12.672 38.384C12.672 38.384 12.672 38.384 12.672 38.384C12.672 38.384 12.672 38.384 12.672 38.384C12.672 38.384 12.672 38.384 12.672 38.384C12.672 38.384 12.672 38.384 12.672 38.384C12.672 38.384 12.672 38.384 12.672 38.384C12.672 38.384 12.672 38.384 12.672 38.384C12.672 38.384 12.672 38.384 12.672 38.384C12.672 38.384 12.672 38.384 12.672 38.384C12.672 38.384 12.672 38.384 12.672 38.384C12.672 38.384 12.672 38.384 12.672 38.384C12.672 38.384 12.672 38.384 12.672 38.384C12.672 38.384 12.672 38.384 12.672 38.384C12.672 38.384 12.672 38.384 12.672 38.384C12.672 38.384 12.672 38.384 12.672 38.384C12.672 38.384 12.672 38.384 12.672 38.384C12.672 38.384 12.672 38.384 12.672 38.384C12.672 38.384 12.672 38.384 12.672 38.384C12.672 38.384 12.672 38.384 12.672 38.384C12.672 38.384 12.672 38.384 12.672 38.384C12.672 38.384 12.672 38.384 12.672 38.384C12.672 38.384 12.672 38.384 12.672 38.384C12.672 38.384 12.672 38.384 12.672 38.384C12.672 38.384 12.672 38.384 12.672 38.384C12.672 38.384 12.672 38.384 12.672 38.384C12.672 38.384 12.672 38.384 12.672 38.384C12.672 38.384 12.672 38.384 12.672 38.384H12.672H12.672H12.672H12.672H12.672H12.672H12.672H12.672H12.672H12.672H12.672H12.672H12.672H12.672H12.672H12.672H12.672H12.672H12.672H12.672H12.672H12.672H12.672H12.672H12.672H12.672H12.672H12.672V36.184H12.672H12.672H12.672H12.672H12.672H12.672H12.672H12.672H12.672H12.672H12.672H12.672H12.672H12.672H12.672H12.672H12.672H12.672H12.672H12.672H12.672H12.672H12.672H12.672H12.672H12.672H12.672H12.672C12.672 36.184 12.672 36.184 12.672 36.184C12.672 36.184 12.672 36.184 12.672 36.184C12.672 36.184 12.672 36.184 12.672 36.184C12.672 36.184 12.672 36.184 12.672 36.184C12.672 36.184 12.672 36.184 12.672 36.184C12.672 36.184 12.672 36.184 12.672 36.184C12.672 36.184 12.672 36.184 12.672 36.184C12.672 36.184 12.672 36.184 12.672 36.184C12.672 36.184 12.672 36.184 12.672 36.184C12.672 36.184 12.672 36.184 12.672 36.184C12.672 36.184 12.672 36.184 12.672 36.184C12.672 36.184 12.672 36.184 12.672 36.184C12.672 36.184 12.672 36.184 12.672 36.184C12.672 36.184 12.672 36.184 12.672 36.184C12.672 36.184 12.672 36.184 12.672 36.184C12.672 36.184 12.672 36.184 12.672 36.184C12.672 36.184 12.672 36.184 12.672 36.184C12.672 36.184 12.672 36.184 12.672 36.184C12.672 36.184 12.672 36.184 12.672 36.184C12.672 36.184 12.672 36.184 12.672 36.184C12.672 36.184 12.672 36.184 12.672 36.184C12.672 36.184 12.672 36.184 12.672 36.184C12.672 36.184 12.672 36.184 12.672 36.184C12.672 36.184 12.672 36.184 12.672 36.184C12.672 36.184 12.672 36.184 12.672 36.184C12.672 36.184 12.672 36.184 12.672 36.184C12.672 36.184 12.672 36.184 12.672 36.184C12.672 36.184 12.672 36.184 12.672 36.184C12.672 36.184 12.672 36.184 12.672 36.184C12.672 36.184 12.672 36.184 12.672 36.184C12.672 36.184 12.672 36.184 12.672 36.184C12.672 36.184 12.672 36.184 12.672 36.184C12.672 36.184 12.672 36.184 12.672 36.184C12.672 36.184 12.672 36.184 12.672 36.184C12.672 36.184 12.672 36.184 12.672 36.184C12.672 36.184 12.672 36.184 12.672 36.184C12.672 36.184 12.672 36.184 12.672 36.184C12.672 36.184 12.672 36.184 12.672 36.184C12.672 36.184 12.672 36.184 12.672 36.184C12.672 36.184 12.672 36.184 12.672 36.184C12.672 36.184 12.672 36.184 12.672 36.184C12.672 36.184 12.672 36.184 12.672 36.184C12.672 36.184 12.672 36.184 12.672 36.184C12.672 36.184 12.672 36.184 12.672 36.184C12.672 36.184 12.672 36.184 12.672 36.184C12.672 36.184 12.672 36.184 12.672 36.184C12.672 36.184 12.672 36.184 12.672 36.184C12.672 36.184 12.672 36.184 12.672 36.184C12.672 36.184 12.672 36.184 12.672 36.184C12.672 36.184 12.672 36.184 12.672 36.184C12.672 36.184 12.672 36.184 12.672 36.184C12.672 36.184 12.672 36.184 12.672 36.184C12.672 36.184 12.672 36.184 12.672 36.184C12.672 36.184 12.672 36.184 12.672 36.184C12.672 36.184 12.672 36.184 12.672 36.184C12.672 36.184 12.672 36.184 12.672 36.184C12.672 36.184 12.672 36.184 12.672 36.184C12.672 36.184 12.672 36.184 12.672 36.184C12.672 36.184 12.672 36.184 12.672 36.184C12.672 36.184 12.672 36.184 12.672 36.184C12.672 36.184 12.672 36.184 12.672 36.184C12.672 36.184 12.672 36.184 12.672 36.184C12.672 36.184 12.672 36.184 12.672 36.184C12.672 36.184 12.672 36.184 12.672 36.184C12.672 36.184 12.672 36.184 12.6719 36.184C12.6719 36.184 12.6719 36.184 12.6719 36.184C12.6719 36.184 12.6719 36.184 12.6719 36.184C12.6719 36.184 12.6719 36.184 12.6719 36.184C12.6719 36.184 12.6719 36.184 12.6719 36.184C12.6719 36.184 12.6719 36.184 12.6719 36.184C12.6719 36.184 12.6719 36.184 12.6719 36.184C12.6719 36.184 12.6719 36.184 12.6719 36.184C12.6719 36.184 12.6719 36.184 12.6719 36.184C12.6719 36.184 12.6719 36.184 12.6719 36.184C12.6719 36.184 12.6719 36.184 12.6719 36.184C12.6719 36.184 12.6719 36.184 12.6719 36.184C12.6719 36.184 12.6719 36.184 12.6719 36.184C12.6719 36.184 12.6719 36.184 12.6719 36.184C12.6719 36.184 12.6719 36.184 12.6719 36.184C12.6719 36.184 12.6719 36.184 12.6719 36.184C12.6719 36.184 12.6719 36.184 12.6719 36.184C12.6719 36.184 12.6719 36.184 12.6719 36.184C12.6719 36.184 12.6719 36.184 12.6719 36.184C12.6719 36.184 12.6719 36.184 12.6719 36.184C12.6719 36.184 12.6719 36.184 12.6719 36.184C12.6719 36.184 12.6719 36.184 12.6719 36.184C12.6719 36.184 12.6719 36.184 12.6719 36.184C12.6719 36.184 12.6719 36.184 12.6719 36.184C12.6719 36.184 12.6719 36.184 12.6719 36.184C12.6719 36.184 12.6719 36.184 12.6719 36.184C12.6719 36.184 12.6719 36.184 12.6719 36.184C12.6719 36.184 12.6719 36.184 12.6719 36.184C12.6719 36.184 12.6719 36.184 12.6719 36.184C12.6719 36.184 12.6719 36.184 12.6719 36.184C12.6719 36.184 12.6719 36.184 12.6719 36.184C12.6719 36.184 12.6719 36.184 12.6719 36.184C12.6719 36.184 12.6719 36.184 12.6719 36.184C12.6719 36.184 12.6719 36.184 12.6719 36.184C12.6719 36.184 12.6719 36.184 12.6719 36.184C12.6719 36.184 12.6719 36.184 12.6719 36.184C12.6719 36.184 12.6719 36.184 12.6719 36.184C12.6719 36.184 12.6719 36.184 12.6719 36.184C12.6719 36.184 12.6719 36.184 12.6719 36.184C12.6719 36.184 12.6719 36.184 12.6719 36.184C12.6719 36.184 12.6719 36.184 12.6719 36.184C12.6719 36.184 12.6719 36.184 12.6719 36.184C12.6719 36.184 12.6719 36.184 12.6719 36.184C12.6719 36.184 12.6719 36.184 12.6719 36.184C12.6719 36.184 12.6719 36.184 12.6719 36.184C12.6719 36.184 12.6719 36.184 12.6719 36.184C12.6719 36.184 12.6719 36.184 12.6719 36.184C12.6719 36.184 12.6719 36.184 12.6719 36.184C12.6719 36.184 12.6719 36.184 12.6719 36.184C12.6719 36.184 12.6719 36.184 12.6719 36.184H12.6719H12.6719H12.6719H12.6719H12.6719H12.6719H12.6719H12.6719H12.6719H12.6719H12.6719H12.6719H12.6719H12.6719H12.6719H12.6719H12.6719H12.6719H12.6719H12.6719H12.6719H12.6719H12.6719H12.6719H12.6719H12.6719H12.6719H12.6719H12.6719V38.384ZM0.907812 26.6198C0.907812 33.1169 6.17474 38.3839 12.6719 38.384L12.6719 36.184C7.38978 36.1839 3.10781 31.9019 3.10781 26.6198H0.907812ZM12.6719 14.8556C6.17474 14.8557 0.907812 20.1227 0.907812 26.6198H3.10781C3.10781 21.3377 7.38978 17.0556 12.6719 17.0556L12.6719 14.8556ZM12.672 14.8556H12.672H12.672H12.672H12.672H12.672H12.672H12.672H12.672H12.672H12.672H12.672H12.672H12.672H12.672H12.672H12.672H12.672H12.672H12.672H12.672H12.672H12.672H12.672H12.672H12.672H12.672H12.672H12.672C12.672 14.8556 12.672 14.8556 12.672 14.8556C12.672 14.8556 12.672 14.8556 12.672 14.8556C12.672 14.8556 12.672 14.8556 12.672 14.8556C12.672 14.8556 12.672 14.8556 12.672 14.8556C12.672 14.8556 12.672 14.8556 12.672 14.8556C12.672 14.8556 12.672 14.8556 12.672 14.8556C12.672 14.8556 12.672 14.8556 12.672 14.8556C12.672 14.8556 12.672 14.8556 12.672 14.8556C12.672 14.8556 12.672 14.8556 12.672 14.8556C12.672 14.8556 12.672 14.8556 12.672 14.8556C12.672 14.8556 12.672 14.8556 12.672 14.8556C12.672 14.8556 12.672 14.8556 12.672 14.8556C12.672 14.8556 12.672 14.8556 12.672 14.8556C12.672 14.8556 12.672 14.8556 12.672 14.8556C12.672 14.8556 12.672 14.8556 12.672 14.8556C12.672 14.8556 12.672 14.8556 12.672 14.8556C12.672 14.8556 12.672 14.8556 12.672 14.8556C12.672 14.8556 12.672 14.8556 12.672 14.8556C12.672 14.8556 12.672 14.8556 12.672 14.8556C12.672 14.8556 12.672 14.8556 12.672 14.8556C12.672 14.8556 12.672 14.8556 12.672 14.8556C12.672 14.8556 12.672 14.8556 12.672 14.8556C12.672 14.8556 12.672 14.8556 12.672 14.8556C12.672 14.8556 12.672 14.8556 12.672 14.8556C12.672 14.8556 12.672 14.8556 12.672 14.8556C12.672 14.8556 12.672 14.8556 12.672 14.8556C12.672 14.8556 12.672 14.8556 12.672 14.8556C12.672 14.8556 12.672 14.8556 12.672 14.8556C12.672 14.8556 12.672 14.8556 12.672 14.8556C12.672 14.8556 12.672 14.8556 12.672 14.8556C12.672 14.8556 12.672 14.8556 12.672 14.8556C12.672 14.8556 12.672 14.8556 12.672 14.8556C12.672 14.8556 12.672 14.8556 12.672 14.8556C12.672 14.8556 12.672 14.8556 12.672 14.8556C12.672 14.8556 12.672 14.8556 12.672 14.8556C12.672 14.8556 12.672 14.8556 12.672 14.8556C12.672 14.8556 12.672 14.8556 12.672 14.8556C12.672 14.8556 12.672 14.8556 12.672 14.8556C12.672 14.8556 12.672 14.8556 12.672 14.8556C12.672 14.8556 12.672 14.8556 12.672 14.8556C12.672 14.8556 12.672 14.8556 12.672 14.8556C12.672 14.8556 12.672 14.8556 12.672 14.8556C12.672 14.8556 12.672 14.8556 12.672 14.8556C12.672 14.8556 12.672 14.8556 12.672 14.8556C12.672 14.8556 12.672 14.8556 12.672 14.8556C12.672 14.8556 12.672 14.8556 12.672 14.8556C12.672 14.8556 12.672 14.8556 12.672 14.8556C12.672 14.8556 12.672 14.8556 12.672 14.8556C12.672 14.8556 12.672 14.8556 12.672 14.8556C12.672 14.8556 12.672 14.8556 12.672 14.8556C12.672 14.8556 12.672 14.8556 12.672 14.8556C12.672 14.8556 12.672 14.8556 12.672 14.8556C12.672 14.8556 12.672 14.8556 12.672 14.8556C12.672 14.8556 12.672 14.8556 12.672 14.8556C12.672 14.8556 12.672 14.8556 12.672 14.8556C12.672 14.8556 12.672 14.8556 12.672 14.8556C12.672 14.8556 12.672 14.8556 12.672 14.8556C12.672 14.8556 12.672 14.8556 12.672 14.8556C12.672 14.8556 12.672 14.8556 12.672 14.8556C12.672 14.8556 12.672 14.8556 12.672 14.8556C12.672 14.8556 12.672 14.8556 12.672 14.8556C12.672 14.8556 12.672 14.8556 12.672 14.8556C12.672 14.8556 12.672 14.8556 12.672 14.8556C12.672 14.8556 12.672 14.8556 12.672 14.8556C12.672 14.8556 12.672 14.8556 12.6719 14.8556C12.6719 14.8556 12.6719 14.8556 12.6719 14.8556C12.6719 14.8556 12.6719 14.8556 12.6719 14.8556C12.6719 14.8556 12.6719 14.8556 12.6719 14.8556C12.6719 14.8556 12.6719 14.8556 12.6719 14.8556C12.6719 14.8556 12.6719 14.8556 12.6719 14.8556C12.6719 14.8556 12.6719 14.8556 12.6719 14.8556C12.6719 14.8556 12.6719 14.8556 12.6719 14.8556C12.6719 14.8556 12.6719 14.8556 12.6719 14.8556C12.6719 14.8556 12.6719 14.8556 12.6719 14.8556C12.6719 14.8556 12.6719 14.8556 12.6719 14.8556C12.6719 14.8556 12.6719 14.8556 12.6719 14.8556C12.6719 14.8556 12.6719 14.8556 12.6719 14.8556C12.6719 14.8556 12.6719 14.8556 12.6719 14.8556C12.6719 14.8556 12.6719 14.8556 12.6719 14.8556C12.6719 14.8556 12.6719 14.8556 12.6719 14.8556C12.6719 14.8556 12.6719 14.8556 12.6719 14.8556C12.6719 14.8556 12.6719 14.8556 12.6719 14.8556C12.6719 14.8556 12.6719 14.8556 12.6719 14.8556C12.6719 14.8556 12.6719 14.8556 12.6719 14.8556C12.6719 14.8556 12.6719 14.8556 12.6719 14.8556C12.6719 14.8556 12.6719 14.8556 12.6719 14.8556C12.6719 14.8556 12.6719 14.8556 12.6719 14.8556C12.6719 14.8556 12.6719 14.8556 12.6719 14.8556C12.6719 14.8556 12.6719 14.8556 12.6719 14.8556C12.6719 14.8556 12.6719 14.8556 12.6719 14.8556C12.6719 14.8556 12.6719 14.8556 12.6719 14.8556C12.6719 14.8556 12.6719 14.8556 12.6719 14.8556C12.6719 14.8556 12.6719 14.8556 12.6719 14.8556C12.6719 14.8556 12.6719 14.8556 12.6719 14.8556C12.6719 14.8556 12.6719 14.8556 12.6719 14.8556C12.6719 14.8556 12.6719 14.8556 12.6719 14.8556C12.6719 14.8556 12.6719 14.8556 12.6719 14.8556C12.6719 14.8556 12.6719 14.8556 12.6719 14.8556C12.6719 14.8556 12.6719 14.8556 12.6719 14.8556C12.6719 14.8556 12.6719 14.8556 12.6719 14.8556C12.6719 14.8556 12.6719 14.8556 12.6719 14.8556C12.6719 14.8556 12.6719 14.8556 12.6719 14.8556C12.6719 14.8556 12.6719 14.8556 12.6719 14.8556C12.6719 14.8556 12.6719 14.8556 12.6719 14.8556C12.6719 14.8556 12.6719 14.8556 12.6719 14.8556C12.6719 14.8556 12.6719 14.8556 12.6719 14.8556C12.6719 14.8556 12.6719 14.8556 12.6719 14.8556C12.6719 14.8556 12.6719 14.8556 12.6719 14.8556C12.6719 14.8556 12.6719 14.8556 12.6719 14.8556C12.6719 14.8556 12.6719 14.8556 12.6719 14.8556C12.6719 14.8556 12.6719 14.8556 12.6719 14.8556C12.6719 14.8556 12.6719 14.8556 12.6719 14.8556C12.6719 14.8556 12.6719 14.8556 12.6719 14.8556C12.6719 14.8556 12.6719 14.8556 12.6719 14.8556H12.6719H12.6719H12.6719H12.6719H12.6719H12.6719H12.6719H12.6719H12.6719H12.6719H12.6719H12.6719H12.6719H12.6719H12.6719H12.6719H12.6719H12.6719H12.6719H12.6719H12.6719H12.6719H12.6719H12.6719H12.6719H12.6719H12.6719H12.6719H12.6719V17.0556H12.6719H12.6719H12.6719H12.6719H12.6719H12.6719H12.6719H12.6719H12.6719H12.6719H12.6719H12.6719H12.6719H12.6719H12.6719H12.6719H12.6719H12.6719H12.6719H12.6719H12.6719H12.6719H12.6719H12.6719H12.6719H12.6719H12.6719H12.6719H12.6719C12.6719 17.0556 12.6719 17.0556 12.6719 17.0556C12.6719 17.0556 12.6719 17.0556 12.6719 17.0556C12.6719 17.0556 12.6719 17.0556 12.6719 17.0556C12.6719 17.0556 12.6719 17.0556 12.6719 17.0556C12.6719 17.0556 12.6719 17.0556 12.6719 17.0556C12.6719 17.0556 12.6719 17.0556 12.6719 17.0556C12.6719 17.0556 12.6719 17.0556 12.6719 17.0556C12.6719 17.0556 12.6719 17.0556 12.6719 17.0556C12.6719 17.0556 12.6719 17.0556 12.6719 17.0556C12.6719 17.0556 12.6719 17.0556 12.6719 17.0556C12.6719 17.0556 12.6719 17.0556 12.6719 17.0556C12.6719 17.0556 12.6719 17.0556 12.6719 17.0556C12.6719 17.0556 12.6719 17.0556 12.6719 17.0556C12.6719 17.0556 12.6719 17.0556 12.6719 17.0556C12.6719 17.0556 12.6719 17.0556 12.6719 17.0556C12.6719 17.0556 12.6719 17.0556 12.6719 17.0556C12.6719 17.0556 12.6719 17.0556 12.6719 17.0556C12.6719 17.0556 12.6719 17.0556 12.6719 17.0556C12.6719 17.0556 12.6719 17.0556 12.6719 17.0556C12.6719 17.0556 12.6719 17.0556 12.6719 17.0556C12.6719 17.0556 12.6719 17.0556 12.6719 17.0556C12.6719 17.0556 12.6719 17.0556 12.6719 17.0556C12.6719 17.0556 12.6719 17.0556 12.6719 17.0556C12.6719 17.0556 12.6719 17.0556 12.6719 17.0556C12.6719 17.0556 12.6719 17.0556 12.6719 17.0556C12.6719 17.0556 12.6719 17.0556 12.6719 17.0556C12.6719 17.0556 12.6719 17.0556 12.6719 17.0556C12.6719 17.0556 12.6719 17.0556 12.6719 17.0556C12.6719 17.0556 12.6719 17.0556 12.6719 17.0556C12.6719 17.0556 12.6719 17.0556 12.6719 17.0556C12.6719 17.0556 12.6719 17.0556 12.6719 17.0556C12.6719 17.0556 12.6719 17.0556 12.6719 17.0556C12.6719 17.0556 12.6719 17.0556 12.6719 17.0556C12.6719 17.0556 12.6719 17.0556 12.6719 17.0556C12.6719 17.0556 12.6719 17.0556 12.6719 17.0556C12.6719 17.0556 12.6719 17.0556 12.6719 17.0556C12.6719 17.0556 12.6719 17.0556 12.6719 17.0556C12.6719 17.0556 12.6719 17.0556 12.6719 17.0556C12.6719 17.0556 12.6719 17.0556 12.6719 17.0556C12.6719 17.0556 12.6719 17.0556 12.6719 17.0556C12.6719 17.0556 12.6719 17.0556 12.6719 17.0556C12.6719 17.0556 12.6719 17.0556 12.6719 17.0556C12.6719 17.0556 12.6719 17.0556 12.6719 17.0556C12.6719 17.0556 12.6719 17.0556 12.6719 17.0556C12.6719 17.0556 12.6719 17.0556 12.6719 17.0556C12.6719 17.0556 12.6719 17.0556 12.6719 17.0556C12.6719 17.0556 12.6719 17.0556 12.6719 17.0556C12.6719 17.0556 12.6719 17.0556 12.6719 17.0556C12.6719 17.0556 12.6719 17.0556 12.6719 17.0556C12.672 17.0556 12.672 17.0556 12.672 17.0556C12.672 17.0556 12.672 17.0556 12.672 17.0556C12.672 17.0556 12.672 17.0556 12.672 17.0556C12.672 17.0556 12.672 17.0556 12.672 17.0556C12.672 17.0556 12.672 17.0556 12.672 17.0556C12.672 17.0556 12.672 17.0556 12.672 17.0556C12.672 17.0556 12.672 17.0556 12.672 17.0556C12.672 17.0556 12.672 17.0556 12.672 17.0556C12.672 17.0556 12.672 17.0556 12.672 17.0556C12.672 17.0556 12.672 17.0556 12.672 17.0556C12.672 17.0556 12.672 17.0556 12.672 17.0556C12.672 17.0556 12.672 17.0556 12.672 17.0556C12.672 17.0556 12.672 17.0556 12.672 17.0556C12.672 17.0556 12.672 17.0556 12.672 17.0556C12.672 17.0556 12.672 17.0556 12.672 17.0556C12.672 17.0556 12.672 17.0556 12.672 17.0556C12.672 17.0556 12.672 17.0556 12.672 17.0556C12.672 17.0556 12.672 17.0556 12.672 17.0556C12.672 17.0556 12.672 17.0556 12.672 17.0556C12.672 17.0556 12.672 17.0556 12.672 17.0556C12.672 17.0556 12.672 17.0556 12.672 17.0556C12.672 17.0556 12.672 17.0556 12.672 17.0556C12.672 17.0556 12.672 17.0556 12.672 17.0556C12.672 17.0556 12.672 17.0556 12.672 17.0556C12.672 17.0556 12.672 17.0556 12.672 17.0556C12.672 17.0556 12.672 17.0556 12.672 17.0556C12.672 17.0556 12.672 17.0556 12.672 17.0556C12.672 17.0556 12.672 17.0556 12.672 17.0556C12.672 17.0556 12.672 17.0556 12.672 17.0556C12.672 17.0556 12.672 17.0556 12.672 17.0556C12.672 17.0556 12.672 17.0556 12.672 17.0556C12.672 17.0556 12.672 17.0556 12.672 17.0556C12.672 17.0556 12.672 17.0556 12.672 17.0556C12.672 17.0556 12.672 17.0556 12.672 17.0556C12.672 17.0556 12.672 17.0556 12.672 17.0556C12.672 17.0556 12.672 17.0556 12.672 17.0556C12.672 17.0556 12.672 17.0556 12.672 17.0556C12.672 17.0556 12.672 17.0556 12.672 17.0556C12.672 17.0556 12.672 17.0556 12.672 17.0556C12.672 17.0556 12.672 17.0556 12.672 17.0556C12.672 17.0556 12.672 17.0556 12.672 17.0556C12.672 17.0556 12.672 17.0556 12.672 17.0556C12.672 17.0556 12.672 17.0556 12.672 17.0556C12.672 17.0556 12.672 17.0556 12.672 17.0556C12.672 17.0556 12.672 17.0556 12.672 17.0556C12.672 17.0556 12.672 17.0556 12.672 17.0556C12.672 17.0556 12.672 17.0556 12.672 17.0556C12.672 17.0556 12.672 17.0556 12.672 17.0556C12.672 17.0556 12.672 17.0556 12.672 17.0556C12.672 17.0556 12.672 17.0556 12.672 17.0556C12.672 17.0556 12.672 17.0556 12.672 17.0556C12.672 17.0556 12.672 17.0556 12.672 17.0556C12.672 17.0556 12.672 17.0556 12.672 17.0556C12.672 17.0556 12.672 17.0556 12.672 17.0556C12.672 17.0556 12.672 17.0556 12.672 17.0556C12.672 17.0556 12.672 17.0556 12.672 17.0556C12.672 17.0556 12.672 17.0556 12.672 17.0556C12.672 17.0556 12.672 17.0556 12.672 17.0556C12.672 17.0556 12.672 17.0556 12.672 17.0556C12.672 17.0556 12.672 17.0556 12.672 17.0556C12.672 17.0556 12.672 17.0556 12.672 17.0556C12.672 17.0556 12.672 17.0556 12.672 17.0556C12.672 17.0556 12.672 17.0556 12.672 17.0556C12.672 17.0556 12.672 17.0556 12.672 17.0556C12.672 17.0556 12.672 17.0556 12.672 17.0556H12.672H12.672H12.672H12.672H12.672H12.672H12.672H12.672H12.672H12.672H12.672H12.672H12.672H12.672H12.672H12.672H12.672H12.672H12.672H12.672H12.672H12.672H12.672H12.672H12.672H12.672H12.672H12.672V14.8556ZM12.672 17.0556H14.9474V14.8556H12.672V17.0556ZM34.0005 0.636328C25.4729 0.636328 18.2688 6.29102 15.9281 14.0528L18.0344 14.688C20.1028 7.82941 26.47 2.83633 34.0005 2.83633V0.636328ZM52.0729 14.0528C49.7321 6.29102 42.5281 0.636328 34.0005 0.636328V2.83633C41.531 2.83633 47.8982 7.82941 49.9666 14.688L52.0729 14.0528ZM53.0535 17.0556H55.3288V14.8556H53.0535V17.0556ZM55.3288 17.0556C60.611 17.0556 64.893 21.3376 64.893 26.6198H67.093C67.093 20.1226 61.826 14.8556 55.3288 14.8556V17.0556ZM64.893 26.6198C64.893 31.902 60.611 36.184 55.3288 36.184V38.384C61.826 38.384 67.093 33.117 67.093 26.6198H64.893ZM55.3288 36.184H12.672V38.384H55.3288V36.184ZM49.9666 14.688C50.0795 15.0622 50.1872 15.424 50.307 15.7114C50.4309 16.0085 50.6231 16.3699 50.9884 16.6413L52.3004 14.8753C52.4001 14.9494 52.3997 15.0138 52.3375 14.8646C52.2713 14.7058 52.1994 14.4724 52.0729 14.0528L49.9666 14.688ZM53.0535 14.8556C52.6474 14.8556 52.4327 14.854 52.2831 14.8375C52.1548 14.8234 52.2125 14.81 52.3004 14.8753L50.9884 16.6413C51.3418 16.9038 51.7228 16.9891 52.0422 17.0243C52.3402 17.0571 52.6973 17.0556 53.0535 17.0556V14.8556ZM14.9474 17.0556C15.3037 17.0556 15.6608 17.0571 15.9588 17.0243C16.2781 16.9891 16.6592 16.9038 17.0126 16.6413L15.7006 14.8753C15.7885 14.81 15.8461 14.8234 15.7179 14.8375C15.5683 14.854 15.3536 14.8556 14.9474 14.8556V17.0556ZM15.9281 14.0528C15.8015 14.4724 15.7297 14.7058 15.6635 14.8646C15.6013 15.0138 15.6009 14.9494 15.7006 14.8753L17.0126 16.6413C17.3778 16.3699 17.5701 16.0085 17.694 15.7114C17.8138 15.424 17.9215 15.0622 18.0344 14.688L15.9281 14.0528Z" fill="#B9D0FF"/>
<path d="M42.8867 44.1122L33.9999 52.999M33.9999 52.999L25.113 44.1122M33.9999 52.999L33.9999 27.9993" stroke="#B9D0FF" stroke-width="4.2" stroke-linecap="round" stroke-linejoin="round"/>
</svg>
