<svg width="129" height="60" viewBox="0 0 129 60" fill="none" xmlns="http://www.w3.org/2000/svg">
<path d="M25.1082 25.4307C25.8576 22.7106 25.5804 13.5237 33.024 16.0292C34.3139 16.4635 35.7223 17.8202 36.0828 18.2374C36.0878 18.2431 36.0912 18.2501 36.0925 18.2576C36.0939 18.2652 36.0933 18.2729 36.0906 18.2801C36.088 18.2872 36.0835 18.2935 36.0776 18.2983C36.0717 18.3031 36.0646 18.3062 36.057 18.3073C34.4114 18.6001 31.4501 19.9696 32.2205 23.2502C33.1981 27.4127 35.4949 33.2708 33.024 36.927C30.3037 40.9518 27.74 42.5354 25.0552 43.3604C23.8544 48.0837 19.7137 53.5545 17.3134 56.1926C17.268 56.2419 17.2111 56.2791 17.1479 56.3007C17.0846 56.3223 17.017 56.3278 16.9511 56.3165C14.011 55.8858 11.0168 56.007 8.12069 56.674C7.09911 56.9305 3.47387 57.7999 1.84037 59.3308C1.64067 59.5181 1.33782 59.4825 1.343 59.2082C1.38483 56.989 5.94126 50.3706 12.6922 46.7681C17.5075 44.1987 21.3938 44.4851 25.0552 43.3604C25.3088 42.4276 25.4177 41.461 25.3781 40.4948C25.17 37.0105 24.7953 33.5263 23.3679 30.1022C20.9981 34.9578 17.6876 37.4341 14.8233 38.8176C14.1656 39.1335 13.4403 39.2811 12.7121 39.2473C11.9839 39.2135 11.2753 38.9993 10.6494 38.6238C7.38491 36.6735 4.84784 33.9806 2.70071 30.5841C-0.306416 25.8272 -0.306441 20.6734 0.354751 16.3129C1.68658 7.52921 8.75655 1.62871 11.0595 0.076228C11.3398 -0.112712 11.4915 0.0729621 11.3422 0.37696C10.482 2.12632 10.099 5.14302 9.73868 7.59132C9.13418 11.6983 9.1521 15.1234 16.5811 21.2681C20.0529 24.1397 22.1155 27.0977 23.3679 30.1022C24.0909 28.6026 24.6736 27.0387 25.1082 25.4307Z" fill="white"/>
<path d="M42.84 25V16.36H46.332C46.416 16.36 46.52 16.364 46.644 16.372C46.768 16.376 46.886 16.388 46.998 16.408C47.478 16.484 47.878 16.648 48.198 16.9C48.522 17.152 48.764 17.47 48.924 17.854C49.084 18.238 49.164 18.662 49.164 19.126C49.164 19.594 49.084 20.02 48.924 20.404C48.764 20.788 48.522 21.106 48.198 21.358C47.878 21.61 47.478 21.774 46.998 21.85C46.886 21.866 46.766 21.878 46.638 21.886C46.514 21.894 46.412 21.898 46.332 21.898H44.094V25H42.84ZM44.094 20.71H46.284C46.364 20.71 46.452 20.706 46.548 20.698C46.648 20.69 46.742 20.676 46.83 20.656C47.086 20.596 47.292 20.486 47.448 20.326C47.604 20.162 47.716 19.974 47.784 19.762C47.852 19.55 47.886 19.338 47.886 19.126C47.886 18.914 47.852 18.704 47.784 18.496C47.716 18.284 47.604 18.098 47.448 17.938C47.292 17.774 47.086 17.662 46.83 17.602C46.742 17.578 46.648 17.562 46.548 17.554C46.452 17.546 46.364 17.542 46.284 17.542H44.094V20.71ZM53.9694 25.18C53.1054 25.18 52.3694 24.992 51.7614 24.616C51.1534 24.236 50.6874 23.708 50.3634 23.032C50.0434 22.356 49.8834 21.572 49.8834 20.68C49.8834 19.788 50.0434 19.004 50.3634 18.328C50.6874 17.652 51.1534 17.126 51.7614 16.75C52.3694 16.37 53.1054 16.18 53.9694 16.18C54.8294 16.18 55.5634 16.37 56.1714 16.75C56.7834 17.126 57.2494 17.652 57.5694 18.328C57.8894 19.004 58.0494 19.788 58.0494 20.68C58.0494 21.572 57.8894 22.356 57.5694 23.032C57.2494 23.708 56.7834 24.236 56.1714 24.616C55.5634 24.992 54.8294 25.18 53.9694 25.18ZM53.9694 23.986C54.5814 23.994 55.0894 23.86 55.4934 23.584C55.9014 23.304 56.2074 22.916 56.4114 22.42C56.6154 21.92 56.7174 21.34 56.7174 20.68C56.7174 20.02 56.6154 19.444 56.4114 18.952C56.2074 18.456 55.9014 18.07 55.4934 17.794C55.0894 17.518 54.5814 17.378 53.9694 17.374C53.3574 17.366 52.8474 17.5 52.4394 17.776C52.0354 18.052 51.7314 18.44 51.5274 18.94C51.3234 19.44 51.2194 20.02 51.2154 20.68C51.2114 21.34 51.3114 21.918 51.5154 22.414C51.7194 22.906 52.0254 23.29 52.4334 23.566C52.8454 23.842 53.3574 23.982 53.9694 23.986ZM62.8523 25.18C61.9883 25.18 61.2523 24.992 60.6443 24.616C60.0363 24.236 59.5703 23.708 59.2463 23.032C58.9263 22.356 58.7663 21.572 58.7663 20.68C58.7663 19.788 58.9263 19.004 59.2463 18.328C59.5703 17.652 60.0363 17.126 60.6443 16.75C61.2523 16.37 61.9883 16.18 62.8523 16.18C63.8483 16.18 64.6723 16.432 65.3242 16.936C65.9803 17.44 66.4363 18.118 66.6923 18.97L65.4203 19.312C65.2523 18.708 64.9523 18.234 64.5203 17.89C64.0923 17.546 63.5363 17.374 62.8523 17.374C62.2403 17.374 61.7303 17.512 61.3223 17.788C60.9143 18.064 60.6063 18.45 60.3983 18.946C60.1943 19.442 60.0923 20.02 60.0923 20.68C60.0883 21.34 60.1883 21.918 60.3923 22.414C60.6003 22.91 60.9083 23.296 61.3163 23.572C61.7283 23.848 62.2403 23.986 62.8523 23.986C63.5363 23.986 64.0923 23.814 64.5203 23.47C64.9523 23.122 65.2523 22.648 65.4203 22.048L66.6923 22.39C66.4363 23.242 65.9803 23.92 65.3242 24.424C64.6723 24.928 63.8483 25.18 62.8523 25.18ZM71.6179 25.18C70.7539 25.18 70.0179 24.992 69.4099 24.616C68.8019 24.236 68.3359 23.708 68.0119 23.032C67.6919 22.356 67.5319 21.572 67.5319 20.68C67.5319 19.788 67.6919 19.004 68.0119 18.328C68.3359 17.652 68.8019 17.126 69.4099 16.75C70.0179 16.37 70.7539 16.18 71.6179 16.18C72.6139 16.18 73.4379 16.432 74.0899 16.936C74.7459 17.44 75.2019 18.118 75.4579 18.97L74.1859 19.312C74.0179 18.708 73.7179 18.234 73.2859 17.89C72.8579 17.546 72.3019 17.374 71.6179 17.374C71.0059 17.374 70.4959 17.512 70.0879 17.788C69.6799 18.064 69.3719 18.45 69.1639 18.946C68.9599 19.442 68.8579 20.02 68.8579 20.68C68.8539 21.34 68.9539 21.918 69.1579 22.414C69.3659 22.91 69.6739 23.296 70.0819 23.572C70.4939 23.848 71.0059 23.986 71.6179 23.986C72.3019 23.986 72.8579 23.814 73.2859 23.47C73.7179 23.122 74.0179 22.648 74.1859 22.048L75.4579 22.39C75.2019 23.242 74.7459 23.92 74.0899 24.424C73.4379 24.928 72.6139 25.18 71.6179 25.18ZM83.5755 25H82.3035V18.574L78.0495 25H76.7775V16.36H78.0495V22.78L82.3035 16.36H83.5755V25ZM85.2502 25V16.36H86.5222V22.78L90.7762 16.36H92.0482V25H90.7762V18.574L86.5222 25H85.2502ZM88.6702 15.616C88.3502 15.616 88.0602 15.538 87.8002 15.382C87.5402 15.226 87.3322 15.018 87.1762 14.758C87.0202 14.498 86.9422 14.208 86.9422 13.888H87.9382C87.9382 14.088 88.0102 14.26 88.1542 14.404C88.2982 14.548 88.4702 14.62 88.6702 14.62C88.8742 14.62 89.0462 14.548 89.1862 14.404C89.3302 14.26 89.4022 14.088 89.4022 13.888H90.3982C90.3982 14.208 90.3202 14.498 90.1642 14.758C90.0082 15.018 89.7982 15.226 89.5342 15.382C89.2742 15.538 88.9862 15.616 88.6702 15.616ZM97.3288 25.18C96.4648 25.18 95.7288 24.992 95.1208 24.616C94.5128 24.236 94.0468 23.708 93.7228 23.032C93.4028 22.356 93.2428 21.572 93.2428 20.68C93.2428 19.788 93.4028 19.004 93.7228 18.328C94.0468 17.652 94.5128 17.126 95.1208 16.75C95.7288 16.37 96.4648 16.18 97.3288 16.18C98.3248 16.18 99.1488 16.432 99.8008 16.936C100.457 17.44 100.913 18.118 101.169 18.97L99.8968 19.312C99.7288 18.708 99.4288 18.234 98.9968 17.89C98.5688 17.546 98.0128 17.374 97.3288 17.374C96.7168 17.374 96.2068 17.512 95.7988 17.788C95.3908 18.064 95.0828 18.45 94.8748 18.946C94.6708 19.442 94.5688 20.02 94.5688 20.68C94.5648 21.34 94.6648 21.918 94.8688 22.414C95.0768 22.91 95.3848 23.296 95.7928 23.572C96.2048 23.848 96.7168 23.986 97.3288 23.986C98.0128 23.986 98.5688 23.814 98.9968 23.47C99.4288 23.122 99.7288 22.648 99.8968 22.048L101.169 22.39C100.913 23.242 100.457 23.92 99.8008 24.424C99.1488 24.928 98.3248 25.18 97.3288 25.18ZM102.488 25V16.36H103.742V20.392L107.36 16.36H108.92L105.098 20.578L109.202 25H107.594L103.742 20.872V25H102.488ZM116.845 25H115.573V18.574L111.319 25H110.047V16.36H111.319V22.78L115.573 16.36H116.845V25ZM118.52 25V16.36H119.792V22.78L124.046 16.36H125.318V25H124.046V18.574L119.792 25H118.52ZM121.94 15.616C121.62 15.616 121.33 15.538 121.07 15.382C120.81 15.226 120.602 15.018 120.446 14.758C120.29 14.498 120.212 14.208 120.212 13.888H121.208C121.208 14.088 121.28 14.26 121.424 14.404C121.568 14.548 121.74 14.62 121.94 14.62C122.144 14.62 122.316 14.548 122.456 14.404C122.6 14.26 122.672 14.088 122.672 13.888H123.668C123.668 14.208 123.59 14.498 123.434 14.758C123.278 15.018 123.068 15.226 122.804 15.382C122.544 15.538 122.256 15.616 121.94 15.616ZM44.082 41L45.174 38.762L42.162 32.36H43.572L45.828 37.43L48.144 32.36H49.482L45.438 41H44.082ZM55.474 41V37.088L55.708 37.466C55.464 37.662 55.14 37.818 54.736 37.934C54.332 38.046 53.894 38.102 53.422 38.102C52.686 38.102 52.098 37.962 51.658 37.682C51.222 37.398 50.906 37.008 50.71 36.512C50.518 36.016 50.422 35.446 50.422 34.802V32.36H51.694V34.4C51.694 34.732 51.718 35.048 51.766 35.348C51.814 35.648 51.906 35.916 52.042 36.152C52.178 36.384 52.376 36.568 52.636 36.704C52.896 36.836 53.236 36.902 53.656 36.902C54.144 36.902 54.562 36.824 54.91 36.668C55.258 36.508 55.508 36.338 55.66 36.158L55.474 36.878V32.36H56.74V41H55.474ZM65.2122 41H63.9402V34.574L59.6862 41H58.4142V32.36H59.6862V38.78L63.9402 32.36H65.2122V41ZM69.0409 41V33.542H66.1669V32.36H73.1689V33.542H70.2949V41H69.0409ZM74.1291 41V32.36H79.6491V33.542H75.3831V35.966H78.9291V37.148H75.3831V39.818H79.6491V41H74.1291ZM80.49 41V39.926C80.694 39.946 80.862 39.936 80.994 39.896C81.13 39.852 81.244 39.768 81.336 39.644C81.428 39.516 81.506 39.332 81.57 39.092C81.638 38.852 81.704 38.542 81.768 38.162C81.856 37.678 81.93 37.18 81.99 36.668C82.05 36.156 82.1 35.648 82.14 35.144C82.184 34.636 82.22 34.146 82.248 33.674C82.276 33.202 82.298 32.764 82.314 32.36H87.984V41H86.73V33.542H83.49C83.47 33.862 83.446 34.22 83.418 34.616C83.39 35.012 83.356 35.432 83.316 35.876C83.276 36.32 83.226 36.778 83.166 37.25C83.11 37.722 83.038 38.196 82.95 38.672C82.878 39.08 82.79 39.448 82.686 39.776C82.582 40.104 82.442 40.378 82.266 40.598C82.09 40.814 81.86 40.958 81.576 41.03C81.292 41.106 80.93 41.096 80.49 41ZM89.6621 41V32.36H90.9161V35.462H93.1541C93.2341 35.462 93.3361 35.466 93.4601 35.474C93.5881 35.478 93.7061 35.49 93.8141 35.51C94.2941 35.586 94.6941 35.75 95.0141 36.002C95.3381 36.254 95.5801 36.572 95.7401 36.956C95.9041 37.34 95.9861 37.766 95.9861 38.234C95.9861 38.698 95.9061 39.122 95.7461 39.506C95.5861 39.89 95.3441 40.208 95.0201 40.46C94.7001 40.712 94.2981 40.876 93.8141 40.952C93.7061 40.968 93.5901 40.98 93.4661 40.988C93.3421 40.996 93.2381 41 93.1541 41H89.6621ZM90.9161 39.818H93.1061C93.1821 39.818 93.2681 39.814 93.3641 39.806C93.4641 39.798 93.5581 39.782 93.6461 39.758C93.9061 39.698 94.1121 39.588 94.2641 39.428C94.4201 39.264 94.5321 39.078 94.6001 38.87C94.6721 38.658 94.7081 38.446 94.7081 38.234C94.7081 38.022 94.6721 37.81 94.6001 37.598C94.5321 37.386 94.4201 37.2 94.2641 37.04C94.1121 36.876 93.9061 36.764 93.6461 36.704C93.5581 36.68 93.4641 36.666 93.3641 36.662C93.2681 36.654 93.1821 36.65 93.1061 36.65H90.9161V39.818ZM45.798 57.18C45.198 57.18 44.676 57.092 44.232 56.916C43.788 56.74 43.416 56.512 43.116 56.232C42.82 55.948 42.594 55.646 42.438 55.326L43.53 54.618C43.626 54.854 43.77 55.076 43.962 55.284C44.158 55.492 44.41 55.662 44.718 55.794C45.03 55.922 45.408 55.986 45.852 55.986C46.296 55.986 46.662 55.92 46.95 55.788C47.238 55.652 47.452 55.472 47.592 55.248C47.736 55.02 47.808 54.764 47.808 54.48C47.808 54.148 47.72 53.892 47.544 53.712C47.372 53.528 47.142 53.4 46.854 53.328C46.566 53.252 46.254 53.208 45.918 53.196C45.638 53.188 45.436 53.182 45.312 53.178C45.188 53.17 45.104 53.166 45.06 53.166C45.02 53.166 44.982 53.166 44.946 53.166V51.978C44.99 51.978 45.066 51.978 45.174 51.978C45.286 51.978 45.402 51.978 45.522 51.978C45.642 51.974 45.74 51.97 45.816 51.966C46.312 51.942 46.712 51.82 47.016 51.6C47.324 51.38 47.478 51.068 47.478 50.664C47.478 50.26 47.328 49.942 47.028 49.71C46.732 49.478 46.342 49.362 45.858 49.362C45.398 49.362 45.002 49.468 44.67 49.68C44.338 49.888 44.082 50.146 43.902 50.454L42.978 49.584C43.266 49.184 43.66 48.85 44.16 48.582C44.66 48.314 45.238 48.18 45.894 48.18C46.266 48.18 46.626 48.23 46.974 48.33C47.322 48.426 47.634 48.574 47.91 48.774C48.186 48.974 48.404 49.228 48.564 49.536C48.728 49.84 48.81 50.202 48.81 50.622C48.81 51.042 48.724 51.422 48.552 51.762C48.384 52.102 48.158 52.372 47.874 52.572C48.27 52.72 48.58 52.954 48.804 53.274C49.028 53.59 49.14 53.994 49.14 54.486C49.14 55.038 48.994 55.516 48.702 55.92C48.414 56.32 48.018 56.63 47.514 56.85C47.014 57.07 46.442 57.18 45.798 57.18ZM49.822 57L52.63 48.36H54.436L57.244 57H55.942L53.356 49.116H53.68L51.124 57H49.822ZM51.28 55.05V53.874H55.792V55.05H51.28ZM60.7228 57V48.36H64.2148C64.2988 48.36 64.4028 48.364 64.5268 48.372C64.6508 48.376 64.7688 48.388 64.8808 48.408C65.3608 48.484 65.7608 48.648 66.0808 48.9C66.4048 49.152 66.6468 49.47 66.8068 49.854C66.9668 50.238 67.0468 50.662 67.0468 51.126C67.0468 51.594 66.9668 52.02 66.8068 52.404C66.6468 52.788 66.4048 53.106 66.0808 53.358C65.7608 53.61 65.3608 53.774 64.8808 53.85C64.7688 53.866 64.6488 53.878 64.5208 53.886C64.3968 53.894 64.2948 53.898 64.2148 53.898H61.9768V57H60.7228ZM61.9768 52.71H64.1668C64.2468 52.71 64.3348 52.706 64.4308 52.698C64.5308 52.69 64.6248 52.676 64.7128 52.656C64.9688 52.596 65.1748 52.486 65.3308 52.326C65.4868 52.162 65.5988 51.974 65.6668 51.762C65.7348 51.55 65.7688 51.338 65.7688 51.126C65.7688 50.914 65.7348 50.704 65.6668 50.496C65.5988 50.284 65.4868 50.098 65.3308 49.938C65.1748 49.774 64.9688 49.662 64.7128 49.602C64.6248 49.578 64.5308 49.562 64.4308 49.554C64.3348 49.546 64.2468 49.542 64.1668 49.542H61.9768V52.71ZM69.4883 57L70.5803 54.762L67.5683 48.36H68.9783L71.2343 53.43L73.5503 48.36H74.8883L70.8443 57H69.4883ZM75.8283 57V48.36H81.4623V49.542H77.0823V51.624H79.3203C79.4003 51.624 79.5023 51.628 79.6263 51.636C79.7543 51.64 79.8743 51.65 79.9863 51.666C80.4543 51.722 80.8483 51.874 81.1683 52.122C81.4923 52.37 81.7363 52.684 81.9003 53.064C82.0683 53.444 82.1523 53.86 82.1523 54.312C82.1523 54.764 82.0703 55.18 81.9063 55.56C81.7423 55.94 81.4983 56.254 81.1743 56.502C80.8543 56.75 80.4583 56.902 79.9863 56.958C79.8743 56.974 79.7563 56.986 79.6323 56.994C79.5083 56.998 79.4043 57 79.3203 57H75.8283ZM77.0823 55.818H79.2723C79.3523 55.818 79.4403 55.814 79.5363 55.806C79.6363 55.798 79.7303 55.786 79.8183 55.77C80.2063 55.69 80.4783 55.506 80.6343 55.218C80.7943 54.93 80.8743 54.628 80.8743 54.312C80.8743 53.992 80.7943 53.69 80.6343 53.406C80.4783 53.118 80.2063 52.934 79.8183 52.854C79.7303 52.834 79.6363 52.822 79.5363 52.818C79.4403 52.81 79.3523 52.806 79.2723 52.806H77.0823V55.818ZM83.3517 57V48.36H88.8717V49.542H84.6057V51.966H88.1517V53.148H84.6057V55.818H88.8717V57H83.3517ZM89.5927 57L93.0367 52.578L89.8747 48.36H91.3927L94.2907 52.314V48.36H95.5447V52.314L98.4427 48.36H99.9607L96.7987 52.578L100.243 57H98.6707L95.5447 52.95V57H94.2907V52.95L91.1587 57H89.5927ZM104.36 57.18C103.496 57.18 102.76 56.992 102.152 56.616C101.544 56.236 101.078 55.708 100.754 55.032C100.434 54.356 100.274 53.572 100.274 52.68C100.274 51.788 100.434 51.004 100.754 50.328C101.078 49.652 101.544 49.126 102.152 48.75C102.76 48.37 103.496 48.18 104.36 48.18C105.22 48.18 105.954 48.37 106.562 48.75C107.174 49.126 107.64 49.652 107.96 50.328C108.28 51.004 108.44 51.788 108.44 52.68C108.44 53.572 108.28 54.356 107.96 55.032C107.64 55.708 107.174 56.236 106.562 56.616C105.954 56.992 105.22 57.18 104.36 57.18ZM104.36 55.986C104.972 55.994 105.48 55.86 105.884 55.584C106.292 55.304 106.598 54.916 106.802 54.42C107.006 53.92 107.108 53.34 107.108 52.68C107.108 52.02 107.006 51.444 106.802 50.952C106.598 50.456 106.292 50.07 105.884 49.794C105.48 49.518 104.972 49.378 104.36 49.374C103.748 49.366 103.238 49.5 102.83 49.776C102.426 50.052 102.122 50.44 101.918 50.94C101.714 51.44 101.61 52.02 101.606 52.68C101.602 53.34 101.702 53.918 101.906 54.414C102.11 54.906 102.416 55.29 102.824 55.566C103.236 55.842 103.748 55.982 104.36 55.986ZM109.637 57V48.36H110.771L113.903 54.858L117.017 48.36H118.163V56.994H116.975V51.084L114.185 57H113.615L110.819 51.084V57H109.637Z" fill="white"/>
</svg>
