<svg width="33" height="33" viewBox="0 0 33 33" xmlns="http://www.w3.org/2000/svg">
<g clip-path="url(#clip0_346_110597)">
<path d="M9.04008 32.8593C8.8813 32.8598 8.72431 32.8257 8.58009 32.7593C8.38781 32.6717 8.2245 32.5311 8.10936 32.354C7.99422 32.1768 7.93204 31.9705 7.9301 31.7593C7.9301 30.0193 10.7701 26.4493 14.2101 24.6193C15.6419 23.8941 17.1878 23.4205 18.7801 23.2193C19.2301 23.1493 19.6701 23.0693 20.0901 22.9793C20.1144 22.7867 20.1144 22.5918 20.0901 22.3993C20.0419 21.4222 19.9249 20.4498 19.7401 19.4893C18.792 20.7245 17.5653 21.7182 16.1601 22.3893C15.6783 22.621 15.1465 22.7295 14.6124 22.7051C14.0784 22.6806 13.5587 22.524 13.1001 22.2493C11.3158 21.1576 9.81766 19.656 8.73009 17.8693C7.31946 15.4967 6.84516 12.6831 7.40007 9.97926C8.21007 4.62926 12.7401 1.44926 13.2601 1.10926C13.4602 0.965464 13.7024 0.892332 13.9487 0.901385C14.1949 0.910437 14.4311 1.00116 14.6201 1.15926C14.795 1.32757 14.9117 1.54734 14.9531 1.78656C14.9944 2.02578 14.9584 2.27197 14.8501 2.48926C14.5014 3.45707 14.2763 4.46504 14.1801 5.48926L14.1301 5.80926C13.8901 7.43926 13.6801 8.85926 17.2501 11.8093C18.2663 12.6303 19.1588 13.5935 19.9001 14.6693L19.9701 14.4193C20.0362 14.139 20.0863 13.8552 20.1201 13.5693C20.3301 12.1893 20.6401 10.0893 22.1201 9.15926C22.5919 8.89779 23.1169 8.74666 23.6556 8.71721C24.1942 8.68777 24.7325 8.78078 25.2301 8.98926C25.9945 9.3025 26.6782 9.78452 27.2301 10.3993L27.6101 10.8293L27.2401 11.9393L26.6701 12.0693C26.2416 12.1257 25.8495 12.3396 25.5701 12.6693C25.5109 12.7711 25.4732 12.884 25.4595 13.001C25.4457 13.1179 25.4562 13.2365 25.4901 13.3493L25.7801 14.4593C26.3501 16.5493 27.0501 19.1393 25.7801 21.0493C24.8433 22.5917 23.4434 23.7991 21.7801 24.4993C20.8438 26.8415 19.4883 28.9933 17.7801 30.8493C17.6475 30.9967 17.4802 31.1087 17.2933 31.1751C17.1065 31.2415 16.906 31.2601 16.7101 31.2293C15.3518 31.0315 13.9687 31.0857 12.6301 31.3893C11.6423 31.5442 10.7022 31.9202 9.88008 32.4893C9.77224 32.6044 9.64223 32.6965 9.49788 32.7601C9.35352 32.8237 9.19781 32.8574 9.04008 32.8593ZM19.3601 25.1093H19.1101C17.7185 25.2744 16.3656 25.6769 15.1101 26.2993C13.5334 27.1741 12.1492 28.3576 11.0401 29.7793C11.3901 29.6693 11.7301 29.5793 12.0401 29.4993C13.5106 29.1556 15.0289 29.0643 16.5301 29.2293C17.6295 27.9786 18.5669 26.5944 19.3201 25.1093H19.3601ZM21.1801 17.0793C21.7357 18.6904 22.0458 20.3759 22.1001 22.0793C22.9213 21.4927 23.6209 20.7523 24.1601 19.8993C24.9401 18.7493 24.3701 16.6493 23.9101 14.9693C23.8001 14.5593 23.7001 14.1593 23.6101 13.7893C23.509 13.4121 23.488 13.018 23.5482 12.6322C23.6085 12.2465 23.7488 11.8776 23.9601 11.5493C24.1395 11.2839 24.3588 11.0478 24.6101 10.8493C24.3956 10.7556 24.1641 10.7073 23.9301 10.7073C23.6961 10.7073 23.4646 10.7556 23.2501 10.8493C22.5201 11.2993 22.2501 12.8493 22.1401 13.8493C22.094 14.2128 22.0272 14.5734 21.9401 14.9293C21.7315 15.6662 21.4639 16.3852 21.1401 17.0793H21.1801ZM12.3401 4.55926C10.8235 6.12001 9.8068 8.09764 9.42009 10.2393C8.91627 12.4608 9.27363 14.7908 10.4201 16.7593C11.3369 18.281 12.6058 19.5602 14.1201 20.4893C14.2944 20.5966 14.4929 20.6584 14.6974 20.6689C14.9019 20.6794 15.1057 20.6382 15.2901 20.5493C16.8545 19.7954 18.1344 18.5576 18.9401 17.0193C18.2251 15.5939 17.2 14.3467 15.9401 13.3693C11.8301 9.97926 11.7701 7.90926 12.1201 5.53926V5.23926C12.2301 5.00926 12.2701 4.77926 12.3001 4.55926H12.3401Z" />
</g>
<defs>
<clipPath id="clip0_346_110597">
<rect width="32" height="32" fill="white" transform="translate(0.807617 0.920166)"/>
</clipPath>
</defs>
</svg>
