<svg width="32" height="32" viewBox="0 0 32 32" xmlns="http://www.w3.org/2000/svg">
<path fill-rule="evenodd" clip-rule="evenodd" d="M6 16.5C6 11.2533 10.2533 7 15.5 7C20.7467 7 25 11.2533 25 16.5V21.9441C25 22.4229 25 22.836 24.9747 23.1772C24.9479 23.5368 24.889 23.8957 24.7289 24.2462C24.4291 24.9027 23.9027 25.4291 23.2462 25.7289C22.8957 25.889 22.5368 25.9479 22.1772 25.9747C21.836 26 21.4229 26 20.9441 26H15.5C10.2533 26 6 21.7467 6 16.5ZM15.5 9C11.3579 9 8 12.3579 8 16.5C8 20.6421 11.3579 24 15.5 24H20.9091C21.4327 24 21.7708 23.9994 22.0289 23.9802C22.2769 23.9617 22.3702 23.9303 22.4154 23.9096C22.6342 23.8097 22.8097 23.6342 22.9096 23.4154C22.9303 23.3702 22.9617 23.2769 22.9802 23.0289C22.9994 22.7708 23 22.4327 23 21.9091V16.5C23 12.3579 19.6421 9 15.5 9Z" />
<path fill-rule="evenodd" clip-rule="evenodd" d="M11.3125 15.4375C11.3125 14.8852 11.7602 14.4375 12.3125 14.4375L18.6875 14.4375C19.2398 14.4375 19.6875 14.8852 19.6875 15.4375C19.6875 15.9898 19.2398 16.4375 18.6875 16.4375L12.3125 16.4375C11.7602 16.4375 11.3125 15.9898 11.3125 15.4375Z" />
<path fill-rule="evenodd" clip-rule="evenodd" d="M14.5 19.6875C14.5 19.1352 14.9477 18.6875 15.5 18.6875H18.6875C19.2398 18.6875 19.6875 19.1352 19.6875 19.6875C19.6875 20.2398 19.2398 20.6875 18.6875 20.6875H15.5C14.9477 20.6875 14.5 20.2398 14.5 19.6875Z" />
</svg>
