<svg width="32" height="32" viewBox="0 0 32 32" xmlns="http://www.w3.org/2000/svg">
<path fill-rule="evenodd" clip-rule="evenodd" d="M16.0189 14.5333C17.1096 14.5333 18.1242 13.5919 18.1242 12.2667C18.1242 10.9414 17.1096 10 16.0189 10C14.9281 10 13.9136 10.9414 13.9136 12.2667C13.9136 13.5919 14.9281 14.5333 16.0189 14.5333ZM16.0189 16.5333C18.2862 16.5333 20.1242 14.6231 20.1242 12.2667C20.1242 9.91025 18.2862 8 16.0189 8C13.7516 8 11.9136 9.91025 11.9136 12.2667C11.9136 14.6231 13.7516 16.5333 16.0189 16.5333Z"/>
<path fill-rule="evenodd" clip-rule="evenodd" d="M21.6592 12.277C21.4189 12.1328 21.1441 12.0978 20.8884 12.169C20.6303 12.2409 20.3868 12.4234 20.2307 12.7045C20.0731 12.9882 20.027 13.3349 20.1114 13.6622C20.1954 13.9881 20.3946 14.2434 20.6384 14.3896C20.8787 14.5338 21.1535 14.5688 21.4091 14.4976C21.6673 14.4257 21.9108 14.2432 22.0669 13.9621C22.2245 13.6784 22.2706 13.3317 22.1862 13.0044C22.1022 12.6785 21.903 12.4232 21.6592 12.277ZM20.3519 10.2423C21.1406 10.0227 21.981 10.1376 22.6883 10.562C23.3953 10.9863 23.9114 11.6851 24.1228 12.5051C24.3342 13.3249 24.2235 14.1984 23.8153 14.9333C23.4068 15.6685 22.7342 16.2047 21.9457 16.4243C21.157 16.6439 20.3166 16.529 19.6093 16.1046C18.9023 15.6803 18.3861 14.9815 18.1747 14.1615C17.9634 13.3417 18.0741 12.4683 18.4823 11.7333L19.3565 12.2189L18.4823 11.7333C18.8907 10.9981 19.5634 10.4619 20.3519 10.2423Z"/>
<path fill-rule="evenodd" clip-rule="evenodd" d="M11.3936 12.277C11.1533 12.1328 10.8785 12.0978 10.6228 12.169C10.3646 12.2409 10.1212 12.4234 9.96505 12.7045C9.80748 12.9882 9.76139 13.3349 9.84579 13.6622C9.92982 13.9881 10.129 14.2434 10.3727 14.3896C10.613 14.5338 10.8878 14.5688 11.1435 14.4976C11.4017 14.4257 11.6451 14.2432 11.8013 13.9621C11.9589 13.6784 12.0049 13.3317 11.9206 13.0044C11.8365 12.6785 11.6374 12.4232 11.3936 12.277ZM10.0863 10.2423C10.875 10.0227 11.7154 10.1376 12.4227 10.562C13.1297 10.9863 13.6458 11.6851 13.8572 12.5051C14.0686 13.3249 13.9579 14.1984 13.5496 14.9333C13.1412 15.6685 12.4686 16.2047 11.6801 16.4243C10.8914 16.6439 10.0509 16.529 9.34369 16.1046C8.63668 15.6803 8.12052 14.9815 7.90912 14.1615C7.69776 13.3417 7.80844 12.4683 8.21671 11.7333L9.09088 12.2189L8.21671 11.7333C8.62512 10.9981 9.29774 10.4619 10.0863 10.2423Z"/>
<path fill-rule="evenodd" clip-rule="evenodd" d="M20.6569 19.7039C21.2452 20.4293 21.5971 21.2358 21.809 21.9335H23.9645C23.5543 20.8251 22.7539 19.6669 21.1474 19.6669C20.9725 19.6669 20.8094 19.6798 20.6569 19.7039ZM18.2512 18.6391C18.9922 18.0545 19.9513 17.6669 21.1474 17.6669C24.2402 17.6669 25.4939 20.1681 25.9407 21.5274C26.3802 22.8646 25.2732 23.9335 24.1253 23.9335H20.2028L20.0459 23.1238C19.8638 22.1838 19.4078 20.9617 18.328 20.2641L17.1533 19.5053L18.2512 18.6391Z"/>
<path fill-rule="evenodd" clip-rule="evenodd" d="M8.06887 21.9335H10.2263C10.4381 21.2359 10.79 20.4295 11.3781 19.7041C11.2252 19.6799 11.0615 19.6669 10.886 19.6669C9.27954 19.6669 8.47904 20.8251 8.06887 21.9335ZM6.09267 21.5274C6.53948 20.1681 7.79324 17.6669 10.886 17.6669C12.0827 17.6669 13.0422 18.0549 13.7833 18.6399L14.8802 19.5059L13.7065 20.2646C12.6272 20.9623 12.1714 22.1841 11.9893 23.1238L11.8324 23.9335H7.90812C6.76022 23.9335 5.65313 22.8646 6.09267 21.5274Z"/>
<path fill-rule="evenodd" clip-rule="evenodd" d="M12.0147 23H20.021C19.8803 22.3446 19.599 21.5473 19.055 20.9052C18.4919 20.2404 17.5871 19.6666 16.0178 19.6666C14.4485 19.6666 13.5438 20.2404 12.9806 20.9052C12.4367 21.5473 12.1554 22.3446 12.0147 23ZM11.4546 19.6124C12.4036 18.4922 13.8698 17.6666 16.0178 17.6666C18.1659 17.6666 19.632 18.4922 20.581 19.6124C21.496 20.6925 21.8688 21.9711 22.0257 22.8279C22.2564 24.0883 21.2168 25 20.1494 25H11.8862C10.8188 25 9.77926 24.0883 10.01 22.8279C10.1668 21.9711 10.5396 20.6925 11.4546 19.6124Z"/>
</svg>
