<svg width="32" height="32" viewBox="0 0 32 32" xmlns="http://www.w3.org/2000/svg">
<path fill-rule="evenodd" clip-rule="evenodd" d="M10.6313 20.3732C12.194 19.4738 14.0807 19 16.0001 19C17.9196 19 19.8063 19.4738 21.369 20.3732C22.9311 21.2722 24.1189 22.5702 24.6693 24.1106C24.8551 24.6307 24.5841 25.203 24.064 25.3888C23.5439 25.5746 22.9717 25.3036 22.7858 24.7835C22.4246 23.7723 21.6036 22.8157 20.3714 22.1066C19.1398 21.3978 17.6028 21 16.0001 21C14.3975 21 12.8605 21.3978 11.6288 22.1066C10.3967 22.8157 9.57571 23.7723 9.21444 24.7835C9.02863 25.3036 8.45638 25.5746 7.93629 25.3888C7.4162 25.203 7.14522 24.6307 7.33103 24.1106C7.88136 22.5702 9.06914 21.2721 10.6313 20.3732Z" />
<path fill-rule="evenodd" clip-rule="evenodd" d="M16 9C14.3431 9 13 10.3431 13 12C13 13.6569 14.3431 15 16 15C17.6569 15 19 13.6569 19 12C19 10.3431 17.6569 9 16 9ZM11 12C11 9.23858 13.2386 7 16 7C18.7614 7 21 9.23858 21 12C21 14.7614 18.7614 17 16 17C13.2386 17 11 14.7614 11 12Z" />
</svg>
