<svg width="35" height="10" viewBox="0 0 35 10" xmlns="http://www.w3.org/2000/svg">
<path fill-rule="evenodd" clip-rule="evenodd" d="M1.74805 5C1.74805 4.44772 2.19576 4 2.74805 4H33.4097C33.962 4 34.4097 4.44772 34.4097 5C34.4097 5.55228 33.962 6 33.4097 6H2.74805C2.19576 6 1.74805 5.55228 1.74805 5Z"/>
<path fill-rule="evenodd" clip-rule="evenodd" d="M6.10045 0.277241C6.49962 0.658925 6.51379 1.29193 6.13211 1.6911L2.89033 5.0814L6.11485 8.29133C6.50626 8.68096 6.5077 9.31413 6.11806 9.70554C5.72842 10.0969 5.09526 10.0984 4.70385 9.70875L0.784734 5.80738C0.398882 5.42327 0.39121 4.80107 0.767474 4.40757L4.68659 0.308903C5.06827 -0.0902667 5.70128 -0.104442 6.10045 0.277241Z"/>
</svg>
