<svg width="32" height="32" viewBox="0 0 32 32" xmlns="http://www.w3.org/2000/svg">
<path fill-rule="evenodd" clip-rule="evenodd" d="M11.25 16.625C11.25 16.0727 11.6977 15.625 12.25 15.625L18.625 15.625C19.1773 15.625 19.625 16.0727 19.625 16.625C19.625 17.1773 19.1773 17.625 18.625 17.625L12.25 17.625C11.6977 17.625 11.25 17.1773 11.25 16.625Z"/>
<path fill-rule="evenodd" clip-rule="evenodd" d="M11.25 12.375C11.25 11.8227 11.6977 11.375 12.25 11.375L16.5 11.375C17.0523 11.375 17.5 11.8227 17.5 12.375C17.5 12.9273 17.0523 13.375 16.5 13.375L12.25 13.375C11.6977 13.375 11.25 12.9273 11.25 12.375Z"/>
<path fill-rule="evenodd" clip-rule="evenodd" d="M11.25 20.875C11.25 20.3227 11.6977 19.875 12.25 19.875L16.5 19.875C17.0523 19.875 17.5 20.3227 17.5 20.875C17.5 21.4273 17.0523 21.875 16.5 21.875L12.25 21.875C11.6977 21.875 11.25 21.4273 11.25 20.875Z"/>
<path fill-rule="evenodd" clip-rule="evenodd" d="M13.9294 5L14.375 5V7H14C12.5575 7 11.5763 7.00213 10.8414 7.10092C10.1354 7.19585 9.80836 7.36322 9.58579 7.58579C9.36322 7.80836 9.19585 8.13538 9.10092 8.84143C9.00213 9.57625 9 10.5575 9 12V19.125C9 20.5675 9.00213 21.5487 9.10092 22.2836C9.19585 22.9896 9.36322 23.3166 9.58579 23.5392C9.80836 23.7618 10.1354 23.9292 10.8414 24.0241C11.5763 24.1229 12.5575 24.125 14 24.125H16.875C18.3175 24.125 19.2988 24.1229 20.0336 24.0241C20.7396 23.9292 21.0666 23.7618 21.2892 23.5392C21.5118 23.3166 21.6792 22.9896 21.7741 22.2836C21.8729 21.5487 21.875 20.5675 21.875 19.125V16.625H23.875L23.875 19.1956C23.875 20.5497 23.8751 21.6663 23.7563 22.5501C23.6315 23.4779 23.3595 24.2973 22.7034 24.9534C22.0473 25.6095 21.2279 25.8815 20.3001 26.0063C19.4163 26.1251 18.2997 26.125 16.9455 26.125H13.9295C12.5753 26.125 11.4587 26.1251 10.5749 26.0063C9.64711 25.8815 8.82768 25.6095 8.17158 24.9534C7.51547 24.2973 7.2435 23.4779 7.11875 22.5501C6.99994 21.6663 6.99997 20.5497 7 19.1956V11.9294C6.99997 10.5753 6.99994 9.4587 7.11875 8.57494C7.2435 7.64711 7.51547 6.82768 8.17158 6.17158C8.82768 5.51547 9.64711 5.2435 10.5749 5.11875C11.4587 4.99994 12.5753 4.99997 13.9294 5Z"/>
<path fill-rule="evenodd" clip-rule="evenodd" d="M21.8125 5C22.3648 5 22.8125 5.44772 22.8125 6L22.8125 12.375C22.8125 12.9273 22.3648 13.375 21.8125 13.375C21.2602 13.375 20.8125 12.9273 20.8125 12.375L20.8125 6C20.8125 5.44772 21.2602 5 21.8125 5Z"/>
<path fill-rule="evenodd" clip-rule="evenodd" d="M26 9.1875C26 9.73978 25.5523 10.1875 25 10.1875L18.625 10.1875C18.0727 10.1875 17.625 9.73978 17.625 9.1875C17.625 8.63521 18.0727 8.1875 18.625 8.1875L25 8.1875C25.5523 8.1875 26 8.63522 26 9.1875Z"/>
</svg>
