<svg width="46" height="46" viewBox="0 0 46 46" fill="none" xmlns="http://www.w3.org/2000/svg">
<path d="M25.5921 7H18.1429C14.7757 7 13.0921 7 12.046 8.0414C11 9.0828 11 10.7589 11 14.1111V31.8889C11 35.2411 11 36.9172 12.046 37.9586C13.0921 39 14.7757 39 18.1429 39H28.8571C32.2243 39 33.9079 39 34.954 37.9586C36 36.9172 36 35.2411 36 31.8889V17.3616C36 16.635 36 16.2716 35.8641 15.9449C35.7281 15.6182 35.4701 15.3613 34.954 14.8475L28.1175 8.0414C27.6013 7.52757 27.3433 7.27065 27.0151 7.13533C26.687 7 26.322 7 25.5921 7Z" stroke="#4B5A73" stroke-width="2"/>
<path d="M25.2852 7V14.1111C25.2852 15.7872 25.2852 16.6253 25.8082 17.146C26.3312 17.6667 27.173 17.6667 28.8566 17.6667H35.9994" stroke="#4B5A73" stroke-width="2"/>
<path d="M27 25L23 22M23 22L19 25M23 22L23 32" stroke="#4B5A73" stroke-width="2" stroke-linecap="round" stroke-linejoin="round"/>
</svg>
