<svg width="32" height="32" viewBox="0 0 32 32" xmlns="http://www.w3.org/2000/svg">
<path fill-rule="evenodd" clip-rule="evenodd" d="M11.9342 6C11.956 6 11.978 6 12 6L21.0658 6C21.9523 5.99995 22.7161 5.99991 23.3278 6.08215C23.9833 6.17028 24.6117 6.36902 25.1213 6.87868C25.631 7.38835 25.8297 8.0167 25.9179 8.67221C26.0001 9.28388 26.0001 10.0477 26 10.9342V20.0658C26.0001 20.9523 26.0001 21.7161 25.9179 22.3278C25.8297 22.9833 25.631 23.6117 25.1213 24.1213C24.6117 24.631 23.9833 24.8297 23.3278 24.9179C22.7161 25.0001 21.9523 25.0001 21.0658 25H11.9342C11.0477 25.0001 10.2839 25.0001 9.67221 24.9179C9.0167 24.8297 8.38835 24.631 7.87868 24.1213C7.36902 23.6117 7.17028 22.9833 7.08215 22.3278C6.99991 21.7161 6.99995 20.9523 7 20.0658L7 11C7 10.978 7 10.956 7 10.9342C6.99995 10.0477 6.99991 9.28387 7.08215 8.67221C7.17028 8.0167 7.36902 7.38835 7.87868 6.87868C8.38835 6.36902 9.0167 6.17028 9.67221 6.08215C10.2839 5.99991 11.0477 5.99995 11.9342 6ZM9.93871 8.06431C9.50497 8.12263 9.36902 8.21677 9.2929 8.2929C9.21677 8.36902 9.12263 8.50497 9.06431 8.93871C9.00213 9.40121 9 10.0289 9 11V20C9 20.9711 9.00213 21.5988 9.06431 22.0613C9.12263 22.495 9.21677 22.631 9.2929 22.7071C9.36902 22.7832 9.50497 22.8774 9.93871 22.9357C10.4012 22.9979 11.0289 23 12 23H21C21.9711 23 22.5988 22.9979 23.0613 22.9357C23.495 22.8774 23.631 22.7832 23.7071 22.7071C23.7832 22.631 23.8774 22.495 23.9357 22.0613C23.9979 21.5988 24 20.9711 24 20V11C24 10.0289 23.9979 9.40121 23.9357 8.93871C23.8774 8.50497 23.7832 8.36902 23.7071 8.2929C23.631 8.21677 23.495 8.12263 23.0613 8.06431C22.5988 8.00213 21.9711 8 21 8H12C11.0289 8 10.4012 8.00213 9.93871 8.06431Z"/>
<path fill-rule="evenodd" clip-rule="evenodd" d="M12.1694 11.8834C12.0079 11.8027 11.804 11.7779 10.7222 11.7779H8V9.77786H10.7222C10.7785 9.77786 10.8344 9.77776 10.8898 9.77766C11.7022 9.77619 12.4245 9.77488 13.0639 10.0946C13.7033 10.4143 14.1356 10.9929 14.6218 11.6437C14.655 11.6881 14.6884 11.7328 14.7222 11.7779L15.1556 12.3556C15.8046 13.2211 15.9468 13.3693 16.1083 13.4501C16.2699 13.5308 16.4737 13.5556 17.5556 13.5556H22.1667C23.0236 13.5556 23.2045 13.5423 23.3214 13.5026C23.6158 13.4026 23.847 13.1715 23.9469 12.8771C23.9866 12.7602 24 12.5792 24 11.7223H26C26 11.7694 26.0001 11.816 26.0001 11.8621C26.001 12.497 26.0017 13.046 25.8408 13.52C25.541 14.4031 24.8475 15.0966 23.9643 15.3964C23.4903 15.5573 22.9413 15.5566 22.3065 15.5558C22.2603 15.5557 22.2137 15.5556 22.1667 15.5556H17.5556C17.4993 15.5556 17.4434 15.5557 17.3879 15.5558C16.5755 15.5573 15.8533 15.5586 15.2139 15.2389C14.5745 14.9192 14.1422 14.3407 13.656 13.6898C13.6228 13.6454 13.5893 13.6007 13.5556 13.5556L13.1222 12.9779C12.4731 12.1124 12.331 11.9642 12.1694 11.8834Z"/>
<path fill-rule="evenodd" clip-rule="evenodd" d="M10.7769 19.2778C10.7769 18.7255 11.2246 18.2778 11.7769 18.2778H19.3324C19.8847 18.2778 20.3324 18.7255 20.3324 19.2778C20.3324 19.8301 19.8847 20.2778 19.3324 20.2778H11.7769C11.2246 20.2778 10.7769 19.8301 10.7769 19.2778Z"/>
</svg>
