<svg width="32" height="32" viewBox="0 0 32 32" xmlns="http://www.w3.org/2000/svg">
<path fill-rule="evenodd" clip-rule="evenodd" d="M13.875 11.5C13.875 10.9477 14.3227 10.5 14.875 10.5L25 10.5C25.5523 10.5 26 10.9477 26 11.5C26 12.0523 25.5523 12.5 25 12.5L14.875 12.5C14.3227 12.5 13.875 12.0523 13.875 11.5Z"/>
<path fill-rule="evenodd" clip-rule="evenodd" d="M6 20.5C6 19.9477 6.44772 19.5 7 19.5L18.25 19.5C18.8023 19.5 19.25 19.9477 19.25 20.5C19.25 21.0523 18.8023 21.5 18.25 21.5L7 21.5C6.44772 21.5 6 21.0523 6 20.5Z"/>
<path fill-rule="evenodd" clip-rule="evenodd" d="M12.75 11.5C12.75 10.1883 11.6867 9.125 10.375 9.125C9.06332 9.125 8 10.1883 8 11.5C8 12.8117 9.06332 13.875 10.375 13.875C11.6867 13.875 12.75 12.8117 12.75 11.5ZM10.375 7.125C12.7912 7.125 14.75 9.08375 14.75 11.5C14.75 13.9162 12.7912 15.875 10.375 15.875C7.95875 15.875 6 13.9162 6 11.5C6 9.08375 7.95875 7.125 10.375 7.125Z"/>
<path fill-rule="evenodd" clip-rule="evenodd" d="M24 20.5C24 19.1883 22.9367 18.125 21.625 18.125C20.3133 18.125 19.25 19.1883 19.25 20.5C19.25 21.8117 20.3133 22.875 21.625 22.875C22.9367 22.875 24 21.8117 24 20.5ZM21.625 16.125C24.0412 16.125 26 18.0838 26 20.5C26 22.9162 24.0412 24.875 21.625 24.875C19.2088 24.875 17.25 22.9162 17.25 20.5C17.25 18.0838 19.2088 16.125 21.625 16.125Z"/>
</svg>
