<svg width="32" height="32" viewBox="0 0 32 32" xmlns="http://www.w3.org/2000/svg">
<path fill-rule="evenodd" clip-rule="evenodd" d="M10.911 11.0376C10.4726 11.0734 10.2484 11.1383 10.092 11.218C9.7157 11.4097 9.40973 11.7157 9.21799 12.092C9.1383 12.2484 9.07337 12.4726 9.03755 12.911C9.00078 13.3611 9 13.9434 9 14.8V23.5858L11 21.5858C11.3751 21.2107 11.8838 21 12.4142 21H19.2C20.0566 21 20.6389 20.9992 21.089 20.9625C21.5274 20.9266 21.7516 20.8617 21.908 20.782C22.2843 20.5903 22.5903 20.2843 22.782 19.908C22.8617 19.7516 22.9266 19.5274 22.9625 19.089C22.9992 18.6389 23 18.0566 23 17.2V14.8C23 13.9434 22.9992 13.3611 22.9625 12.911C22.9266 12.4726 22.8617 12.2484 22.782 12.092C22.5903 11.7157 22.2843 11.4097 21.908 11.218C21.7516 11.1383 21.5274 11.0734 21.089 11.0376C20.6389 11.0008 20.0566 11 19.2 11H12.8C11.9434 11 11.3611 11.0008 10.911 11.0376ZM12.7587 9H19.2413C20.0463 8.99999 20.7106 8.99998 21.2518 9.04419C21.8139 9.09012 22.3306 9.18868 22.816 9.43597C23.5686 9.81947 24.1805 10.4314 24.564 11.184C24.8113 11.6694 24.9099 12.1861 24.9558 12.7482C25 13.2894 25 13.9537 25 14.7587V17.2413C25 18.0463 25 18.7106 24.9558 19.2518C24.9099 19.8139 24.8113 20.3306 24.564 20.816C24.1805 21.5686 23.5686 22.1805 22.816 22.564C22.3306 22.8113 21.8139 22.9099 21.2518 22.9558C20.7106 23 20.0463 23 19.2413 23H12.4142L9.4753 25.9389C8.56185 26.8524 7 26.2054 7 24.9136L7 14.7587C6.99999 13.9537 6.99998 13.2894 7.04419 12.7482C7.09012 12.1861 7.18868 11.6694 7.43597 11.184C7.81947 10.4314 8.43139 9.81947 9.18404 9.43597C9.66937 9.18868 10.1861 9.09012 10.7482 9.04419C11.2894 8.99998 11.9537 8.99999 12.7587 9Z" />
<path fill-rule="evenodd" clip-rule="evenodd" d="M11 14C11 13.4477 11.4477 13 12 13L20 13C20.5523 13 21 13.4477 21 14C21 14.5523 20.5523 15 20 15L12 15C11.4477 15 11 14.5523 11 14Z" />
<path fill-rule="evenodd" clip-rule="evenodd" d="M11 18C11 17.4477 11.4477 17 12 17L17 17C17.5523 17 18 17.4477 18 18C18 18.5523 17.5523 19 17 19L12 19C11.4477 19 11 18.5523 11 18Z" />
</svg>
