<svg width="32" height="33" viewBox="0 0 32 33" xmlns="http://www.w3.org/2000/svg">
<path fill-rule="evenodd" clip-rule="evenodd" d="M19.0398 4.89117C19.0037 4.87625 18.9496 4.85855 18.284 4.85855H12.3246C10.9495 4.85855 10.0187 4.86067 9.32283 4.95423C8.65567 5.04393 8.35595 5.20084 8.1543 5.40249C7.95265 5.60414 7.79574 5.90387 7.70604 6.57102C7.61248 7.26693 7.61035 8.19769 7.61035 9.57283V23.8585C7.61035 25.2337 7.61248 26.1644 7.70604 26.8604C7.79574 27.5275 7.95265 27.8272 8.1543 28.0289C8.35595 28.2305 8.65567 28.3874 9.32283 28.4771C10.0187 28.5707 10.9495 28.5728 12.3246 28.5728H20.8961C22.2712 28.5728 23.202 28.5707 23.8979 28.4771C24.565 28.3874 24.8648 28.2305 25.0664 28.0289C25.2681 27.8272 25.425 27.5275 25.5147 26.8604C25.6082 26.1644 25.6104 25.2337 25.6104 23.8585V12.1849C25.6104 11.5193 25.5927 11.4652 25.5777 11.4291C25.5628 11.3931 25.537 11.3423 25.0664 10.8717L19.5972 5.40249C19.1266 4.93189 19.0758 4.90609 19.0398 4.89117ZM18.3962 2.85835C18.8647 2.85713 19.3524 2.85586 19.8051 3.04341C20.2579 3.23096 20.6019 3.57669 20.9323 3.90883C20.9587 3.93543 20.9851 3.96194 21.0114 3.98828L26.4806 9.45746C26.507 9.48379 26.5335 9.51016 26.5601 9.53662C26.8922 9.86704 27.2379 10.211 27.4255 10.6638C27.613 11.1165 27.6118 11.6042 27.6106 12.0727C27.6105 12.1102 27.6104 12.1476 27.6104 12.1849V23.9286C27.6104 25.2158 27.6104 26.282 27.4968 27.1269C27.3773 28.0158 27.1158 28.8079 26.4806 29.4431C25.8454 30.0783 25.0533 30.3398 24.1644 30.4593C23.3195 30.5729 22.2533 30.5729 20.9661 30.5728H12.2546C10.9674 30.5729 9.90121 30.5729 9.05633 30.4593C8.1674 30.3398 7.37527 30.0783 6.74009 29.4431C6.1049 28.8079 5.84339 28.0158 5.72388 27.1269C5.61029 26.282 5.61032 25.2158 5.61035 23.9286V9.50276C5.61032 8.21558 5.61029 7.1494 5.72388 6.30452C5.84339 5.41559 6.1049 4.62346 6.74009 3.98828C7.37527 3.35309 8.1674 3.09158 9.05633 2.97207C9.90121 2.85848 10.9674 2.85851 12.2546 2.85854L18.284 2.85855C18.3213 2.85855 18.3587 2.85845 18.3962 2.85835Z" />
<path fill-rule="evenodd" clip-rule="evenodd" d="M11.3247 18.1445C11.3247 17.5922 11.7724 17.1445 12.3247 17.1445L20.8961 17.1445C21.4484 17.1445 21.8961 17.5922 21.8961 18.1445C21.8961 18.6968 21.4484 19.1445 20.8961 19.1445L12.3247 19.1445C11.7724 19.1445 11.3247 18.6968 11.3247 18.1445Z" />
<path fill-rule="evenodd" clip-rule="evenodd" d="M11.3247 23.8586C11.3247 23.3064 11.7724 22.8586 12.3247 22.8586L18.039 22.8586C18.5913 22.8586 19.039 23.3064 19.039 23.8586C19.039 24.4109 18.5913 24.8586 18.039 24.8586L12.3247 24.8586C11.7724 24.8586 11.3247 24.4109 11.3247 23.8586Z" />
<path fill-rule="evenodd" clip-rule="evenodd" d="M18.0391 2.85864C18.5914 2.85864 19.0391 3.30636 19.0391 3.85864V9.57293C19.0391 10.2746 19.0412 10.7003 19.0825 11.0072C19.1015 11.1489 19.1245 11.2244 19.1404 11.263C19.1525 11.2926 19.1601 11.3001 19.1642 11.3041L19.1646 11.3045L19.165 11.305C19.1691 11.3091 19.1766 11.3166 19.2061 11.3288C19.2447 11.3446 19.3202 11.3676 19.4619 11.3867C19.7688 11.4279 20.1945 11.4301 20.8962 11.4301H26.6105C27.1628 11.4301 27.6105 11.8778 27.6105 12.4301C27.6105 12.9824 27.1628 13.4301 26.6105 13.4301H20.8962C20.8759 13.4301 20.8556 13.4301 20.8354 13.4301C20.2143 13.4301 19.6517 13.4302 19.1954 13.3689C18.6955 13.3016 18.1764 13.1447 17.7504 12.7188C17.3244 12.2928 17.1675 11.7736 17.1003 11.2737C17.0389 10.8174 17.039 10.2548 17.0391 9.63375C17.0391 9.61353 17.0391 9.59326 17.0391 9.57293V3.85864C17.0391 3.30636 17.4868 2.85864 18.0391 2.85864Z" />
</svg>
