<svg width="32" height="32" viewBox="0 0 32 32" xmlns="http://www.w3.org/2000/svg">
<path fill-rule="evenodd" clip-rule="evenodd" d="M15.0528 7.10557C15.3343 6.96481 15.6657 6.96481 15.9472 7.10557L25.4472 11.8556C25.786 12.025 26 12.3712 26 12.75C26 13.1288 25.786 13.475 25.4472 13.6444L15.9472 18.3944C15.6657 18.5352 15.3343 18.5352 15.0528 18.3944L5.55279 13.6444C5.214 13.475 5 13.1288 5 12.75C5 12.3712 5.214 12.025 5.55279 11.8556L15.0528 7.10557ZM8.23607 12.75L15.5 16.382L22.7639 12.75L15.5 9.11803L8.23607 12.75Z" />
<path fill-rule="evenodd" clip-rule="evenodd" d="M9.5625 14.125C10.1148 14.125 10.5625 14.5727 10.5625 15.125V20.8738C10.5693 20.8863 10.5772 20.9002 10.5864 20.9153C10.6558 21.0298 10.8036 21.2274 11.0985 21.4436C11.6863 21.8747 12.9416 22.4375 15.5 22.4375C18.0584 22.4375 19.3137 21.8747 19.9015 21.4436C20.1964 21.2274 20.3442 21.0298 20.4136 20.9153C20.4228 20.9002 20.4307 20.8863 20.4375 20.8738V15.125C20.4375 14.5727 20.8852 14.125 21.4375 14.125C21.9898 14.125 22.4375 14.5727 22.4375 15.125V21.0625C22.4375 21.1371 22.4292 21.2114 22.4126 21.2841L21.4375 21.0625C22.4126 21.2841 22.4124 21.2852 22.4122 21.2862L22.4117 21.2884L22.4106 21.2928L22.4083 21.3025L22.4027 21.3245C22.3985 21.3404 22.3934 21.3587 22.3871 21.3792C22.3747 21.4202 22.3579 21.4701 22.3355 21.5276C22.2907 21.6426 22.2235 21.7878 22.124 21.9519C21.9235 22.2827 21.5991 22.6789 21.0843 23.0564C20.0528 23.8128 18.3393 24.4375 15.5 24.4375C12.6607 24.4375 10.9472 23.8128 9.91574 23.0564C9.40092 22.6789 9.07648 22.2827 8.87598 21.9519C8.77652 21.7878 8.70928 21.6426 8.66446 21.5276C8.64206 21.4701 8.62528 21.4202 8.61286 21.3792C8.60664 21.3587 8.60152 21.3404 8.59732 21.3245L8.59171 21.3025L8.58939 21.2928L8.58834 21.2884L8.58784 21.2862C8.5876 21.2852 8.58737 21.2841 9.5625 21.0625L8.58737 21.2841C8.57084 21.2114 8.5625 21.1371 8.5625 21.0625V15.125C8.5625 14.5727 9.01022 14.125 9.5625 14.125Z" />
</svg>
