<svg width="32" height="23" viewBox="0 0 32 23" xmlns="http://www.w3.org/2000/svg">
<path fill-rule="evenodd" clip-rule="evenodd" d="M16.0002 16.6029C18.5775 16.6029 20.6668 14.5135 20.6668 11.9362C20.6668 9.35887 18.5775 7.26953 16.0002 7.26953C13.4228 7.26953 11.3335 9.35887 11.3335 11.9362C11.3335 14.5135 13.4228 16.6029 16.0002 16.6029ZM16.0002 18.6029C19.6821 18.6029 22.6668 15.6181 22.6668 11.9362C22.6668 8.2543 19.6821 5.26953 16.0002 5.26953C12.3183 5.26953 9.3335 8.2543 9.3335 11.9362C9.3335 15.6181 12.3183 18.6029 16.0002 18.6029Z" />
<path fill-rule="evenodd" clip-rule="evenodd" d="M7.7866 6.22056C5.40346 8.05686 3.55992 10.2158 2.58235 11.473C2.4849 11.5983 2.41089 11.6936 2.34934 11.7774C2.29617 11.8498 2.26271 11.8996 2.24098 11.9355C2.26271 11.9715 2.29617 12.0213 2.34934 12.0937C2.41088 12.1775 2.4849 12.2728 2.58235 12.3981C3.55992 13.6553 5.40346 15.8142 7.7866 17.6505C10.1818 19.4961 13.0175 20.9355 15.9999 20.9355C18.9823 20.9355 21.8181 19.4961 24.2133 17.6505C26.5964 15.8142 28.4399 13.6553 29.4175 12.3981C29.515 12.2728 29.589 12.1775 29.6505 12.0937C29.7037 12.0213 29.7372 11.9715 29.7589 11.9355C29.7372 11.8996 29.7037 11.8498 29.6505 11.7774C29.589 11.6936 29.515 11.5983 29.4175 11.473C28.4399 10.2158 26.5964 8.05687 24.2133 6.22056C21.8181 4.37498 18.9823 2.93555 15.9999 2.93555C13.0175 2.93555 10.1818 4.37498 7.7866 6.22056ZM6.56588 4.63631C9.1229 2.66603 12.3861 0.935547 15.9999 0.935547C19.6137 0.935547 22.877 2.66604 25.434 4.63631C28.003 6.61587 29.9649 8.91875 30.9964 10.2453C31.0202 10.2759 31.0451 10.3075 31.0707 10.3399C31.3731 10.7234 31.7772 11.236 31.7772 11.9355C31.7772 12.6351 31.3731 13.1477 31.0707 13.5312C31.0451 13.5636 31.0202 13.5952 30.9964 13.6258C29.9649 14.9523 28.003 17.2552 25.434 19.2348C22.877 21.2051 19.6137 22.9355 15.9999 22.9355C12.3861 22.9355 9.1229 21.2051 6.56588 19.2348C3.99683 17.2552 2.03497 14.9523 1.00349 13.6258C0.979663 13.5952 0.954796 13.5636 0.929201 13.5312C0.6268 13.1476 0.222656 12.6351 0.222656 11.9355C0.222656 11.236 0.626802 10.7234 0.929203 10.3399C0.954798 10.3075 0.979665 10.2759 1.0035 10.2453C2.03497 8.91875 3.99683 6.61586 6.56588 4.63631Z" />
</svg>
