<svg width="32" height="33" viewBox="0 0 32 33" xmlns="http://www.w3.org/2000/svg">
<path fill-rule="evenodd" clip-rule="evenodd" d="M13.5493 5.65552C12.6637 6.25849 11.6203 7.17807 10.1366 8.48916L8.56517 9.87779C6.87861 11.3681 6.27736 11.9273 5.95499 12.6499C5.6308 13.3766 5.61045 14.2195 5.61045 16.5087V23.3784C5.61045 24.9332 5.61245 26.0018 5.71712 26.8044C5.81843 27.5813 5.9998 27.9567 6.24877 28.2134C6.49362 28.4658 6.84561 28.647 7.58489 28.7495C8.35615 28.8564 9.38549 28.8586 10.8962 28.8586H20.3247C21.8354 28.8586 22.8648 28.8564 23.636 28.7495C24.3753 28.647 24.7273 28.4658 24.9721 28.2134C25.2211 27.9567 25.4025 27.5813 25.5038 26.8044C25.6085 26.0018 25.6105 24.9332 25.6105 23.3784V16.5087C25.6105 14.2195 25.5901 13.3766 25.2659 12.6499C24.9435 11.9273 24.3423 11.3681 22.6557 9.87779L21.0843 8.48916C19.6006 7.17807 18.5572 6.25849 17.6716 5.65552C16.8086 5.06793 16.2037 4.85864 15.6105 4.85864C15.0172 4.85864 14.4123 5.06793 13.5493 5.65552ZM12.4237 4.00236C13.4607 3.29621 14.4598 2.85864 15.6105 2.85864C16.7611 2.85864 17.7602 3.29621 18.7972 4.00236C19.7996 4.68488 20.9369 5.68987 22.3572 6.94502L23.9801 8.37909C24.0355 8.42809 24.0903 8.47646 24.1444 8.52422C25.6056 9.81448 26.5715 10.6674 27.0924 11.835C27.6116 12.9989 27.6112 14.3022 27.6105 16.2863C27.6105 16.3595 27.6105 16.4336 27.6105 16.5087V23.4479C27.6105 24.9162 27.6105 26.1158 27.487 27.063C27.3582 28.0508 27.0793 28.9136 26.4077 29.6059C25.732 30.3025 24.883 30.5958 23.9106 30.7305C22.9859 30.8587 21.8171 30.8587 20.3976 30.8586H10.8233C9.40379 30.8587 8.23496 30.8587 7.3103 30.7305C6.3379 30.5958 5.48885 30.3025 4.81317 29.6059C4.14163 28.9136 3.86273 28.0508 3.73391 27.063C3.6104 26.1159 3.61042 24.9162 3.61045 23.4479L3.61045 16.5087C3.61045 16.4336 3.61043 16.3595 3.6104 16.2863C3.60971 14.3022 3.60926 12.9989 4.12851 11.835C4.64944 10.6674 5.61532 9.81448 7.0765 8.52422C7.13059 8.47646 7.18536 8.42809 7.24081 8.37909L8.86368 6.94501C10.284 5.68986 11.4213 4.68488 12.4237 4.00236Z" />
<path fill-rule="evenodd" clip-rule="evenodd" d="M10.6104 20.8586C10.6104 19.7541 11.5058 18.8586 12.6104 18.8586H18.6104C19.7149 18.8586 20.6104 19.7541 20.6104 20.8586V29.8586C20.6104 30.4109 20.1626 30.8586 19.6104 30.8586C19.0581 30.8586 18.6104 30.4109 18.6104 29.8586V20.8586H12.6104V29.8586C12.6104 30.4109 12.1626 30.8586 11.6104 30.8586C11.0581 30.8586 10.6104 30.4109 10.6104 29.8586V20.8586Z" />
</svg>
