<svg width="32" height="32" viewBox="0 0 32 32" xmlns="http://www.w3.org/2000/svg">
<path fill-rule="evenodd" clip-rule="evenodd" d="M11.7008 7.14258L11.75 7.14258V9.14258C10.9768 9.14258 10.4722 9.14379 10.0908 9.18259C9.72608 9.21969 9.58647 9.28271 9.50792 9.33519C9.38314 9.41857 9.27599 9.52571 9.19261 9.6505C9.14013 9.72904 9.07711 9.86866 9.04001 10.2333C9.00121 10.6147 9 11.1194 9 11.8926V22.0712C9 23.1096 9.00213 23.7878 9.06954 24.2892C9.13309 24.7618 9.23769 24.9251 9.33474 25.0221C9.43178 25.1192 9.59503 25.2238 10.0677 25.2873C10.5691 25.3547 11.2473 25.3569 12.2857 25.3569H18.7143C19.7527 25.3569 20.4309 25.3547 20.9323 25.2873C21.405 25.2238 21.5682 25.1192 21.6653 25.0221C21.7623 24.9251 21.8669 24.7618 21.9305 24.2892C21.9979 23.7878 22 23.1096 22 22.0712V11.8926C22 11.1194 21.9988 10.6147 21.96 10.2333C21.9229 9.86866 21.8599 9.72904 21.8074 9.6505C21.724 9.52571 21.6169 9.41857 21.4921 9.33519C21.4135 9.28271 21.2739 9.21969 20.9092 9.18259C20.5278 9.14379 20.0232 9.14258 19.25 9.14258V7.14258L19.2992 7.14258C20.0096 7.14255 20.6169 7.14253 21.1116 7.19286C21.6345 7.24604 22.1413 7.36359 22.6032 7.67225C22.9464 7.90155 23.241 8.19619 23.4703 8.53936C23.779 9.0013 23.8965 9.50811 23.9497 10.0309C24.0001 10.5257 24 11.133 24 11.8433L24 22.1379C24.0001 23.091 24.0001 23.9052 23.9126 24.5557C23.8193 25.2501 23.6101 25.9058 23.0795 26.4363C22.5489 26.9669 21.8933 27.1761 21.1988 27.2695C20.5483 27.357 19.7342 27.3569 18.7811 27.3569H12.219C11.2659 27.3569 10.4517 27.357 9.80117 27.2695C9.10676 27.1761 8.45111 26.9669 7.92053 26.4363C7.38994 25.9058 7.18074 25.2501 7.08738 24.5557C6.99991 23.9052 6.99996 23.091 7 22.1379L7 11.8434C6.99998 11.133 6.99995 10.5257 7.05028 10.0309C7.10347 9.50811 7.22102 9.0013 7.52967 8.53936C7.75897 8.19619 8.05361 7.90155 8.39678 7.67225C8.85872 7.36359 9.36554 7.24604 9.88836 7.19286C10.3831 7.14253 10.9904 7.14255 11.7008 7.14258Z" />
<path fill-rule="evenodd" clip-rule="evenodd" d="M11.2856 8.14286C11.2856 6.40711 12.6927 5 14.4285 5H16.5714C18.3071 5 19.7142 6.40711 19.7142 8.14286C19.7142 9.87861 18.3071 11.2857 16.5714 11.2857H14.4285C12.6927 11.2857 11.2856 9.87861 11.2856 8.14286ZM14.4285 7C13.7973 7 13.2856 7.51167 13.2856 8.14286C13.2856 8.77404 13.7973 9.28571 14.4285 9.28571H16.5714C17.2025 9.28571 17.7142 8.77404 17.7142 8.14286C17.7142 7.51167 17.2025 7 16.5714 7H14.4285Z" />
<path fill-rule="evenodd" clip-rule="evenodd" d="M11.2856 15.6426C11.2856 15.0903 11.7334 14.6426 12.2856 14.6426L18.7142 14.6426C19.2665 14.6426 19.7142 15.0903 19.7142 15.6426C19.7142 16.1949 19.2665 16.6426 18.7142 16.6426L12.2856 16.6426C11.7334 16.6426 11.2856 16.1949 11.2856 15.6426Z" />
<path fill-rule="evenodd" clip-rule="evenodd" d="M11.2856 19.9287C11.2856 19.3764 11.7334 18.9287 12.2856 18.9287L16.5714 18.9287C17.1236 18.9287 17.5714 19.3764 17.5714 19.9287C17.5714 20.481 17.1236 20.9287 16.5714 20.9287L12.2856 20.9287C11.7334 20.9287 11.2856 20.481 11.2856 19.9287Z" />
</svg>
