<svg width="32" height="32" viewBox="0 0 32 32" xmlns="http://www.w3.org/2000/svg">
<path fill-rule="evenodd" clip-rule="evenodd" d="M9.94561 11C9.96372 11 9.98186 11 10 11H22C22.0182 11 22.0363 11 22.0544 11C22.4785 10.9999 22.8906 10.9998 23.2305 11.0455C23.6137 11.0971 24.051 11.2226 24.4142 11.5858C24.7774 11.949 24.903 12.3863 24.9545 12.7695C25.0002 13.1094 25.0001 13.5215 25 13.9456C25 13.9637 25 13.9819 25 14V16C25 17.1046 24.1046 18 23 18V24C23 24.0182 23 24.0363 23 24.0544C23.0001 24.4785 23.0002 24.8906 22.9545 25.2305C22.903 25.6137 22.7774 26.051 22.4142 26.4142C22.051 26.7774 21.6137 26.903 21.2305 26.9545C20.8906 27.0002 20.4785 27.0001 20.0544 27C20.0363 27 20.0182 27 20 27H12C11.9819 27 11.9637 27 11.9456 27C11.5215 27.0001 11.1094 27.0002 10.7695 26.9545C10.3863 26.903 9.94902 26.7774 9.5858 26.4142C9.22259 26.051 9.09706 25.6137 9.04554 25.2305C8.99984 24.8906 8.99992 24.4785 9.00001 24.0544C9.00001 24.0363 9.00001 24.0182 9.00001 24V18C7.89544 18 7.00001 17.1046 7.00001 16V14C7.00001 13.9819 7.00001 13.9637 7.00001 13.9456C6.99992 13.5215 6.99984 13.1094 7.04554 12.7695C7.09706 12.3863 7.22259 11.949 7.5858 11.5858C7.94902 11.2226 8.38629 11.0971 8.76949 11.0455C9.10941 10.9998 9.52154 10.9999 9.94561 11ZM9.02871 13.0287C9.02838 13.0311 9.02804 13.0335 9.02771 13.036C9.00214 13.2262 9.00001 13.5003 9.00001 14V16C10.1046 16 11 16.8954 11 18V24C11 24.4997 11.0021 24.7738 11.0277 24.964C11.028 24.9665 11.0284 24.9689 11.0287 24.9713C11.0311 24.9717 11.0335 24.972 11.036 24.9723C11.2262 24.9979 11.5003 25 12 25H20C20.4997 25 20.7738 24.9979 20.964 24.9723C20.9665 24.972 20.9689 24.9717 20.9713 24.9713C20.9717 24.9689 20.972 24.9665 20.9723 24.964C20.9979 24.7738 21 24.4997 21 24V18C21 16.8954 21.8954 16 23 16V14C23 13.5003 22.9979 13.2262 22.9723 13.036C22.972 13.0335 22.9717 13.0311 22.9713 13.0287C22.9689 13.0284 22.9665 13.028 22.964 13.0277C22.7738 13.0021 22.4997 13 22 13H10C9.50034 13 9.22618 13.0021 9.03599 13.0277C9.03351 13.028 9.03108 13.0284 9.02871 13.0287Z" />
<path fill-rule="evenodd" clip-rule="evenodd" d="M8 17C8 16.4477 8.44772 16 9 16H23C23.5523 16 24 16.4477 24 17C24 17.5523 23.5523 18 23 18H9C8.44772 18 8 17.5523 8 17Z" />
<path fill-rule="evenodd" clip-rule="evenodd" d="M16 10C16.5523 10 17 10.4477 17 11L17 26C17 26.5523 16.5523 27 16 27C15.4477 27 15 26.5523 15 26L15 11C15 10.4477 15.4477 10 16 10Z" />
<path fill-rule="evenodd" clip-rule="evenodd" d="M11.0084 8.72356C10.5123 8.5582 10 8.92744 10 9.45036V9.63247C10 10.0187 10.2472 10.3616 10.6136 10.4838L12.3162 11.0513C12.8402 11.226 13.1233 11.7923 12.9487 12.3162C12.774 12.8402 12.2077 13.1233 11.6838 12.9487L9.98114 12.3812C8.79802 11.9868 8 10.8796 8 9.63247V9.45036C8 7.56233 9.84969 6.22915 11.6408 6.8262C13.2187 7.35216 14.6525 8.23827 15.8286 9.41435L16.7071 10.2929C17.0976 10.6834 17.0976 11.3166 16.7071 11.7071C16.3166 12.0976 15.6834 12.0976 15.2929 11.7071L14.4143 10.8286C13.4578 9.87203 12.2917 9.15134 11.0084 8.72356Z" />
<path fill-rule="evenodd" clip-rule="evenodd" d="M20.9916 8.72356C21.4877 8.5582 22 8.92744 22 9.45036V9.63247C22 10.0187 21.7528 10.3616 21.3864 10.4838L19.6838 11.0513C19.1598 11.226 18.8767 11.7923 19.0513 12.3162C19.226 12.8402 19.7923 13.1233 20.3162 12.9487L22.0189 12.3812C23.202 11.9868 24 10.8796 24 9.63247V9.45036C24 7.56233 22.1503 6.22915 20.3592 6.8262C18.7813 7.35216 17.3475 8.23827 16.1714 9.41435L15.2929 10.2929C14.9024 10.6834 14.9024 11.3166 15.2929 11.7071C15.6834 12.0976 16.3166 12.0976 16.7071 11.7071L17.5857 10.8286C18.5422 9.87203 19.7083 9.15134 20.9916 8.72356Z" />
</svg>
