<svg width="32" height="32" viewBox="0 0 32 32" xmlns="http://www.w3.org/2000/svg">
<path fill-rule="evenodd" clip-rule="evenodd" d="M8.94561 6.00001C8.96372 6.00001 8.98186 6.00001 9.00001 6.00001H11.75C11.7682 6.00001 11.7863 6.00001 11.8044 6.00001C12.2285 5.99992 12.6406 5.99984 12.9805 6.04554C13.3637 6.09706 13.801 6.22259 14.1642 6.5858C14.5274 6.94902 14.653 7.38629 14.7045 7.76949C14.7502 8.10941 14.7501 8.52154 14.75 8.9456C14.75 8.96372 14.75 8.98186 14.75 9.00001V11.75C14.75 11.7682 14.75 11.7863 14.75 11.8044C14.7501 12.2285 14.7502 12.6406 14.7045 12.9805C14.653 13.3637 14.5274 13.801 14.1642 14.1642C13.801 14.5274 13.3637 14.653 12.9805 14.7045C12.6406 14.7502 12.2285 14.7501 11.8044 14.75C11.7863 14.75 11.7682 14.75 11.75 14.75H9.00001C8.98186 14.75 8.96372 14.75 8.9456 14.75C8.52153 14.7501 8.10941 14.7502 7.76949 14.7045C7.38629 14.653 6.94902 14.5274 6.5858 14.1642C6.22259 13.801 6.09706 13.3637 6.04554 12.9805C5.99984 12.6406 5.99992 12.2285 6.00001 11.8044C6.00001 11.7863 6.00001 11.7682 6.00001 11.75V9.00001C6.00001 8.98186 6.00001 8.96372 6.00001 8.94561C5.99992 8.52154 5.99984 8.10941 6.04554 7.76949C6.09706 7.38629 6.22259 6.94902 6.5858 6.5858C6.94902 6.22259 7.38629 6.09706 7.76949 6.04554C8.10941 5.99984 8.52154 5.99992 8.94561 6.00001ZM8.02871 8.02871C8.02838 8.03108 8.02804 8.03351 8.02771 8.03599C8.00214 8.22618 8.00001 8.50034 8.00001 9.00001V11.75C8.00001 12.2497 8.00214 12.5238 8.02771 12.714C8.02804 12.7165 8.02838 12.7189 8.02871 12.7213C8.03108 12.7217 8.03351 12.722 8.03599 12.7223C8.22618 12.7479 8.50034 12.75 9.00001 12.75H11.75C12.2497 12.75 12.5238 12.7479 12.714 12.7223C12.7165 12.722 12.7189 12.7217 12.7213 12.7213C12.7217 12.7189 12.722 12.7165 12.7223 12.714C12.7479 12.5238 12.75 12.2497 12.75 11.75V9.00001C12.75 8.50034 12.7479 8.22618 12.7223 8.03599C12.722 8.03351 12.7217 8.03108 12.7213 8.02871C12.7189 8.02838 12.7165 8.02804 12.714 8.02771C12.5238 8.00214 12.2497 8.00001 11.75 8.00001H9.00001C8.50034 8.00001 8.22618 8.00214 8.03599 8.02771C8.03351 8.02804 8.03108 8.02837 8.02871 8.02871Z"/>
<path fill-rule="evenodd" clip-rule="evenodd" d="M8.94561 17.25C8.96372 17.25 8.98186 17.25 9.00001 17.25H11.75C11.7682 17.25 11.7863 17.25 11.8044 17.25C12.2285 17.2499 12.6406 17.2498 12.9805 17.2955C13.3637 17.3471 13.801 17.4726 14.1642 17.8358C14.5274 18.199 14.653 18.6363 14.7045 19.0195C14.7502 19.3594 14.7501 19.7715 14.75 20.1956C14.75 20.2137 14.75 20.2319 14.75 20.25V23C14.75 23.0182 14.75 23.0363 14.75 23.0544C14.7501 23.4785 14.7502 23.8906 14.7045 24.2305C14.653 24.6137 14.5274 25.051 14.1642 25.4142C13.801 25.7774 13.3637 25.903 12.9805 25.9545C12.6406 26.0002 12.2285 26.0001 11.8044 26C11.7863 26 11.7682 26 11.75 26H9.00001C8.98186 26 8.96372 26 8.9456 26C8.52153 26.0001 8.10941 26.0002 7.76949 25.9545C7.38629 25.903 6.94902 25.7774 6.5858 25.4142C6.22259 25.051 6.09706 24.6137 6.04554 24.2305C5.99984 23.8906 5.99992 23.4785 6.00001 23.0544C6.00001 23.0363 6.00001 23.0182 6.00001 23V20.25C6.00001 20.2319 6.00001 20.2137 6.00001 20.1956C5.99992 19.7715 5.99984 19.3594 6.04554 19.0195C6.09706 18.6363 6.22259 18.199 6.5858 17.8358C6.94902 17.4726 7.38629 17.3471 7.76949 17.2955C8.10941 17.2498 8.52154 17.2499 8.94561 17.25ZM8.02871 19.2787C8.02838 19.2811 8.02804 19.2835 8.02771 19.286C8.00214 19.4762 8.00001 19.7503 8.00001 20.25V23C8.00001 23.4997 8.00214 23.7738 8.02771 23.964C8.02804 23.9665 8.02838 23.9689 8.02871 23.9713C8.03108 23.9717 8.03351 23.972 8.03599 23.9723C8.22618 23.9979 8.50034 24 9.00001 24H11.75C12.2497 24 12.5238 23.9979 12.714 23.9723C12.7165 23.972 12.7189 23.9717 12.7213 23.9713C12.7217 23.9689 12.722 23.9665 12.7223 23.964C12.7479 23.7738 12.75 23.4997 12.75 23V20.25C12.75 19.7503 12.7479 19.4762 12.7223 19.286C12.722 19.2835 12.7217 19.2811 12.7213 19.2787C12.7189 19.2784 12.7165 19.278 12.714 19.2777C12.5238 19.2521 12.2497 19.25 11.75 19.25H9.00001C8.50034 19.25 8.22618 19.2521 8.03599 19.2777C8.03351 19.278 8.03108 19.2784 8.02871 19.2787Z"/>
<path fill-rule="evenodd" clip-rule="evenodd" d="M20.1956 17.25C20.2137 17.25 20.2319 17.25 20.25 17.25H23C23.0182 17.25 23.0363 17.25 23.0544 17.25C23.4785 17.2499 23.8906 17.2498 24.2305 17.2955C24.6137 17.3471 25.051 17.4726 25.4142 17.8358C25.7774 18.199 25.903 18.6363 25.9545 19.0195C26.0002 19.3594 26.0001 19.7715 26 20.1956C26 20.2137 26 20.2319 26 20.25V23C26 23.0182 26 23.0363 26 23.0544C26.0001 23.4785 26.0002 23.8906 25.9545 24.2305C25.903 24.6137 25.7774 25.051 25.4142 25.4142C25.051 25.7774 24.6137 25.903 24.2305 25.9545C23.8906 26.0002 23.4785 26.0001 23.0544 26C23.0363 26 23.0182 26 23 26H20.25C20.2319 26 20.2137 26 20.1956 26C19.7715 26.0001 19.3594 26.0002 19.0195 25.9545C18.6363 25.903 18.199 25.7774 17.8358 25.4142C17.4726 25.051 17.3471 24.6137 17.2955 24.2305C17.2498 23.8906 17.2499 23.4785 17.25 23.0544C17.25 23.0363 17.25 23.0182 17.25 23V20.25C17.25 20.2319 17.25 20.2137 17.25 20.1956C17.2499 19.7715 17.2498 19.3594 17.2955 19.0195C17.3471 18.6363 17.4726 18.199 17.8358 17.8358C18.199 17.4726 18.6363 17.3471 19.0195 17.2955C19.3594 17.2498 19.7715 17.2499 20.1956 17.25ZM19.2787 19.2787C19.2784 19.2811 19.278 19.2835 19.2777 19.286C19.2521 19.4762 19.25 19.7503 19.25 20.25V23C19.25 23.4997 19.2521 23.7738 19.2777 23.964C19.278 23.9665 19.2784 23.9689 19.2787 23.9713C19.2811 23.9717 19.2835 23.972 19.286 23.9723C19.4762 23.9979 19.7503 24 20.25 24H23C23.4997 24 23.7738 23.9979 23.964 23.9723C23.9665 23.972 23.9689 23.9717 23.9713 23.9713C23.9717 23.9689 23.972 23.9665 23.9723 23.964C23.9979 23.7738 24 23.4997 24 23V20.25C24 19.7503 23.9979 19.4762 23.9723 19.286C23.972 19.2835 23.9717 19.2811 23.9713 19.2787C23.9689 19.2784 23.9665 19.278 23.964 19.2777C23.7738 19.2521 23.4997 19.25 23 19.25H20.25C19.7503 19.25 19.4762 19.2521 19.286 19.2777C19.2835 19.278 19.2811 19.2784 19.2787 19.2787Z"/>
<path fill-rule="evenodd" clip-rule="evenodd" d="M20.1956 6.00001C20.2137 6.00001 20.2319 6.00001 20.25 6.00001H23C23.0182 6.00001 23.0363 6.00001 23.0544 6.00001C23.4785 5.99992 23.8906 5.99984 24.2305 6.04554C24.6137 6.09706 25.051 6.22259 25.4142 6.5858C25.7774 6.94902 25.903 7.38629 25.9545 7.76949C26.0002 8.10941 26.0001 8.52154 26 8.9456C26 8.96372 26 8.98186 26 9.00001V11.75C26 11.7682 26 11.7863 26 11.8044C26.0001 12.2285 26.0002 12.6406 25.9545 12.9805C25.903 13.3637 25.7774 13.801 25.4142 14.1642C25.051 14.5274 24.6137 14.653 24.2305 14.7045C23.8906 14.7502 23.4785 14.7501 23.0544 14.75C23.0363 14.75 23.0182 14.75 23 14.75H20.25C20.2319 14.75 20.2137 14.75 20.1956 14.75C19.7715 14.7501 19.3594 14.7502 19.0195 14.7045C18.6363 14.653 18.199 14.5274 17.8358 14.1642C17.4726 13.801 17.3471 13.3637 17.2955 12.9805C17.2498 12.6406 17.2499 12.2285 17.25 11.8044C17.25 11.7863 17.25 11.7682 17.25 11.75V9.00001C17.25 8.98186 17.25 8.96372 17.25 8.94561C17.2499 8.52154 17.2498 8.10941 17.2955 7.76949C17.3471 7.38629 17.4726 6.94902 17.8358 6.5858C18.199 6.22259 18.6363 6.09706 19.0195 6.04554C19.3594 5.99984 19.7715 5.99992 20.1956 6.00001ZM19.2787 8.02871C19.2784 8.03108 19.278 8.03351 19.2777 8.03599C19.2521 8.22618 19.25 8.50034 19.25 9.00001V11.75C19.25 12.2497 19.2521 12.5238 19.2777 12.714C19.278 12.7165 19.2784 12.7189 19.2787 12.7213C19.2811 12.7217 19.2835 12.722 19.286 12.7223C19.4762 12.7479 19.7503 12.75 20.25 12.75H23C23.4997 12.75 23.7738 12.7479 23.964 12.7223C23.9665 12.722 23.9689 12.7217 23.9713 12.7213C23.9717 12.7189 23.972 12.7165 23.9723 12.714C23.9979 12.5238 24 12.2497 24 11.75V9.00001C24 8.50034 23.9979 8.22618 23.9723 8.03599C23.972 8.03351 23.9717 8.03108 23.9713 8.02871C23.9689 8.02838 23.9665 8.02804 23.964 8.02771C23.7738 8.00214 23.4997 8.00001 23 8.00001H20.25C19.7503 8.00001 19.4762 8.00214 19.286 8.02771C19.2835 8.02804 19.2811 8.02837 19.2787 8.02871Z"/>
</svg>
