<svg width="32" height="32" viewBox="0 0 32 32" xmlns="http://www.w3.org/2000/svg">
<path fill-rule="evenodd" clip-rule="evenodd" d="M17.9179 10.5796C17.829 10.5722 17.7049 10.5713 17.4583 10.5713H10C9.50034 10.5713 9.22618 10.5735 9.03599 10.599C9.03351 10.5994 9.03108 10.5997 9.02871 10.6C9.02838 10.6024 9.02804 10.6048 9.02771 10.6073C9.00214 10.7975 9.00001 11.0717 9.00001 11.5713V21.4313C9.00001 21.931 9.00214 22.2052 9.02771 22.3954C9.02804 22.3978 9.02837 22.4003 9.02871 22.4026C9.03108 22.403 9.03351 22.4033 9.03599 22.4036C9.22618 22.4292 9.50034 22.4313 10 22.4313H17.4583C17.7049 22.4313 17.829 22.4305 17.9179 22.4231C17.9195 22.4229 17.9211 22.4228 17.9226 22.4227C17.9236 22.4216 17.9247 22.4205 17.9259 22.4193C17.9885 22.3558 18.0686 22.261 18.2265 22.0715L22.3348 17.1415C22.6062 16.8159 22.7496 16.641 22.8359 16.5068C22.8371 16.5049 22.8383 16.5031 22.8394 16.5013C22.8383 16.4996 22.8371 16.4978 22.8359 16.4959C22.7496 16.3617 22.6062 16.1868 22.3348 15.8612L18.2265 10.9312C18.0686 10.7417 17.9885 10.6469 17.9259 10.5834C17.9247 10.5822 17.9236 10.5811 17.9226 10.58C17.9211 10.5799 17.9195 10.5798 17.9179 10.5796ZM17.5539 8.57102C17.9094 8.56927 18.3626 8.56704 18.775 8.76016C19.1873 8.95329 19.4757 9.3029 19.7019 9.5771C19.7228 9.60237 19.7431 9.62699 19.7629 9.65079L23.8713 14.5808C23.8814 14.593 23.8916 14.6052 23.9018 14.6174C24.1304 14.8916 24.3565 15.1628 24.5181 15.414C24.7018 15.6998 24.8683 16.0563 24.8683 16.5013C24.8683 16.9464 24.7018 17.3029 24.5181 17.5887C24.3565 17.8399 24.1303 18.1111 23.9018 18.3853C23.8916 18.3975 23.8814 18.4097 23.8713 18.4219L19.7629 23.3519C19.7431 23.3757 19.7228 23.4003 19.7019 23.4256C19.4757 23.6998 19.1873 24.0494 18.775 24.2425C18.3626 24.4356 17.9094 24.4334 17.5539 24.4317C17.5212 24.4315 17.4892 24.4313 17.4583 24.4313H10C9.98186 24.4313 9.96372 24.4313 9.94561 24.4313C9.52154 24.4314 9.10941 24.4315 8.7695 24.3858C8.38629 24.3343 7.94902 24.2088 7.5858 23.8456C7.22259 23.4823 7.09706 23.0451 7.04554 22.6619C6.99984 22.3219 6.99992 21.9098 7.00001 21.4857C7.00001 21.4676 7.00001 21.4495 7.00001 21.4313V11.5713C7.00001 11.5532 7.00001 11.5351 7.00001 11.5169C6.99992 11.0929 6.99984 10.6807 7.04554 10.3408C7.09706 9.95762 7.22258 9.52034 7.5858 9.15713C7.94902 8.79391 8.38629 8.66839 8.76949 8.61687C9.10941 8.57117 9.52154 8.57125 9.94561 8.57133C9.96372 8.57134 9.98186 8.57134 10 8.57134H17.4583C17.4892 8.57134 17.5212 8.57118 17.5539 8.57102Z" />
</svg>
