<svg width="32" height="32" viewBox="0 0 32 32" xmlns="http://www.w3.org/2000/svg">
<path fill-rule="evenodd" clip-rule="evenodd" d="M24.7071 10.1259C25.0976 10.5164 25.0976 11.1496 24.7071 11.5401L19.7475 16.4997C18.9665 17.2807 17.7002 17.2807 16.9191 16.4997L15.5 15.0806L11.4849 19.0957C11.0944 19.4862 10.4612 19.4862 10.0707 19.0957C9.68015 18.7051 9.68015 18.072 10.0707 17.6815L14.0858 13.6663C14.8668 12.8853 16.1332 12.8853 16.9142 13.6663L18.3333 15.0855L23.2929 10.1259C23.6834 9.73538 24.3166 9.73538 24.7071 10.1259Z" />
<path fill-rule="evenodd" clip-rule="evenodd" d="M7 7C7.55229 7 8 7.44772 8 8V21.8C8 22.3766 8.00078 22.7488 8.02393 23.0322C8.04612 23.3038 8.0838 23.4045 8.109 23.454C8.20487 23.6422 8.35785 23.7951 8.54601 23.891C8.59546 23.9162 8.69617 23.9539 8.96784 23.9761C9.25117 23.9992 9.62345 24 10.2 24H24C24.5523 24 25 24.4477 25 25C25 25.5523 24.5523 26 24 26H10.1615C9.63435 26 9.17956 26 8.80497 25.9694C8.40963 25.9371 8.01641 25.8658 7.63803 25.673C7.07354 25.3854 6.6146 24.9265 6.32698 24.362C6.13419 23.9836 6.06287 23.5904 6.03057 23.195C5.99997 22.8205 5.99998 22.3657 6 21.8385L6 8C6 7.44772 6.44772 7 7 7Z" />
</svg>
