<svg width="69" height="74" viewBox="0 0 69 74" xmlns="http://www.w3.org/2000/svg">
<path d="M12.1667 24.3056C12.1667 22.1645 12.1667 21.094 12.2486 20.1917C13.1217 10.5748 20.7414 2.95501 30.3584 2.08192C31.2607 2 32.3312 2 34.4722 2C36.6133 2 37.6838 2 38.5861 2.08192C48.203 2.95501 55.8228 10.5748 56.6959 20.1917C56.7778 21.094 56.7778 22.1645 56.7778 24.3055V36.7619C56.7778 39.1975 56.7778 40.4152 57.0584 41.5748C57.1907 42.1211 57.3688 42.6553 57.5908 43.1718C58.062 44.2678 58.7926 45.242 60.254 47.1905L61.7444 49.1778C64.8861 53.3666 66.4569 55.4611 65.6277 57.1194C64.7985 58.7778 62.1805 58.7778 56.9444 58.7778H12C6.76394 58.7778 4.1459 58.7778 3.31672 57.1194C2.48754 55.4611 4.05836 53.3666 7.2 49.1778L8.69048 47.1905C10.1518 45.242 10.8825 44.2678 11.3537 43.1718C11.5757 42.6553 11.7538 42.1211 11.886 41.5748C12.1667 40.4152 12.1667 39.1975 12.1667 36.7619V24.3056Z"/>
<path d="M24.679 64.7626C25.2567 66.9185 26.5296 68.8235 28.3003 70.1822C30.071 71.5409 32.2405 72.2773 34.4724 72.2773C36.7044 72.2773 38.8739 71.5409 40.6446 70.1822C42.4153 68.8235 43.6882 66.9185 44.2659 64.7626"/>
</svg>
