<svg width="32" height="33" viewBox="0 0 32 33" xmlns="http://www.w3.org/2000/svg">
<path fill-rule="evenodd" clip-rule="evenodd" d="M9.93418 6C9.95604 6 9.97799 6 10 6L22.0658 6C22.9523 5.99995 23.7161 5.99991 24.3278 6.08215C24.9833 6.17028 25.6117 6.36902 26.1213 6.87868C26.631 7.38835 26.8297 8.0167 26.9179 8.67221C27.0001 9.28387 27.0001 10.0477 27 10.9341V23.0659C27.0001 23.9523 27.0001 24.7161 26.9179 25.3278C26.8297 25.9833 26.631 26.6117 26.1213 27.1213C25.6117 27.631 24.9833 27.8297 24.3278 27.9179C23.7161 28.0001 22.9523 28.0001 22.0659 28H9.93414C9.04767 28.0001 8.28387 28.0001 7.67221 27.9179C7.0167 27.8297 6.38835 27.631 5.87868 27.1213C5.36902 26.6117 5.17028 25.9833 5.08215 25.3278C4.99991 24.7161 4.99995 23.9523 5 23.0658L5 11C5 10.978 5 10.956 5 10.9342C4.99995 10.0477 4.99991 9.28387 5.08215 8.67221C5.17028 8.0167 5.36902 7.38835 5.87868 6.87868C6.38835 6.36902 7.0167 6.17028 7.67221 6.08215C8.28387 5.99991 9.04769 5.99995 9.93418 6ZM7.93871 8.06431C7.50497 8.12263 7.36902 8.21677 7.2929 8.2929C7.21677 8.36902 7.12263 8.50497 7.06431 8.93871C7.00213 9.40122 7 10.0289 7 11V23C7 23.9711 7.00213 24.5988 7.06431 25.0613C7.12263 25.495 7.21677 25.631 7.2929 25.7071C7.36902 25.7832 7.50497 25.8774 7.93871 25.9357C8.40122 25.9979 9.02893 26 10 26H22C22.9711 26 23.5988 25.9979 24.0613 25.9357C24.495 25.8774 24.631 25.7832 24.7071 25.7071C24.7832 25.631 24.8774 25.495 24.9357 25.0613C24.9979 24.5988 25 23.9711 25 23V11C25 10.0289 24.9979 9.40122 24.9357 8.93871C24.8774 8.50497 24.7832 8.36902 24.7071 8.2929C24.631 8.21677 24.495 8.12263 24.0613 8.06431C23.5988 8.00213 22.9711 8 22 8H10C9.02893 8 8.40122 8.00213 7.93871 8.06431Z" />
<path fill-rule="evenodd" clip-rule="evenodd" d="M11.0028 12.5498C10.8412 12.469 10.6374 12.4442 9.55556 12.4442H6V10.4442H9.55556C9.61185 10.4442 9.66771 10.4441 9.72316 10.444C10.5356 10.4426 11.2578 10.4413 11.8972 10.761C12.5366 11.0807 12.9689 11.6592 13.4552 12.31C13.4883 12.3545 13.5218 12.3992 13.5556 12.4442L14.4889 13.6887C15.138 14.5541 15.2801 14.7023 15.4417 14.7831C15.6032 14.8639 15.8071 14.8887 16.8889 14.8887H22.6667C23.3081 14.8887 23.7224 14.8877 24.0363 14.8593C24.3365 14.8321 24.4455 14.7862 24.5 14.7547C24.652 14.6669 24.7783 14.5407 24.866 14.3887C24.8975 14.3342 24.9434 14.2252 24.9706 13.925C24.999 13.6111 25 13.1968 25 12.5554H27V12.5984C27 13.1847 27 13.6905 26.9624 14.1056C26.9226 14.5445 26.8346 14.9791 26.5981 15.3887C26.3348 15.8447 25.9561 16.2235 25.5 16.4868C25.0904 16.7233 24.6558 16.8113 24.2169 16.8511C23.8018 16.8887 23.296 16.8887 22.7096 16.8887L16.8889 16.8887C16.8326 16.8887 16.7767 16.8888 16.7213 16.8889C15.9089 16.8904 15.1867 16.8917 14.5472 16.572C13.9078 16.2523 13.4756 15.6737 12.9893 15.0229C12.9561 14.9785 12.9227 14.9337 12.8889 14.8887L11.9556 13.6442C11.3065 12.7788 11.1643 12.6306 11.0028 12.5498Z" />
<path fill-rule="evenodd" clip-rule="evenodd" d="M9.44446 21.4443C9.44446 20.8921 9.89217 20.4443 10.4445 20.4443H19.3333C19.8856 20.4443 20.3333 20.8921 20.3333 21.4443C20.3333 21.9966 19.8856 22.4443 19.3333 22.4443H10.4445C9.89217 22.4443 9.44446 21.9966 9.44446 21.4443Z" />
</svg>
