<svg width="32" height="32" viewBox="0 0 32 32" fill="none" xmlns="http://www.w3.org/2000/svg">
<path d="M16 29C14.2928 29 12.6023 28.6637 11.0251 28.0104C9.44788 27.3571 8.01477 26.3995 6.80761 25.1924C5.60045 23.9852 4.64288 22.5521 3.98957 20.9749C3.33625 19.3977 3 17.7072 3 16C3 14.2928 3.33626 12.6023 3.98957 11.0251C4.64288 9.44788 5.60045 8.01477 6.80761 6.80761C8.01478 5.60045 9.44788 4.64288 11.0251 3.98957C12.6024 3.33625 14.2928 3 16 3C17.7072 3 19.3977 3.33626 20.9749 3.98957C22.5521 4.64288 23.9852 5.60045 25.1924 6.80761C26.3996 8.01478 27.3571 9.44789 28.0104 11.0251C28.6637 12.6024 29 14.2928 29 16C29 17.7072 28.6637 19.3977 28.0104 20.9749C27.3571 22.5521 26.3995 23.9852 25.1924 25.1924C23.9852 26.3996 22.5521 27.3571 20.9749 28.0104C19.3976 28.6637 17.7072 29 16 29L16 29Z" stroke="#EE6B8D" stroke-width="3" stroke-linecap="round"/>
<path d="M11.6641 11.666L20.3307 20.3327" stroke="#EE6B8D" stroke-width="3" stroke-linecap="round"/>
<path d="M20.3359 11.666L11.6693 20.3327" stroke="#EE6B8D" stroke-width="3" stroke-linecap="round"/>
</svg>
