<svg width="36" height="44" viewBox="0 0 36 44" xmlns="http://www.w3.org/2000/svg">
<path fill-rule="evenodd" clip-rule="evenodd" d="M21.8012 3.55554C21.7326 3.52712 21.6351 3.50057 20.6044 3.50057H11.3342C9.19667 3.50057 7.74441 3.50375 6.65731 3.64991C5.61336 3.79027 5.13344 4.03726 4.80772 4.36298C4.482 4.6887 4.23501 5.16861 4.09466 6.21256C3.9485 7.29967 3.94532 8.75192 3.94532 10.8895V33.1117C3.94532 35.2492 3.9485 36.7015 4.09466 37.7886C4.23501 38.8325 4.482 39.3124 4.80772 39.6382C5.13345 39.9639 5.61336 40.2109 6.65731 40.3512C7.74441 40.4974 9.19667 40.5006 11.3342 40.5006H24.6675C26.8051 40.5006 28.2573 40.4974 29.3444 40.3512C30.3884 40.2109 30.8683 39.9639 31.194 39.6382C31.5197 39.3124 31.7667 38.8325 31.9071 37.7886C32.0532 36.7015 32.0564 35.2492 32.0564 33.1117V14.9526C32.0564 13.9219 32.0299 13.8244 32.0014 13.7558C31.973 13.6871 31.9229 13.5994 31.194 12.8706L22.6864 4.36298C21.9576 3.63414 21.8698 3.58397 21.8012 3.55554ZM20.7769 0.500285C21.5084 0.498485 22.2558 0.496645 22.9493 0.783905C23.6428 1.07117 24.17 1.60094 24.6859 2.11945C24.7266 2.1603 24.7671 2.20107 24.8077 2.24165L33.3153 10.7493C33.3559 10.7899 33.3967 10.8304 33.4375 10.8711C33.9561 11.387 34.4858 11.9142 34.7731 12.6077C35.0603 13.3012 35.0585 14.0486 35.0567 14.7801C35.0566 14.8377 35.0564 14.8952 35.0564 14.9526V33.2173C35.0565 35.2225 35.0565 36.8778 34.8803 38.1883C34.6953 39.5649 34.2914 40.7835 33.3153 41.7595C32.3393 42.7355 31.1208 43.1394 29.7442 43.3245C28.4337 43.5007 26.7784 43.5006 24.7733 43.5006H11.2284C9.22333 43.5006 7.56806 43.5007 6.25757 43.3245C4.88095 43.1394 3.66243 42.7355 2.6864 41.7595C1.71038 40.7835 1.30649 39.5649 1.12141 38.1883C0.945216 36.8778 0.945261 35.2225 0.945314 33.2174V10.7838C0.945261 8.77865 0.945216 7.12334 1.12141 5.81282C1.30649 4.43621 1.71038 3.21768 2.6864 2.24166C3.66243 1.26563 4.88095 0.861744 6.25757 0.676662C7.56808 0.500468 9.22339 0.500513 11.2285 0.500566L20.6044 0.500568C20.6618 0.500568 20.7193 0.500427 20.7769 0.500285Z"/>
<path fill-rule="evenodd" clip-rule="evenodd" d="M18.7227 10.8889V2H21.7227V10.8889C21.7227 11.9789 21.7259 12.6454 21.7907 13.1274C21.8488 13.5601 21.9316 13.6199 21.9341 13.6218L21.9342 13.6218L21.9342 13.6219C21.9361 13.6244 21.9959 13.7072 22.4286 13.7653C22.9106 13.8301 23.5771 13.8333 24.6671 13.8333H33.556V16.8333H24.6671C24.6363 16.8333 24.6056 16.8333 24.575 16.8333C23.6067 16.8334 22.7349 16.8335 22.0289 16.7386C21.2574 16.6349 20.4635 16.3937 19.8129 15.7431C19.1623 15.0925 18.9211 14.2986 18.8174 13.5271C18.7225 12.8211 18.7226 11.9493 18.7227 10.981C18.7227 10.9504 18.7227 10.9197 18.7227 10.8889Z"/>
</svg>
