<svg width="46" height="46" viewBox="0 0 46 46" fill="none" xmlns="http://www.w3.org/2000/svg">
<path d="M9.35201 15.1717L14.045 22.4122C14.3872 22.9402 14.5583 23.2043 14.5583 23.5C14.5583 23.7957 14.3872 24.0598 14.045 24.5878L9.35201 31.8283C7.97113 33.9588 7.28069 35.0241 7.7388 35.5883C8.19691 36.1526 9.38129 35.6958 11.7501 34.7821L36.1622 25.366C38.2016 24.5794 39.2212 24.1861 39.2212 23.5C39.2212 22.8139 38.2016 22.4206 36.1622 21.634L11.7501 12.2179C9.38129 11.3042 8.19691 10.8474 7.7388 11.4117C7.28069 11.9759 7.97113 13.0412 9.35201 15.1717Z" fill="#438AFE"/>
</svg>
