<svg width="32" height="32" viewBox="0 0 32 32" xmlns="http://www.w3.org/2000/svg">
<path fill-rule="evenodd" clip-rule="evenodd" d="M12.405 9.02761C12.3167 9.00641 12.2113 8.99998 11.6745 8.99998H10.2C9.62345 8.99998 9.25118 9.00076 8.96784 9.02391C8.69617 9.0461 8.59546 9.08378 8.54601 9.10897C8.35785 9.20485 8.20487 9.35783 8.109 9.54599C8.0838 9.59543 8.04612 9.69615 8.02393 9.96782C8.00078 10.2512 8 10.6234 8 11.2V20.8C8 21.3765 8.00078 21.7488 8.02393 22.0321C8.04612 22.3038 8.0838 22.4045 8.109 22.454C8.20487 22.6421 8.35785 22.7951 8.54601 22.891C8.59546 22.9162 8.69617 22.9539 8.96784 22.9761C9.25117 22.9992 9.62345 23 10.2 23H19C19.5523 23 20 23.4477 20 24C20 24.5523 19.5523 25 19 25H10.1614C9.6343 25 9.17954 25 8.80497 24.9694C8.40963 24.9371 8.01641 24.8658 7.63803 24.673C7.07354 24.3854 6.6146 23.9264 6.32698 23.362C6.13419 22.9836 6.06287 22.5904 6.03057 22.195C5.99997 21.8204 5.99998 21.3657 6 20.8385V11.1614C5.99998 10.6343 5.99997 10.1795 6.03057 9.80495C6.06287 9.40961 6.13419 9.01639 6.32698 8.63801C6.6146 8.07352 7.07354 7.61458 7.63803 7.32696C8.01641 7.13417 8.40963 7.06285 8.80497 7.03055C9.17955 6.99995 9.63431 6.99996 10.1615 6.99998L11.6745 6.99998C11.7025 6.99998 11.7303 6.99995 11.7578 6.99993C12.1647 6.99955 12.5235 6.99922 12.8719 7.08287C13.178 7.15636 13.4707 7.27757 13.7391 7.44206C14.0446 7.62929 14.298 7.8832 14.5855 8.17119C14.605 8.19069 14.6246 8.21034 14.6444 8.23013L14.7699 8.35562C15.1494 8.73518 15.2285 8.80516 15.3059 8.85262C15.3954 8.90745 15.4929 8.94785 15.595 8.97235C15.6833 8.99355 15.7887 8.99998 16.3255 8.99998L17.8385 8.99998C18.3657 8.99996 18.8205 8.99995 19.195 9.03055C19.5904 9.06285 19.9836 9.13417 20.362 9.32696C20.9265 9.61458 21.3854 10.0735 21.673 10.638C21.8658 11.0164 21.9371 11.4096 21.9694 11.805C22 12.1795 22 12.6343 22 13.1615V13.5C22 14.0523 21.5523 14.5 21 14.5C20.4477 14.5 20 14.0523 20 13.5V13.2C20 12.6234 19.9992 12.2512 19.9761 11.9678C19.9539 11.6962 19.9162 11.5954 19.891 11.546C19.7951 11.3578 19.6422 11.2048 19.454 11.109C19.4045 11.0838 19.3038 11.0461 19.0322 11.0239C18.7488 11.0008 18.3766 11 17.8 11H16.3255C16.2975 11 16.2697 11 16.2422 11C15.8353 11.0004 15.4765 11.0007 15.1281 10.9171C14.822 10.8436 14.5293 10.7224 14.2609 10.5579C13.9554 10.3707 13.702 10.1168 13.4145 9.82877C13.395 9.80928 13.3754 9.78962 13.3556 9.76983L13.2302 9.64435C12.8506 9.26478 12.7715 9.1948 12.6941 9.14734C12.6046 9.09251 12.5071 9.05211 12.405 9.02761Z"/>
<path fill-rule="evenodd" clip-rule="evenodd" d="M12.2311 12.9998C12.2806 12.9999 12.3305 12.9999 12.3809 12.9999L20.7439 12.9999C21.4345 12.9999 22.0187 12.9999 22.4888 13.0419C22.9751 13.0854 23.4629 13.1815 23.9021 13.4561C24.5412 13.8555 25.0065 14.4809 25.2055 15.2078C25.3422 15.7074 25.2941 16.2023 25.196 16.6805C25.1012 17.1428 24.9333 17.7024 24.7348 18.3639L23.642 22.0064C23.6275 22.0547 23.6133 22.1025 23.5991 22.1499C23.398 22.824 23.2216 23.4154 22.8536 23.8748C22.5319 24.2765 22.1124 24.5886 21.6353 24.7813C21.0895 25.0017 20.4724 25.0008 19.7689 24.9997C19.7194 24.9996 19.6695 24.9995 19.6191 24.9995L9.1126 24.9995C8.78092 24.9996 8.46889 24.9996 8.2111 24.9766C7.93744 24.9521 7.60155 24.894 7.28393 24.6954C6.85789 24.4291 6.5477 24.0122 6.41504 23.5276C6.31613 23.1663 6.35701 22.8279 6.41221 22.5588C6.46422 22.3052 6.55391 22.0064 6.64926 21.6887L8.35803 15.993C8.37249 15.9448 8.38676 15.897 8.40091 15.8496C8.60203 15.1755 8.77845 14.5841 9.14644 14.1246C9.46808 13.723 9.88761 13.4109 10.3647 13.2182C10.9106 12.9978 11.5277 12.9987 12.2311 12.9998ZM12.3809 14.9999C11.4384 14.9999 11.25 15.0176 11.1136 15.0727C10.9546 15.1369 10.8147 15.241 10.7075 15.3748C10.6156 15.4896 10.5445 15.665 10.2737 16.5677L8.57579 22.2271C8.46572 22.594 8.40322 22.8056 8.37142 22.9606C8.36984 22.9683 8.36841 22.9756 8.36712 22.9824C8.37399 22.9831 8.38134 22.9838 8.38917 22.9845C8.54681 22.9986 8.76742 22.9995 9.15049 22.9995H19.6191C20.5617 22.9995 20.75 22.9819 20.8864 22.9268C21.0455 22.8626 21.1853 22.7585 21.2925 22.6246C21.3844 22.5098 21.4555 22.3345 21.7264 21.4317L22.8063 17.8321C23.0211 17.1162 23.1621 16.6428 23.2368 16.2786C23.3103 15.9205 23.2911 15.7896 23.2764 15.7359C23.2101 15.4936 23.055 15.2851 22.842 15.152C22.7948 15.1225 22.6749 15.0665 22.3107 15.034C21.9405 15.0009 21.4466 14.9999 20.6991 14.9999H12.3809Z"/>
<path fill-rule="evenodd" clip-rule="evenodd" d="M12 19C12 18.4477 12.4477 18 13 18L19 18C19.5523 18 20 18.4477 20 19C20 19.5523 19.5523 20 19 20L13 20C12.4477 20 12 19.5523 12 19Z"/>
</svg>
