<svg width="28" height="22" viewBox="0 0 28 22" xmlns="http://www.w3.org/2000/svg">
<path d="M0 2.77008V5.79238C0 5.84919 0.0321004 5.90113 0.082918 5.92654L12.2984 12.0343C13.1429 12.4565 14.1371 12.4565 14.9816 12.0343L27.1971 5.92654C27.2479 5.90113 27.28 5.84919 27.28 5.79238V2.77008C27.28 1.66551 26.3846 0.770082 25.28 0.770082H2C0.895431 0.770082 0 1.66551 0 2.77008Z"/>
<path d="M0 19.23V7.83269C0 7.72118 0.117347 7.64866 0.217082 7.69853L12.2984 13.7392C13.1429 14.1615 14.1371 14.1615 14.9816 13.7392L27.0629 7.69853C27.1626 7.64866 27.28 7.72118 27.28 7.83269V19.23C27.28 20.3346 26.3846 21.23 25.28 21.23H2C0.895431 21.23 0 20.3345 0 19.23Z"/>
</svg>
