<svg width="40" height="40" viewBox="0 0 40 40" xmlns="http://www.w3.org/2000/svg">
<path fill-rule="evenodd" clip-rule="evenodd" d="M17.8872 0.500001H22.1129C25.7884 0.499969 28.6997 0.499944 30.9781 0.80627C33.3229 1.12153 35.2208 1.78576 36.7176 3.28249C38.2143 4.77921 38.8785 6.67711 39.1938 9.02195C39.5001 11.3004 39.5001 14.2117 39.5 17.8872V22.1128C39.5001 25.7883 39.5001 28.6996 39.1938 30.978C38.8785 33.3229 38.2143 35.2208 36.7176 36.7175C35.2208 38.2142 33.3229 38.8785 30.9781 39.1937C28.6997 39.5001 25.7884 39.5 22.1129 39.5H4.00004C3.97719 39.5 3.95422 39.5 3.93115 39.5C3.52092 39.5002 3.07733 39.5004 2.70289 39.45C2.26425 39.391 1.70387 39.2394 1.23227 38.7678C0.760669 38.2962 0.608998 37.7358 0.550024 37.2971C0.499683 36.9227 0.499857 36.4791 0.500018 36.0689C0.500027 36.0458 0.500036 36.0228 0.500036 36L0.500036 17.8872C0.500004 14.2116 0.499979 11.3004 0.806306 9.02196C1.12156 6.67711 1.7858 4.77921 3.28252 3.28249C4.77925 1.78576 6.67715 1.12153 9.02199 0.80627C11.3004 0.499944 14.2117 0.499969 17.8872 0.500001ZM9.42173 3.77952C7.40955 4.05005 6.25026 4.55739 5.40384 5.40381C4.55742 6.25023 4.05008 7.40952 3.77955 9.4217C3.50322 11.477 3.50004 14.1864 3.50004 18V36C3.50004 36.1982 3.5001 36.3588 3.50234 36.4977C3.64125 36.4999 3.80188 36.5 4.00004 36.5H22C25.8137 36.5 28.523 36.4968 30.5783 36.2205C32.5905 35.95 33.7498 35.4426 34.5962 34.5962C35.4426 33.7498 35.95 32.5905 36.2205 30.5783C36.4969 28.523 36.5 25.8136 36.5 22V18C36.5 14.1864 36.4969 11.477 36.2205 9.4217C35.95 7.40952 35.4426 6.25023 34.5962 5.40381C33.7498 4.55739 32.5905 4.05005 30.5783 3.77952C28.523 3.50319 25.8137 3.5 22 3.5H18C14.1864 3.5 11.4771 3.50319 9.42173 3.77952Z"/>
</svg>
