<svg width="22" height="23" viewBox="0 0 22 23" xmlns="http://www.w3.org/2000/svg">
<path fill-rule="evenodd" clip-rule="evenodd" d="M3.91104 2.92427C3.47262 2.96009 3.24842 3.02502 3.09202 3.10471C2.7157 3.29645 2.40973 3.60241 2.21799 3.97874C2.1383 4.13514 2.07337 4.35934 2.03755 4.79776C2.00078 5.24785 2 5.83014 2 6.68672V19.4725L5 16.4725C5.37507 16.0974 5.88378 15.8867 6.41421 15.8867L16.2 15.8867C17.0566 15.8867 17.6389 15.8859 18.089 15.8492C18.5274 15.8133 18.7516 15.7484 18.908 15.6687C19.2843 15.477 19.5903 15.171 19.782 14.7947C19.8617 14.6383 19.9266 14.4141 19.9624 13.9757C19.9992 13.5256 20 12.9433 20 12.0867V6.68672C20 5.83014 19.9992 5.24785 19.9624 4.79776C19.9266 4.35934 19.8617 4.13514 19.782 3.97874C19.5903 3.60241 19.2843 3.29645 18.908 3.10471C18.7516 3.02502 18.5274 2.96009 18.089 2.92427C17.6389 2.8875 17.0566 2.88672 16.2 2.88672H5.8C4.94342 2.88672 4.36113 2.8875 3.91104 2.92427ZM5.7587 0.886719H16.2413C17.0463 0.886706 17.7106 0.886696 18.2518 0.930913C18.8139 0.976838 19.3306 1.0754 19.816 1.32269C20.5686 1.70619 21.1805 2.31811 21.564 3.07076C21.8113 3.55609 21.9099 4.0728 21.9558 4.63489C22 5.17608 22 5.84044 22 6.6454V12.128C22 12.933 22 13.5974 21.9558 14.1385C21.9099 14.7006 21.8113 15.2173 21.564 15.7027C21.1805 16.4553 20.5686 17.0672 19.816 17.4507C19.3306 17.698 18.8139 17.7966 18.2518 17.8425C17.7106 17.8867 17.0463 17.8867 16.2413 17.8867L6.41421 17.8867L2.47531 21.8256C1.56186 22.7391 9.08129e-07 22.0921 9.08129e-07 20.8003L4.31292e-07 6.64542C-1.23241e-05 5.84045 -2.28137e-05 5.17609 0.0441945 4.63489C0.0901197 4.0728 0.188684 3.55609 0.435975 3.07076C0.819468 2.31811 1.43139 1.70619 2.18404 1.32269C2.66937 1.0754 3.18608 0.976838 3.74817 0.930913C4.28937 0.886696 4.95373 0.886706 5.7587 0.886719Z" />
<path fill-rule="evenodd" clip-rule="evenodd" d="M5 6.88672C5 6.33443 5.44772 5.88672 6 5.88672L16 5.88672C16.5523 5.88672 17 6.33443 17 6.88672C17 7.439 16.5523 7.88672 16 7.88672L6 7.88672C5.44772 7.88672 5 7.439 5 6.88672Z" />
<path fill-rule="evenodd" clip-rule="evenodd" d="M5 11.8867C5 11.3344 5.44772 10.8867 6 10.8867L12.25 10.8867C12.8023 10.8867 13.25 11.3344 13.25 11.8867C13.25 12.439 12.8023 12.8867 12.25 12.8867L6 12.8867C5.44772 12.8867 5 12.439 5 11.8867Z" />
</svg>
