<svg width="20" height="20" viewBox="0 0 20 20" fill="none" xmlns="http://www.w3.org/2000/svg">
<path d="M12.4725 2.33519C12.4722 2.33546 12.4719 2.33574 12.4717 2.33601L2.94391 11.8638C2.93083 11.8769 2.91735 11.8903 2.90354 11.904C2.75137 12.0552 2.55875 12.2467 2.42186 12.4885L3.29206 12.9812L2.42186 12.4885C2.28498 12.7302 2.21991 12.9939 2.16851 13.2022C2.16384 13.2211 2.15929 13.2396 2.1548 13.2575L1.23197 16.9488C1.22917 16.96 1.22624 16.9717 1.22323 16.9837C1.18641 17.1301 1.1354 17.3331 1.11783 17.5127C1.09761 17.7194 1.09093 18.1713 1.45971 18.5401L2.16682 17.833L1.45971 18.5401C1.82849 18.9089 2.28045 18.9022 2.48714 18.882C2.66676 18.8644 2.86968 18.8134 3.01617 18.7766C3.02817 18.7736 3.03979 18.7706 3.05099 18.7678L6.74231 17.845C6.76025 17.8405 6.7787 17.836 6.79761 17.8313C7.00591 17.7799 7.26958 17.7148 7.51135 17.5779L7.01865 16.7077L7.51135 17.5779C7.75311 17.4411 7.94456 17.2484 8.09582 17.0963C8.10955 17.0824 8.12295 17.069 8.13602 17.0559L17.6638 7.52813C17.6766 7.51529 17.6894 7.50247 17.7023 7.48967C18.0022 7.18986 18.2937 6.8985 18.5017 6.62582C18.7362 6.31843 18.9567 5.92047 18.9567 5.40681C18.9567 4.89314 18.7362 4.49518 18.5017 4.18779C18.2937 3.91511 18.0022 3.62374 17.7022 3.32393C17.6894 3.31113 17.6766 3.29832 17.6638 3.28549L16.7143 2.33601C16.7015 2.32318 16.6887 2.31035 16.6758 2.29754C16.376 1.99761 16.0847 1.70614 15.812 1.4981C15.5046 1.26356 15.1067 1.04312 14.593 1.04312C14.0793 1.04312 13.6814 1.26356 13.374 1.4981C13.1013 1.70614 12.8099 1.99761 12.5101 2.29753C12.4976 2.31007 12.4851 2.32262 12.4725 2.33519Z" stroke="#6795CA" stroke-width="2"/>
<path d="M11.4453 3.5186L15.2232 1L19.0011 4.7779L16.4825 8.5558L11.4453 3.5186Z" fill="#6795CA"/>
</svg>
