<svg width="32" height="32" viewBox="0 0 32 32" xmlns="http://www.w3.org/2000/svg">
<path fill-rule="evenodd" clip-rule="evenodd" d="M12.1104 5C12.1323 5 12.1543 5 12.1763 5L19.8892 5C20.7757 4.99995 21.5395 4.99991 22.1511 5.08215C22.8066 5.17028 23.435 5.36902 23.9447 5.87868C24.4543 6.38835 24.6531 7.0167 24.7412 7.67221C24.8234 8.28388 24.8234 9.0477 24.8233 9.9342V21.0658C24.8234 21.9523 24.8234 22.7161 24.7412 23.3278C24.6531 23.9833 24.4543 24.6117 23.9447 25.1213C23.435 25.631 22.8066 25.8297 22.1511 25.9179C21.5395 26.0001 20.7756 26.0001 19.8891 26H12.1105C11.224 26.0001 10.4601 26.0001 9.84848 25.9179C9.19297 25.8297 8.56462 25.631 8.05495 25.1213C7.54529 24.6117 7.34655 23.9833 7.25841 23.3278C7.17618 22.7161 7.17622 21.9523 7.17627 21.0658L7.17627 10C7.17627 9.97799 7.17627 9.95604 7.17627 9.93417C7.17622 9.04769 7.17618 8.28387 7.25841 7.67221C7.34655 7.0167 7.54529 6.38835 8.05495 5.87868C8.56462 5.36902 9.19297 5.17028 9.84848 5.08215C10.4601 4.99991 11.224 4.99995 12.1104 5ZM10.115 7.06431C9.68124 7.12263 9.54529 7.21677 9.46917 7.2929C9.39304 7.36902 9.2989 7.50497 9.24058 7.93871C9.1784 8.40121 9.17627 9.02893 9.17627 10V21C9.17627 21.9711 9.1784 22.5988 9.24058 23.0613C9.2989 23.495 9.39304 23.631 9.46917 23.7071C9.54529 23.7832 9.68124 23.8774 10.115 23.9357C10.5775 23.9979 11.2052 24 12.1763 24H19.8233C20.7944 24 21.4221 23.9979 21.8846 23.9357C22.3184 23.8774 22.4543 23.7832 22.5304 23.7071C22.6066 23.631 22.7007 23.495 22.759 23.0613C22.8212 22.5988 22.8233 21.9711 22.8233 21V10C22.8233 9.02893 22.8212 8.40122 22.759 7.93871C22.7007 7.50497 22.6066 7.36902 22.5304 7.2929C22.4543 7.21677 22.3184 7.12263 21.8846 7.06431C21.4221 7.00213 20.7944 7 19.8233 7H12.1763C11.2052 7 10.5775 7.00213 10.115 7.06431Z"/>
<path fill-rule="evenodd" clip-rule="evenodd" d="M11.647 11.5883C11.647 11.036 12.0947 10.5883 12.647 10.5883H19.3529C19.9051 10.5883 20.3529 11.036 20.3529 11.5883C20.3529 12.1405 19.9051 12.5883 19.3529 12.5883H12.647C12.0947 12.5883 11.647 12.1405 11.647 11.5883Z"/>
<path fill-rule="evenodd" clip-rule="evenodd" d="M11.647 16.0588C11.647 15.5066 12.0947 15.0588 12.647 15.0588H19.3529C19.9051 15.0588 20.3529 15.5066 20.3529 16.0588C20.3529 16.6111 19.9051 17.0588 19.3529 17.0588H12.647C12.0947 17.0588 11.647 16.6111 11.647 16.0588Z"/>
<path fill-rule="evenodd" clip-rule="evenodd" d="M11.647 20.5294C11.647 19.9771 12.0947 19.5294 12.647 19.5294H17.1176C17.6698 19.5294 18.1176 19.9771 18.1176 20.5294C18.1176 21.0817 17.6698 21.5294 17.1176 21.5294H12.647C12.0947 21.5294 11.647 21.0817 11.647 20.5294Z"/>
</svg>
