<svg width="19" height="19" viewBox="0 0 19 19" xmlns="http://www.w3.org/2000/svg">
<path fill-rule="evenodd" clip-rule="evenodd" d="M4.00059 2.41481C2.48458 3.99099 2.32965 6.43954 3.64699 8.196L4.82856 9.77142C6.07935 11.4391 7.56083 12.9206 9.22856 14.1714L10.804 15.353C12.5604 16.6703 15.009 16.5154 16.5852 14.9994L14 12.4142L12.9788 13.4354C12.5122 13.902 11.7993 14.0177 11.209 13.7225C8.64219 12.4391 6.56085 10.3578 5.27742 7.79094C4.98229 7.20067 5.09798 6.48778 5.56462 6.02114L6.58577 4.99999L4.00059 2.41481ZM2.64811 0.937651C3.39473 0.191032 4.60524 0.191029 5.35186 0.937651L7.99999 3.58578C8.78103 4.36682 8.78103 5.63315 7.99999 6.4142L7.22045 7.19373C8.26634 9.13878 9.8612 10.7336 11.8062 11.7795L12.5858 11C13.3668 10.2189 14.6331 10.2189 15.4142 11L18.0623 13.6481C18.8089 14.3947 18.8089 15.6052 18.0623 16.3519C15.7852 18.629 12.1802 18.8852 9.60397 16.953L8.02856 15.7714C6.20922 14.4069 4.59306 12.7908 3.22856 10.9714L2.04699 9.396C0.114802 6.81974 0.371 3.21476 2.64811 0.937651Z"/>
</svg>
