<svg width="32" height="26" viewBox="0 0 32 26" fill="none" xmlns="http://www.w3.org/2000/svg">
<path fill-rule="evenodd" clip-rule="evenodd" d="M16.0002 18.6029C18.5775 18.6029 20.6668 16.5135 20.6668 13.9362C20.6668 11.3589 18.5775 9.26953 16.0002 9.26953C13.4228 9.26953 11.3335 11.3589 11.3335 13.9362C11.3335 16.5135 13.4228 18.6029 16.0002 18.6029ZM16.0002 20.6029C19.6821 20.6029 22.6668 17.6181 22.6668 13.9362C22.6668 10.2543 19.6821 7.26953 16.0002 7.26953C12.3183 7.26953 9.3335 10.2543 9.3335 13.9362C9.3335 17.6181 12.3183 20.6029 16.0002 20.6029Z" fill="#438AFE"/>
<path fill-rule="evenodd" clip-rule="evenodd" d="M7.7866 8.22056C5.40346 10.0569 3.55992 12.2158 2.58235 13.473C2.4849 13.5983 2.41089 13.6936 2.34934 13.7774C2.29617 13.8498 2.26271 13.8996 2.24098 13.9355C2.26271 13.9715 2.29617 14.0213 2.34934 14.0937C2.41088 14.1775 2.4849 14.2728 2.58235 14.3981C3.55992 15.6553 5.40346 17.8142 7.7866 19.6505C10.1818 21.4961 13.0175 22.9355 15.9999 22.9355C18.9823 22.9355 21.8181 21.4961 24.2133 19.6505C26.5964 17.8142 28.4399 15.6553 29.4175 14.3981C29.515 14.2728 29.589 14.1775 29.6505 14.0937C29.7037 14.0213 29.7372 13.9715 29.7589 13.9355C29.7372 13.8996 29.7037 13.8498 29.6505 13.7774C29.589 13.6936 29.515 13.5983 29.4175 13.473C28.4399 12.2158 26.5964 10.0569 24.2133 8.22056C21.8181 6.37498 18.9823 4.93555 15.9999 4.93555C13.0175 4.93555 10.1818 6.37498 7.7866 8.22056ZM6.56588 6.63631C9.1229 4.66603 12.3861 2.93555 15.9999 2.93555C19.6137 2.93555 22.877 4.66604 25.434 6.63631C28.003 8.61587 29.9649 10.9188 30.9964 12.2453C31.0202 12.2759 31.0451 12.3075 31.0707 12.3399C31.3731 12.7234 31.7772 13.236 31.7772 13.9355C31.7772 14.6351 31.3731 15.1477 31.0707 15.5312C31.0451 15.5636 31.0202 15.5952 30.9964 15.6258C29.9649 16.9523 28.003 19.2552 25.434 21.2348C22.877 23.2051 19.6137 24.9355 15.9999 24.9355C12.3861 24.9355 9.1229 23.2051 6.56588 21.2348C3.99683 19.2552 2.03497 16.9523 1.00349 15.6258C0.979663 15.5952 0.954796 15.5636 0.929201 15.5312C0.6268 15.1476 0.222656 14.6351 0.222656 13.9355C0.222656 13.236 0.626802 12.7234 0.929203 12.3399C0.954798 12.3075 0.979665 12.2759 1.0035 12.2453C2.03497 10.9187 3.99683 8.61586 6.56588 6.63631Z" fill="#438AFE"/>
<path fill-rule="evenodd" clip-rule="evenodd" d="M25.5552 25.6125L4.51322 2.25994L5.99902 0.921143L27.041 24.2737L25.5552 25.6125Z" fill="#438AFE"/>
</svg>
