<svg width="32" height="33" viewBox="0 0 32 33" xmlns="http://www.w3.org/2000/svg">
<path fill-rule="evenodd" clip-rule="evenodd" d="M11.5398 4.85864H19.6809C21.035 4.85861 22.1517 4.85858 23.0354 4.9774C23.9632 5.10214 24.7827 5.37411 25.4388 6.03022C26.0949 6.68633 26.3669 7.50575 26.4916 8.43358C26.6104 9.31734 26.6104 10.434 26.6104 11.7881V21.9292C26.6104 23.2833 26.6104 24.3999 26.4916 25.2837C26.3669 26.2115 26.0949 27.031 25.4388 27.6871C24.7827 28.3432 23.9632 28.6151 23.0354 28.7399C22.1517 28.8587 21.035 28.8587 19.6809 28.8586H11.5398C10.1857 28.8587 9.06905 28.8587 8.18529 28.7399C7.25746 28.6151 6.43804 28.3432 5.78193 27.6871C5.12582 27.031 4.85385 26.2115 4.72911 25.2837C4.61029 24.4 4.61032 23.2833 4.61035 21.9292V11.7881C4.61032 10.434 4.61029 9.31734 4.72911 8.43358C4.85385 7.50575 5.12582 6.68633 5.78193 6.03022C6.43804 5.37411 7.25746 5.10214 8.18529 4.9774C9.06905 4.85858 10.1857 4.85861 11.5398 4.85864ZM8.45179 6.95956C7.74573 7.05449 7.41871 7.22186 7.19614 7.44443C6.97357 7.667 6.8062 7.99402 6.71127 8.70008C6.61248 9.4349 6.61035 10.4162 6.61035 11.8586V21.8586C6.61035 23.3011 6.61248 24.2824 6.71127 25.0172C6.8062 25.7233 6.97357 26.0503 7.19614 26.2729C7.41871 26.4954 7.74573 26.6628 8.45179 26.7577C9.18661 26.8565 10.1679 26.8586 11.6104 26.8586H19.6104C21.0528 26.8586 22.0341 26.8565 22.7689 26.7577C23.475 26.6628 23.802 26.4954 24.0246 26.2729C24.2471 26.0503 24.4145 25.7233 24.5094 25.0172C24.6082 24.2824 24.6104 23.3011 24.6104 21.8586V11.8586C24.6104 10.4162 24.6082 9.4349 24.5094 8.70008C24.4145 7.99402 24.2471 7.667 24.0246 7.44443C23.802 7.22186 23.475 7.05449 22.7689 6.95956C22.0341 6.86077 21.0528 6.85864 19.6104 6.85864H11.6104C10.1679 6.85864 9.18661 6.86077 8.45179 6.95956Z" />
<path fill-rule="evenodd" clip-rule="evenodd" d="M6.03906 13.7158C6.03906 13.1635 6.48678 12.7158 7.03906 12.7158H24.1819C24.7342 12.7158 25.1819 13.1635 25.1819 13.7158C25.1819 14.2681 24.7342 14.7158 24.1819 14.7158H7.03906C6.48678 14.7158 6.03906 14.2681 6.03906 13.7158Z" />
</svg>
