<svg xmlns="http://www.w3.org/2000/svg" xmlns:xlink="http://www.w3.org/1999/xlink"><defs><style>
    .sprite-symbol-usage {display: none;}
    .sprite-symbol-usage:target {display: inline;}
  </style><symbol viewBox="0 0 22 22" fill="none" id="icon-accept">
<circle cx="11" cy="11" r="9" stroke="#438AFE" stroke-width="2" />
<path d="M7 11L10 14L15 8" stroke="#438AFE" stroke-width="2" />
</symbol><symbol viewBox="0 0 12 11" fill="none" id="icon-arrow">
<path d="M5.18077 9.74959L0.541993 3.12277C-0.107529 2.19488 0.556286 0.919921 1.68892 0.919921L10.3111 0.919921C11.4437 0.919921 12.1075 2.19488 11.458 3.12277L6.81923 9.74959C6.42113 10.3183 5.57887 10.3183 5.18077 9.74959Z" fill="#42413C" />
</symbol><symbol viewBox="0 0 35 10" id="icon-arrow-back">
<path fill-rule="evenodd" clip-rule="evenodd" d="M1.74805 5C1.74805 4.44772 2.19576 4 2.74805 4H33.4097C33.962 4 34.4097 4.44772 34.4097 5C34.4097 5.55228 33.962 6 33.4097 6H2.74805C2.19576 6 1.74805 5.55228 1.74805 5Z" />
<path fill-rule="evenodd" clip-rule="evenodd" d="M6.10045 0.277241C6.49962 0.658925 6.51379 1.29193 6.13211 1.6911L2.89033 5.0814L6.11485 8.29133C6.50626 8.68096 6.5077 9.31413 6.11806 9.70554C5.72842 10.0969 5.09526 10.0984 4.70385 9.70875L0.784734 5.80738C0.398882 5.42327 0.39121 4.80107 0.767474 4.40757L4.68659 0.308903C5.06827 -0.0902667 5.70128 -0.104442 6.10045 0.277241Z" />
</symbol><symbol viewBox="0 0 9 15" id="icon-arrow-right">
<path fill-rule="evenodd" clip-rule="evenodd" d="M0.403245 1.21282C0.0127206 1.60334 0.0127207 2.23651 0.403245 2.62703L5.69614 7.91992L0.403246 13.2128C0.0127217 13.6033 0.0127217 14.2365 0.403246 14.627C0.79377 15.0176 1.42694 15.0176 1.81746 14.627L7.81746 8.62703C8.20798 8.2365 8.20798 7.60334 7.81746 7.21282L1.81746 1.21282C1.42693 0.822291 0.793769 0.822291 0.403245 1.21282Z" />
</symbol><symbol viewBox="0 0 33 33" id="icon-bird">
<g clip-path="url(#icon-bird_clip0_346_110597)">
<path d="M9.04008 32.8593C8.8813 32.8598 8.72431 32.8257 8.58009 32.7593C8.38781 32.6717 8.2245 32.5311 8.10936 32.354C7.99422 32.1768 7.93204 31.9705 7.9301 31.7593C7.9301 30.0193 10.7701 26.4493 14.2101 24.6193C15.6419 23.8941 17.1878 23.4205 18.7801 23.2193C19.2301 23.1493 19.6701 23.0693 20.0901 22.9793C20.1144 22.7867 20.1144 22.5918 20.0901 22.3993C20.0419 21.4222 19.9249 20.4498 19.7401 19.4893C18.792 20.7245 17.5653 21.7182 16.1601 22.3893C15.6783 22.621 15.1465 22.7295 14.6124 22.7051C14.0784 22.6806 13.5587 22.524 13.1001 22.2493C11.3158 21.1576 9.81766 19.656 8.73009 17.8693C7.31946 15.4967 6.84516 12.6831 7.40007 9.97926C8.21007 4.62926 12.7401 1.44926 13.2601 1.10926C13.4602 0.965464 13.7024 0.892332 13.9487 0.901385C14.1949 0.910437 14.4311 1.00116 14.6201 1.15926C14.795 1.32757 14.9117 1.54734 14.9531 1.78656C14.9944 2.02578 14.9584 2.27197 14.8501 2.48926C14.5014 3.45707 14.2763 4.46504 14.1801 5.48926L14.1301 5.80926C13.8901 7.43926 13.6801 8.85926 17.2501 11.8093C18.2663 12.6303 19.1588 13.5935 19.9001 14.6693L19.9701 14.4193C20.0362 14.139 20.0863 13.8552 20.1201 13.5693C20.3301 12.1893 20.6401 10.0893 22.1201 9.15926C22.5919 8.89779 23.1169 8.74666 23.6556 8.71721C24.1942 8.68777 24.7325 8.78078 25.2301 8.98926C25.9945 9.3025 26.6782 9.78452 27.2301 10.3993L27.6101 10.8293L27.2401 11.9393L26.6701 12.0693C26.2416 12.1257 25.8495 12.3396 25.5701 12.6693C25.5109 12.7711 25.4732 12.884 25.4595 13.001C25.4457 13.1179 25.4562 13.2365 25.4901 13.3493L25.7801 14.4593C26.3501 16.5493 27.0501 19.1393 25.7801 21.0493C24.8433 22.5917 23.4434 23.7991 21.7801 24.4993C20.8438 26.8415 19.4883 28.9933 17.7801 30.8493C17.6475 30.9967 17.4802 31.1087 17.2933 31.1751C17.1065 31.2415 16.906 31.2601 16.7101 31.2293C15.3518 31.0315 13.9687 31.0857 12.6301 31.3893C11.6423 31.5442 10.7022 31.9202 9.88008 32.4893C9.77224 32.6044 9.64223 32.6965 9.49788 32.7601C9.35352 32.8237 9.19781 32.8574 9.04008 32.8593ZM19.3601 25.1093H19.1101C17.7185 25.2744 16.3656 25.6769 15.1101 26.2993C13.5334 27.1741 12.1492 28.3576 11.0401 29.7793C11.3901 29.6693 11.7301 29.5793 12.0401 29.4993C13.5106 29.1556 15.0289 29.0643 16.5301 29.2293C17.6295 27.9786 18.5669 26.5944 19.3201 25.1093H19.3601ZM21.1801 17.0793C21.7357 18.6904 22.0458 20.3759 22.1001 22.0793C22.9213 21.4927 23.6209 20.7523 24.1601 19.8993C24.9401 18.7493 24.3701 16.6493 23.9101 14.9693C23.8001 14.5593 23.7001 14.1593 23.6101 13.7893C23.509 13.4121 23.488 13.018 23.5482 12.6322C23.6085 12.2465 23.7488 11.8776 23.9601 11.5493C24.1395 11.2839 24.3588 11.0478 24.6101 10.8493C24.3956 10.7556 24.1641 10.7073 23.9301 10.7073C23.6961 10.7073 23.4646 10.7556 23.2501 10.8493C22.5201 11.2993 22.2501 12.8493 22.1401 13.8493C22.094 14.2128 22.0272 14.5734 21.9401 14.9293C21.7315 15.6662 21.4639 16.3852 21.1401 17.0793H21.1801ZM12.3401 4.55926C10.8235 6.12001 9.8068 8.09764 9.42009 10.2393C8.91627 12.4608 9.27363 14.7908 10.4201 16.7593C11.3369 18.281 12.6058 19.5602 14.1201 20.4893C14.2944 20.5966 14.4929 20.6584 14.6974 20.6689C14.9019 20.6794 15.1057 20.6382 15.2901 20.5493C16.8545 19.7954 18.1344 18.5576 18.9401 17.0193C18.2251 15.5939 17.2 14.3467 15.9401 13.3693C11.8301 9.97926 11.7701 7.90926 12.1201 5.53926V5.23926C12.2301 5.00926 12.2701 4.77926 12.3001 4.55926H12.3401Z" />
</g>
<defs>

</defs>
</symbol><clipPath id="icon-bird_clip0_346_110597">
<rect width="32" height="32" fill="white" transform="translate(0.807617 0.920166)" />
</clipPath><symbol viewBox="0 0 22 23" id="icon-chat">
<path fill-rule="evenodd" clip-rule="evenodd" d="M3.91104 2.92427C3.47262 2.96009 3.24842 3.02502 3.09202 3.10471C2.7157 3.29645 2.40973 3.60241 2.21799 3.97874C2.1383 4.13514 2.07337 4.35934 2.03755 4.79776C2.00078 5.24785 2 5.83014 2 6.68672V19.4725L5 16.4725C5.37507 16.0974 5.88378 15.8867 6.41421 15.8867L16.2 15.8867C17.0566 15.8867 17.6389 15.8859 18.089 15.8492C18.5274 15.8133 18.7516 15.7484 18.908 15.6687C19.2843 15.477 19.5903 15.171 19.782 14.7947C19.8617 14.6383 19.9266 14.4141 19.9624 13.9757C19.9992 13.5256 20 12.9433 20 12.0867V6.68672C20 5.83014 19.9992 5.24785 19.9624 4.79776C19.9266 4.35934 19.8617 4.13514 19.782 3.97874C19.5903 3.60241 19.2843 3.29645 18.908 3.10471C18.7516 3.02502 18.5274 2.96009 18.089 2.92427C17.6389 2.8875 17.0566 2.88672 16.2 2.88672H5.8C4.94342 2.88672 4.36113 2.8875 3.91104 2.92427ZM5.7587 0.886719H16.2413C17.0463 0.886706 17.7106 0.886696 18.2518 0.930913C18.8139 0.976838 19.3306 1.0754 19.816 1.32269C20.5686 1.70619 21.1805 2.31811 21.564 3.07076C21.8113 3.55609 21.9099 4.0728 21.9558 4.63489C22 5.17608 22 5.84044 22 6.6454V12.128C22 12.933 22 13.5974 21.9558 14.1385C21.9099 14.7006 21.8113 15.2173 21.564 15.7027C21.1805 16.4553 20.5686 17.0672 19.816 17.4507C19.3306 17.698 18.8139 17.7966 18.2518 17.8425C17.7106 17.8867 17.0463 17.8867 16.2413 17.8867L6.41421 17.8867L2.47531 21.8256C1.56186 22.7391 9.08129e-07 22.0921 9.08129e-07 20.8003L4.31292e-07 6.64542C-1.23241e-05 5.84045 -2.28137e-05 5.17609 0.0441945 4.63489C0.0901197 4.0728 0.188684 3.55609 0.435975 3.07076C0.819468 2.31811 1.43139 1.70619 2.18404 1.32269C2.66937 1.0754 3.18608 0.976838 3.74817 0.930913C4.28937 0.886696 4.95373 0.886706 5.7587 0.886719Z" />
<path fill-rule="evenodd" clip-rule="evenodd" d="M5 6.88672C5 6.33443 5.44772 5.88672 6 5.88672L16 5.88672C16.5523 5.88672 17 6.33443 17 6.88672C17 7.439 16.5523 7.88672 16 7.88672L6 7.88672C5.44772 7.88672 5 7.439 5 6.88672Z" />
<path fill-rule="evenodd" clip-rule="evenodd" d="M5 11.8867C5 11.3344 5.44772 10.8867 6 10.8867L12.25 10.8867C12.8023 10.8867 13.25 11.3344 13.25 11.8867C13.25 12.439 12.8023 12.8867 12.25 12.8867L6 12.8867C5.44772 12.8867 5 12.439 5 11.8867Z" />
</symbol><symbol viewBox="0 0 32 32" id="icon-chat-2">
<path fill-rule="evenodd" clip-rule="evenodd" d="M10.911 11.0376C10.4726 11.0734 10.2484 11.1383 10.092 11.218C9.7157 11.4097 9.40973 11.7157 9.21799 12.092C9.1383 12.2484 9.07337 12.4726 9.03755 12.911C9.00078 13.3611 9 13.9434 9 14.8V23.5858L11 21.5858C11.3751 21.2107 11.8838 21 12.4142 21H19.2C20.0566 21 20.6389 20.9992 21.089 20.9625C21.5274 20.9266 21.7516 20.8617 21.908 20.782C22.2843 20.5903 22.5903 20.2843 22.782 19.908C22.8617 19.7516 22.9266 19.5274 22.9625 19.089C22.9992 18.6389 23 18.0566 23 17.2V14.8C23 13.9434 22.9992 13.3611 22.9625 12.911C22.9266 12.4726 22.8617 12.2484 22.782 12.092C22.5903 11.7157 22.2843 11.4097 21.908 11.218C21.7516 11.1383 21.5274 11.0734 21.089 11.0376C20.6389 11.0008 20.0566 11 19.2 11H12.8C11.9434 11 11.3611 11.0008 10.911 11.0376ZM12.7587 9H19.2413C20.0463 8.99999 20.7106 8.99998 21.2518 9.04419C21.8139 9.09012 22.3306 9.18868 22.816 9.43597C23.5686 9.81947 24.1805 10.4314 24.564 11.184C24.8113 11.6694 24.9099 12.1861 24.9558 12.7482C25 13.2894 25 13.9537 25 14.7587V17.2413C25 18.0463 25 18.7106 24.9558 19.2518C24.9099 19.8139 24.8113 20.3306 24.564 20.816C24.1805 21.5686 23.5686 22.1805 22.816 22.564C22.3306 22.8113 21.8139 22.9099 21.2518 22.9558C20.7106 23 20.0463 23 19.2413 23H12.4142L9.4753 25.9389C8.56185 26.8524 7 26.2054 7 24.9136L7 14.7587C6.99999 13.9537 6.99998 13.2894 7.04419 12.7482C7.09012 12.1861 7.18868 11.6694 7.43597 11.184C7.81947 10.4314 8.43139 9.81947 9.18404 9.43597C9.66937 9.18868 10.1861 9.09012 10.7482 9.04419C11.2894 8.99998 11.9537 8.99999 12.7587 9Z" />
<path fill-rule="evenodd" clip-rule="evenodd" d="M11 14C11 13.4477 11.4477 13 12 13L20 13C20.5523 13 21 13.4477 21 14C21 14.5523 20.5523 15 20 15L12 15C11.4477 15 11 14.5523 11 14Z" />
<path fill-rule="evenodd" clip-rule="evenodd" d="M11 18C11 17.4477 11.4477 17 12 17L17 17C17.5523 17 18 17.4477 18 18C18 18.5523 17.5523 19 17 19L12 19C11.4477 19 11 18.5523 11 18Z" />
</symbol><symbol viewBox="0 0 15 9" id="icon-chevrone">
<path fill-rule="evenodd" clip-rule="evenodd" d="M14.317 1.15154C13.9264 0.761012 13.2933 0.761012 12.9028 1.15154L7.60986 6.44443L2.31697 1.15154C1.92645 0.761012 1.29328 0.761012 0.902756 1.15154C0.512232 1.54206 0.512232 2.17523 0.902756 2.56575L6.90276 8.56575C7.29328 8.95627 7.92645 8.95627 8.31697 8.56575L14.317 2.56575C14.7075 2.17523 14.7075 1.54206 14.317 1.15154Z" />
</symbol><symbol viewBox="0 0 32 32" id="icon-course">
<path fill-rule="evenodd" clip-rule="evenodd" d="M17.9179 10.5796C17.829 10.5722 17.7049 10.5713 17.4583 10.5713H10C9.50034 10.5713 9.22618 10.5735 9.03599 10.599C9.03351 10.5994 9.03108 10.5997 9.02871 10.6C9.02838 10.6024 9.02804 10.6048 9.02771 10.6073C9.00214 10.7975 9.00001 11.0717 9.00001 11.5713V21.4313C9.00001 21.931 9.00214 22.2052 9.02771 22.3954C9.02804 22.3978 9.02837 22.4003 9.02871 22.4026C9.03108 22.403 9.03351 22.4033 9.03599 22.4036C9.22618 22.4292 9.50034 22.4313 10 22.4313H17.4583C17.7049 22.4313 17.829 22.4305 17.9179 22.4231C17.9195 22.4229 17.9211 22.4228 17.9226 22.4227C17.9236 22.4216 17.9247 22.4205 17.9259 22.4193C17.9885 22.3558 18.0686 22.261 18.2265 22.0715L22.3348 17.1415C22.6062 16.8159 22.7496 16.641 22.8359 16.5068C22.8371 16.5049 22.8383 16.5031 22.8394 16.5013C22.8383 16.4996 22.8371 16.4978 22.8359 16.4959C22.7496 16.3617 22.6062 16.1868 22.3348 15.8612L18.2265 10.9312C18.0686 10.7417 17.9885 10.6469 17.9259 10.5834C17.9247 10.5822 17.9236 10.5811 17.9226 10.58C17.9211 10.5799 17.9195 10.5798 17.9179 10.5796ZM17.5539 8.57102C17.9094 8.56927 18.3626 8.56704 18.775 8.76016C19.1873 8.95329 19.4757 9.3029 19.7019 9.5771C19.7228 9.60237 19.7431 9.62699 19.7629 9.65079L23.8713 14.5808C23.8814 14.593 23.8916 14.6052 23.9018 14.6174C24.1304 14.8916 24.3565 15.1628 24.5181 15.414C24.7018 15.6998 24.8683 16.0563 24.8683 16.5013C24.8683 16.9464 24.7018 17.3029 24.5181 17.5887C24.3565 17.8399 24.1303 18.1111 23.9018 18.3853C23.8916 18.3975 23.8814 18.4097 23.8713 18.4219L19.7629 23.3519C19.7431 23.3757 19.7228 23.4003 19.7019 23.4256C19.4757 23.6998 19.1873 24.0494 18.775 24.2425C18.3626 24.4356 17.9094 24.4334 17.5539 24.4317C17.5212 24.4315 17.4892 24.4313 17.4583 24.4313H10C9.98186 24.4313 9.96372 24.4313 9.94561 24.4313C9.52154 24.4314 9.10941 24.4315 8.7695 24.3858C8.38629 24.3343 7.94902 24.2088 7.5858 23.8456C7.22259 23.4823 7.09706 23.0451 7.04554 22.6619C6.99984 22.3219 6.99992 21.9098 7.00001 21.4857C7.00001 21.4676 7.00001 21.4495 7.00001 21.4313V11.5713C7.00001 11.5532 7.00001 11.5351 7.00001 11.5169C6.99992 11.0929 6.99984 10.6807 7.04554 10.3408C7.09706 9.95762 7.22258 9.52034 7.5858 9.15713C7.94902 8.79391 8.38629 8.66839 8.76949 8.61687C9.10941 8.57117 9.52154 8.57125 9.94561 8.57133C9.96372 8.57134 9.98186 8.57134 10 8.57134H17.4583C17.4892 8.57134 17.5212 8.57118 17.5539 8.57102Z" />
</symbol><symbol viewBox="0 0 32 32" id="icon-cubes">
<path fill-rule="evenodd" clip-rule="evenodd" d="M8.94561 6.00001C8.96372 6.00001 8.98186 6.00001 9.00001 6.00001H11.75C11.7682 6.00001 11.7863 6.00001 11.8044 6.00001C12.2285 5.99992 12.6406 5.99984 12.9805 6.04554C13.3637 6.09706 13.801 6.22259 14.1642 6.5858C14.5274 6.94902 14.653 7.38629 14.7045 7.76949C14.7502 8.10941 14.7501 8.52154 14.75 8.9456C14.75 8.96372 14.75 8.98186 14.75 9.00001V11.75C14.75 11.7682 14.75 11.7863 14.75 11.8044C14.7501 12.2285 14.7502 12.6406 14.7045 12.9805C14.653 13.3637 14.5274 13.801 14.1642 14.1642C13.801 14.5274 13.3637 14.653 12.9805 14.7045C12.6406 14.7502 12.2285 14.7501 11.8044 14.75C11.7863 14.75 11.7682 14.75 11.75 14.75H9.00001C8.98186 14.75 8.96372 14.75 8.9456 14.75C8.52153 14.7501 8.10941 14.7502 7.76949 14.7045C7.38629 14.653 6.94902 14.5274 6.5858 14.1642C6.22259 13.801 6.09706 13.3637 6.04554 12.9805C5.99984 12.6406 5.99992 12.2285 6.00001 11.8044C6.00001 11.7863 6.00001 11.7682 6.00001 11.75V9.00001C6.00001 8.98186 6.00001 8.96372 6.00001 8.94561C5.99992 8.52154 5.99984 8.10941 6.04554 7.76949C6.09706 7.38629 6.22259 6.94902 6.5858 6.5858C6.94902 6.22259 7.38629 6.09706 7.76949 6.04554C8.10941 5.99984 8.52154 5.99992 8.94561 6.00001ZM8.02871 8.02871C8.02838 8.03108 8.02804 8.03351 8.02771 8.03599C8.00214 8.22618 8.00001 8.50034 8.00001 9.00001V11.75C8.00001 12.2497 8.00214 12.5238 8.02771 12.714C8.02804 12.7165 8.02838 12.7189 8.02871 12.7213C8.03108 12.7217 8.03351 12.722 8.03599 12.7223C8.22618 12.7479 8.50034 12.75 9.00001 12.75H11.75C12.2497 12.75 12.5238 12.7479 12.714 12.7223C12.7165 12.722 12.7189 12.7217 12.7213 12.7213C12.7217 12.7189 12.722 12.7165 12.7223 12.714C12.7479 12.5238 12.75 12.2497 12.75 11.75V9.00001C12.75 8.50034 12.7479 8.22618 12.7223 8.03599C12.722 8.03351 12.7217 8.03108 12.7213 8.02871C12.7189 8.02838 12.7165 8.02804 12.714 8.02771C12.5238 8.00214 12.2497 8.00001 11.75 8.00001H9.00001C8.50034 8.00001 8.22618 8.00214 8.03599 8.02771C8.03351 8.02804 8.03108 8.02837 8.02871 8.02871Z" />
<path fill-rule="evenodd" clip-rule="evenodd" d="M8.94561 17.25C8.96372 17.25 8.98186 17.25 9.00001 17.25H11.75C11.7682 17.25 11.7863 17.25 11.8044 17.25C12.2285 17.2499 12.6406 17.2498 12.9805 17.2955C13.3637 17.3471 13.801 17.4726 14.1642 17.8358C14.5274 18.199 14.653 18.6363 14.7045 19.0195C14.7502 19.3594 14.7501 19.7715 14.75 20.1956C14.75 20.2137 14.75 20.2319 14.75 20.25V23C14.75 23.0182 14.75 23.0363 14.75 23.0544C14.7501 23.4785 14.7502 23.8906 14.7045 24.2305C14.653 24.6137 14.5274 25.051 14.1642 25.4142C13.801 25.7774 13.3637 25.903 12.9805 25.9545C12.6406 26.0002 12.2285 26.0001 11.8044 26C11.7863 26 11.7682 26 11.75 26H9.00001C8.98186 26 8.96372 26 8.9456 26C8.52153 26.0001 8.10941 26.0002 7.76949 25.9545C7.38629 25.903 6.94902 25.7774 6.5858 25.4142C6.22259 25.051 6.09706 24.6137 6.04554 24.2305C5.99984 23.8906 5.99992 23.4785 6.00001 23.0544C6.00001 23.0363 6.00001 23.0182 6.00001 23V20.25C6.00001 20.2319 6.00001 20.2137 6.00001 20.1956C5.99992 19.7715 5.99984 19.3594 6.04554 19.0195C6.09706 18.6363 6.22259 18.199 6.5858 17.8358C6.94902 17.4726 7.38629 17.3471 7.76949 17.2955C8.10941 17.2498 8.52154 17.2499 8.94561 17.25ZM8.02871 19.2787C8.02838 19.2811 8.02804 19.2835 8.02771 19.286C8.00214 19.4762 8.00001 19.7503 8.00001 20.25V23C8.00001 23.4997 8.00214 23.7738 8.02771 23.964C8.02804 23.9665 8.02838 23.9689 8.02871 23.9713C8.03108 23.9717 8.03351 23.972 8.03599 23.9723C8.22618 23.9979 8.50034 24 9.00001 24H11.75C12.2497 24 12.5238 23.9979 12.714 23.9723C12.7165 23.972 12.7189 23.9717 12.7213 23.9713C12.7217 23.9689 12.722 23.9665 12.7223 23.964C12.7479 23.7738 12.75 23.4997 12.75 23V20.25C12.75 19.7503 12.7479 19.4762 12.7223 19.286C12.722 19.2835 12.7217 19.2811 12.7213 19.2787C12.7189 19.2784 12.7165 19.278 12.714 19.2777C12.5238 19.2521 12.2497 19.25 11.75 19.25H9.00001C8.50034 19.25 8.22618 19.2521 8.03599 19.2777C8.03351 19.278 8.03108 19.2784 8.02871 19.2787Z" />
<path fill-rule="evenodd" clip-rule="evenodd" d="M20.1956 17.25C20.2137 17.25 20.2319 17.25 20.25 17.25H23C23.0182 17.25 23.0363 17.25 23.0544 17.25C23.4785 17.2499 23.8906 17.2498 24.2305 17.2955C24.6137 17.3471 25.051 17.4726 25.4142 17.8358C25.7774 18.199 25.903 18.6363 25.9545 19.0195C26.0002 19.3594 26.0001 19.7715 26 20.1956C26 20.2137 26 20.2319 26 20.25V23C26 23.0182 26 23.0363 26 23.0544C26.0001 23.4785 26.0002 23.8906 25.9545 24.2305C25.903 24.6137 25.7774 25.051 25.4142 25.4142C25.051 25.7774 24.6137 25.903 24.2305 25.9545C23.8906 26.0002 23.4785 26.0001 23.0544 26C23.0363 26 23.0182 26 23 26H20.25C20.2319 26 20.2137 26 20.1956 26C19.7715 26.0001 19.3594 26.0002 19.0195 25.9545C18.6363 25.903 18.199 25.7774 17.8358 25.4142C17.4726 25.051 17.3471 24.6137 17.2955 24.2305C17.2498 23.8906 17.2499 23.4785 17.25 23.0544C17.25 23.0363 17.25 23.0182 17.25 23V20.25C17.25 20.2319 17.25 20.2137 17.25 20.1956C17.2499 19.7715 17.2498 19.3594 17.2955 19.0195C17.3471 18.6363 17.4726 18.199 17.8358 17.8358C18.199 17.4726 18.6363 17.3471 19.0195 17.2955C19.3594 17.2498 19.7715 17.2499 20.1956 17.25ZM19.2787 19.2787C19.2784 19.2811 19.278 19.2835 19.2777 19.286C19.2521 19.4762 19.25 19.7503 19.25 20.25V23C19.25 23.4997 19.2521 23.7738 19.2777 23.964C19.278 23.9665 19.2784 23.9689 19.2787 23.9713C19.2811 23.9717 19.2835 23.972 19.286 23.9723C19.4762 23.9979 19.7503 24 20.25 24H23C23.4997 24 23.7738 23.9979 23.964 23.9723C23.9665 23.972 23.9689 23.9717 23.9713 23.9713C23.9717 23.9689 23.972 23.9665 23.9723 23.964C23.9979 23.7738 24 23.4997 24 23V20.25C24 19.7503 23.9979 19.4762 23.9723 19.286C23.972 19.2835 23.9717 19.2811 23.9713 19.2787C23.9689 19.2784 23.9665 19.278 23.964 19.2777C23.7738 19.2521 23.4997 19.25 23 19.25H20.25C19.7503 19.25 19.4762 19.2521 19.286 19.2777C19.2835 19.278 19.2811 19.2784 19.2787 19.2787Z" />
<path fill-rule="evenodd" clip-rule="evenodd" d="M20.1956 6.00001C20.2137 6.00001 20.2319 6.00001 20.25 6.00001H23C23.0182 6.00001 23.0363 6.00001 23.0544 6.00001C23.4785 5.99992 23.8906 5.99984 24.2305 6.04554C24.6137 6.09706 25.051 6.22259 25.4142 6.5858C25.7774 6.94902 25.903 7.38629 25.9545 7.76949C26.0002 8.10941 26.0001 8.52154 26 8.9456C26 8.96372 26 8.98186 26 9.00001V11.75C26 11.7682 26 11.7863 26 11.8044C26.0001 12.2285 26.0002 12.6406 25.9545 12.9805C25.903 13.3637 25.7774 13.801 25.4142 14.1642C25.051 14.5274 24.6137 14.653 24.2305 14.7045C23.8906 14.7502 23.4785 14.7501 23.0544 14.75C23.0363 14.75 23.0182 14.75 23 14.75H20.25C20.2319 14.75 20.2137 14.75 20.1956 14.75C19.7715 14.7501 19.3594 14.7502 19.0195 14.7045C18.6363 14.653 18.199 14.5274 17.8358 14.1642C17.4726 13.801 17.3471 13.3637 17.2955 12.9805C17.2498 12.6406 17.2499 12.2285 17.25 11.8044C17.25 11.7863 17.25 11.7682 17.25 11.75V9.00001C17.25 8.98186 17.25 8.96372 17.25 8.94561C17.2499 8.52154 17.2498 8.10941 17.2955 7.76949C17.3471 7.38629 17.4726 6.94902 17.8358 6.5858C18.199 6.22259 18.6363 6.09706 19.0195 6.04554C19.3594 5.99984 19.7715 5.99992 20.1956 6.00001ZM19.2787 8.02871C19.2784 8.03108 19.278 8.03351 19.2777 8.03599C19.2521 8.22618 19.25 8.50034 19.25 9.00001V11.75C19.25 12.2497 19.2521 12.5238 19.2777 12.714C19.278 12.7165 19.2784 12.7189 19.2787 12.7213C19.2811 12.7217 19.2835 12.722 19.286 12.7223C19.4762 12.7479 19.7503 12.75 20.25 12.75H23C23.4997 12.75 23.7738 12.7479 23.964 12.7223C23.9665 12.722 23.9689 12.7217 23.9713 12.7213C23.9717 12.7189 23.972 12.7165 23.9723 12.714C23.9979 12.5238 24 12.2497 24 11.75V9.00001C24 8.50034 23.9979 8.22618 23.9723 8.03599C23.972 8.03351 23.9717 8.03108 23.9713 8.02871C23.9689 8.02838 23.9665 8.02804 23.964 8.02771C23.7738 8.00214 23.4997 8.00001 23 8.00001H20.25C19.7503 8.00001 19.4762 8.00214 19.286 8.02771C19.2835 8.02804 19.2811 8.02837 19.2787 8.02871Z" />
</symbol><symbol viewBox="0 0 32 33" id="icon-doc">
<path fill-rule="evenodd" clip-rule="evenodd" d="M19.0398 4.89117C19.0037 4.87625 18.9496 4.85855 18.284 4.85855H12.3246C10.9495 4.85855 10.0187 4.86067 9.32283 4.95423C8.65567 5.04393 8.35595 5.20084 8.1543 5.40249C7.95265 5.60414 7.79574 5.90387 7.70604 6.57102C7.61248 7.26693 7.61035 8.19769 7.61035 9.57283V23.8585C7.61035 25.2337 7.61248 26.1644 7.70604 26.8604C7.79574 27.5275 7.95265 27.8272 8.1543 28.0289C8.35595 28.2305 8.65567 28.3874 9.32283 28.4771C10.0187 28.5707 10.9495 28.5728 12.3246 28.5728H20.8961C22.2712 28.5728 23.202 28.5707 23.8979 28.4771C24.565 28.3874 24.8648 28.2305 25.0664 28.0289C25.2681 27.8272 25.425 27.5275 25.5147 26.8604C25.6082 26.1644 25.6104 25.2337 25.6104 23.8585V12.1849C25.6104 11.5193 25.5927 11.4652 25.5777 11.4291C25.5628 11.3931 25.537 11.3423 25.0664 10.8717L19.5972 5.40249C19.1266 4.93189 19.0758 4.90609 19.0398 4.89117ZM18.3962 2.85835C18.8647 2.85713 19.3524 2.85586 19.8051 3.04341C20.2579 3.23096 20.6019 3.57669 20.9323 3.90883C20.9587 3.93543 20.9851 3.96194 21.0114 3.98828L26.4806 9.45746C26.507 9.48379 26.5335 9.51016 26.5601 9.53662C26.8922 9.86704 27.2379 10.211 27.4255 10.6638C27.613 11.1165 27.6118 11.6042 27.6106 12.0727C27.6105 12.1102 27.6104 12.1476 27.6104 12.1849V23.9286C27.6104 25.2158 27.6104 26.282 27.4968 27.1269C27.3773 28.0158 27.1158 28.8079 26.4806 29.4431C25.8454 30.0783 25.0533 30.3398 24.1644 30.4593C23.3195 30.5729 22.2533 30.5729 20.9661 30.5728H12.2546C10.9674 30.5729 9.90121 30.5729 9.05633 30.4593C8.1674 30.3398 7.37527 30.0783 6.74009 29.4431C6.1049 28.8079 5.84339 28.0158 5.72388 27.1269C5.61029 26.282 5.61032 25.2158 5.61035 23.9286V9.50276C5.61032 8.21558 5.61029 7.1494 5.72388 6.30452C5.84339 5.41559 6.1049 4.62346 6.74009 3.98828C7.37527 3.35309 8.1674 3.09158 9.05633 2.97207C9.90121 2.85848 10.9674 2.85851 12.2546 2.85854L18.284 2.85855C18.3213 2.85855 18.3587 2.85845 18.3962 2.85835Z" />
<path fill-rule="evenodd" clip-rule="evenodd" d="M11.3247 18.1445C11.3247 17.5922 11.7724 17.1445 12.3247 17.1445L20.8961 17.1445C21.4484 17.1445 21.8961 17.5922 21.8961 18.1445C21.8961 18.6968 21.4484 19.1445 20.8961 19.1445L12.3247 19.1445C11.7724 19.1445 11.3247 18.6968 11.3247 18.1445Z" />
<path fill-rule="evenodd" clip-rule="evenodd" d="M11.3247 23.8586C11.3247 23.3064 11.7724 22.8586 12.3247 22.8586L18.039 22.8586C18.5913 22.8586 19.039 23.3064 19.039 23.8586C19.039 24.4109 18.5913 24.8586 18.039 24.8586L12.3247 24.8586C11.7724 24.8586 11.3247 24.4109 11.3247 23.8586Z" />
<path fill-rule="evenodd" clip-rule="evenodd" d="M18.0391 2.85864C18.5914 2.85864 19.0391 3.30636 19.0391 3.85864V9.57293C19.0391 10.2746 19.0412 10.7003 19.0825 11.0072C19.1015 11.1489 19.1245 11.2244 19.1404 11.263C19.1525 11.2926 19.1601 11.3001 19.1642 11.3041L19.1646 11.3045L19.165 11.305C19.1691 11.3091 19.1766 11.3166 19.2061 11.3288C19.2447 11.3446 19.3202 11.3676 19.4619 11.3867C19.7688 11.4279 20.1945 11.4301 20.8962 11.4301H26.6105C27.1628 11.4301 27.6105 11.8778 27.6105 12.4301C27.6105 12.9824 27.1628 13.4301 26.6105 13.4301H20.8962C20.8759 13.4301 20.8556 13.4301 20.8354 13.4301C20.2143 13.4301 19.6517 13.4302 19.1954 13.3689C18.6955 13.3016 18.1764 13.1447 17.7504 12.7188C17.3244 12.2928 17.1675 11.7736 17.1003 11.2737C17.0389 10.8174 17.039 10.2548 17.0391 9.63375C17.0391 9.61353 17.0391 9.59326 17.0391 9.57293V3.85864C17.0391 3.30636 17.4868 2.85864 18.0391 2.85864Z" />
</symbol><symbol viewBox="0 0 32 32" id="icon-doc-2">
<path fill-rule="evenodd" clip-rule="evenodd" d="M12.405 9.02761C12.3167 9.00641 12.2113 8.99998 11.6745 8.99998H10.2C9.62345 8.99998 9.25118 9.00076 8.96784 9.02391C8.69617 9.0461 8.59546 9.08378 8.54601 9.10897C8.35785 9.20485 8.20487 9.35783 8.109 9.54599C8.0838 9.59543 8.04612 9.69615 8.02393 9.96782C8.00078 10.2512 8 10.6234 8 11.2V20.8C8 21.3765 8.00078 21.7488 8.02393 22.0321C8.04612 22.3038 8.0838 22.4045 8.109 22.454C8.20487 22.6421 8.35785 22.7951 8.54601 22.891C8.59546 22.9162 8.69617 22.9539 8.96784 22.9761C9.25117 22.9992 9.62345 23 10.2 23H19C19.5523 23 20 23.4477 20 24C20 24.5523 19.5523 25 19 25H10.1614C9.6343 25 9.17954 25 8.80497 24.9694C8.40963 24.9371 8.01641 24.8658 7.63803 24.673C7.07354 24.3854 6.6146 23.9264 6.32698 23.362C6.13419 22.9836 6.06287 22.5904 6.03057 22.195C5.99997 21.8204 5.99998 21.3657 6 20.8385V11.1614C5.99998 10.6343 5.99997 10.1795 6.03057 9.80495C6.06287 9.40961 6.13419 9.01639 6.32698 8.63801C6.6146 8.07352 7.07354 7.61458 7.63803 7.32696C8.01641 7.13417 8.40963 7.06285 8.80497 7.03055C9.17955 6.99995 9.63431 6.99996 10.1615 6.99998L11.6745 6.99998C11.7025 6.99998 11.7303 6.99995 11.7578 6.99993C12.1647 6.99955 12.5235 6.99922 12.8719 7.08287C13.178 7.15636 13.4707 7.27757 13.7391 7.44206C14.0446 7.62929 14.298 7.8832 14.5855 8.17119C14.605 8.19069 14.6246 8.21034 14.6444 8.23013L14.7699 8.35562C15.1494 8.73518 15.2285 8.80516 15.3059 8.85262C15.3954 8.90745 15.4929 8.94785 15.595 8.97235C15.6833 8.99355 15.7887 8.99998 16.3255 8.99998L17.8385 8.99998C18.3657 8.99996 18.8205 8.99995 19.195 9.03055C19.5904 9.06285 19.9836 9.13417 20.362 9.32696C20.9265 9.61458 21.3854 10.0735 21.673 10.638C21.8658 11.0164 21.9371 11.4096 21.9694 11.805C22 12.1795 22 12.6343 22 13.1615V13.5C22 14.0523 21.5523 14.5 21 14.5C20.4477 14.5 20 14.0523 20 13.5V13.2C20 12.6234 19.9992 12.2512 19.9761 11.9678C19.9539 11.6962 19.9162 11.5954 19.891 11.546C19.7951 11.3578 19.6422 11.2048 19.454 11.109C19.4045 11.0838 19.3038 11.0461 19.0322 11.0239C18.7488 11.0008 18.3766 11 17.8 11H16.3255C16.2975 11 16.2697 11 16.2422 11C15.8353 11.0004 15.4765 11.0007 15.1281 10.9171C14.822 10.8436 14.5293 10.7224 14.2609 10.5579C13.9554 10.3707 13.702 10.1168 13.4145 9.82877C13.395 9.80928 13.3754 9.78962 13.3556 9.76983L13.2302 9.64435C12.8506 9.26478 12.7715 9.1948 12.6941 9.14734C12.6046 9.09251 12.5071 9.05211 12.405 9.02761Z" />
<path fill-rule="evenodd" clip-rule="evenodd" d="M12.2311 12.9998C12.2806 12.9999 12.3305 12.9999 12.3809 12.9999L20.7439 12.9999C21.4345 12.9999 22.0187 12.9999 22.4888 13.0419C22.9751 13.0854 23.4629 13.1815 23.9021 13.4561C24.5412 13.8555 25.0065 14.4809 25.2055 15.2078C25.3422 15.7074 25.2941 16.2023 25.196 16.6805C25.1012 17.1428 24.9333 17.7024 24.7348 18.3639L23.642 22.0064C23.6275 22.0547 23.6133 22.1025 23.5991 22.1499C23.398 22.824 23.2216 23.4154 22.8536 23.8748C22.5319 24.2765 22.1124 24.5886 21.6353 24.7813C21.0895 25.0017 20.4724 25.0008 19.7689 24.9997C19.7194 24.9996 19.6695 24.9995 19.6191 24.9995L9.1126 24.9995C8.78092 24.9996 8.46889 24.9996 8.2111 24.9766C7.93744 24.9521 7.60155 24.894 7.28393 24.6954C6.85789 24.4291 6.5477 24.0122 6.41504 23.5276C6.31613 23.1663 6.35701 22.8279 6.41221 22.5588C6.46422 22.3052 6.55391 22.0064 6.64926 21.6887L8.35803 15.993C8.37249 15.9448 8.38676 15.897 8.40091 15.8496C8.60203 15.1755 8.77845 14.5841 9.14644 14.1246C9.46808 13.723 9.88761 13.4109 10.3647 13.2182C10.9106 12.9978 11.5277 12.9987 12.2311 12.9998ZM12.3809 14.9999C11.4384 14.9999 11.25 15.0176 11.1136 15.0727C10.9546 15.1369 10.8147 15.241 10.7075 15.3748C10.6156 15.4896 10.5445 15.665 10.2737 16.5677L8.57579 22.2271C8.46572 22.594 8.40322 22.8056 8.37142 22.9606C8.36984 22.9683 8.36841 22.9756 8.36712 22.9824C8.37399 22.9831 8.38134 22.9838 8.38917 22.9845C8.54681 22.9986 8.76742 22.9995 9.15049 22.9995H19.6191C20.5617 22.9995 20.75 22.9819 20.8864 22.9268C21.0455 22.8626 21.1853 22.7585 21.2925 22.6246C21.3844 22.5098 21.4555 22.3345 21.7264 21.4317L22.8063 17.8321C23.0211 17.1162 23.1621 16.6428 23.2368 16.2786C23.3103 15.9205 23.2911 15.7896 23.2764 15.7359C23.2101 15.4936 23.055 15.2851 22.842 15.152C22.7948 15.1225 22.6749 15.0665 22.3107 15.034C21.9405 15.0009 21.4466 14.9999 20.6991 14.9999H12.3809Z" />
<path fill-rule="evenodd" clip-rule="evenodd" d="M12 19C12 18.4477 12.4477 18 13 18L19 18C19.5523 18 20 18.4477 20 19C20 19.5523 19.5523 20 19 20L13 20C12.4477 20 12 19.5523 12 19Z" />
</symbol><symbol viewBox="0 0 36 44" id="icon-doc-3">
<path fill-rule="evenodd" clip-rule="evenodd" d="M21.8012 3.55554C21.7326 3.52712 21.6351 3.50057 20.6044 3.50057H11.3342C9.19667 3.50057 7.74441 3.50375 6.65731 3.64991C5.61336 3.79027 5.13344 4.03726 4.80772 4.36298C4.482 4.6887 4.23501 5.16861 4.09466 6.21256C3.9485 7.29967 3.94532 8.75192 3.94532 10.8895V33.1117C3.94532 35.2492 3.9485 36.7015 4.09466 37.7886C4.23501 38.8325 4.482 39.3124 4.80772 39.6382C5.13345 39.9639 5.61336 40.2109 6.65731 40.3512C7.74441 40.4974 9.19667 40.5006 11.3342 40.5006H24.6675C26.8051 40.5006 28.2573 40.4974 29.3444 40.3512C30.3884 40.2109 30.8683 39.9639 31.194 39.6382C31.5197 39.3124 31.7667 38.8325 31.9071 37.7886C32.0532 36.7015 32.0564 35.2492 32.0564 33.1117V14.9526C32.0564 13.9219 32.0299 13.8244 32.0014 13.7558C31.973 13.6871 31.9229 13.5994 31.194 12.8706L22.6864 4.36298C21.9576 3.63414 21.8698 3.58397 21.8012 3.55554ZM20.7769 0.500285C21.5084 0.498485 22.2558 0.496645 22.9493 0.783905C23.6428 1.07117 24.17 1.60094 24.6859 2.11945C24.7266 2.1603 24.7671 2.20107 24.8077 2.24165L33.3153 10.7493C33.3559 10.7899 33.3967 10.8304 33.4375 10.8711C33.9561 11.387 34.4858 11.9142 34.7731 12.6077C35.0603 13.3012 35.0585 14.0486 35.0567 14.7801C35.0566 14.8377 35.0564 14.8952 35.0564 14.9526V33.2173C35.0565 35.2225 35.0565 36.8778 34.8803 38.1883C34.6953 39.5649 34.2914 40.7835 33.3153 41.7595C32.3393 42.7355 31.1208 43.1394 29.7442 43.3245C28.4337 43.5007 26.7784 43.5006 24.7733 43.5006H11.2284C9.22333 43.5006 7.56806 43.5007 6.25757 43.3245C4.88095 43.1394 3.66243 42.7355 2.6864 41.7595C1.71038 40.7835 1.30649 39.5649 1.12141 38.1883C0.945216 36.8778 0.945261 35.2225 0.945314 33.2174V10.7838C0.945261 8.77865 0.945216 7.12334 1.12141 5.81282C1.30649 4.43621 1.71038 3.21768 2.6864 2.24166C3.66243 1.26563 4.88095 0.861744 6.25757 0.676662C7.56808 0.500468 9.22339 0.500513 11.2285 0.500566L20.6044 0.500568C20.6618 0.500568 20.7193 0.500427 20.7769 0.500285Z" />
<path fill-rule="evenodd" clip-rule="evenodd" d="M18.7227 10.8889V2H21.7227V10.8889C21.7227 11.9789 21.7259 12.6454 21.7907 13.1274C21.8488 13.5601 21.9316 13.6199 21.9341 13.6218L21.9342 13.6218L21.9342 13.6219C21.9361 13.6244 21.9959 13.7072 22.4286 13.7653C22.9106 13.8301 23.5771 13.8333 24.6671 13.8333H33.556V16.8333H24.6671C24.6363 16.8333 24.6056 16.8333 24.575 16.8333C23.6067 16.8334 22.7349 16.8335 22.0289 16.7386C21.2574 16.6349 20.4635 16.3937 19.8129 15.7431C19.1623 15.0925 18.9211 14.2986 18.8174 13.5271C18.7225 12.8211 18.7226 11.9493 18.7227 10.981C18.7227 10.9504 18.7227 10.9197 18.7227 10.8889Z" />
</symbol><symbol viewBox="0 0 46 46" fill="none" id="icon-enter">
<path d="M9.35201 15.1717L14.045 22.4122C14.3872 22.9402 14.5583 23.2043 14.5583 23.5C14.5583 23.7957 14.3872 24.0598 14.045 24.5878L9.35201 31.8283C7.97113 33.9588 7.28069 35.0241 7.7388 35.5883C8.19691 36.1526 9.38129 35.6958 11.7501 34.7821L36.1622 25.366C38.2016 24.5794 39.2212 24.1861 39.2212 23.5C39.2212 22.8139 38.2016 22.4206 36.1622 21.634L11.7501 12.2179C9.38129 11.3042 8.19691 10.8474 7.7388 11.4117C7.28069 11.9759 7.97113 13.0412 9.35201 15.1717Z" fill="#438AFE" />
</symbol><symbol viewBox="0 0 32 23" id="icon-eye">
<path fill-rule="evenodd" clip-rule="evenodd" d="M16.0002 16.6029C18.5775 16.6029 20.6668 14.5135 20.6668 11.9362C20.6668 9.35887 18.5775 7.26953 16.0002 7.26953C13.4228 7.26953 11.3335 9.35887 11.3335 11.9362C11.3335 14.5135 13.4228 16.6029 16.0002 16.6029ZM16.0002 18.6029C19.6821 18.6029 22.6668 15.6181 22.6668 11.9362C22.6668 8.2543 19.6821 5.26953 16.0002 5.26953C12.3183 5.26953 9.3335 8.2543 9.3335 11.9362C9.3335 15.6181 12.3183 18.6029 16.0002 18.6029Z" />
<path fill-rule="evenodd" clip-rule="evenodd" d="M7.7866 6.22056C5.40346 8.05686 3.55992 10.2158 2.58235 11.473C2.4849 11.5983 2.41089 11.6936 2.34934 11.7774C2.29617 11.8498 2.26271 11.8996 2.24098 11.9355C2.26271 11.9715 2.29617 12.0213 2.34934 12.0937C2.41088 12.1775 2.4849 12.2728 2.58235 12.3981C3.55992 13.6553 5.40346 15.8142 7.7866 17.6505C10.1818 19.4961 13.0175 20.9355 15.9999 20.9355C18.9823 20.9355 21.8181 19.4961 24.2133 17.6505C26.5964 15.8142 28.4399 13.6553 29.4175 12.3981C29.515 12.2728 29.589 12.1775 29.6505 12.0937C29.7037 12.0213 29.7372 11.9715 29.7589 11.9355C29.7372 11.8996 29.7037 11.8498 29.6505 11.7774C29.589 11.6936 29.515 11.5983 29.4175 11.473C28.4399 10.2158 26.5964 8.05687 24.2133 6.22056C21.8181 4.37498 18.9823 2.93555 15.9999 2.93555C13.0175 2.93555 10.1818 4.37498 7.7866 6.22056ZM6.56588 4.63631C9.1229 2.66603 12.3861 0.935547 15.9999 0.935547C19.6137 0.935547 22.877 2.66604 25.434 4.63631C28.003 6.61587 29.9649 8.91875 30.9964 10.2453C31.0202 10.2759 31.0451 10.3075 31.0707 10.3399C31.3731 10.7234 31.7772 11.236 31.7772 11.9355C31.7772 12.6351 31.3731 13.1477 31.0707 13.5312C31.0451 13.5636 31.0202 13.5952 30.9964 13.6258C29.9649 14.9523 28.003 17.2552 25.434 19.2348C22.877 21.2051 19.6137 22.9355 15.9999 22.9355C12.3861 22.9355 9.1229 21.2051 6.56588 19.2348C3.99683 17.2552 2.03497 14.9523 1.00349 13.6258C0.979663 13.5952 0.954796 13.5636 0.929201 13.5312C0.6268 13.1476 0.222656 12.6351 0.222656 11.9355C0.222656 11.236 0.626802 10.7234 0.929203 10.3399C0.954798 10.3075 0.979665 10.2759 1.0035 10.2453C2.03497 8.91875 3.99683 6.61586 6.56588 4.63631Z" />
</symbol><symbol viewBox="0 0 32 26" fill="none" id="icon-eye-close">
<path fill-rule="evenodd" clip-rule="evenodd" d="M16.0002 18.6029C18.5775 18.6029 20.6668 16.5135 20.6668 13.9362C20.6668 11.3589 18.5775 9.26953 16.0002 9.26953C13.4228 9.26953 11.3335 11.3589 11.3335 13.9362C11.3335 16.5135 13.4228 18.6029 16.0002 18.6029ZM16.0002 20.6029C19.6821 20.6029 22.6668 17.6181 22.6668 13.9362C22.6668 10.2543 19.6821 7.26953 16.0002 7.26953C12.3183 7.26953 9.3335 10.2543 9.3335 13.9362C9.3335 17.6181 12.3183 20.6029 16.0002 20.6029Z" fill="#438AFE" />
<path fill-rule="evenodd" clip-rule="evenodd" d="M7.7866 8.22056C5.40346 10.0569 3.55992 12.2158 2.58235 13.473C2.4849 13.5983 2.41089 13.6936 2.34934 13.7774C2.29617 13.8498 2.26271 13.8996 2.24098 13.9355C2.26271 13.9715 2.29617 14.0213 2.34934 14.0937C2.41088 14.1775 2.4849 14.2728 2.58235 14.3981C3.55992 15.6553 5.40346 17.8142 7.7866 19.6505C10.1818 21.4961 13.0175 22.9355 15.9999 22.9355C18.9823 22.9355 21.8181 21.4961 24.2133 19.6505C26.5964 17.8142 28.4399 15.6553 29.4175 14.3981C29.515 14.2728 29.589 14.1775 29.6505 14.0937C29.7037 14.0213 29.7372 13.9715 29.7589 13.9355C29.7372 13.8996 29.7037 13.8498 29.6505 13.7774C29.589 13.6936 29.515 13.5983 29.4175 13.473C28.4399 12.2158 26.5964 10.0569 24.2133 8.22056C21.8181 6.37498 18.9823 4.93555 15.9999 4.93555C13.0175 4.93555 10.1818 6.37498 7.7866 8.22056ZM6.56588 6.63631C9.1229 4.66603 12.3861 2.93555 15.9999 2.93555C19.6137 2.93555 22.877 4.66604 25.434 6.63631C28.003 8.61587 29.9649 10.9188 30.9964 12.2453C31.0202 12.2759 31.0451 12.3075 31.0707 12.3399C31.3731 12.7234 31.7772 13.236 31.7772 13.9355C31.7772 14.6351 31.3731 15.1477 31.0707 15.5312C31.0451 15.5636 31.0202 15.5952 30.9964 15.6258C29.9649 16.9523 28.003 19.2552 25.434 21.2348C22.877 23.2051 19.6137 24.9355 15.9999 24.9355C12.3861 24.9355 9.1229 23.2051 6.56588 21.2348C3.99683 19.2552 2.03497 16.9523 1.00349 15.6258C0.979663 15.5952 0.954796 15.5636 0.929201 15.5312C0.6268 15.1476 0.222656 14.6351 0.222656 13.9355C0.222656 13.236 0.626802 12.7234 0.929203 12.3399C0.954798 12.3075 0.979665 12.2759 1.0035 12.2453C2.03497 10.9187 3.99683 8.61586 6.56588 6.63631Z" fill="#438AFE" />
<path fill-rule="evenodd" clip-rule="evenodd" d="M25.5552 25.6125L4.51322 2.25994L5.99902 0.921143L27.041 24.2737L25.5552 25.6125Z" fill="#438AFE" />
</symbol><symbol viewBox="0 0 32 32" id="icon-folder">
<path fill-rule="evenodd" clip-rule="evenodd" d="M12.405 9.02761C12.3167 9.00641 12.2113 8.99998 11.6745 8.99998H10.2C9.62345 8.99998 9.25118 9.00076 8.96784 9.02391C8.69617 9.0461 8.59546 9.08378 8.54601 9.10897C8.35785 9.20485 8.20487 9.35783 8.109 9.54599C8.0838 9.59543 8.04612 9.69615 8.02393 9.96782C8.00078 10.2512 8 10.6234 8 11.2V20.8C8 21.3765 8.00078 21.7488 8.02393 22.0321C8.04612 22.3038 8.0838 22.4045 8.109 22.454C8.20487 22.6421 8.35785 22.7951 8.54601 22.891C8.59546 22.9162 8.69617 22.9539 8.96784 22.9761C9.25117 22.9992 9.62345 23 10.2 23H19C19.5523 23 20 23.4477 20 24C20 24.5523 19.5523 25 19 25H10.1614C9.6343 25 9.17954 25 8.80497 24.9694C8.40963 24.9371 8.01641 24.8658 7.63803 24.673C7.07354 24.3854 6.6146 23.9264 6.32698 23.362C6.13419 22.9836 6.06287 22.5904 6.03057 22.195C5.99997 21.8204 5.99998 21.3657 6 20.8385V11.1614C5.99998 10.6343 5.99997 10.1795 6.03057 9.80495C6.06287 9.40961 6.13419 9.01639 6.32698 8.63801C6.6146 8.07352 7.07354 7.61458 7.63803 7.32696C8.01641 7.13417 8.40963 7.06285 8.80497 7.03055C9.17955 6.99995 9.63431 6.99996 10.1615 6.99998L11.6745 6.99998C11.7025 6.99998 11.7303 6.99995 11.7578 6.99993C12.1647 6.99955 12.5235 6.99922 12.8719 7.08287C13.178 7.15636 13.4707 7.27757 13.7391 7.44206C14.0446 7.62929 14.298 7.8832 14.5855 8.17119C14.605 8.19069 14.6246 8.21034 14.6444 8.23013L14.7699 8.35562C15.1494 8.73518 15.2285 8.80516 15.3059 8.85262C15.3954 8.90745 15.4929 8.94785 15.595 8.97235C15.6833 8.99355 15.7887 8.99998 16.3255 8.99998L17.8385 8.99998C18.3657 8.99996 18.8205 8.99995 19.195 9.03055C19.5904 9.06285 19.9836 9.13417 20.362 9.32696C20.9265 9.61458 21.3854 10.0735 21.673 10.638C21.8658 11.0164 21.9371 11.4096 21.9694 11.805C22 12.1795 22 12.6343 22 13.1615V13.5C22 14.0523 21.5523 14.5 21 14.5C20.4477 14.5 20 14.0523 20 13.5V13.2C20 12.6234 19.9992 12.2512 19.9761 11.9678C19.9539 11.6962 19.9162 11.5954 19.891 11.546C19.7951 11.3578 19.6422 11.2048 19.454 11.109C19.4045 11.0838 19.3038 11.0461 19.0322 11.0239C18.7488 11.0008 18.3766 11 17.8 11H16.3255C16.2975 11 16.2697 11 16.2422 11C15.8353 11.0004 15.4765 11.0007 15.1281 10.9171C14.822 10.8436 14.5293 10.7224 14.2609 10.5579C13.9554 10.3707 13.702 10.1168 13.4145 9.82877C13.395 9.80928 13.3754 9.78962 13.3556 9.76983L13.2302 9.64435C12.8506 9.26478 12.7715 9.1948 12.6941 9.14734C12.6046 9.09251 12.5071 9.05211 12.405 9.02761Z" />
<path fill-rule="evenodd" clip-rule="evenodd" d="M12.2311 12.9998C12.2806 12.9999 12.3305 12.9999 12.3809 12.9999L20.7439 12.9999C21.4345 12.9999 22.0187 12.9999 22.4888 13.0419C22.9751 13.0854 23.4629 13.1815 23.9021 13.4561C24.5412 13.8555 25.0065 14.4809 25.2055 15.2078C25.3422 15.7074 25.2941 16.2023 25.196 16.6805C25.1012 17.1428 24.9333 17.7024 24.7348 18.3639L23.642 22.0064C23.6275 22.0547 23.6133 22.1025 23.5991 22.1499C23.398 22.824 23.2216 23.4154 22.8536 23.8748C22.5319 24.2765 22.1124 24.5886 21.6353 24.7813C21.0895 25.0017 20.4724 25.0008 19.7689 24.9997C19.7194 24.9996 19.6695 24.9995 19.6191 24.9995L9.1126 24.9995C8.78092 24.9996 8.46889 24.9996 8.2111 24.9766C7.93744 24.9521 7.60155 24.894 7.28393 24.6954C6.85789 24.4291 6.5477 24.0122 6.41504 23.5276C6.31613 23.1663 6.35701 22.8279 6.41221 22.5588C6.46422 22.3052 6.55391 22.0064 6.64926 21.6887L8.35803 15.993C8.37249 15.9448 8.38676 15.897 8.40091 15.8496C8.60203 15.1755 8.77845 14.5841 9.14644 14.1246C9.46808 13.723 9.88761 13.4109 10.3647 13.2182C10.9106 12.9978 11.5277 12.9987 12.2311 12.9998ZM12.3809 14.9999C11.4384 14.9999 11.25 15.0176 11.1136 15.0727C10.9546 15.1369 10.8147 15.241 10.7075 15.3748C10.6156 15.4896 10.5445 15.665 10.2737 16.5677L8.57579 22.2271C8.46572 22.594 8.40322 22.8056 8.37142 22.9606C8.36984 22.9683 8.36841 22.9756 8.36712 22.9824C8.37399 22.9831 8.38134 22.9838 8.38917 22.9845C8.54681 22.9986 8.76742 22.9995 9.15049 22.9995H19.6191C20.5617 22.9995 20.75 22.9819 20.8864 22.9268C21.0455 22.8626 21.1853 22.7585 21.2925 22.6246C21.3844 22.5098 21.4555 22.3345 21.7264 21.4317L22.8063 17.8321C23.0211 17.1162 23.1621 16.6428 23.2368 16.2786C23.3103 15.9205 23.2911 15.7896 23.2764 15.7359C23.2101 15.4936 23.055 15.2851 22.842 15.152C22.7948 15.1225 22.6749 15.0665 22.3107 15.034C21.9405 15.0009 21.4466 14.9999 20.6991 14.9999H12.3809Z" />
<path fill-rule="evenodd" clip-rule="evenodd" d="M12 19C12 18.4477 12.4477 18 13 18L19 18C19.5523 18 20 18.4477 20 19C20 19.5523 19.5523 20 19 20L13 20C12.4477 20 12 19.5523 12 19Z" />
</symbol><symbol viewBox="0 0 32 32" id="icon-gift">
<path fill-rule="evenodd" clip-rule="evenodd" d="M9.94561 11C9.96372 11 9.98186 11 10 11H22C22.0182 11 22.0363 11 22.0544 11C22.4785 10.9999 22.8906 10.9998 23.2305 11.0455C23.6137 11.0971 24.051 11.2226 24.4142 11.5858C24.7774 11.949 24.903 12.3863 24.9545 12.7695C25.0002 13.1094 25.0001 13.5215 25 13.9456C25 13.9637 25 13.9819 25 14V16C25 17.1046 24.1046 18 23 18V24C23 24.0182 23 24.0363 23 24.0544C23.0001 24.4785 23.0002 24.8906 22.9545 25.2305C22.903 25.6137 22.7774 26.051 22.4142 26.4142C22.051 26.7774 21.6137 26.903 21.2305 26.9545C20.8906 27.0002 20.4785 27.0001 20.0544 27C20.0363 27 20.0182 27 20 27H12C11.9819 27 11.9637 27 11.9456 27C11.5215 27.0001 11.1094 27.0002 10.7695 26.9545C10.3863 26.903 9.94902 26.7774 9.5858 26.4142C9.22259 26.051 9.09706 25.6137 9.04554 25.2305C8.99984 24.8906 8.99992 24.4785 9.00001 24.0544C9.00001 24.0363 9.00001 24.0182 9.00001 24V18C7.89544 18 7.00001 17.1046 7.00001 16V14C7.00001 13.9819 7.00001 13.9637 7.00001 13.9456C6.99992 13.5215 6.99984 13.1094 7.04554 12.7695C7.09706 12.3863 7.22259 11.949 7.5858 11.5858C7.94902 11.2226 8.38629 11.0971 8.76949 11.0455C9.10941 10.9998 9.52154 10.9999 9.94561 11ZM9.02871 13.0287C9.02838 13.0311 9.02804 13.0335 9.02771 13.036C9.00214 13.2262 9.00001 13.5003 9.00001 14V16C10.1046 16 11 16.8954 11 18V24C11 24.4997 11.0021 24.7738 11.0277 24.964C11.028 24.9665 11.0284 24.9689 11.0287 24.9713C11.0311 24.9717 11.0335 24.972 11.036 24.9723C11.2262 24.9979 11.5003 25 12 25H20C20.4997 25 20.7738 24.9979 20.964 24.9723C20.9665 24.972 20.9689 24.9717 20.9713 24.9713C20.9717 24.9689 20.972 24.9665 20.9723 24.964C20.9979 24.7738 21 24.4997 21 24V18C21 16.8954 21.8954 16 23 16V14C23 13.5003 22.9979 13.2262 22.9723 13.036C22.972 13.0335 22.9717 13.0311 22.9713 13.0287C22.9689 13.0284 22.9665 13.028 22.964 13.0277C22.7738 13.0021 22.4997 13 22 13H10C9.50034 13 9.22618 13.0021 9.03599 13.0277C9.03351 13.028 9.03108 13.0284 9.02871 13.0287Z" />
<path fill-rule="evenodd" clip-rule="evenodd" d="M8 17C8 16.4477 8.44772 16 9 16H23C23.5523 16 24 16.4477 24 17C24 17.5523 23.5523 18 23 18H9C8.44772 18 8 17.5523 8 17Z" />
<path fill-rule="evenodd" clip-rule="evenodd" d="M16 10C16.5523 10 17 10.4477 17 11L17 26C17 26.5523 16.5523 27 16 27C15.4477 27 15 26.5523 15 26L15 11C15 10.4477 15.4477 10 16 10Z" />
<path fill-rule="evenodd" clip-rule="evenodd" d="M11.0084 8.72356C10.5123 8.5582 10 8.92744 10 9.45036V9.63247C10 10.0187 10.2472 10.3616 10.6136 10.4838L12.3162 11.0513C12.8402 11.226 13.1233 11.7923 12.9487 12.3162C12.774 12.8402 12.2077 13.1233 11.6838 12.9487L9.98114 12.3812C8.79802 11.9868 8 10.8796 8 9.63247V9.45036C8 7.56233 9.84969 6.22915 11.6408 6.8262C13.2187 7.35216 14.6525 8.23827 15.8286 9.41435L16.7071 10.2929C17.0976 10.6834 17.0976 11.3166 16.7071 11.7071C16.3166 12.0976 15.6834 12.0976 15.2929 11.7071L14.4143 10.8286C13.4578 9.87203 12.2917 9.15134 11.0084 8.72356Z" />
<path fill-rule="evenodd" clip-rule="evenodd" d="M20.9916 8.72356C21.4877 8.5582 22 8.92744 22 9.45036V9.63247C22 10.0187 21.7528 10.3616 21.3864 10.4838L19.6838 11.0513C19.1598 11.226 18.8767 11.7923 19.0513 12.3162C19.226 12.8402 19.7923 13.1233 20.3162 12.9487L22.0189 12.3812C23.202 11.9868 24 10.8796 24 9.63247V9.45036C24 7.56233 22.1503 6.22915 20.3592 6.8262C18.7813 7.35216 17.3475 8.23827 16.1714 9.41435L15.2929 10.2929C14.9024 10.6834 14.9024 11.3166 15.2929 11.7071C15.6834 12.0976 16.3166 12.0976 16.7071 11.7071L17.5857 10.8286C18.5422 9.87203 19.7083 9.15134 20.9916 8.72356Z" />
</symbol><symbol viewBox="0 0 14 14" fill="none" id="icon-graph">
<path d="M13 3L9.83994 6.07228C9.45181 6.44962 8.8339 6.44962 8.44578 6.07228L7.91136 5.55272C7.52324 5.17538 6.90533 5.17537 6.51721 5.55272L4 8" stroke="#6795CA" stroke-width="2" stroke-linecap="round" stroke-linejoin="round" />
<path d="M1 1V9.8C1 10.9201 1 11.4802 1.21799 11.908C1.40973 12.2843 1.71569 12.5903 2.09202 12.782C2.51984 13 3.07989 13 4.2 13H13" stroke="#6795CA" stroke-width="2" stroke-linecap="round" />
</symbol><symbol viewBox="0 0 32 32" id="icon-hat">
<path fill-rule="evenodd" clip-rule="evenodd" d="M15.0528 7.10557C15.3343 6.96481 15.6657 6.96481 15.9472 7.10557L25.4472 11.8556C25.786 12.025 26 12.3712 26 12.75C26 13.1288 25.786 13.475 25.4472 13.6444L15.9472 18.3944C15.6657 18.5352 15.3343 18.5352 15.0528 18.3944L5.55279 13.6444C5.214 13.475 5 13.1288 5 12.75C5 12.3712 5.214 12.025 5.55279 11.8556L15.0528 7.10557ZM8.23607 12.75L15.5 16.382L22.7639 12.75L15.5 9.11803L8.23607 12.75Z" />
<path fill-rule="evenodd" clip-rule="evenodd" d="M9.5625 14.125C10.1148 14.125 10.5625 14.5727 10.5625 15.125V20.8738C10.5693 20.8863 10.5772 20.9002 10.5864 20.9153C10.6558 21.0298 10.8036 21.2274 11.0985 21.4436C11.6863 21.8747 12.9416 22.4375 15.5 22.4375C18.0584 22.4375 19.3137 21.8747 19.9015 21.4436C20.1964 21.2274 20.3442 21.0298 20.4136 20.9153C20.4228 20.9002 20.4307 20.8863 20.4375 20.8738V15.125C20.4375 14.5727 20.8852 14.125 21.4375 14.125C21.9898 14.125 22.4375 14.5727 22.4375 15.125V21.0625C22.4375 21.1371 22.4292 21.2114 22.4126 21.2841L21.4375 21.0625C22.4126 21.2841 22.4124 21.2852 22.4122 21.2862L22.4117 21.2884L22.4106 21.2928L22.4083 21.3025L22.4027 21.3245C22.3985 21.3404 22.3934 21.3587 22.3871 21.3792C22.3747 21.4202 22.3579 21.4701 22.3355 21.5276C22.2907 21.6426 22.2235 21.7878 22.124 21.9519C21.9235 22.2827 21.5991 22.6789 21.0843 23.0564C20.0528 23.8128 18.3393 24.4375 15.5 24.4375C12.6607 24.4375 10.9472 23.8128 9.91574 23.0564C9.40092 22.6789 9.07648 22.2827 8.87598 21.9519C8.77652 21.7878 8.70928 21.6426 8.66446 21.5276C8.64206 21.4701 8.62528 21.4202 8.61286 21.3792C8.60664 21.3587 8.60152 21.3404 8.59732 21.3245L8.59171 21.3025L8.58939 21.2928L8.58834 21.2884L8.58784 21.2862C8.5876 21.2852 8.58737 21.2841 9.5625 21.0625L8.58737 21.2841C8.57084 21.2114 8.5625 21.1371 8.5625 21.0625V15.125C8.5625 14.5727 9.01022 14.125 9.5625 14.125Z" />
</symbol><symbol viewBox="0 0 32 33" id="icon-house">
<path fill-rule="evenodd" clip-rule="evenodd" d="M13.5493 5.65552C12.6637 6.25849 11.6203 7.17807 10.1366 8.48916L8.56517 9.87779C6.87861 11.3681 6.27736 11.9273 5.95499 12.6499C5.6308 13.3766 5.61045 14.2195 5.61045 16.5087V23.3784C5.61045 24.9332 5.61245 26.0018 5.71712 26.8044C5.81843 27.5813 5.9998 27.9567 6.24877 28.2134C6.49362 28.4658 6.84561 28.647 7.58489 28.7495C8.35615 28.8564 9.38549 28.8586 10.8962 28.8586H20.3247C21.8354 28.8586 22.8648 28.8564 23.636 28.7495C24.3753 28.647 24.7273 28.4658 24.9721 28.2134C25.2211 27.9567 25.4025 27.5813 25.5038 26.8044C25.6085 26.0018 25.6105 24.9332 25.6105 23.3784V16.5087C25.6105 14.2195 25.5901 13.3766 25.2659 12.6499C24.9435 11.9273 24.3423 11.3681 22.6557 9.87779L21.0843 8.48916C19.6006 7.17807 18.5572 6.25849 17.6716 5.65552C16.8086 5.06793 16.2037 4.85864 15.6105 4.85864C15.0172 4.85864 14.4123 5.06793 13.5493 5.65552ZM12.4237 4.00236C13.4607 3.29621 14.4598 2.85864 15.6105 2.85864C16.7611 2.85864 17.7602 3.29621 18.7972 4.00236C19.7996 4.68488 20.9369 5.68987 22.3572 6.94502L23.9801 8.37909C24.0355 8.42809 24.0903 8.47646 24.1444 8.52422C25.6056 9.81448 26.5715 10.6674 27.0924 11.835C27.6116 12.9989 27.6112 14.3022 27.6105 16.2863C27.6105 16.3595 27.6105 16.4336 27.6105 16.5087V23.4479C27.6105 24.9162 27.6105 26.1158 27.487 27.063C27.3582 28.0508 27.0793 28.9136 26.4077 29.6059C25.732 30.3025 24.883 30.5958 23.9106 30.7305C22.9859 30.8587 21.8171 30.8587 20.3976 30.8586H10.8233C9.40379 30.8587 8.23496 30.8587 7.3103 30.7305C6.3379 30.5958 5.48885 30.3025 4.81317 29.6059C4.14163 28.9136 3.86273 28.0508 3.73391 27.063C3.6104 26.1159 3.61042 24.9162 3.61045 23.4479L3.61045 16.5087C3.61045 16.4336 3.61043 16.3595 3.6104 16.2863C3.60971 14.3022 3.60926 12.9989 4.12851 11.835C4.64944 10.6674 5.61532 9.81448 7.0765 8.52422C7.13059 8.47646 7.18536 8.42809 7.24081 8.37909L8.86368 6.94501C10.284 5.68986 11.4213 4.68488 12.4237 4.00236Z" />
<path fill-rule="evenodd" clip-rule="evenodd" d="M10.6104 20.8586C10.6104 19.7541 11.5058 18.8586 12.6104 18.8586H18.6104C19.7149 18.8586 20.6104 19.7541 20.6104 20.8586V29.8586C20.6104 30.4109 20.1626 30.8586 19.6104 30.8586C19.0581 30.8586 18.6104 30.4109 18.6104 29.8586V20.8586H12.6104V29.8586C12.6104 30.4109 12.1626 30.8586 11.6104 30.8586C11.0581 30.8586 10.6104 30.4109 10.6104 29.8586V20.8586Z" />
</symbol><symbol viewBox="0 0 32 32" id="icon-list">
<path fill-rule="evenodd" clip-rule="evenodd" d="M12.1104 5C12.1323 5 12.1543 5 12.1763 5L19.8892 5C20.7757 4.99995 21.5395 4.99991 22.1511 5.08215C22.8066 5.17028 23.435 5.36902 23.9447 5.87868C24.4543 6.38835 24.6531 7.0167 24.7412 7.67221C24.8234 8.28388 24.8234 9.0477 24.8233 9.9342V21.0658C24.8234 21.9523 24.8234 22.7161 24.7412 23.3278C24.6531 23.9833 24.4543 24.6117 23.9447 25.1213C23.435 25.631 22.8066 25.8297 22.1511 25.9179C21.5395 26.0001 20.7756 26.0001 19.8891 26H12.1105C11.224 26.0001 10.4601 26.0001 9.84848 25.9179C9.19297 25.8297 8.56462 25.631 8.05495 25.1213C7.54529 24.6117 7.34655 23.9833 7.25841 23.3278C7.17618 22.7161 7.17622 21.9523 7.17627 21.0658L7.17627 10C7.17627 9.97799 7.17627 9.95604 7.17627 9.93417C7.17622 9.04769 7.17618 8.28387 7.25841 7.67221C7.34655 7.0167 7.54529 6.38835 8.05495 5.87868C8.56462 5.36902 9.19297 5.17028 9.84848 5.08215C10.4601 4.99991 11.224 4.99995 12.1104 5ZM10.115 7.06431C9.68124 7.12263 9.54529 7.21677 9.46917 7.2929C9.39304 7.36902 9.2989 7.50497 9.24058 7.93871C9.1784 8.40121 9.17627 9.02893 9.17627 10V21C9.17627 21.9711 9.1784 22.5988 9.24058 23.0613C9.2989 23.495 9.39304 23.631 9.46917 23.7071C9.54529 23.7832 9.68124 23.8774 10.115 23.9357C10.5775 23.9979 11.2052 24 12.1763 24H19.8233C20.7944 24 21.4221 23.9979 21.8846 23.9357C22.3184 23.8774 22.4543 23.7832 22.5304 23.7071C22.6066 23.631 22.7007 23.495 22.759 23.0613C22.8212 22.5988 22.8233 21.9711 22.8233 21V10C22.8233 9.02893 22.8212 8.40122 22.759 7.93871C22.7007 7.50497 22.6066 7.36902 22.5304 7.2929C22.4543 7.21677 22.3184 7.12263 21.8846 7.06431C21.4221 7.00213 20.7944 7 19.8233 7H12.1763C11.2052 7 10.5775 7.00213 10.115 7.06431Z" />
<path fill-rule="evenodd" clip-rule="evenodd" d="M11.647 11.5883C11.647 11.036 12.0947 10.5883 12.647 10.5883H19.3529C19.9051 10.5883 20.3529 11.036 20.3529 11.5883C20.3529 12.1405 19.9051 12.5883 19.3529 12.5883H12.647C12.0947 12.5883 11.647 12.1405 11.647 11.5883Z" />
<path fill-rule="evenodd" clip-rule="evenodd" d="M11.647 16.0588C11.647 15.5066 12.0947 15.0588 12.647 15.0588H19.3529C19.9051 15.0588 20.3529 15.5066 20.3529 16.0588C20.3529 16.6111 19.9051 17.0588 19.3529 17.0588H12.647C12.0947 17.0588 11.647 16.6111 11.647 16.0588Z" />
<path fill-rule="evenodd" clip-rule="evenodd" d="M11.647 20.5294C11.647 19.9771 12.0947 19.5294 12.647 19.5294H17.1176C17.6698 19.5294 18.1176 19.9771 18.1176 20.5294C18.1176 21.0817 17.6698 21.5294 17.1176 21.5294H12.647C12.0947 21.5294 11.647 21.0817 11.647 20.5294Z" />
</symbol><symbol viewBox="0 0 32 32" id="icon-list-plus">
<path fill-rule="evenodd" clip-rule="evenodd" d="M11.25 16.625C11.25 16.0727 11.6977 15.625 12.25 15.625L18.625 15.625C19.1773 15.625 19.625 16.0727 19.625 16.625C19.625 17.1773 19.1773 17.625 18.625 17.625L12.25 17.625C11.6977 17.625 11.25 17.1773 11.25 16.625Z" />
<path fill-rule="evenodd" clip-rule="evenodd" d="M11.25 12.375C11.25 11.8227 11.6977 11.375 12.25 11.375L16.5 11.375C17.0523 11.375 17.5 11.8227 17.5 12.375C17.5 12.9273 17.0523 13.375 16.5 13.375L12.25 13.375C11.6977 13.375 11.25 12.9273 11.25 12.375Z" />
<path fill-rule="evenodd" clip-rule="evenodd" d="M11.25 20.875C11.25 20.3227 11.6977 19.875 12.25 19.875L16.5 19.875C17.0523 19.875 17.5 20.3227 17.5 20.875C17.5 21.4273 17.0523 21.875 16.5 21.875L12.25 21.875C11.6977 21.875 11.25 21.4273 11.25 20.875Z" />
<path fill-rule="evenodd" clip-rule="evenodd" d="M13.9294 5L14.375 5V7H14C12.5575 7 11.5763 7.00213 10.8414 7.10092C10.1354 7.19585 9.80836 7.36322 9.58579 7.58579C9.36322 7.80836 9.19585 8.13538 9.10092 8.84143C9.00213 9.57625 9 10.5575 9 12V19.125C9 20.5675 9.00213 21.5487 9.10092 22.2836C9.19585 22.9896 9.36322 23.3166 9.58579 23.5392C9.80836 23.7618 10.1354 23.9292 10.8414 24.0241C11.5763 24.1229 12.5575 24.125 14 24.125H16.875C18.3175 24.125 19.2988 24.1229 20.0336 24.0241C20.7396 23.9292 21.0666 23.7618 21.2892 23.5392C21.5118 23.3166 21.6792 22.9896 21.7741 22.2836C21.8729 21.5487 21.875 20.5675 21.875 19.125V16.625H23.875L23.875 19.1956C23.875 20.5497 23.8751 21.6663 23.7563 22.5501C23.6315 23.4779 23.3595 24.2973 22.7034 24.9534C22.0473 25.6095 21.2279 25.8815 20.3001 26.0063C19.4163 26.1251 18.2997 26.125 16.9455 26.125H13.9295C12.5753 26.125 11.4587 26.1251 10.5749 26.0063C9.64711 25.8815 8.82768 25.6095 8.17158 24.9534C7.51547 24.2973 7.2435 23.4779 7.11875 22.5501C6.99994 21.6663 6.99997 20.5497 7 19.1956V11.9294C6.99997 10.5753 6.99994 9.4587 7.11875 8.57494C7.2435 7.64711 7.51547 6.82768 8.17158 6.17158C8.82768 5.51547 9.64711 5.2435 10.5749 5.11875C11.4587 4.99994 12.5753 4.99997 13.9294 5Z" />
<path fill-rule="evenodd" clip-rule="evenodd" d="M21.8125 5C22.3648 5 22.8125 5.44772 22.8125 6L22.8125 12.375C22.8125 12.9273 22.3648 13.375 21.8125 13.375C21.2602 13.375 20.8125 12.9273 20.8125 12.375L20.8125 6C20.8125 5.44772 21.2602 5 21.8125 5Z" />
<path fill-rule="evenodd" clip-rule="evenodd" d="M26 9.1875C26 9.73978 25.5523 10.1875 25 10.1875L18.625 10.1875C18.0727 10.1875 17.625 9.73978 17.625 9.1875C17.625 8.63521 18.0727 8.1875 18.625 8.1875L25 8.1875C25.5523 8.1875 26 8.63522 26 9.1875Z" />
</symbol><symbol viewBox="0 0 32 33" id="icon-lk">
<path fill-rule="evenodd" clip-rule="evenodd" d="M9.93418 6C9.95604 6 9.97799 6 10 6L22.0658 6C22.9523 5.99995 23.7161 5.99991 24.3278 6.08215C24.9833 6.17028 25.6117 6.36902 26.1213 6.87868C26.631 7.38835 26.8297 8.0167 26.9179 8.67221C27.0001 9.28387 27.0001 10.0477 27 10.9341V23.0659C27.0001 23.9523 27.0001 24.7161 26.9179 25.3278C26.8297 25.9833 26.631 26.6117 26.1213 27.1213C25.6117 27.631 24.9833 27.8297 24.3278 27.9179C23.7161 28.0001 22.9523 28.0001 22.0659 28H9.93414C9.04767 28.0001 8.28387 28.0001 7.67221 27.9179C7.0167 27.8297 6.38835 27.631 5.87868 27.1213C5.36902 26.6117 5.17028 25.9833 5.08215 25.3278C4.99991 24.7161 4.99995 23.9523 5 23.0658L5 11C5 10.978 5 10.956 5 10.9342C4.99995 10.0477 4.99991 9.28387 5.08215 8.67221C5.17028 8.0167 5.36902 7.38835 5.87868 6.87868C6.38835 6.36902 7.0167 6.17028 7.67221 6.08215C8.28387 5.99991 9.04769 5.99995 9.93418 6ZM7.93871 8.06431C7.50497 8.12263 7.36902 8.21677 7.2929 8.2929C7.21677 8.36902 7.12263 8.50497 7.06431 8.93871C7.00213 9.40122 7 10.0289 7 11V23C7 23.9711 7.00213 24.5988 7.06431 25.0613C7.12263 25.495 7.21677 25.631 7.2929 25.7071C7.36902 25.7832 7.50497 25.8774 7.93871 25.9357C8.40122 25.9979 9.02893 26 10 26H22C22.9711 26 23.5988 25.9979 24.0613 25.9357C24.495 25.8774 24.631 25.7832 24.7071 25.7071C24.7832 25.631 24.8774 25.495 24.9357 25.0613C24.9979 24.5988 25 23.9711 25 23V11C25 10.0289 24.9979 9.40122 24.9357 8.93871C24.8774 8.50497 24.7832 8.36902 24.7071 8.2929C24.631 8.21677 24.495 8.12263 24.0613 8.06431C23.5988 8.00213 22.9711 8 22 8H10C9.02893 8 8.40122 8.00213 7.93871 8.06431Z" />
<path fill-rule="evenodd" clip-rule="evenodd" d="M11.0028 12.5498C10.8412 12.469 10.6374 12.4442 9.55556 12.4442H6V10.4442H9.55556C9.61185 10.4442 9.66771 10.4441 9.72316 10.444C10.5356 10.4426 11.2578 10.4413 11.8972 10.761C12.5366 11.0807 12.9689 11.6592 13.4552 12.31C13.4883 12.3545 13.5218 12.3992 13.5556 12.4442L14.4889 13.6887C15.138 14.5541 15.2801 14.7023 15.4417 14.7831C15.6032 14.8639 15.8071 14.8887 16.8889 14.8887H22.6667C23.3081 14.8887 23.7224 14.8877 24.0363 14.8593C24.3365 14.8321 24.4455 14.7862 24.5 14.7547C24.652 14.6669 24.7783 14.5407 24.866 14.3887C24.8975 14.3342 24.9434 14.2252 24.9706 13.925C24.999 13.6111 25 13.1968 25 12.5554H27V12.5984C27 13.1847 27 13.6905 26.9624 14.1056C26.9226 14.5445 26.8346 14.9791 26.5981 15.3887C26.3348 15.8447 25.9561 16.2235 25.5 16.4868C25.0904 16.7233 24.6558 16.8113 24.2169 16.8511C23.8018 16.8887 23.296 16.8887 22.7096 16.8887L16.8889 16.8887C16.8326 16.8887 16.7767 16.8888 16.7213 16.8889C15.9089 16.8904 15.1867 16.8917 14.5472 16.572C13.9078 16.2523 13.4756 15.6737 12.9893 15.0229C12.9561 14.9785 12.9227 14.9337 12.8889 14.8887L11.9556 13.6442C11.3065 12.7788 11.1643 12.6306 11.0028 12.5498Z" />
<path fill-rule="evenodd" clip-rule="evenodd" d="M9.44446 21.4443C9.44446 20.8921 9.89217 20.4443 10.4445 20.4443H19.3333C19.8856 20.4443 20.3333 20.8921 20.3333 21.4443C20.3333 21.9966 19.8856 22.4443 19.3333 22.4443H10.4445C9.89217 22.4443 9.44446 21.9966 9.44446 21.4443Z" />
</symbol><symbol viewBox="0 0 18 14" id="icon-mail">
<path fill-rule="evenodd" clip-rule="evenodd" d="M4.93417 2.43991e-06C4.95604 3.63201e-06 4.97799 4.8241e-06 5 4.8241e-06L13.0658 2.43991e-06C13.9523 -4.73896e-05 14.7161 -9.01893e-05 15.3278 0.0821453C15.9833 0.170277 16.6117 0.369022 17.1213 0.878684C17.631 1.38835 17.8297 2.0167 17.9179 2.67221C18.0001 3.28388 18.0001 4.0477 18 4.9342V9.06581C18.0001 9.95231 18.0001 10.7161 17.9179 11.3278C17.8297 11.9833 17.631 12.6117 17.1213 13.1213C16.6117 13.631 15.9833 13.8297 15.3278 13.9179C14.7161 14.0001 13.9523 14.0001 13.0658 14H4.93417C4.04769 14.0001 3.28387 14.0001 2.67221 13.9179C2.0167 13.8297 1.38835 13.631 0.878684 13.1213C0.369022 12.6117 0.170277 11.9833 0.0821453 11.3278C-9.01893e-05 10.7161 -4.73896e-05 9.95232 2.43991e-06 9.06583L4.8241e-06 5C4.8241e-06 4.97799 3.63201e-06 4.95604 2.43991e-06 4.93417C-4.73896e-05 4.04769 -9.01893e-05 3.28387 0.0821453 2.67221C0.170277 2.0167 0.369022 1.38835 0.878684 0.878684C1.38835 0.369022 2.0167 0.170277 2.67221 0.0821453C3.28387 -9.01893e-05 4.04769 -4.73896e-05 4.93417 2.43991e-06ZM2.93871 2.06431C2.50497 2.12263 2.36902 2.21677 2.2929 2.2929C2.21677 2.36902 2.12263 2.50497 2.06431 2.93871C2.00213 3.40121 2 4.02893 2 5V9C2 9.97108 2.00213 10.5988 2.06431 11.0613C2.12263 11.495 2.21677 11.631 2.2929 11.7071C2.36902 11.7832 2.50497 11.8774 2.93871 11.9357C3.40122 11.9979 4.02893 12 5 12H13C13.9711 12 14.5988 11.9979 15.0613 11.9357C15.495 11.8774 15.631 11.7832 15.7071 11.7071C15.7832 11.631 15.8774 11.495 15.9357 11.0613C15.9979 10.5988 16 9.97108 16 9V5C16 4.02893 15.9979 3.40122 15.9357 2.93871C15.8774 2.50497 15.7832 2.36902 15.7071 2.2929C15.631 2.21677 15.495 2.12263 15.0613 2.06431C14.5988 2.00213 13.9711 2 13 2H5C4.02893 2 3.40122 2.00213 2.93871 2.06431Z" />
<path fill-rule="evenodd" clip-rule="evenodd" d="M7.65837 8.44711L0.552795 4.89432L1.44722 3.10547L8.5528 6.65826C8.83432 6.79902 9.16569 6.79902 9.44722 6.65826L16.5528 3.10547L17.4472 4.89432L10.3416 8.44711C9.49707 8.8694 8.50295 8.8694 7.65837 8.44711Z" />
</symbol><symbol viewBox="0 0 64 49" id="icon-mail-2">
<rect x="2" y="2" width="60" height="45" rx="7" />
<rect x="2" y="2" width="60" height="45" rx="7" fill="white" />
<path d="M32 27.0202L3.1 12.5702V9C3.1 5.74152 5.74152 3.1 9 3.1H55C58.2585 3.1 60.9 5.74152 60.9 9V12.5702L32 27.0202Z" />
</symbol><symbol viewBox="0 0 28 22" id="icon-mail-fill">
<path d="M0 2.77008V5.79238C0 5.84919 0.0321004 5.90113 0.082918 5.92654L12.2984 12.0343C13.1429 12.4565 14.1371 12.4565 14.9816 12.0343L27.1971 5.92654C27.2479 5.90113 27.28 5.84919 27.28 5.79238V2.77008C27.28 1.66551 26.3846 0.770082 25.28 0.770082H2C0.895431 0.770082 0 1.66551 0 2.77008Z" />
<path d="M0 19.23V7.83269C0 7.72118 0.117347 7.64866 0.217082 7.69853L12.2984 13.7392C13.1429 14.1615 14.1371 14.1615 14.9816 13.7392L27.0629 7.69853C27.1626 7.64866 27.28 7.72118 27.28 7.83269V19.23C27.28 20.3346 26.3846 21.23 25.28 21.23H2C0.895431 21.23 0 20.3345 0 19.23Z" />
</symbol><symbol viewBox="0 0 40 40" id="icon-message">
<path fill-rule="evenodd" clip-rule="evenodd" d="M17.8872 0.500001H22.1129C25.7884 0.499969 28.6997 0.499944 30.9781 0.80627C33.3229 1.12153 35.2208 1.78576 36.7176 3.28249C38.2143 4.77921 38.8785 6.67711 39.1938 9.02195C39.5001 11.3004 39.5001 14.2117 39.5 17.8872V22.1128C39.5001 25.7883 39.5001 28.6996 39.1938 30.978C38.8785 33.3229 38.2143 35.2208 36.7176 36.7175C35.2208 38.2142 33.3229 38.8785 30.9781 39.1937C28.6997 39.5001 25.7884 39.5 22.1129 39.5H4.00004C3.97719 39.5 3.95422 39.5 3.93115 39.5C3.52092 39.5002 3.07733 39.5004 2.70289 39.45C2.26425 39.391 1.70387 39.2394 1.23227 38.7678C0.760669 38.2962 0.608998 37.7358 0.550024 37.2971C0.499683 36.9227 0.499857 36.4791 0.500018 36.0689C0.500027 36.0458 0.500036 36.0228 0.500036 36L0.500036 17.8872C0.500004 14.2116 0.499979 11.3004 0.806306 9.02196C1.12156 6.67711 1.7858 4.77921 3.28252 3.28249C4.77925 1.78576 6.67715 1.12153 9.02199 0.80627C11.3004 0.499944 14.2117 0.499969 17.8872 0.500001ZM9.42173 3.77952C7.40955 4.05005 6.25026 4.55739 5.40384 5.40381C4.55742 6.25023 4.05008 7.40952 3.77955 9.4217C3.50322 11.477 3.50004 14.1864 3.50004 18V36C3.50004 36.1982 3.5001 36.3588 3.50234 36.4977C3.64125 36.4999 3.80188 36.5 4.00004 36.5H22C25.8137 36.5 28.523 36.4968 30.5783 36.2205C32.5905 35.95 33.7498 35.4426 34.5962 34.5962C35.4426 33.7498 35.95 32.5905 36.2205 30.5783C36.4969 28.523 36.5 25.8136 36.5 22V18C36.5 14.1864 36.4969 11.477 36.2205 9.4217C35.95 7.40952 35.4426 6.25023 34.5962 5.40381C33.7498 4.55739 32.5905 4.05005 30.5783 3.77952C28.523 3.50319 25.8137 3.5 22 3.5H18C14.1864 3.5 11.4771 3.50319 9.42173 3.77952Z" />
</symbol><symbol viewBox="0 0 69 74" id="icon-notation">
<path d="M12.1667 24.3056C12.1667 22.1645 12.1667 21.094 12.2486 20.1917C13.1217 10.5748 20.7414 2.95501 30.3584 2.08192C31.2607 2 32.3312 2 34.4722 2C36.6133 2 37.6838 2 38.5861 2.08192C48.203 2.95501 55.8228 10.5748 56.6959 20.1917C56.7778 21.094 56.7778 22.1645 56.7778 24.3055V36.7619C56.7778 39.1975 56.7778 40.4152 57.0584 41.5748C57.1907 42.1211 57.3688 42.6553 57.5908 43.1718C58.062 44.2678 58.7926 45.242 60.254 47.1905L61.7444 49.1778C64.8861 53.3666 66.4569 55.4611 65.6277 57.1194C64.7985 58.7778 62.1805 58.7778 56.9444 58.7778H12C6.76394 58.7778 4.1459 58.7778 3.31672 57.1194C2.48754 55.4611 4.05836 53.3666 7.2 49.1778L8.69048 47.1905C10.1518 45.242 10.8825 44.2678 11.3537 43.1718C11.5757 42.6553 11.7538 42.1211 11.886 41.5748C12.1667 40.4152 12.1667 39.1975 12.1667 36.7619V24.3056Z" />
<path d="M24.679 64.7626C25.2567 66.9185 26.5296 68.8235 28.3003 70.1822C30.071 71.5409 32.2405 72.2773 34.4724 72.2773C36.7044 72.2773 38.8739 71.5409 40.6446 70.1822C42.4153 68.8235 43.6882 66.9185 44.2659 64.7626" />
</symbol><symbol viewBox="0 0 32 32" id="icon-note">
<path fill-rule="evenodd" clip-rule="evenodd" d="M11.7008 7.14258L11.75 7.14258V9.14258C10.9768 9.14258 10.4722 9.14379 10.0908 9.18259C9.72608 9.21969 9.58647 9.28271 9.50792 9.33519C9.38314 9.41857 9.27599 9.52571 9.19261 9.6505C9.14013 9.72904 9.07711 9.86866 9.04001 10.2333C9.00121 10.6147 9 11.1194 9 11.8926V22.0712C9 23.1096 9.00213 23.7878 9.06954 24.2892C9.13309 24.7618 9.23769 24.9251 9.33474 25.0221C9.43178 25.1192 9.59503 25.2238 10.0677 25.2873C10.5691 25.3547 11.2473 25.3569 12.2857 25.3569H18.7143C19.7527 25.3569 20.4309 25.3547 20.9323 25.2873C21.405 25.2238 21.5682 25.1192 21.6653 25.0221C21.7623 24.9251 21.8669 24.7618 21.9305 24.2892C21.9979 23.7878 22 23.1096 22 22.0712V11.8926C22 11.1194 21.9988 10.6147 21.96 10.2333C21.9229 9.86866 21.8599 9.72904 21.8074 9.6505C21.724 9.52571 21.6169 9.41857 21.4921 9.33519C21.4135 9.28271 21.2739 9.21969 20.9092 9.18259C20.5278 9.14379 20.0232 9.14258 19.25 9.14258V7.14258L19.2992 7.14258C20.0096 7.14255 20.6169 7.14253 21.1116 7.19286C21.6345 7.24604 22.1413 7.36359 22.6032 7.67225C22.9464 7.90155 23.241 8.19619 23.4703 8.53936C23.779 9.0013 23.8965 9.50811 23.9497 10.0309C24.0001 10.5257 24 11.133 24 11.8433L24 22.1379C24.0001 23.091 24.0001 23.9052 23.9126 24.5557C23.8193 25.2501 23.6101 25.9058 23.0795 26.4363C22.5489 26.9669 21.8933 27.1761 21.1988 27.2695C20.5483 27.357 19.7342 27.3569 18.7811 27.3569H12.219C11.2659 27.3569 10.4517 27.357 9.80117 27.2695C9.10676 27.1761 8.45111 26.9669 7.92053 26.4363C7.38994 25.9058 7.18074 25.2501 7.08738 24.5557C6.99991 23.9052 6.99996 23.091 7 22.1379L7 11.8434C6.99998 11.133 6.99995 10.5257 7.05028 10.0309C7.10347 9.50811 7.22102 9.0013 7.52967 8.53936C7.75897 8.19619 8.05361 7.90155 8.39678 7.67225C8.85872 7.36359 9.36554 7.24604 9.88836 7.19286C10.3831 7.14253 10.9904 7.14255 11.7008 7.14258Z" />
<path fill-rule="evenodd" clip-rule="evenodd" d="M11.2856 8.14286C11.2856 6.40711 12.6927 5 14.4285 5H16.5714C18.3071 5 19.7142 6.40711 19.7142 8.14286C19.7142 9.87861 18.3071 11.2857 16.5714 11.2857H14.4285C12.6927 11.2857 11.2856 9.87861 11.2856 8.14286ZM14.4285 7C13.7973 7 13.2856 7.51167 13.2856 8.14286C13.2856 8.77404 13.7973 9.28571 14.4285 9.28571H16.5714C17.2025 9.28571 17.7142 8.77404 17.7142 8.14286C17.7142 7.51167 17.2025 7 16.5714 7H14.4285Z" />
<path fill-rule="evenodd" clip-rule="evenodd" d="M11.2856 15.6426C11.2856 15.0903 11.7334 14.6426 12.2856 14.6426L18.7142 14.6426C19.2665 14.6426 19.7142 15.0903 19.7142 15.6426C19.7142 16.1949 19.2665 16.6426 18.7142 16.6426L12.2856 16.6426C11.7334 16.6426 11.2856 16.1949 11.2856 15.6426Z" />
<path fill-rule="evenodd" clip-rule="evenodd" d="M11.2856 19.9287C11.2856 19.3764 11.7334 18.9287 12.2856 18.9287L16.5714 18.9287C17.1236 18.9287 17.5714 19.3764 17.5714 19.9287C17.5714 20.481 17.1236 20.9287 16.5714 20.9287L12.2856 20.9287C11.7334 20.9287 11.2856 20.481 11.2856 19.9287Z" />
</symbol><symbol viewBox="0 0 24 24" fill="none" id="icon-notification">
<g clip-path="url(#icon-notification_clip0_1218_73764)">
<path d="M12.1094 0C5.42202 0 0 5.42397 0 12.1094C0 18.7987 5.42202 24.2188 12.1094 24.2188C18.7967 24.2188 24.2188 18.7987 24.2188 12.1094C24.2188 5.42397 18.7967 0 12.1094 0ZM12.1094 5.37109C13.242 5.37109 14.1602 6.28926 14.1602 7.42188C14.1602 8.55449 13.242 9.47266 12.1094 9.47266C10.9768 9.47266 10.0586 8.55449 10.0586 7.42188C10.0586 6.28926 10.9768 5.37109 12.1094 5.37109ZM14.8438 17.7734C14.8438 18.097 14.5814 18.3594 14.2578 18.3594H9.96094C9.63735 18.3594 9.375 18.097 9.375 17.7734V16.6016C9.375 16.278 9.63735 16.0156 9.96094 16.0156H10.5469V12.8906H9.96094C9.63735 12.8906 9.375 12.6283 9.375 12.3047V11.1328C9.375 10.8092 9.63735 10.5469 9.96094 10.5469H13.0859C13.4095 10.5469 13.6719 10.8092 13.6719 11.1328V16.0156H14.2578C14.5814 16.0156 14.8438 16.278 14.8438 16.6016V17.7734Z" fill="#438AFE" />
</g>
<defs>

</defs>
</symbol><clipPath id="icon-notification_clip0_1218_73764">
<rect width="24" height="24" fill="white" />
</clipPath><symbol viewBox="0 0 32 33" id="icon-page">
<path fill-rule="evenodd" clip-rule="evenodd" d="M11.5398 4.85864H19.6809C21.035 4.85861 22.1517 4.85858 23.0354 4.9774C23.9632 5.10214 24.7827 5.37411 25.4388 6.03022C26.0949 6.68633 26.3669 7.50575 26.4916 8.43358C26.6104 9.31734 26.6104 10.434 26.6104 11.7881V21.9292C26.6104 23.2833 26.6104 24.3999 26.4916 25.2837C26.3669 26.2115 26.0949 27.031 25.4388 27.6871C24.7827 28.3432 23.9632 28.6151 23.0354 28.7399C22.1517 28.8587 21.035 28.8587 19.6809 28.8586H11.5398C10.1857 28.8587 9.06905 28.8587 8.18529 28.7399C7.25746 28.6151 6.43804 28.3432 5.78193 27.6871C5.12582 27.031 4.85385 26.2115 4.72911 25.2837C4.61029 24.4 4.61032 23.2833 4.61035 21.9292V11.7881C4.61032 10.434 4.61029 9.31734 4.72911 8.43358C4.85385 7.50575 5.12582 6.68633 5.78193 6.03022C6.43804 5.37411 7.25746 5.10214 8.18529 4.9774C9.06905 4.85858 10.1857 4.85861 11.5398 4.85864ZM8.45179 6.95956C7.74573 7.05449 7.41871 7.22186 7.19614 7.44443C6.97357 7.667 6.8062 7.99402 6.71127 8.70008C6.61248 9.4349 6.61035 10.4162 6.61035 11.8586V21.8586C6.61035 23.3011 6.61248 24.2824 6.71127 25.0172C6.8062 25.7233 6.97357 26.0503 7.19614 26.2729C7.41871 26.4954 7.74573 26.6628 8.45179 26.7577C9.18661 26.8565 10.1679 26.8586 11.6104 26.8586H19.6104C21.0528 26.8586 22.0341 26.8565 22.7689 26.7577C23.475 26.6628 23.802 26.4954 24.0246 26.2729C24.2471 26.0503 24.4145 25.7233 24.5094 25.0172C24.6082 24.2824 24.6104 23.3011 24.6104 21.8586V11.8586C24.6104 10.4162 24.6082 9.4349 24.5094 8.70008C24.4145 7.99402 24.2471 7.667 24.0246 7.44443C23.802 7.22186 23.475 7.05449 22.7689 6.95956C22.0341 6.86077 21.0528 6.85864 19.6104 6.85864H11.6104C10.1679 6.85864 9.18661 6.86077 8.45179 6.95956Z" />
<path fill-rule="evenodd" clip-rule="evenodd" d="M6.03906 13.7158C6.03906 13.1635 6.48678 12.7158 7.03906 12.7158H24.1819C24.7342 12.7158 25.1819 13.1635 25.1819 13.7158C25.1819 14.2681 24.7342 14.7158 24.1819 14.7158H7.03906C6.48678 14.7158 6.03906 14.2681 6.03906 13.7158Z" />
</symbol><symbol viewBox="0 0 20 20" fill="none" id="icon-pencil">
<path d="M12.4725 2.33519C12.4722 2.33546 12.4719 2.33574 12.4717 2.33601L2.94391 11.8638C2.93083 11.8769 2.91735 11.8903 2.90354 11.904C2.75137 12.0552 2.55875 12.2467 2.42186 12.4885L3.29206 12.9812L2.42186 12.4885C2.28498 12.7302 2.21991 12.9939 2.16851 13.2022C2.16384 13.2211 2.15929 13.2396 2.1548 13.2575L1.23197 16.9488C1.22917 16.96 1.22624 16.9717 1.22323 16.9837C1.18641 17.1301 1.1354 17.3331 1.11783 17.5127C1.09761 17.7194 1.09093 18.1713 1.45971 18.5401L2.16682 17.833L1.45971 18.5401C1.82849 18.9089 2.28045 18.9022 2.48714 18.882C2.66676 18.8644 2.86968 18.8134 3.01617 18.7766C3.02817 18.7736 3.03979 18.7706 3.05099 18.7678L6.74231 17.845C6.76025 17.8405 6.7787 17.836 6.79761 17.8313C7.00591 17.7799 7.26958 17.7148 7.51135 17.5779L7.01865 16.7077L7.51135 17.5779C7.75311 17.4411 7.94456 17.2484 8.09582 17.0963C8.10955 17.0824 8.12295 17.069 8.13602 17.0559L17.6638 7.52813C17.6766 7.51529 17.6894 7.50247 17.7023 7.48967C18.0022 7.18986 18.2937 6.8985 18.5017 6.62582C18.7362 6.31843 18.9567 5.92047 18.9567 5.40681C18.9567 4.89314 18.7362 4.49518 18.5017 4.18779C18.2937 3.91511 18.0022 3.62374 17.7022 3.32393C17.6894 3.31113 17.6766 3.29832 17.6638 3.28549L16.7143 2.33601C16.7015 2.32318 16.6887 2.31035 16.6758 2.29754C16.376 1.99761 16.0847 1.70614 15.812 1.4981C15.5046 1.26356 15.1067 1.04312 14.593 1.04312C14.0793 1.04312 13.6814 1.26356 13.374 1.4981C13.1013 1.70614 12.8099 1.99761 12.5101 2.29753C12.4976 2.31007 12.4851 2.32262 12.4725 2.33519Z" stroke="#6795CA" stroke-width="2" />
<path d="M11.4453 3.5186L15.2232 1L19.0011 4.7779L16.4825 8.5558L11.4453 3.5186Z" fill="#6795CA" />
</symbol><symbol viewBox="0 0 32 32" id="icon-people">
<path fill-rule="evenodd" clip-rule="evenodd" d="M16.0189 14.5333C17.1096 14.5333 18.1242 13.5919 18.1242 12.2667C18.1242 10.9414 17.1096 10 16.0189 10C14.9281 10 13.9136 10.9414 13.9136 12.2667C13.9136 13.5919 14.9281 14.5333 16.0189 14.5333ZM16.0189 16.5333C18.2862 16.5333 20.1242 14.6231 20.1242 12.2667C20.1242 9.91025 18.2862 8 16.0189 8C13.7516 8 11.9136 9.91025 11.9136 12.2667C11.9136 14.6231 13.7516 16.5333 16.0189 16.5333Z" />
<path fill-rule="evenodd" clip-rule="evenodd" d="M21.6592 12.277C21.4189 12.1328 21.1441 12.0978 20.8884 12.169C20.6303 12.2409 20.3868 12.4234 20.2307 12.7045C20.0731 12.9882 20.027 13.3349 20.1114 13.6622C20.1954 13.9881 20.3946 14.2434 20.6384 14.3896C20.8787 14.5338 21.1535 14.5688 21.4091 14.4976C21.6673 14.4257 21.9108 14.2432 22.0669 13.9621C22.2245 13.6784 22.2706 13.3317 22.1862 13.0044C22.1022 12.6785 21.903 12.4232 21.6592 12.277ZM20.3519 10.2423C21.1406 10.0227 21.981 10.1376 22.6883 10.562C23.3953 10.9863 23.9114 11.6851 24.1228 12.5051C24.3342 13.3249 24.2235 14.1984 23.8153 14.9333C23.4068 15.6685 22.7342 16.2047 21.9457 16.4243C21.157 16.6439 20.3166 16.529 19.6093 16.1046C18.9023 15.6803 18.3861 14.9815 18.1747 14.1615C17.9634 13.3417 18.0741 12.4683 18.4823 11.7333L19.3565 12.2189L18.4823 11.7333C18.8907 10.9981 19.5634 10.4619 20.3519 10.2423Z" />
<path fill-rule="evenodd" clip-rule="evenodd" d="M11.3936 12.277C11.1533 12.1328 10.8785 12.0978 10.6228 12.169C10.3646 12.2409 10.1212 12.4234 9.96505 12.7045C9.80748 12.9882 9.76139 13.3349 9.84579 13.6622C9.92982 13.9881 10.129 14.2434 10.3727 14.3896C10.613 14.5338 10.8878 14.5688 11.1435 14.4976C11.4017 14.4257 11.6451 14.2432 11.8013 13.9621C11.9589 13.6784 12.0049 13.3317 11.9206 13.0044C11.8365 12.6785 11.6374 12.4232 11.3936 12.277ZM10.0863 10.2423C10.875 10.0227 11.7154 10.1376 12.4227 10.562C13.1297 10.9863 13.6458 11.6851 13.8572 12.5051C14.0686 13.3249 13.9579 14.1984 13.5496 14.9333C13.1412 15.6685 12.4686 16.2047 11.6801 16.4243C10.8914 16.6439 10.0509 16.529 9.34369 16.1046C8.63668 15.6803 8.12052 14.9815 7.90912 14.1615C7.69776 13.3417 7.80844 12.4683 8.21671 11.7333L9.09088 12.2189L8.21671 11.7333C8.62512 10.9981 9.29774 10.4619 10.0863 10.2423Z" />
<path fill-rule="evenodd" clip-rule="evenodd" d="M20.6569 19.7039C21.2452 20.4293 21.5971 21.2358 21.809 21.9335H23.9645C23.5543 20.8251 22.7539 19.6669 21.1474 19.6669C20.9725 19.6669 20.8094 19.6798 20.6569 19.7039ZM18.2512 18.6391C18.9922 18.0545 19.9513 17.6669 21.1474 17.6669C24.2402 17.6669 25.4939 20.1681 25.9407 21.5274C26.3802 22.8646 25.2732 23.9335 24.1253 23.9335H20.2028L20.0459 23.1238C19.8638 22.1838 19.4078 20.9617 18.328 20.2641L17.1533 19.5053L18.2512 18.6391Z" />
<path fill-rule="evenodd" clip-rule="evenodd" d="M8.06887 21.9335H10.2263C10.4381 21.2359 10.79 20.4295 11.3781 19.7041C11.2252 19.6799 11.0615 19.6669 10.886 19.6669C9.27954 19.6669 8.47904 20.8251 8.06887 21.9335ZM6.09267 21.5274C6.53948 20.1681 7.79324 17.6669 10.886 17.6669C12.0827 17.6669 13.0422 18.0549 13.7833 18.6399L14.8802 19.5059L13.7065 20.2646C12.6272 20.9623 12.1714 22.1841 11.9893 23.1238L11.8324 23.9335H7.90812C6.76022 23.9335 5.65313 22.8646 6.09267 21.5274Z" />
<path fill-rule="evenodd" clip-rule="evenodd" d="M12.0147 23H20.021C19.8803 22.3446 19.599 21.5473 19.055 20.9052C18.4919 20.2404 17.5871 19.6666 16.0178 19.6666C14.4485 19.6666 13.5438 20.2404 12.9806 20.9052C12.4367 21.5473 12.1554 22.3446 12.0147 23ZM11.4546 19.6124C12.4036 18.4922 13.8698 17.6666 16.0178 17.6666C18.1659 17.6666 19.632 18.4922 20.581 19.6124C21.496 20.6925 21.8688 21.9711 22.0257 22.8279C22.2564 24.0883 21.2168 25 20.1494 25H11.8862C10.8188 25 9.77926 24.0883 10.01 22.8279C10.1668 21.9711 10.5396 20.6925 11.4546 19.6124Z" />
</symbol><symbol viewBox="0 0 32 32" id="icon-person">
<path fill-rule="evenodd" clip-rule="evenodd" d="M10.6313 20.3732C12.194 19.4738 14.0807 19 16.0001 19C17.9196 19 19.8063 19.4738 21.369 20.3732C22.9311 21.2722 24.1189 22.5702 24.6693 24.1106C24.8551 24.6307 24.5841 25.203 24.064 25.3888C23.5439 25.5746 22.9717 25.3036 22.7858 24.7835C22.4246 23.7723 21.6036 22.8157 20.3714 22.1066C19.1398 21.3978 17.6028 21 16.0001 21C14.3975 21 12.8605 21.3978 11.6288 22.1066C10.3967 22.8157 9.57571 23.7723 9.21444 24.7835C9.02863 25.3036 8.45638 25.5746 7.93629 25.3888C7.4162 25.203 7.14522 24.6307 7.33103 24.1106C7.88136 22.5702 9.06914 21.2721 10.6313 20.3732Z" />
<path fill-rule="evenodd" clip-rule="evenodd" d="M16 9C14.3431 9 13 10.3431 13 12C13 13.6569 14.3431 15 16 15C17.6569 15 19 13.6569 19 12C19 10.3431 17.6569 9 16 9ZM11 12C11 9.23858 13.2386 7 16 7C18.7614 7 21 9.23858 21 12C21 14.7614 18.7614 17 16 17C13.2386 17 11 14.7614 11 12Z" />
</symbol><symbol viewBox="0 0 16 18" id="icon-pin">
<path fill-rule="evenodd" clip-rule="evenodd" d="M8 2C4.68629 2 2 4.68629 2 8C2 10.1458 3.09211 11.9159 4.45503 13.2906C5.77773 14.6248 7.27659 15.5032 8 15.8837C8.72341 15.5032 10.2223 14.6248 11.545 13.2906C12.9079 11.9159 14 10.1458 14 8C14 4.68629 11.3137 2 8 2ZM0 8C0 3.58172 3.58172 0 8 0C12.4183 0 16 3.58172 16 8C16 10.8706 14.5326 13.1178 12.9653 14.6987C11.397 16.2805 9.64481 17.2838 8.85847 17.6917C8.31691 17.9726 7.68309 17.9726 7.14153 17.6917C6.35519 17.2838 4.60299 16.2805 3.03474 14.6987C1.46741 13.1178 0 10.8706 0 8ZM8 6C6.89543 6 6 6.89543 6 8C6 9.10457 6.89543 10 8 10C9.10457 10 10 9.10457 10 8C10 6.89543 9.10457 6 8 6ZM4 8C4 5.79086 5.79086 4 8 4C10.2091 4 12 5.79086 12 8C12 10.2091 10.2091 12 8 12C5.79086 12 4 10.2091 4 8Z" />
</symbol><symbol viewBox="0 0 32 32" fill="none" id="icon-remove">
<path d="M16 29C14.2928 29 12.6023 28.6637 11.0251 28.0104C9.44788 27.3571 8.01477 26.3995 6.80761 25.1924C5.60045 23.9852 4.64288 22.5521 3.98957 20.9749C3.33625 19.3977 3 17.7072 3 16C3 14.2928 3.33626 12.6023 3.98957 11.0251C4.64288 9.44788 5.60045 8.01477 6.80761 6.80761C8.01478 5.60045 9.44788 4.64288 11.0251 3.98957C12.6024 3.33625 14.2928 3 16 3C17.7072 3 19.3977 3.33626 20.9749 3.98957C22.5521 4.64288 23.9852 5.60045 25.1924 6.80761C26.3996 8.01478 27.3571 9.44789 28.0104 11.0251C28.6637 12.6024 29 14.2928 29 16C29 17.7072 28.6637 19.3977 28.0104 20.9749C27.3571 22.5521 26.3995 23.9852 25.1924 25.1924C23.9852 26.3996 22.5521 27.3571 20.9749 28.0104C19.3976 28.6637 17.7072 29 16 29L16 29Z" stroke="#EE6B8D" stroke-width="3" stroke-linecap="round" />
<path d="M11.6641 11.666L20.3307 20.3327" stroke="#EE6B8D" stroke-width="3" stroke-linecap="round" />
<path d="M20.3359 11.666L11.6693 20.3327" stroke="#EE6B8D" stroke-width="3" stroke-linecap="round" />
</symbol><symbol viewBox="0 0 32 32" id="icon-report">
<path fill-rule="evenodd" clip-rule="evenodd" d="M24.7071 10.1259C25.0976 10.5164 25.0976 11.1496 24.7071 11.5401L19.7475 16.4997C18.9665 17.2807 17.7002 17.2807 16.9191 16.4997L15.5 15.0806L11.4849 19.0957C11.0944 19.4862 10.4612 19.4862 10.0707 19.0957C9.68015 18.7051 9.68015 18.072 10.0707 17.6815L14.0858 13.6663C14.8668 12.8853 16.1332 12.8853 16.9142 13.6663L18.3333 15.0855L23.2929 10.1259C23.6834 9.73538 24.3166 9.73538 24.7071 10.1259Z" />
<path fill-rule="evenodd" clip-rule="evenodd" d="M7 7C7.55229 7 8 7.44772 8 8V21.8C8 22.3766 8.00078 22.7488 8.02393 23.0322C8.04612 23.3038 8.0838 23.4045 8.109 23.454C8.20487 23.6422 8.35785 23.7951 8.54601 23.891C8.59546 23.9162 8.69617 23.9539 8.96784 23.9761C9.25117 23.9992 9.62345 24 10.2 24H24C24.5523 24 25 24.4477 25 25C25 25.5523 24.5523 26 24 26H10.1615C9.63435 26 9.17956 26 8.80497 25.9694C8.40963 25.9371 8.01641 25.8658 7.63803 25.673C7.07354 25.3854 6.6146 24.9265 6.32698 24.362C6.13419 23.9836 6.06287 23.5904 6.03057 23.195C5.99997 22.8205 5.99998 22.3657 6 21.8385L6 8C6 7.44772 6.44772 7 7 7Z" />
</symbol><symbol viewBox="0 0 32 32" id="icon-settings">
<path fill-rule="evenodd" clip-rule="evenodd" d="M13.875 11.5C13.875 10.9477 14.3227 10.5 14.875 10.5L25 10.5C25.5523 10.5 26 10.9477 26 11.5C26 12.0523 25.5523 12.5 25 12.5L14.875 12.5C14.3227 12.5 13.875 12.0523 13.875 11.5Z" />
<path fill-rule="evenodd" clip-rule="evenodd" d="M6 20.5C6 19.9477 6.44772 19.5 7 19.5L18.25 19.5C18.8023 19.5 19.25 19.9477 19.25 20.5C19.25 21.0523 18.8023 21.5 18.25 21.5L7 21.5C6.44772 21.5 6 21.0523 6 20.5Z" />
<path fill-rule="evenodd" clip-rule="evenodd" d="M12.75 11.5C12.75 10.1883 11.6867 9.125 10.375 9.125C9.06332 9.125 8 10.1883 8 11.5C8 12.8117 9.06332 13.875 10.375 13.875C11.6867 13.875 12.75 12.8117 12.75 11.5ZM10.375 7.125C12.7912 7.125 14.75 9.08375 14.75 11.5C14.75 13.9162 12.7912 15.875 10.375 15.875C7.95875 15.875 6 13.9162 6 11.5C6 9.08375 7.95875 7.125 10.375 7.125Z" />
<path fill-rule="evenodd" clip-rule="evenodd" d="M24 20.5C24 19.1883 22.9367 18.125 21.625 18.125C20.3133 18.125 19.25 19.1883 19.25 20.5C19.25 21.8117 20.3133 22.875 21.625 22.875C22.9367 22.875 24 21.8117 24 20.5ZM21.625 16.125C24.0412 16.125 26 18.0838 26 20.5C26 22.9162 24.0412 24.875 21.625 24.875C19.2088 24.875 17.25 22.9162 17.25 20.5C17.25 18.0838 19.2088 16.125 21.625 16.125Z" />
</symbol><symbol viewBox="0 0 32 32" id="icon-site">
<path fill-rule="evenodd" clip-rule="evenodd" d="M11.9342 6C11.956 6 11.978 6 12 6L21.0658 6C21.9523 5.99995 22.7161 5.99991 23.3278 6.08215C23.9833 6.17028 24.6117 6.36902 25.1213 6.87868C25.631 7.38835 25.8297 8.0167 25.9179 8.67221C26.0001 9.28388 26.0001 10.0477 26 10.9342V20.0658C26.0001 20.9523 26.0001 21.7161 25.9179 22.3278C25.8297 22.9833 25.631 23.6117 25.1213 24.1213C24.6117 24.631 23.9833 24.8297 23.3278 24.9179C22.7161 25.0001 21.9523 25.0001 21.0658 25H11.9342C11.0477 25.0001 10.2839 25.0001 9.67221 24.9179C9.0167 24.8297 8.38835 24.631 7.87868 24.1213C7.36902 23.6117 7.17028 22.9833 7.08215 22.3278C6.99991 21.7161 6.99995 20.9523 7 20.0658L7 11C7 10.978 7 10.956 7 10.9342C6.99995 10.0477 6.99991 9.28387 7.08215 8.67221C7.17028 8.0167 7.36902 7.38835 7.87868 6.87868C8.38835 6.36902 9.0167 6.17028 9.67221 6.08215C10.2839 5.99991 11.0477 5.99995 11.9342 6ZM9.93871 8.06431C9.50497 8.12263 9.36902 8.21677 9.2929 8.2929C9.21677 8.36902 9.12263 8.50497 9.06431 8.93871C9.00213 9.40121 9 10.0289 9 11V20C9 20.9711 9.00213 21.5988 9.06431 22.0613C9.12263 22.495 9.21677 22.631 9.2929 22.7071C9.36902 22.7832 9.50497 22.8774 9.93871 22.9357C10.4012 22.9979 11.0289 23 12 23H21C21.9711 23 22.5988 22.9979 23.0613 22.9357C23.495 22.8774 23.631 22.7832 23.7071 22.7071C23.7832 22.631 23.8774 22.495 23.9357 22.0613C23.9979 21.5988 24 20.9711 24 20V11C24 10.0289 23.9979 9.40121 23.9357 8.93871C23.8774 8.50497 23.7832 8.36902 23.7071 8.2929C23.631 8.21677 23.495 8.12263 23.0613 8.06431C22.5988 8.00213 21.9711 8 21 8H12C11.0289 8 10.4012 8.00213 9.93871 8.06431Z" />
<path fill-rule="evenodd" clip-rule="evenodd" d="M12.1694 11.8834C12.0079 11.8027 11.804 11.7779 10.7222 11.7779H8V9.77786H10.7222C10.7785 9.77786 10.8344 9.77776 10.8898 9.77766C11.7022 9.77619 12.4245 9.77488 13.0639 10.0946C13.7033 10.4143 14.1356 10.9929 14.6218 11.6437C14.655 11.6881 14.6884 11.7328 14.7222 11.7779L15.1556 12.3556C15.8046 13.2211 15.9468 13.3693 16.1083 13.4501C16.2699 13.5308 16.4737 13.5556 17.5556 13.5556H22.1667C23.0236 13.5556 23.2045 13.5423 23.3214 13.5026C23.6158 13.4026 23.847 13.1715 23.9469 12.8771C23.9866 12.7602 24 12.5792 24 11.7223H26C26 11.7694 26.0001 11.816 26.0001 11.8621C26.001 12.497 26.0017 13.046 25.8408 13.52C25.541 14.4031 24.8475 15.0966 23.9643 15.3964C23.4903 15.5573 22.9413 15.5566 22.3065 15.5558C22.2603 15.5557 22.2137 15.5556 22.1667 15.5556H17.5556C17.4993 15.5556 17.4434 15.5557 17.3879 15.5558C16.5755 15.5573 15.8533 15.5586 15.2139 15.2389C14.5745 14.9192 14.1422 14.3407 13.656 13.6898C13.6228 13.6454 13.5893 13.6007 13.5556 13.5556L13.1222 12.9779C12.4731 12.1124 12.331 11.9642 12.1694 11.8834Z" />
<path fill-rule="evenodd" clip-rule="evenodd" d="M10.7769 19.2778C10.7769 18.7255 11.2246 18.2778 11.7769 18.2778H19.3324C19.8847 18.2778 20.3324 18.7255 20.3324 19.2778C20.3324 19.8301 19.8847 20.2778 19.3324 20.2778H11.7769C11.2246 20.2778 10.7769 19.8301 10.7769 19.2778Z" />
</symbol><symbol viewBox="0 0 19 19" id="icon-tel">
<path fill-rule="evenodd" clip-rule="evenodd" d="M4.00059 2.41481C2.48458 3.99099 2.32965 6.43954 3.64699 8.196L4.82856 9.77142C6.07935 11.4391 7.56083 12.9206 9.22856 14.1714L10.804 15.353C12.5604 16.6703 15.009 16.5154 16.5852 14.9994L14 12.4142L12.9788 13.4354C12.5122 13.902 11.7993 14.0177 11.209 13.7225C8.64219 12.4391 6.56085 10.3578 5.27742 7.79094C4.98229 7.20067 5.09798 6.48778 5.56462 6.02114L6.58577 4.99999L4.00059 2.41481ZM2.64811 0.937651C3.39473 0.191032 4.60524 0.191029 5.35186 0.937651L7.99999 3.58578C8.78103 4.36682 8.78103 5.63315 7.99999 6.4142L7.22045 7.19373C8.26634 9.13878 9.8612 10.7336 11.8062 11.7795L12.5858 11C13.3668 10.2189 14.6331 10.2189 15.4142 11L18.0623 13.6481C18.8089 14.3947 18.8089 15.6052 18.0623 16.3519C15.7852 18.629 12.1802 18.8852 9.60397 16.953L8.02856 15.7714C6.20922 14.4069 4.59306 12.7908 3.22856 10.9714L2.04699 9.396C0.114802 6.81974 0.371 3.21476 2.64811 0.937651Z" />
</symbol><symbol viewBox="0 0 46 46" fill="none" id="icon-upload">
<path d="M25.5921 7H18.1429C14.7757 7 13.0921 7 12.046 8.0414C11 9.0828 11 10.7589 11 14.1111V31.8889C11 35.2411 11 36.9172 12.046 37.9586C13.0921 39 14.7757 39 18.1429 39H28.8571C32.2243 39 33.9079 39 34.954 37.9586C36 36.9172 36 35.2411 36 31.8889V17.3616C36 16.635 36 16.2716 35.8641 15.9449C35.7281 15.6182 35.4701 15.3613 34.954 14.8475L28.1175 8.0414C27.6013 7.52757 27.3433 7.27065 27.0151 7.13533C26.687 7 26.322 7 25.5921 7Z" stroke="#4B5A73" stroke-width="2" />
<path d="M25.2852 7V14.1111C25.2852 15.7872 25.2852 16.6253 25.8082 17.146C26.3312 17.6667 27.173 17.6667 28.8566 17.6667H35.9994" stroke="#4B5A73" stroke-width="2" />
<path d="M27 25L23 22M23 22L19 25M23 22L23 32" stroke="#4B5A73" stroke-width="2" stroke-linecap="round" stroke-linejoin="round" />
</symbol><symbol viewBox="0 0 32 32" id="icon-vebinar">
<path fill-rule="evenodd" clip-rule="evenodd" d="M6 16.5C6 11.2533 10.2533 7 15.5 7C20.7467 7 25 11.2533 25 16.5V21.9441C25 22.4229 25 22.836 24.9747 23.1772C24.9479 23.5368 24.889 23.8957 24.7289 24.2462C24.4291 24.9027 23.9027 25.4291 23.2462 25.7289C22.8957 25.889 22.5368 25.9479 22.1772 25.9747C21.836 26 21.4229 26 20.9441 26H15.5C10.2533 26 6 21.7467 6 16.5ZM15.5 9C11.3579 9 8 12.3579 8 16.5C8 20.6421 11.3579 24 15.5 24H20.9091C21.4327 24 21.7708 23.9994 22.0289 23.9802C22.2769 23.9617 22.3702 23.9303 22.4154 23.9096C22.6342 23.8097 22.8097 23.6342 22.9096 23.4154C22.9303 23.3702 22.9617 23.2769 22.9802 23.0289C22.9994 22.7708 23 22.4327 23 21.9091V16.5C23 12.3579 19.6421 9 15.5 9Z" />
<path fill-rule="evenodd" clip-rule="evenodd" d="M11.3125 15.4375C11.3125 14.8852 11.7602 14.4375 12.3125 14.4375L18.6875 14.4375C19.2398 14.4375 19.6875 14.8852 19.6875 15.4375C19.6875 15.9898 19.2398 16.4375 18.6875 16.4375L12.3125 16.4375C11.7602 16.4375 11.3125 15.9898 11.3125 15.4375Z" />
<path fill-rule="evenodd" clip-rule="evenodd" d="M14.5 19.6875C14.5 19.1352 14.9477 18.6875 15.5 18.6875H18.6875C19.2398 18.6875 19.6875 19.1352 19.6875 19.6875C19.6875 20.2398 19.2398 20.6875 18.6875 20.6875H15.5C14.9477 20.6875 14.5 20.2398 14.5 19.6875Z" />
</symbol></defs><use id="icon-accept-usage" xlink:href="#icon-accept" class="sprite-symbol-usage" /><use id="icon-arrow-usage" xlink:href="#icon-arrow" class="sprite-symbol-usage" /><use id="icon-arrow-back-usage" xlink:href="#icon-arrow-back" class="sprite-symbol-usage" /><use id="icon-arrow-right-usage" xlink:href="#icon-arrow-right" class="sprite-symbol-usage" /><use id="icon-bird-usage" xlink:href="#icon-bird" class="sprite-symbol-usage" /><use id="icon-chat-usage" xlink:href="#icon-chat" class="sprite-symbol-usage" /><use id="icon-chat-2-usage" xlink:href="#icon-chat-2" class="sprite-symbol-usage" /><use id="icon-chevrone-usage" xlink:href="#icon-chevrone" class="sprite-symbol-usage" /><use id="icon-course-usage" xlink:href="#icon-course" class="sprite-symbol-usage" /><use id="icon-cubes-usage" xlink:href="#icon-cubes" class="sprite-symbol-usage" /><use id="icon-doc-usage" xlink:href="#icon-doc" class="sprite-symbol-usage" /><use id="icon-doc-2-usage" xlink:href="#icon-doc-2" class="sprite-symbol-usage" /><use id="icon-doc-3-usage" xlink:href="#icon-doc-3" class="sprite-symbol-usage" /><use id="icon-enter-usage" xlink:href="#icon-enter" class="sprite-symbol-usage" /><use id="icon-eye-usage" xlink:href="#icon-eye" class="sprite-symbol-usage" /><use id="icon-eye-close-usage" xlink:href="#icon-eye-close" class="sprite-symbol-usage" /><use id="icon-folder-usage" xlink:href="#icon-folder" class="sprite-symbol-usage" /><use id="icon-gift-usage" xlink:href="#icon-gift" class="sprite-symbol-usage" /><use id="icon-graph-usage" xlink:href="#icon-graph" class="sprite-symbol-usage" /><use id="icon-hat-usage" xlink:href="#icon-hat" class="sprite-symbol-usage" /><use id="icon-house-usage" xlink:href="#icon-house" class="sprite-symbol-usage" /><use id="icon-list-usage" xlink:href="#icon-list" class="sprite-symbol-usage" /><use id="icon-list-plus-usage" xlink:href="#icon-list-plus" class="sprite-symbol-usage" /><use id="icon-lk-usage" xlink:href="#icon-lk" class="sprite-symbol-usage" /><use id="icon-mail-usage" xlink:href="#icon-mail" class="sprite-symbol-usage" /><use id="icon-mail-2-usage" xlink:href="#icon-mail-2" class="sprite-symbol-usage" /><use id="icon-mail-fill-usage" xlink:href="#icon-mail-fill" class="sprite-symbol-usage" /><use id="icon-message-usage" xlink:href="#icon-message" class="sprite-symbol-usage" /><use id="icon-notation-usage" xlink:href="#icon-notation" class="sprite-symbol-usage" /><use id="icon-note-usage" xlink:href="#icon-note" class="sprite-symbol-usage" /><use id="icon-notification-usage" xlink:href="#icon-notification" class="sprite-symbol-usage" /><use id="icon-page-usage" xlink:href="#icon-page" class="sprite-symbol-usage" /><use id="icon-pencil-usage" xlink:href="#icon-pencil" class="sprite-symbol-usage" /><use id="icon-people-usage" xlink:href="#icon-people" class="sprite-symbol-usage" /><use id="icon-person-usage" xlink:href="#icon-person" class="sprite-symbol-usage" /><use id="icon-pin-usage" xlink:href="#icon-pin" class="sprite-symbol-usage" /><use id="icon-remove-usage" xlink:href="#icon-remove" class="sprite-symbol-usage" /><use id="icon-report-usage" xlink:href="#icon-report" class="sprite-symbol-usage" /><use id="icon-settings-usage" xlink:href="#icon-settings" class="sprite-symbol-usage" /><use id="icon-site-usage" xlink:href="#icon-site" class="sprite-symbol-usage" /><use id="icon-tel-usage" xlink:href="#icon-tel" class="sprite-symbol-usage" /><use id="icon-upload-usage" xlink:href="#icon-upload" class="sprite-symbol-usage" /><use id="icon-vebinar-usage" xlink:href="#icon-vebinar" class="sprite-symbol-usage" /></svg>