<svg xmlns="http://www.w3.org/2000/svg" xmlns:xlink="http://www.w3.org/1999/xlink"><defs><style>
    .sprite-symbol-usage {display: none;}
    .sprite-symbol-usage:target {display: inline;}
  </style><symbol viewBox="0 0 35 10" id="icon-arrow-back">
<path fill-rule="evenodd" clip-rule="evenodd" d="M1.74805 5C1.74805 4.44772 2.19576 4 2.74805 4H33.4097C33.962 4 34.4097 4.44772 34.4097 5C34.4097 5.55228 33.962 6 33.4097 6H2.74805C2.19576 6 1.74805 5.55228 1.74805 5Z" />
<path fill-rule="evenodd" clip-rule="evenodd" d="M6.10045 0.277241C6.49962 0.658925 6.51379 1.29193 6.13211 1.6911L2.89033 5.0814L6.11485 8.29133C6.50626 8.68096 6.5077 9.31413 6.11806 9.70554C5.72842 10.0969 5.09526 10.0984 4.70385 9.70875L0.784734 5.80738C0.398882 5.42327 0.39121 4.80107 0.767474 4.40757L4.68659 0.308903C5.06827 -0.0902667 5.70128 -0.104442 6.10045 0.277241Z" />
</symbol><symbol viewBox="0 0 9 15" id="icon-arrow-right">
<path fill-rule="evenodd" clip-rule="evenodd" d="M0.403245 1.21282C0.0127206 1.60334 0.0127207 2.23651 0.403245 2.62703L5.69614 7.91992L0.403246 13.2128C0.0127217 13.6033 0.0127217 14.2365 0.403246 14.627C0.79377 15.0176 1.42694 15.0176 1.81746 14.627L7.81746 8.62703C8.20798 8.2365 8.20798 7.60334 7.81746 7.21282L1.81746 1.21282C1.42693 0.822291 0.793769 0.822291 0.403245 1.21282Z" />
</symbol><symbol viewBox="0 0 33 33" id="icon-bird">
<g clip-path="url(#icon-bird_clip0_346_110597)">
<path d="M9.04008 32.8593C8.8813 32.8598 8.72431 32.8257 8.58009 32.7593C8.38781 32.6717 8.2245 32.5311 8.10936 32.354C7.99422 32.1768 7.93204 31.9705 7.9301 31.7593C7.9301 30.0193 10.7701 26.4493 14.2101 24.6193C15.6419 23.8941 17.1878 23.4205 18.7801 23.2193C19.2301 23.1493 19.6701 23.0693 20.0901 22.9793C20.1144 22.7867 20.1144 22.5918 20.0901 22.3993C20.0419 21.4222 19.9249 20.4498 19.7401 19.4893C18.792 20.7245 17.5653 21.7182 16.1601 22.3893C15.6783 22.621 15.1465 22.7295 14.6124 22.7051C14.0784 22.6806 13.5587 22.524 13.1001 22.2493C11.3158 21.1576 9.81766 19.656 8.73009 17.8693C7.31946 15.4967 6.84516 12.6831 7.40007 9.97926C8.21007 4.62926 12.7401 1.44926 13.2601 1.10926C13.4602 0.965464 13.7024 0.892332 13.9487 0.901385C14.1949 0.910437 14.4311 1.00116 14.6201 1.15926C14.795 1.32757 14.9117 1.54734 14.9531 1.78656C14.9944 2.02578 14.9584 2.27197 14.8501 2.48926C14.5014 3.45707 14.2763 4.46504 14.1801 5.48926L14.1301 5.80926C13.8901 7.43926 13.6801 8.85926 17.2501 11.8093C18.2663 12.6303 19.1588 13.5935 19.9001 14.6693L19.9701 14.4193C20.0362 14.139 20.0863 13.8552 20.1201 13.5693C20.3301 12.1893 20.6401 10.0893 22.1201 9.15926C22.5919 8.89779 23.1169 8.74666 23.6556 8.71721C24.1942 8.68777 24.7325 8.78078 25.2301 8.98926C25.9945 9.3025 26.6782 9.78452 27.2301 10.3993L27.6101 10.8293L27.2401 11.9393L26.6701 12.0693C26.2416 12.1257 25.8495 12.3396 25.5701 12.6693C25.5109 12.7711 25.4732 12.884 25.4595 13.001C25.4457 13.1179 25.4562 13.2365 25.4901 13.3493L25.7801 14.4593C26.3501 16.5493 27.0501 19.1393 25.7801 21.0493C24.8433 22.5917 23.4434 23.7991 21.7801 24.4993C20.8438 26.8415 19.4883 28.9933 17.7801 30.8493C17.6475 30.9967 17.4802 31.1087 17.2933 31.1751C17.1065 31.2415 16.906 31.2601 16.7101 31.2293C15.3518 31.0315 13.9687 31.0857 12.6301 31.3893C11.6423 31.5442 10.7022 31.9202 9.88008 32.4893C9.77224 32.6044 9.64223 32.6965 9.49788 32.7601C9.35352 32.8237 9.19781 32.8574 9.04008 32.8593ZM19.3601 25.1093H19.1101C17.7185 25.2744 16.3656 25.6769 15.1101 26.2993C13.5334 27.1741 12.1492 28.3576 11.0401 29.7793C11.3901 29.6693 11.7301 29.5793 12.0401 29.4993C13.5106 29.1556 15.0289 29.0643 16.5301 29.2293C17.6295 27.9786 18.5669 26.5944 19.3201 25.1093H19.3601ZM21.1801 17.0793C21.7357 18.6904 22.0458 20.3759 22.1001 22.0793C22.9213 21.4927 23.6209 20.7523 24.1601 19.8993C24.9401 18.7493 24.3701 16.6493 23.9101 14.9693C23.8001 14.5593 23.7001 14.1593 23.6101 13.7893C23.509 13.4121 23.488 13.018 23.5482 12.6322C23.6085 12.2465 23.7488 11.8776 23.9601 11.5493C24.1395 11.2839 24.3588 11.0478 24.6101 10.8493C24.3956 10.7556 24.1641 10.7073 23.9301 10.7073C23.6961 10.7073 23.4646 10.7556 23.2501 10.8493C22.5201 11.2993 22.2501 12.8493 22.1401 13.8493C22.094 14.2128 22.0272 14.5734 21.9401 14.9293C21.7315 15.6662 21.4639 16.3852 21.1401 17.0793H21.1801ZM12.3401 4.55926C10.8235 6.12001 9.8068 8.09764 9.42009 10.2393C8.91627 12.4608 9.27363 14.7908 10.4201 16.7593C11.3369 18.281 12.6058 19.5602 14.1201 20.4893C14.2944 20.5966 14.4929 20.6584 14.6974 20.6689C14.9019 20.6794 15.1057 20.6382 15.2901 20.5493C16.8545 19.7954 18.1344 18.5576 18.9401 17.0193C18.2251 15.5939 17.2 14.3467 15.9401 13.3693C11.8301 9.97926 11.7701 7.90926 12.1201 5.53926V5.23926C12.2301 5.00926 12.2701 4.77926 12.3001 4.55926H12.3401Z" />
</g>
<defs>

</defs>
</symbol><clipPath id="icon-bird_clip0_346_110597">
<rect width="32" height="32" fill="white" transform="translate(0.807617 0.920166)" />
</clipPath><symbol viewBox="0 0 15 9" id="icon-chevrone">
<path fill-rule="evenodd" clip-rule="evenodd" d="M14.317 1.15154C13.9264 0.761012 13.2933 0.761012 12.9028 1.15154L7.60986 6.44443L2.31697 1.15154C1.92645 0.761012 1.29328 0.761012 0.902756 1.15154C0.512232 1.54206 0.512232 2.17523 0.902756 2.56575L6.90276 8.56575C7.29328 8.95627 7.92645 8.95627 8.31697 8.56575L14.317 2.56575C14.7075 2.17523 14.7075 1.54206 14.317 1.15154Z" />
</symbol><symbol viewBox="0 0 32 33" id="icon-doc">
<path fill-rule="evenodd" clip-rule="evenodd" d="M19.0398 4.89117C19.0037 4.87625 18.9496 4.85855 18.284 4.85855H12.3246C10.9495 4.85855 10.0187 4.86067 9.32283 4.95423C8.65567 5.04393 8.35595 5.20084 8.1543 5.40249C7.95265 5.60414 7.79574 5.90387 7.70604 6.57102C7.61248 7.26693 7.61035 8.19769 7.61035 9.57283V23.8585C7.61035 25.2337 7.61248 26.1644 7.70604 26.8604C7.79574 27.5275 7.95265 27.8272 8.1543 28.0289C8.35595 28.2305 8.65567 28.3874 9.32283 28.4771C10.0187 28.5707 10.9495 28.5728 12.3246 28.5728H20.8961C22.2712 28.5728 23.202 28.5707 23.8979 28.4771C24.565 28.3874 24.8648 28.2305 25.0664 28.0289C25.2681 27.8272 25.425 27.5275 25.5147 26.8604C25.6082 26.1644 25.6104 25.2337 25.6104 23.8585V12.1849C25.6104 11.5193 25.5927 11.4652 25.5777 11.4291C25.5628 11.3931 25.537 11.3423 25.0664 10.8717L19.5972 5.40249C19.1266 4.93189 19.0758 4.90609 19.0398 4.89117ZM18.3962 2.85835C18.8647 2.85713 19.3524 2.85586 19.8051 3.04341C20.2579 3.23096 20.6019 3.57669 20.9323 3.90883C20.9587 3.93543 20.9851 3.96194 21.0114 3.98828L26.4806 9.45746C26.507 9.48379 26.5335 9.51016 26.5601 9.53662C26.8922 9.86704 27.2379 10.211 27.4255 10.6638C27.613 11.1165 27.6118 11.6042 27.6106 12.0727C27.6105 12.1102 27.6104 12.1476 27.6104 12.1849V23.9286C27.6104 25.2158 27.6104 26.282 27.4968 27.1269C27.3773 28.0158 27.1158 28.8079 26.4806 29.4431C25.8454 30.0783 25.0533 30.3398 24.1644 30.4593C23.3195 30.5729 22.2533 30.5729 20.9661 30.5728H12.2546C10.9674 30.5729 9.90121 30.5729 9.05633 30.4593C8.1674 30.3398 7.37527 30.0783 6.74009 29.4431C6.1049 28.8079 5.84339 28.0158 5.72388 27.1269C5.61029 26.282 5.61032 25.2158 5.61035 23.9286V9.50276C5.61032 8.21558 5.61029 7.1494 5.72388 6.30452C5.84339 5.41559 6.1049 4.62346 6.74009 3.98828C7.37527 3.35309 8.1674 3.09158 9.05633 2.97207C9.90121 2.85848 10.9674 2.85851 12.2546 2.85854L18.284 2.85855C18.3213 2.85855 18.3587 2.85845 18.3962 2.85835Z" />
<path fill-rule="evenodd" clip-rule="evenodd" d="M11.3247 18.1445C11.3247 17.5922 11.7724 17.1445 12.3247 17.1445L20.8961 17.1445C21.4484 17.1445 21.8961 17.5922 21.8961 18.1445C21.8961 18.6968 21.4484 19.1445 20.8961 19.1445L12.3247 19.1445C11.7724 19.1445 11.3247 18.6968 11.3247 18.1445Z" />
<path fill-rule="evenodd" clip-rule="evenodd" d="M11.3247 23.8586C11.3247 23.3064 11.7724 22.8586 12.3247 22.8586L18.039 22.8586C18.5913 22.8586 19.039 23.3064 19.039 23.8586C19.039 24.4109 18.5913 24.8586 18.039 24.8586L12.3247 24.8586C11.7724 24.8586 11.3247 24.4109 11.3247 23.8586Z" />
<path fill-rule="evenodd" clip-rule="evenodd" d="M18.0391 2.85864C18.5914 2.85864 19.0391 3.30636 19.0391 3.85864V9.57293C19.0391 10.2746 19.0412 10.7003 19.0825 11.0072C19.1015 11.1489 19.1245 11.2244 19.1404 11.263C19.1525 11.2926 19.1601 11.3001 19.1642 11.3041L19.1646 11.3045L19.165 11.305C19.1691 11.3091 19.1766 11.3166 19.2061 11.3288C19.2447 11.3446 19.3202 11.3676 19.4619 11.3867C19.7688 11.4279 20.1945 11.4301 20.8962 11.4301H26.6105C27.1628 11.4301 27.6105 11.8778 27.6105 12.4301C27.6105 12.9824 27.1628 13.4301 26.6105 13.4301H20.8962C20.8759 13.4301 20.8556 13.4301 20.8354 13.4301C20.2143 13.4301 19.6517 13.4302 19.1954 13.3689C18.6955 13.3016 18.1764 13.1447 17.7504 12.7188C17.3244 12.2928 17.1675 11.7736 17.1003 11.2737C17.0389 10.8174 17.039 10.2548 17.0391 9.63375C17.0391 9.61353 17.0391 9.59326 17.0391 9.57293V3.85864C17.0391 3.30636 17.4868 2.85864 18.0391 2.85864Z" />
</symbol><symbol viewBox="0 0 32 23" fill="none" id="icon-eye">
<path fill-rule="evenodd" clip-rule="evenodd" d="M16.0002 16.6029C18.5775 16.6029 20.6668 14.5135 20.6668 11.9362C20.6668 9.35887 18.5775 7.26953 16.0002 7.26953C13.4228 7.26953 11.3335 9.35887 11.3335 11.9362C11.3335 14.5135 13.4228 16.6029 16.0002 16.6029ZM16.0002 18.6029C19.6821 18.6029 22.6668 15.6181 22.6668 11.9362C22.6668 8.2543 19.6821 5.26953 16.0002 5.26953C12.3183 5.26953 9.3335 8.2543 9.3335 11.9362C9.3335 15.6181 12.3183 18.6029 16.0002 18.6029Z" fill="#4B5A73" />
<path fill-rule="evenodd" clip-rule="evenodd" d="M7.7866 6.22056C5.40346 8.05686 3.55992 10.2158 2.58235 11.473C2.4849 11.5983 2.41089 11.6936 2.34934 11.7774C2.29617 11.8498 2.26271 11.8996 2.24098 11.9355C2.26271 11.9715 2.29617 12.0213 2.34934 12.0937C2.41088 12.1775 2.4849 12.2728 2.58235 12.3981C3.55992 13.6553 5.40346 15.8142 7.7866 17.6505C10.1818 19.4961 13.0175 20.9355 15.9999 20.9355C18.9823 20.9355 21.8181 19.4961 24.2133 17.6505C26.5964 15.8142 28.4399 13.6553 29.4175 12.3981C29.515 12.2728 29.589 12.1775 29.6505 12.0937C29.7037 12.0213 29.7372 11.9715 29.7589 11.9355C29.7372 11.8996 29.7037 11.8498 29.6505 11.7774C29.589 11.6936 29.515 11.5983 29.4175 11.473C28.4399 10.2158 26.5964 8.05687 24.2133 6.22056C21.8181 4.37498 18.9823 2.93555 15.9999 2.93555C13.0175 2.93555 10.1818 4.37498 7.7866 6.22056ZM6.56588 4.63631C9.1229 2.66603 12.3861 0.935547 15.9999 0.935547C19.6137 0.935547 22.877 2.66604 25.434 4.63631C28.003 6.61587 29.9649 8.91875 30.9964 10.2453C31.0202 10.2759 31.0451 10.3075 31.0707 10.3399C31.3731 10.7234 31.7772 11.236 31.7772 11.9355C31.7772 12.6351 31.3731 13.1477 31.0707 13.5312C31.0451 13.5636 31.0202 13.5952 30.9964 13.6258C29.9649 14.9523 28.003 17.2552 25.434 19.2348C22.877 21.2051 19.6137 22.9355 15.9999 22.9355C12.3861 22.9355 9.1229 21.2051 6.56588 19.2348C3.99683 17.2552 2.03497 14.9523 1.00349 13.6258C0.979663 13.5952 0.954796 13.5636 0.929201 13.5312C0.6268 13.1476 0.222656 12.6351 0.222656 11.9355C0.222656 11.236 0.626802 10.7234 0.929203 10.3399C0.954798 10.3075 0.979665 10.2759 1.0035 10.2453C2.03497 8.91875 3.99683 6.61586 6.56588 4.63631Z" fill="#4B5A73" />
</symbol><symbol viewBox="0 0 32 26" fill="none" id="icon-eye-close">
<path fill-rule="evenodd" clip-rule="evenodd" d="M16.0002 18.6029C18.5775 18.6029 20.6668 16.5135 20.6668 13.9362C20.6668 11.3589 18.5775 9.26953 16.0002 9.26953C13.4228 9.26953 11.3335 11.3589 11.3335 13.9362C11.3335 16.5135 13.4228 18.6029 16.0002 18.6029ZM16.0002 20.6029C19.6821 20.6029 22.6668 17.6181 22.6668 13.9362C22.6668 10.2543 19.6821 7.26953 16.0002 7.26953C12.3183 7.26953 9.3335 10.2543 9.3335 13.9362C9.3335 17.6181 12.3183 20.6029 16.0002 20.6029Z" fill="#438AFE" />
<path fill-rule="evenodd" clip-rule="evenodd" d="M7.7866 8.22056C5.40346 10.0569 3.55992 12.2158 2.58235 13.473C2.4849 13.5983 2.41089 13.6936 2.34934 13.7774C2.29617 13.8498 2.26271 13.8996 2.24098 13.9355C2.26271 13.9715 2.29617 14.0213 2.34934 14.0937C2.41088 14.1775 2.4849 14.2728 2.58235 14.3981C3.55992 15.6553 5.40346 17.8142 7.7866 19.6505C10.1818 21.4961 13.0175 22.9355 15.9999 22.9355C18.9823 22.9355 21.8181 21.4961 24.2133 19.6505C26.5964 17.8142 28.4399 15.6553 29.4175 14.3981C29.515 14.2728 29.589 14.1775 29.6505 14.0937C29.7037 14.0213 29.7372 13.9715 29.7589 13.9355C29.7372 13.8996 29.7037 13.8498 29.6505 13.7774C29.589 13.6936 29.515 13.5983 29.4175 13.473C28.4399 12.2158 26.5964 10.0569 24.2133 8.22056C21.8181 6.37498 18.9823 4.93555 15.9999 4.93555C13.0175 4.93555 10.1818 6.37498 7.7866 8.22056ZM6.56588 6.63631C9.1229 4.66603 12.3861 2.93555 15.9999 2.93555C19.6137 2.93555 22.877 4.66604 25.434 6.63631C28.003 8.61587 29.9649 10.9188 30.9964 12.2453C31.0202 12.2759 31.0451 12.3075 31.0707 12.3399C31.3731 12.7234 31.7772 13.236 31.7772 13.9355C31.7772 14.6351 31.3731 15.1477 31.0707 15.5312C31.0451 15.5636 31.0202 15.5952 30.9964 15.6258C29.9649 16.9523 28.003 19.2552 25.434 21.2348C22.877 23.2051 19.6137 24.9355 15.9999 24.9355C12.3861 24.9355 9.1229 23.2051 6.56588 21.2348C3.99683 19.2552 2.03497 16.9523 1.00349 15.6258C0.979663 15.5952 0.954796 15.5636 0.929201 15.5312C0.6268 15.1476 0.222656 14.6351 0.222656 13.9355C0.222656 13.236 0.626802 12.7234 0.929203 12.3399C0.954798 12.3075 0.979665 12.2759 1.0035 12.2453C2.03497 10.9187 3.99683 8.61586 6.56588 6.63631Z" fill="#438AFE" />
<path fill-rule="evenodd" clip-rule="evenodd" d="M25.5552 25.6125L4.51322 2.25994L5.99902 0.921143L27.041 24.2737L25.5552 25.6125Z" fill="#438AFE" />
</symbol><symbol viewBox="0 0 32 33" id="icon-house">
<path fill-rule="evenodd" clip-rule="evenodd" d="M13.5493 5.65552C12.6637 6.25849 11.6203 7.17807 10.1366 8.48916L8.56517 9.87779C6.87861 11.3681 6.27736 11.9273 5.95499 12.6499C5.6308 13.3766 5.61045 14.2195 5.61045 16.5087V23.3784C5.61045 24.9332 5.61245 26.0018 5.71712 26.8044C5.81843 27.5813 5.9998 27.9567 6.24877 28.2134C6.49362 28.4658 6.84561 28.647 7.58489 28.7495C8.35615 28.8564 9.38549 28.8586 10.8962 28.8586H20.3247C21.8354 28.8586 22.8648 28.8564 23.636 28.7495C24.3753 28.647 24.7273 28.4658 24.9721 28.2134C25.2211 27.9567 25.4025 27.5813 25.5038 26.8044C25.6085 26.0018 25.6105 24.9332 25.6105 23.3784V16.5087C25.6105 14.2195 25.5901 13.3766 25.2659 12.6499C24.9435 11.9273 24.3423 11.3681 22.6557 9.87779L21.0843 8.48916C19.6006 7.17807 18.5572 6.25849 17.6716 5.65552C16.8086 5.06793 16.2037 4.85864 15.6105 4.85864C15.0172 4.85864 14.4123 5.06793 13.5493 5.65552ZM12.4237 4.00236C13.4607 3.29621 14.4598 2.85864 15.6105 2.85864C16.7611 2.85864 17.7602 3.29621 18.7972 4.00236C19.7996 4.68488 20.9369 5.68987 22.3572 6.94502L23.9801 8.37909C24.0355 8.42809 24.0903 8.47646 24.1444 8.52422C25.6056 9.81448 26.5715 10.6674 27.0924 11.835C27.6116 12.9989 27.6112 14.3022 27.6105 16.2863C27.6105 16.3595 27.6105 16.4336 27.6105 16.5087V23.4479C27.6105 24.9162 27.6105 26.1158 27.487 27.063C27.3582 28.0508 27.0793 28.9136 26.4077 29.6059C25.732 30.3025 24.883 30.5958 23.9106 30.7305C22.9859 30.8587 21.8171 30.8587 20.3976 30.8586H10.8233C9.40379 30.8587 8.23496 30.8587 7.3103 30.7305C6.3379 30.5958 5.48885 30.3025 4.81317 29.6059C4.14163 28.9136 3.86273 28.0508 3.73391 27.063C3.6104 26.1159 3.61042 24.9162 3.61045 23.4479L3.61045 16.5087C3.61045 16.4336 3.61043 16.3595 3.6104 16.2863C3.60971 14.3022 3.60926 12.9989 4.12851 11.835C4.64944 10.6674 5.61532 9.81448 7.0765 8.52422C7.13059 8.47646 7.18536 8.42809 7.24081 8.37909L8.86368 6.94501C10.284 5.68986 11.4213 4.68488 12.4237 4.00236Z" />
<path fill-rule="evenodd" clip-rule="evenodd" d="M10.6104 20.8586C10.6104 19.7541 11.5058 18.8586 12.6104 18.8586H18.6104C19.7149 18.8586 20.6104 19.7541 20.6104 20.8586V29.8586C20.6104 30.4109 20.1626 30.8586 19.6104 30.8586C19.0581 30.8586 18.6104 30.4109 18.6104 29.8586V20.8586H12.6104V29.8586C12.6104 30.4109 12.1626 30.8586 11.6104 30.8586C11.0581 30.8586 10.6104 30.4109 10.6104 29.8586V20.8586Z" />
</symbol><symbol viewBox="0 0 18 14" id="icon-mail">
<path fill-rule="evenodd" clip-rule="evenodd" d="M4.93417 2.43991e-06C4.95604 3.63201e-06 4.97799 4.8241e-06 5 4.8241e-06L13.0658 2.43991e-06C13.9523 -4.73896e-05 14.7161 -9.01893e-05 15.3278 0.0821453C15.9833 0.170277 16.6117 0.369022 17.1213 0.878684C17.631 1.38835 17.8297 2.0167 17.9179 2.67221C18.0001 3.28388 18.0001 4.0477 18 4.9342V9.06581C18.0001 9.95231 18.0001 10.7161 17.9179 11.3278C17.8297 11.9833 17.631 12.6117 17.1213 13.1213C16.6117 13.631 15.9833 13.8297 15.3278 13.9179C14.7161 14.0001 13.9523 14.0001 13.0658 14H4.93417C4.04769 14.0001 3.28387 14.0001 2.67221 13.9179C2.0167 13.8297 1.38835 13.631 0.878684 13.1213C0.369022 12.6117 0.170277 11.9833 0.0821453 11.3278C-9.01893e-05 10.7161 -4.73896e-05 9.95232 2.43991e-06 9.06583L4.8241e-06 5C4.8241e-06 4.97799 3.63201e-06 4.95604 2.43991e-06 4.93417C-4.73896e-05 4.04769 -9.01893e-05 3.28387 0.0821453 2.67221C0.170277 2.0167 0.369022 1.38835 0.878684 0.878684C1.38835 0.369022 2.0167 0.170277 2.67221 0.0821453C3.28387 -9.01893e-05 4.04769 -4.73896e-05 4.93417 2.43991e-06ZM2.93871 2.06431C2.50497 2.12263 2.36902 2.21677 2.2929 2.2929C2.21677 2.36902 2.12263 2.50497 2.06431 2.93871C2.00213 3.40121 2 4.02893 2 5V9C2 9.97108 2.00213 10.5988 2.06431 11.0613C2.12263 11.495 2.21677 11.631 2.2929 11.7071C2.36902 11.7832 2.50497 11.8774 2.93871 11.9357C3.40122 11.9979 4.02893 12 5 12H13C13.9711 12 14.5988 11.9979 15.0613 11.9357C15.495 11.8774 15.631 11.7832 15.7071 11.7071C15.7832 11.631 15.8774 11.495 15.9357 11.0613C15.9979 10.5988 16 9.97108 16 9V5C16 4.02893 15.9979 3.40122 15.9357 2.93871C15.8774 2.50497 15.7832 2.36902 15.7071 2.2929C15.631 2.21677 15.495 2.12263 15.0613 2.06431C14.5988 2.00213 13.9711 2 13 2H5C4.02893 2 3.40122 2.00213 2.93871 2.06431Z" />
<path fill-rule="evenodd" clip-rule="evenodd" d="M7.65837 8.44711L0.552795 4.89432L1.44722 3.10547L8.5528 6.65826C8.83432 6.79902 9.16569 6.79902 9.44722 6.65826L16.5528 3.10547L17.4472 4.89432L10.3416 8.44711C9.49707 8.8694 8.50295 8.8694 7.65837 8.44711Z" />
</symbol><symbol viewBox="0 0 32 33" id="icon-page">
<path fill-rule="evenodd" clip-rule="evenodd" d="M11.5398 4.85864H19.6809C21.035 4.85861 22.1517 4.85858 23.0354 4.9774C23.9632 5.10214 24.7827 5.37411 25.4388 6.03022C26.0949 6.68633 26.3669 7.50575 26.4916 8.43358C26.6104 9.31734 26.6104 10.434 26.6104 11.7881V21.9292C26.6104 23.2833 26.6104 24.3999 26.4916 25.2837C26.3669 26.2115 26.0949 27.031 25.4388 27.6871C24.7827 28.3432 23.9632 28.6151 23.0354 28.7399C22.1517 28.8587 21.035 28.8587 19.6809 28.8586H11.5398C10.1857 28.8587 9.06905 28.8587 8.18529 28.7399C7.25746 28.6151 6.43804 28.3432 5.78193 27.6871C5.12582 27.031 4.85385 26.2115 4.72911 25.2837C4.61029 24.4 4.61032 23.2833 4.61035 21.9292V11.7881C4.61032 10.434 4.61029 9.31734 4.72911 8.43358C4.85385 7.50575 5.12582 6.68633 5.78193 6.03022C6.43804 5.37411 7.25746 5.10214 8.18529 4.9774C9.06905 4.85858 10.1857 4.85861 11.5398 4.85864ZM8.45179 6.95956C7.74573 7.05449 7.41871 7.22186 7.19614 7.44443C6.97357 7.667 6.8062 7.99402 6.71127 8.70008C6.61248 9.4349 6.61035 10.4162 6.61035 11.8586V21.8586C6.61035 23.3011 6.61248 24.2824 6.71127 25.0172C6.8062 25.7233 6.97357 26.0503 7.19614 26.2729C7.41871 26.4954 7.74573 26.6628 8.45179 26.7577C9.18661 26.8565 10.1679 26.8586 11.6104 26.8586H19.6104C21.0528 26.8586 22.0341 26.8565 22.7689 26.7577C23.475 26.6628 23.802 26.4954 24.0246 26.2729C24.2471 26.0503 24.4145 25.7233 24.5094 25.0172C24.6082 24.2824 24.6104 23.3011 24.6104 21.8586V11.8586C24.6104 10.4162 24.6082 9.4349 24.5094 8.70008C24.4145 7.99402 24.2471 7.667 24.0246 7.44443C23.802 7.22186 23.475 7.05449 22.7689 6.95956C22.0341 6.86077 21.0528 6.85864 19.6104 6.85864H11.6104C10.1679 6.85864 9.18661 6.86077 8.45179 6.95956Z" />
<path fill-rule="evenodd" clip-rule="evenodd" d="M6.03906 13.7158C6.03906 13.1635 6.48678 12.7158 7.03906 12.7158H24.1819C24.7342 12.7158 25.1819 13.1635 25.1819 13.7158C25.1819 14.2681 24.7342 14.7158 24.1819 14.7158H7.03906C6.48678 14.7158 6.03906 14.2681 6.03906 13.7158Z" />
</symbol><symbol viewBox="0 0 16 18" id="icon-pin">
<path fill-rule="evenodd" clip-rule="evenodd" d="M8 2C4.68629 2 2 4.68629 2 8C2 10.1458 3.09211 11.9159 4.45503 13.2906C5.77773 14.6248 7.27659 15.5032 8 15.8837C8.72341 15.5032 10.2223 14.6248 11.545 13.2906C12.9079 11.9159 14 10.1458 14 8C14 4.68629 11.3137 2 8 2ZM0 8C0 3.58172 3.58172 0 8 0C12.4183 0 16 3.58172 16 8C16 10.8706 14.5326 13.1178 12.9653 14.6987C11.397 16.2805 9.64481 17.2838 8.85847 17.6917C8.31691 17.9726 7.68309 17.9726 7.14153 17.6917C6.35519 17.2838 4.60299 16.2805 3.03474 14.6987C1.46741 13.1178 0 10.8706 0 8ZM8 6C6.89543 6 6 6.89543 6 8C6 9.10457 6.89543 10 8 10C9.10457 10 10 9.10457 10 8C10 6.89543 9.10457 6 8 6ZM4 8C4 5.79086 5.79086 4 8 4C10.2091 4 12 5.79086 12 8C12 10.2091 10.2091 12 8 12C5.79086 12 4 10.2091 4 8Z" />
</symbol><symbol viewBox="0 0 19 19" id="icon-tel">
<path fill-rule="evenodd" clip-rule="evenodd" d="M4.00059 2.41481C2.48458 3.99099 2.32965 6.43954 3.64699 8.196L4.82856 9.77142C6.07935 11.4391 7.56083 12.9206 9.22856 14.1714L10.804 15.353C12.5604 16.6703 15.009 16.5154 16.5852 14.9994L14 12.4142L12.9788 13.4354C12.5122 13.902 11.7993 14.0177 11.209 13.7225C8.64219 12.4391 6.56085 10.3578 5.27742 7.79094C4.98229 7.20067 5.09798 6.48778 5.56462 6.02114L6.58577 4.99999L4.00059 2.41481ZM2.64811 0.937651C3.39473 0.191032 4.60524 0.191029 5.35186 0.937651L7.99999 3.58578C8.78103 4.36682 8.78103 5.63315 7.99999 6.4142L7.22045 7.19373C8.26634 9.13878 9.8612 10.7336 11.8062 11.7795L12.5858 11C13.3668 10.2189 14.6331 10.2189 15.4142 11L18.0623 13.6481C18.8089 14.3947 18.8089 15.6052 18.0623 16.3519C15.7852 18.629 12.1802 18.8852 9.60397 16.953L8.02856 15.7714C6.20922 14.4069 4.59306 12.7908 3.22856 10.9714L2.04699 9.396C0.114802 6.81974 0.371 3.21476 2.64811 0.937651Z" />
</symbol></defs><use id="icon-arrow-back-usage" xlink:href="#icon-arrow-back" class="sprite-symbol-usage" /><use id="icon-arrow-right-usage" xlink:href="#icon-arrow-right" class="sprite-symbol-usage" /><use id="icon-bird-usage" xlink:href="#icon-bird" class="sprite-symbol-usage" /><use id="icon-chevrone-usage" xlink:href="#icon-chevrone" class="sprite-symbol-usage" /><use id="icon-doc-usage" xlink:href="#icon-doc" class="sprite-symbol-usage" /><use id="icon-eye-usage" xlink:href="#icon-eye" class="sprite-symbol-usage" /><use id="icon-eye-close-usage" xlink:href="#icon-eye-close" class="sprite-symbol-usage" /><use id="icon-house-usage" xlink:href="#icon-house" class="sprite-symbol-usage" /><use id="icon-mail-usage" xlink:href="#icon-mail" class="sprite-symbol-usage" /><use id="icon-page-usage" xlink:href="#icon-page" class="sprite-symbol-usage" /><use id="icon-pin-usage" xlink:href="#icon-pin" class="sprite-symbol-usage" /><use id="icon-tel-usage" xlink:href="#icon-tel" class="sprite-symbol-usage" /></svg>